<?xml version="1.0" encoding="utf-8"?>
<svg xmlns="http://www.w3.org/2000/svg" xmlns:xlink="http://www.w3.org/1999/xlink" width="600" height="400" viewBox="0 0 2400 1600">
<defs>
  <clipPath id="clip760">
    <rect x="0" y="0" width="2400" height="1600"/>
  </clipPath>
</defs>
<path clip-path="url(#clip760)" d="
M0 1600 L2400 1600 L2400 0 L0 0  Z
  " fill="#ffffff" fill-rule="evenodd" fill-opacity="1"/>
<defs>
  <clipPath id="clip761">
    <rect x="480" y="0" width="1681" height="1600"/>
  </clipPath>
</defs>
<path clip-path="url(#clip760)" d="
M86.9921 1486.45 L2352.76 1486.45 L2352.76 123.472 L86.9921 123.472  Z
  " fill="#ffffff" fill-rule="evenodd" fill-opacity="1"/>
<defs>
  <clipPath id="clip762">
    <rect x="86" y="123" width="2267" height="1364"/>
  </clipPath>
</defs>
<polyline clip-path="url(#clip762)" style="stroke:#000000; stroke-width:2; stroke-opacity:0.1; fill:none" points="
  350.461,1486.45 350.461,123.472 
  "/>
<polyline clip-path="url(#clip762)" style="stroke:#000000; stroke-width:2; stroke-opacity:0.1; fill:none" points="
  650.843,1486.45 650.843,123.472 
  "/>
<polyline clip-path="url(#clip762)" style="stroke:#000000; stroke-width:2; stroke-opacity:0.1; fill:none" points="
  951.224,1486.45 951.224,123.472 
  "/>
<polyline clip-path="url(#clip762)" style="stroke:#000000; stroke-width:2; stroke-opacity:0.1; fill:none" points="
  1251.6,1486.45 1251.6,123.472 
  "/>
<polyline clip-path="url(#clip762)" style="stroke:#000000; stroke-width:2; stroke-opacity:0.1; fill:none" points="
  1551.99,1486.45 1551.99,123.472 
  "/>
<polyline clip-path="url(#clip762)" style="stroke:#000000; stroke-width:2; stroke-opacity:0.1; fill:none" points="
  1852.37,1486.45 1852.37,123.472 
  "/>
<polyline clip-path="url(#clip762)" style="stroke:#000000; stroke-width:2; stroke-opacity:0.1; fill:none" points="
  2152.75,1486.45 2152.75,123.472 
  "/>
<polyline clip-path="url(#clip760)" style="stroke:#000000; stroke-width:4; stroke-opacity:1; fill:none" points="
  86.9921,1486.45 2352.76,1486.45 
  "/>
<polyline clip-path="url(#clip760)" style="stroke:#000000; stroke-width:4; stroke-opacity:1; fill:none" points="
  350.461,1486.45 350.461,1470.09 
  "/>
<polyline clip-path="url(#clip760)" style="stroke:#000000; stroke-width:4; stroke-opacity:1; fill:none" points="
  650.843,1486.45 650.843,1470.09 
  "/>
<polyline clip-path="url(#clip760)" style="stroke:#000000; stroke-width:4; stroke-opacity:1; fill:none" points="
  951.224,1486.45 951.224,1470.09 
  "/>
<polyline clip-path="url(#clip760)" style="stroke:#000000; stroke-width:4; stroke-opacity:1; fill:none" points="
  1251.6,1486.45 1251.6,1470.09 
  "/>
<polyline clip-path="url(#clip760)" style="stroke:#000000; stroke-width:4; stroke-opacity:1; fill:none" points="
  1551.99,1486.45 1551.99,1470.09 
  "/>
<polyline clip-path="url(#clip760)" style="stroke:#000000; stroke-width:4; stroke-opacity:1; fill:none" points="
  1852.37,1486.45 1852.37,1470.09 
  "/>
<polyline clip-path="url(#clip760)" style="stroke:#000000; stroke-width:4; stroke-opacity:1; fill:none" points="
  2152.75,1486.45 2152.75,1470.09 
  "/>
<path clip-path="url(#clip760)" d="M 0 0 M304.432 1530.29 L334.107 1530.29 L334.107 1534.23 L304.432 1534.23 L304.432 1530.29 Z" fill="#000000" fill-rule="evenodd" fill-opacity="1" /><path clip-path="url(#clip760)" d="M 0 0 M349.177 1515.64 Q345.566 1515.64 343.737 1519.2 Q341.931 1522.75 341.931 1529.87 Q341.931 1536.98 343.737 1540.55 Q345.566 1544.09 349.177 1544.09 Q352.811 1544.09 354.617 1540.55 Q356.445 1536.98 356.445 1529.87 Q356.445 1522.75 354.617 1519.2 Q352.811 1515.64 349.177 1515.64 M349.177 1511.93 Q354.987 1511.93 358.042 1516.54 Q361.121 1521.12 361.121 1529.87 Q361.121 1538.6 358.042 1543.21 Q354.987 1547.79 349.177 1547.79 Q343.367 1547.79 340.288 1543.21 Q337.232 1538.6 337.232 1529.87 Q337.232 1521.12 340.288 1516.54 Q343.367 1511.93 349.177 1511.93 Z" fill="#000000" fill-rule="evenodd" fill-opacity="1" /><path clip-path="url(#clip760)" d="M 0 0 M366.191 1541.24 L371.075 1541.24 L371.075 1547.12 L366.191 1547.12 L366.191 1541.24 Z" fill="#000000" fill-rule="evenodd" fill-opacity="1" /><path clip-path="url(#clip760)" d="M 0 0 M380.172 1543.18 L396.491 1543.18 L396.491 1547.12 L374.547 1547.12 L374.547 1543.18 Q377.209 1540.43 381.792 1535.8 Q386.399 1531.15 387.579 1529.81 Q389.825 1527.28 390.704 1525.55 Q391.607 1523.79 391.607 1522.1 Q391.607 1519.34 389.663 1517.61 Q387.741 1515.87 384.639 1515.87 Q382.44 1515.87 379.987 1516.63 Q377.556 1517.4 374.778 1518.95 L374.778 1514.23 Q377.603 1513.09 380.056 1512.51 Q382.51 1511.93 384.547 1511.93 Q389.917 1511.93 393.112 1514.62 Q396.306 1517.31 396.306 1521.8 Q396.306 1523.93 395.496 1525.85 Q394.709 1527.74 392.602 1530.34 Q392.024 1531.01 388.922 1534.23 Q385.82 1537.42 380.172 1543.18 Z" fill="#000000" fill-rule="evenodd" fill-opacity="1" /><path clip-path="url(#clip760)" d="M 0 0 M632.359 1515.64 Q628.748 1515.64 626.919 1519.2 Q625.113 1522.75 625.113 1529.87 Q625.113 1536.98 626.919 1540.55 Q628.748 1544.09 632.359 1544.09 Q635.993 1544.09 637.799 1540.55 Q639.627 1536.98 639.627 1529.87 Q639.627 1522.75 637.799 1519.2 Q635.993 1515.64 632.359 1515.64 M632.359 1511.93 Q638.169 1511.93 641.225 1516.54 Q644.303 1521.12 644.303 1529.87 Q644.303 1538.6 641.225 1543.21 Q638.169 1547.79 632.359 1547.79 Q626.549 1547.79 623.47 1543.21 Q620.414 1538.6 620.414 1529.87 Q620.414 1521.12 623.47 1516.54 Q626.549 1511.93 632.359 1511.93 Z" fill="#000000" fill-rule="evenodd" fill-opacity="1" /><path clip-path="url(#clip760)" d="M 0 0 M649.373 1541.24 L654.257 1541.24 L654.257 1547.12 L649.373 1547.12 L649.373 1541.24 Z" fill="#000000" fill-rule="evenodd" fill-opacity="1" /><path clip-path="url(#clip760)" d="M 0 0 M669.326 1515.64 Q665.715 1515.64 663.886 1519.2 Q662.081 1522.75 662.081 1529.87 Q662.081 1536.98 663.886 1540.55 Q665.715 1544.09 669.326 1544.09 Q672.96 1544.09 674.766 1540.55 Q676.595 1536.98 676.595 1529.87 Q676.595 1522.75 674.766 1519.2 Q672.96 1515.64 669.326 1515.64 M669.326 1511.93 Q675.136 1511.93 678.192 1516.54 Q681.271 1521.12 681.271 1529.87 Q681.271 1538.6 678.192 1543.21 Q675.136 1547.79 669.326 1547.79 Q663.516 1547.79 660.437 1543.21 Q657.382 1538.6 657.382 1529.87 Q657.382 1521.12 660.437 1516.54 Q663.516 1511.93 669.326 1511.93 Z" fill="#000000" fill-rule="evenodd" fill-opacity="1" /><path clip-path="url(#clip760)" d="M 0 0 M933.539 1515.64 Q929.927 1515.64 928.099 1519.2 Q926.293 1522.75 926.293 1529.87 Q926.293 1536.98 928.099 1540.55 Q929.927 1544.09 933.539 1544.09 Q937.173 1544.09 938.978 1540.55 Q940.807 1536.98 940.807 1529.87 Q940.807 1522.75 938.978 1519.2 Q937.173 1515.64 933.539 1515.64 M933.539 1511.93 Q939.349 1511.93 942.404 1516.54 Q945.483 1521.12 945.483 1529.87 Q945.483 1538.6 942.404 1543.21 Q939.349 1547.79 933.539 1547.79 Q927.728 1547.79 924.65 1543.21 Q921.594 1538.6 921.594 1529.87 Q921.594 1521.12 924.65 1516.54 Q927.728 1511.93 933.539 1511.93 Z" fill="#000000" fill-rule="evenodd" fill-opacity="1" /><path clip-path="url(#clip760)" d="M 0 0 M950.552 1541.24 L955.437 1541.24 L955.437 1547.12 L950.552 1547.12 L950.552 1541.24 Z" fill="#000000" fill-rule="evenodd" fill-opacity="1" /><path clip-path="url(#clip760)" d="M 0 0 M964.534 1543.18 L980.853 1543.18 L980.853 1547.12 L958.909 1547.12 L958.909 1543.18 Q961.571 1540.43 966.154 1535.8 Q970.761 1531.15 971.941 1529.81 Q974.186 1527.28 975.066 1525.55 Q975.969 1523.79 975.969 1522.1 Q975.969 1519.34 974.024 1517.61 Q972.103 1515.87 969.001 1515.87 Q966.802 1515.87 964.349 1516.63 Q961.918 1517.4 959.14 1518.95 L959.14 1514.23 Q961.964 1513.09 964.418 1512.51 Q966.872 1511.93 968.909 1511.93 Q974.279 1511.93 977.473 1514.62 Q980.668 1517.31 980.668 1521.8 Q980.668 1523.93 979.858 1525.85 Q979.071 1527.74 976.964 1530.34 Q976.386 1531.01 973.284 1534.23 Q970.182 1537.42 964.534 1543.18 Z" fill="#000000" fill-rule="evenodd" fill-opacity="1" /><path clip-path="url(#clip760)" d="M 0 0 M1232.88 1515.64 Q1229.27 1515.64 1227.44 1519.2 Q1225.63 1522.75 1225.63 1529.87 Q1225.63 1536.98 1227.44 1540.55 Q1229.27 1544.09 1232.88 1544.09 Q1236.51 1544.09 1238.32 1540.55 Q1240.15 1536.98 1240.15 1529.87 Q1240.15 1522.75 1238.32 1519.2 Q1236.51 1515.64 1232.88 1515.64 M1232.88 1511.93 Q1238.69 1511.93 1241.74 1516.54 Q1244.82 1521.12 1244.82 1529.87 Q1244.82 1538.6 1241.74 1543.21 Q1238.69 1547.79 1232.88 1547.79 Q1227.07 1547.79 1223.99 1543.21 Q1220.93 1538.6 1220.93 1529.87 Q1220.93 1521.12 1223.99 1516.54 Q1227.07 1511.93 1232.88 1511.93 Z" fill="#000000" fill-rule="evenodd" fill-opacity="1" /><path clip-path="url(#clip760)" d="M 0 0 M1249.89 1541.24 L1254.78 1541.24 L1254.78 1547.12 L1249.89 1547.12 L1249.89 1541.24 Z" fill="#000000" fill-rule="evenodd" fill-opacity="1" /><path clip-path="url(#clip760)" d="M 0 0 M1272.69 1516.63 L1260.89 1535.08 L1272.69 1535.08 L1272.69 1516.63 M1271.47 1512.56 L1277.35 1512.56 L1277.35 1535.08 L1282.28 1535.08 L1282.28 1538.97 L1277.35 1538.97 L1277.35 1547.12 L1272.69 1547.12 L1272.69 1538.97 L1257.09 1538.97 L1257.09 1534.46 L1271.47 1512.56 Z" fill="#000000" fill-rule="evenodd" fill-opacity="1" /><path clip-path="url(#clip760)" d="M 0 0 M1533.42 1515.64 Q1529.81 1515.64 1527.98 1519.2 Q1526.18 1522.75 1526.18 1529.87 Q1526.18 1536.98 1527.98 1540.55 Q1529.81 1544.09 1533.42 1544.09 Q1537.06 1544.09 1538.86 1540.55 Q1540.69 1536.98 1540.69 1529.87 Q1540.69 1522.75 1538.86 1519.2 Q1537.06 1515.64 1533.42 1515.64 M1533.42 1511.93 Q1539.23 1511.93 1542.29 1516.54 Q1545.37 1521.12 1545.37 1529.87 Q1545.37 1538.6 1542.29 1543.21 Q1539.23 1547.79 1533.42 1547.79 Q1527.61 1547.79 1524.53 1543.21 Q1521.48 1538.6 1521.48 1529.87 Q1521.48 1521.12 1524.53 1516.54 Q1527.61 1511.93 1533.42 1511.93 Z" fill="#000000" fill-rule="evenodd" fill-opacity="1" /><path clip-path="url(#clip760)" d="M 0 0 M1550.43 1541.24 L1555.32 1541.24 L1555.32 1547.12 L1550.43 1547.12 L1550.43 1541.24 Z" fill="#000000" fill-rule="evenodd" fill-opacity="1" /><path clip-path="url(#clip760)" d="M 0 0 M1570.97 1527.98 Q1567.82 1527.98 1565.97 1530.13 Q1564.14 1532.28 1564.14 1536.03 Q1564.14 1539.76 1565.97 1541.93 Q1567.82 1544.09 1570.97 1544.09 Q1574.12 1544.09 1575.94 1541.93 Q1577.8 1539.76 1577.8 1536.03 Q1577.8 1532.28 1575.94 1530.13 Q1574.12 1527.98 1570.97 1527.98 M1580.25 1513.32 L1580.25 1517.58 Q1578.49 1516.75 1576.68 1516.31 Q1574.9 1515.87 1573.14 1515.87 Q1568.51 1515.87 1566.06 1519 Q1563.63 1522.12 1563.28 1528.44 Q1564.65 1526.43 1566.71 1525.36 Q1568.77 1524.27 1571.24 1524.27 Q1576.45 1524.27 1579.46 1527.44 Q1582.49 1530.59 1582.49 1536.03 Q1582.49 1541.36 1579.35 1544.57 Q1576.2 1547.79 1570.97 1547.79 Q1564.97 1547.79 1561.8 1543.21 Q1558.63 1538.6 1558.63 1529.87 Q1558.63 1521.68 1562.52 1516.82 Q1566.41 1511.93 1572.96 1511.93 Q1574.72 1511.93 1576.5 1512.28 Q1578.31 1512.63 1580.25 1513.32 Z" fill="#000000" fill-rule="evenodd" fill-opacity="1" /><path clip-path="url(#clip760)" d="M 0 0 M1833.93 1515.64 Q1830.32 1515.64 1828.49 1519.2 Q1826.68 1522.75 1826.68 1529.87 Q1826.68 1536.98 1828.49 1540.55 Q1830.32 1544.09 1833.93 1544.09 Q1837.56 1544.09 1839.37 1540.55 Q1841.2 1536.98 1841.2 1529.87 Q1841.2 1522.75 1839.37 1519.2 Q1837.56 1515.64 1833.93 1515.64 M1833.93 1511.93 Q1839.74 1511.93 1842.8 1516.54 Q1845.87 1521.12 1845.87 1529.87 Q1845.87 1538.6 1842.8 1543.21 Q1839.74 1547.79 1833.93 1547.79 Q1828.12 1547.79 1825.04 1543.21 Q1821.99 1538.6 1821.99 1529.87 Q1821.99 1521.12 1825.04 1516.54 Q1828.12 1511.93 1833.93 1511.93 Z" fill="#000000" fill-rule="evenodd" fill-opacity="1" /><path clip-path="url(#clip760)" d="M 0 0 M1850.94 1541.24 L1855.83 1541.24 L1855.83 1547.12 L1850.94 1547.12 L1850.94 1541.24 Z" fill="#000000" fill-rule="evenodd" fill-opacity="1" /><path clip-path="url(#clip760)" d="M 0 0 M1870.9 1530.71 Q1867.56 1530.71 1865.64 1532.49 Q1863.74 1534.27 1863.74 1537.4 Q1863.74 1540.52 1865.64 1542.31 Q1867.56 1544.09 1870.9 1544.09 Q1874.23 1544.09 1876.15 1542.31 Q1878.07 1540.5 1878.07 1537.4 Q1878.07 1534.27 1876.15 1532.49 Q1874.25 1530.71 1870.9 1530.71 M1866.22 1528.72 Q1863.21 1527.98 1861.52 1525.92 Q1859.86 1523.86 1859.86 1520.89 Q1859.86 1516.75 1862.8 1514.34 Q1865.76 1511.93 1870.9 1511.93 Q1876.06 1511.93 1879 1514.34 Q1881.94 1516.75 1881.94 1520.89 Q1881.94 1523.86 1880.25 1525.92 Q1878.58 1527.98 1875.6 1528.72 Q1878.98 1529.5 1880.85 1531.8 Q1882.75 1534.09 1882.75 1537.4 Q1882.75 1542.42 1879.67 1545.11 Q1876.61 1547.79 1870.9 1547.79 Q1865.18 1547.79 1862.1 1545.11 Q1859.05 1542.42 1859.05 1537.4 Q1859.05 1534.09 1860.94 1531.8 Q1862.84 1529.5 1866.22 1528.72 M1864.51 1521.33 Q1864.51 1524.02 1866.17 1525.52 Q1867.86 1527.03 1870.9 1527.03 Q1873.91 1527.03 1875.6 1525.52 Q1877.31 1524.02 1877.31 1521.33 Q1877.31 1518.65 1875.6 1517.14 Q1873.91 1515.64 1870.9 1515.64 Q1867.86 1515.64 1866.17 1517.14 Q1864.51 1518.65 1864.51 1521.33 Z" fill="#000000" fill-rule="evenodd" fill-opacity="1" /><path clip-path="url(#clip760)" d="M 0 0 M2124.65 1543.18 L2132.29 1543.18 L2132.29 1516.82 L2123.97 1518.49 L2123.97 1514.23 L2132.24 1512.56 L2136.91 1512.56 L2136.91 1543.18 L2144.55 1543.18 L2144.55 1547.12 L2124.65 1547.12 L2124.65 1543.18 Z" fill="#000000" fill-rule="evenodd" fill-opacity="1" /><path clip-path="url(#clip760)" d="M 0 0 M2149.62 1541.24 L2154.51 1541.24 L2154.51 1547.12 L2149.62 1547.12 L2149.62 1541.24 Z" fill="#000000" fill-rule="evenodd" fill-opacity="1" /><path clip-path="url(#clip760)" d="M 0 0 M2169.58 1515.64 Q2165.97 1515.64 2164.14 1519.2 Q2162.33 1522.75 2162.33 1529.87 Q2162.33 1536.98 2164.14 1540.55 Q2165.97 1544.09 2169.58 1544.09 Q2173.21 1544.09 2175.02 1540.55 Q2176.85 1536.98 2176.85 1529.87 Q2176.85 1522.75 2175.02 1519.2 Q2173.21 1515.64 2169.58 1515.64 M2169.58 1511.93 Q2175.39 1511.93 2178.44 1516.54 Q2181.52 1521.12 2181.52 1529.87 Q2181.52 1538.6 2178.44 1543.21 Q2175.39 1547.79 2169.58 1547.79 Q2163.77 1547.79 2160.69 1543.21 Q2157.63 1538.6 2157.63 1529.87 Q2157.63 1521.12 2160.69 1516.54 Q2163.77 1511.93 2169.58 1511.93 Z" fill="#000000" fill-rule="evenodd" fill-opacity="1" /><polyline clip-path="url(#clip760)" style="stroke:#000000; stroke-width:4; stroke-opacity:1; fill:none" points="
  86.9921,1486.45 86.9921,123.472 
  "/>
<path clip-path="url(#clip760)" d="M 0 0 M781.769 44.2197 Q784.402 45.1109 786.873 48.0275 Q789.384 50.9442 791.896 56.0483 L800.2 72.576 L791.41 72.576 L783.673 57.061 Q780.675 50.9847 777.839 48.9997 Q775.044 47.0148 770.183 47.0148 L761.271 47.0148 L761.271 72.576 L753.088 72.576 L753.088 12.096 L771.56 12.096 Q781.931 12.096 787.035 16.4305 Q792.139 20.7649 792.139 29.5149 Q792.139 35.2267 789.465 38.994 Q786.832 42.7613 781.769 44.2197 M761.271 18.8205 L761.271 40.2903 L771.56 40.2903 Q777.475 40.2903 780.472 37.5762 Q783.511 34.8216 783.511 29.5149 Q783.511 24.2082 780.472 21.5346 Q777.475 18.8205 771.56 18.8205 L761.271 18.8205 Z" fill="#000000" fill-rule="evenodd" fill-opacity="1" /><path clip-path="url(#clip760)" d="M 0 0 M821.873 32.4315 Q815.877 32.4315 812.394 37.1306 Q808.91 41.7891 808.91 49.9314 Q808.91 58.0738 812.353 62.7728 Q815.837 67.4314 821.873 67.4314 Q827.828 67.4314 831.311 62.7323 Q834.795 58.0333 834.795 49.9314 Q834.795 41.8701 831.311 37.1711 Q827.828 32.4315 821.873 32.4315 M821.873 26.1121 Q831.595 26.1121 837.145 32.4315 Q842.694 38.7509 842.694 49.9314 Q842.694 61.0714 837.145 67.4314 Q831.595 73.7508 821.873 73.7508 Q812.11 73.7508 806.56 67.4314 Q801.051 61.0714 801.051 49.9314 Q801.051 38.7509 806.56 32.4315 Q812.11 26.1121 821.873 26.1121 Z" fill="#000000" fill-rule="evenodd" fill-opacity="1" /><path clip-path="url(#clip760)" d="M 0 0 M883.082 49.9314 Q883.082 41.7081 879.679 37.0496 Q876.317 32.3505 870.403 32.3505 Q864.488 32.3505 861.085 37.0496 Q857.723 41.7081 857.723 49.9314 Q857.723 58.1548 861.085 62.8538 Q864.488 67.5124 870.403 67.5124 Q876.317 67.5124 879.679 62.8538 Q883.082 58.1548 883.082 49.9314 M857.723 34.0924 Q860.073 30.0415 863.637 28.0971 Q867.243 26.1121 872.225 26.1121 Q880.489 26.1121 885.634 32.6746 Q890.819 39.2371 890.819 49.9314 Q890.819 60.6258 885.634 67.1883 Q880.489 73.7508 872.225 73.7508 Q867.243 73.7508 863.637 71.8063 Q860.073 69.8214 857.723 65.7705 L857.723 72.576 L850.229 72.576 L850.229 9.54393 L857.723 9.54393 L857.723 34.0924 Z" fill="#000000" fill-rule="evenodd" fill-opacity="1" /><path clip-path="url(#clip760)" d="M 0 0 M937.445 48.0275 L937.445 51.6733 L903.174 51.6733 Q903.66 59.3701 907.792 63.421 Q911.965 67.4314 919.378 67.4314 Q923.672 67.4314 927.682 66.3781 Q931.733 65.3249 935.703 63.2184 L935.703 70.267 Q931.693 71.9684 927.48 72.8596 Q923.267 73.7508 918.932 73.7508 Q908.076 73.7508 901.716 67.4314 Q895.397 61.1119 895.397 50.3365 Q895.397 39.1965 901.392 32.6746 Q907.428 26.1121 917.636 26.1121 Q926.791 26.1121 932.098 32.0264 Q937.445 37.9003 937.445 48.0275 M929.991 45.84 Q929.91 39.7232 926.548 36.0774 Q923.226 32.4315 917.717 32.4315 Q911.479 32.4315 907.711 35.9558 Q903.985 39.4801 903.417 45.8805 L929.991 45.84 Z" fill="#000000" fill-rule="evenodd" fill-opacity="1" /><path clip-path="url(#clip760)" d="M 0 0 M971.554 34.1734 Q970.298 33.4443 968.799 33.1202 Q967.341 32.7556 965.558 32.7556 Q959.239 32.7556 955.836 36.8875 Q952.474 40.9789 952.474 48.6757 L952.474 72.576 L944.98 72.576 L944.98 27.2059 L952.474 27.2059 L952.474 34.2544 Q954.823 30.1225 958.591 28.1376 Q962.358 26.1121 967.746 26.1121 Q968.515 26.1121 969.447 26.2337 Q970.379 26.3147 971.513 26.5172 L971.554 34.1734 Z" fill="#000000" fill-rule="evenodd" fill-opacity="1" /><path clip-path="url(#clip760)" d="M 0 0 M986.744 14.324 L986.744 27.2059 L1002.1 27.2059 L1002.1 32.9987 L986.744 32.9987 L986.744 57.6282 Q986.744 63.1779 988.243 64.7578 Q989.783 66.3376 994.441 66.3376 L1002.1 66.3376 L1002.1 72.576 L994.441 72.576 Q985.813 72.576 982.532 69.3758 Q979.25 66.1351 979.25 57.6282 L979.25 32.9987 L973.782 32.9987 L973.782 27.2059 L979.25 27.2059 L979.25 14.324 L986.744 14.324 Z" fill="#000000" fill-rule="evenodd" fill-opacity="1" /><path clip-path="url(#clip760)" d="M 0 0 M1038.84 28.5427 L1038.84 35.5912 Q1035.68 33.9709 1032.28 33.1607 Q1028.87 32.3505 1025.23 32.3505 Q1019.68 32.3505 1016.88 34.0519 Q1014.13 35.7533 1014.13 39.156 Q1014.13 41.7486 1016.11 43.2475 Q1018.1 44.7058 1024.09 46.0426 L1026.65 46.6097 Q1034.59 48.3111 1037.91 51.4303 Q1041.27 54.509 1041.27 60.0587 Q1041.27 66.3781 1036.25 70.0644 Q1031.26 73.7508 1022.51 73.7508 Q1018.87 73.7508 1014.9 73.0216 Q1010.97 72.3329 1006.59 70.9151 L1006.59 63.2184 Q1010.73 65.3654 1014.74 66.4591 Q1018.75 67.5124 1022.68 67.5124 Q1027.94 67.5124 1030.78 65.73 Q1033.61 63.9071 1033.61 60.6258 Q1033.61 57.5877 1031.55 55.9673 Q1029.52 54.3469 1022.59 52.8481 L1020 52.2405 Q1013.08 50.7821 1010 47.7845 Q1006.92 44.7463 1006.92 39.4801 Q1006.92 33.0797 1011.45 29.5959 Q1015.99 26.1121 1024.34 26.1121 Q1028.47 26.1121 1032.11 26.7198 Q1035.76 27.3274 1038.84 28.5427 Z" fill="#000000" fill-rule="evenodd" fill-opacity="1" /><path clip-path="url(#clip760)" d="M 0 0 M1104.38 28.5427 L1104.38 35.5912 Q1101.22 33.9709 1097.82 33.1607 Q1094.42 32.3505 1090.77 32.3505 Q1085.22 32.3505 1082.43 34.0519 Q1079.67 35.7533 1079.67 39.156 Q1079.67 41.7486 1081.66 43.2475 Q1083.64 44.7058 1089.64 46.0426 L1092.19 46.6097 Q1100.13 48.3111 1103.45 51.4303 Q1106.81 54.509 1106.81 60.0587 Q1106.81 66.3781 1101.79 70.0644 Q1096.81 73.7508 1088.06 73.7508 Q1084.41 73.7508 1080.44 73.0216 Q1076.51 72.3329 1072.14 70.9151 L1072.14 63.2184 Q1076.27 65.3654 1080.28 66.4591 Q1084.29 67.5124 1088.22 67.5124 Q1093.49 67.5124 1096.32 65.73 Q1099.16 63.9071 1099.16 60.6258 Q1099.16 57.5877 1097.09 55.9673 Q1095.07 54.3469 1088.14 52.8481 L1085.55 52.2405 Q1078.62 50.7821 1075.54 47.7845 Q1072.46 44.7463 1072.46 39.4801 Q1072.46 33.0797 1077 29.5959 Q1081.54 26.1121 1089.88 26.1121 Q1094.01 26.1121 1097.66 26.7198 Q1101.3 27.3274 1104.38 28.5427 Z" fill="#000000" fill-rule="evenodd" fill-opacity="1" /><path clip-path="url(#clip760)" d="M 0 0 M1122 14.324 L1122 27.2059 L1137.36 27.2059 L1137.36 32.9987 L1122 32.9987 L1122 57.6282 Q1122 63.1779 1123.5 64.7578 Q1125.04 66.3376 1129.7 66.3376 L1137.36 66.3376 L1137.36 72.576 L1129.7 72.576 Q1121.07 72.576 1117.79 69.3758 Q1114.51 66.1351 1114.51 57.6282 L1114.51 32.9987 L1109.04 32.9987 L1109.04 27.2059 L1114.51 27.2059 L1114.51 14.324 L1122 14.324 Z" fill="#000000" fill-rule="evenodd" fill-opacity="1" /><path clip-path="url(#clip760)" d="M 0 0 M1171.47 34.1734 Q1170.21 33.4443 1168.71 33.1202 Q1167.25 32.7556 1165.47 32.7556 Q1159.15 32.7556 1155.75 36.8875 Q1152.39 40.9789 1152.39 48.6757 L1152.39 72.576 L1144.89 72.576 L1144.89 27.2059 L1152.39 27.2059 L1152.39 34.2544 Q1154.74 30.1225 1158.5 28.1376 Q1162.27 26.1121 1167.66 26.1121 Q1168.43 26.1121 1169.36 26.2337 Q1170.29 26.3147 1171.43 26.5172 L1171.47 34.1734 Z" fill="#000000" fill-rule="evenodd" fill-opacity="1" /><path clip-path="url(#clip760)" d="M 0 0 M1216.27 48.0275 L1216.27 51.6733 L1182 51.6733 Q1182.48 59.3701 1186.62 63.421 Q1190.79 67.4314 1198.2 67.4314 Q1202.5 67.4314 1206.51 66.3781 Q1210.56 65.3249 1214.53 63.2184 L1214.53 70.267 Q1210.52 71.9684 1206.3 72.8596 Q1202.09 73.7508 1197.76 73.7508 Q1186.9 73.7508 1180.54 67.4314 Q1174.22 61.1119 1174.22 50.3365 Q1174.22 39.1965 1180.22 32.6746 Q1186.25 26.1121 1196.46 26.1121 Q1205.61 26.1121 1210.92 32.0264 Q1216.27 37.9003 1216.27 48.0275 M1208.82 45.84 Q1208.73 39.7232 1205.37 36.0774 Q1202.05 32.4315 1196.54 32.4315 Q1190.3 32.4315 1186.54 35.9558 Q1182.81 39.4801 1182.24 45.8805 L1208.82 45.84 Z" fill="#000000" fill-rule="evenodd" fill-opacity="1" /><path clip-path="url(#clip760)" d="M 0 0 M1231.46 14.324 L1231.46 27.2059 L1246.81 27.2059 L1246.81 32.9987 L1231.46 32.9987 L1231.46 57.6282 Q1231.46 63.1779 1232.96 64.7578 Q1234.5 66.3376 1239.16 66.3376 L1246.81 66.3376 L1246.81 72.576 L1239.16 72.576 Q1230.53 72.576 1227.25 69.3758 Q1223.97 66.1351 1223.97 57.6282 L1223.97 32.9987 L1218.5 32.9987 L1218.5 27.2059 L1223.97 27.2059 L1223.97 14.324 L1231.46 14.324 Z" fill="#000000" fill-rule="evenodd" fill-opacity="1" /><path clip-path="url(#clip760)" d="M 0 0 M1287.28 28.9478 L1287.28 35.9153 Q1284.12 34.1734 1280.92 33.3227 Q1277.76 32.4315 1274.52 32.4315 Q1267.27 32.4315 1263.26 37.0496 Q1259.25 41.6271 1259.25 49.9314 Q1259.25 58.2358 1263.26 62.8538 Q1267.27 67.4314 1274.52 67.4314 Q1277.76 67.4314 1280.92 66.5807 Q1284.12 65.6895 1287.28 63.9476 L1287.28 70.8341 Q1284.16 72.2924 1280.8 73.0216 Q1277.48 73.7508 1273.71 73.7508 Q1263.46 73.7508 1257.43 67.3098 Q1251.39 60.8689 1251.39 49.9314 Q1251.39 38.832 1257.47 32.472 Q1263.58 26.1121 1274.2 26.1121 Q1277.64 26.1121 1280.92 26.8413 Q1284.2 27.5299 1287.28 28.9478 Z" fill="#000000" fill-rule="evenodd" fill-opacity="1" /><path clip-path="url(#clip760)" d="M 0 0 M1332.81 45.1919 L1332.81 72.576 L1325.36 72.576 L1325.36 45.4349 Q1325.36 38.994 1322.85 35.7938 Q1320.34 32.5936 1315.31 32.5936 Q1309.28 32.5936 1305.79 36.4419 Q1302.31 40.2903 1302.31 46.9338 L1302.31 72.576 L1294.82 72.576 L1294.82 9.54393 L1302.31 9.54393 L1302.31 34.2544 Q1304.98 30.163 1308.59 28.1376 Q1312.23 26.1121 1316.97 26.1121 Q1324.79 26.1121 1328.8 30.9732 Q1332.81 35.7938 1332.81 45.1919 Z" fill="#000000" fill-rule="evenodd" fill-opacity="1" /><path clip-path="url(#clip760)" d="M 0 0 M1340.63 27.2059 L1348.09 27.2059 L1348.09 72.576 L1340.63 72.576 L1340.63 27.2059 M1340.63 9.54393 L1348.09 9.54393 L1348.09 18.9825 L1340.63 18.9825 L1340.63 9.54393 Z" fill="#000000" fill-rule="evenodd" fill-opacity="1" /><path clip-path="url(#clip760)" d="M 0 0 M1393.62 45.1919 L1393.62 72.576 L1386.16 72.576 L1386.16 45.4349 Q1386.16 38.994 1383.65 35.7938 Q1381.14 32.5936 1376.12 32.5936 Q1370.08 32.5936 1366.6 36.4419 Q1363.11 40.2903 1363.11 46.9338 L1363.11 72.576 L1355.62 72.576 L1355.62 27.2059 L1363.11 27.2059 L1363.11 34.2544 Q1365.79 30.163 1369.39 28.1376 Q1373.04 26.1121 1377.78 26.1121 Q1385.6 26.1121 1389.61 30.9732 Q1393.62 35.7938 1393.62 45.1919 Z" fill="#000000" fill-rule="evenodd" fill-opacity="1" /><path clip-path="url(#clip760)" d="M 0 0 M1431.29 49.3643 Q1431.29 41.2625 1427.93 36.8065 Q1424.61 32.3505 1418.57 32.3505 Q1412.58 32.3505 1409.21 36.8065 Q1405.89 41.2625 1405.89 49.3643 Q1405.89 57.4256 1409.21 61.8816 Q1412.58 66.3376 1418.57 66.3376 Q1424.61 66.3376 1427.93 61.8816 Q1431.29 57.4256 1431.29 49.3643 M1438.74 66.9452 Q1438.74 78.5308 1433.6 84.1616 Q1428.46 89.8329 1417.84 89.8329 Q1413.91 89.8329 1410.43 89.2252 Q1406.94 88.6581 1403.66 87.4428 L1403.66 80.1917 Q1406.94 81.9741 1410.14 82.8248 Q1413.35 83.6755 1416.67 83.6755 Q1424 83.6755 1427.64 79.8271 Q1431.29 76.0193 1431.29 68.282 L1431.29 64.5957 Q1428.98 68.6061 1425.38 70.5911 Q1421.77 72.576 1416.75 72.576 Q1408.4 72.576 1403.3 66.2161 Q1398.19 59.8562 1398.19 49.3643 Q1398.19 38.832 1403.3 32.472 Q1408.4 26.1121 1416.75 26.1121 Q1421.77 26.1121 1425.38 28.0971 Q1428.98 30.082 1431.29 34.0924 L1431.29 27.2059 L1438.74 27.2059 L1438.74 66.9452 Z" fill="#000000" fill-rule="evenodd" fill-opacity="1" /><path clip-path="url(#clip760)" d="M 0 0 M1490.84 9.62495 Q1485.41 18.942 1482.78 28.0566 Q1480.14 37.1711 1480.14 46.5287 Q1480.14 55.8863 1482.78 65.0818 Q1485.45 74.2369 1490.84 83.5134 L1484.36 83.5134 Q1478.28 73.9938 1475.24 64.7983 Q1472.25 55.6027 1472.25 46.5287 Q1472.25 37.4952 1475.24 28.3401 Q1478.24 19.1851 1484.36 9.62495 L1490.84 9.62495 Z" fill="#000000" fill-rule="evenodd" fill-opacity="1" /><path clip-path="url(#clip760)" d="M 0 0 M1524.95 34.1734 Q1523.69 33.4443 1522.19 33.1202 Q1520.73 32.7556 1518.95 32.7556 Q1512.63 32.7556 1509.23 36.8875 Q1505.87 40.9789 1505.87 48.6757 L1505.87 72.576 L1498.37 72.576 L1498.37 27.2059 L1505.87 27.2059 L1505.87 34.2544 Q1508.22 30.1225 1511.98 28.1376 Q1515.75 26.1121 1521.14 26.1121 Q1521.91 26.1121 1522.84 26.2337 Q1523.77 26.3147 1524.91 26.5172 L1524.95 34.1734 Z" fill="#000000" fill-rule="evenodd" fill-opacity="1" /><path clip-path="url(#clip760)" d="M 0 0 M1532.77 27.2059 L1540.22 27.2059 L1540.22 72.576 L1532.77 72.576 L1532.77 27.2059 M1532.77 9.54393 L1540.22 9.54393 L1540.22 18.9825 L1532.77 18.9825 L1532.77 9.54393 Z" fill="#000000" fill-rule="evenodd" fill-opacity="1" /><path clip-path="url(#clip760)" d="M 0 0 M1577.89 49.3643 Q1577.89 41.2625 1574.53 36.8065 Q1571.21 32.3505 1565.17 32.3505 Q1559.18 32.3505 1555.82 36.8065 Q1552.49 41.2625 1552.49 49.3643 Q1552.49 57.4256 1555.82 61.8816 Q1559.18 66.3376 1565.17 66.3376 Q1571.21 66.3376 1574.53 61.8816 Q1577.89 57.4256 1577.89 49.3643 M1585.35 66.9452 Q1585.35 78.5308 1580.2 84.1616 Q1575.06 89.8329 1564.44 89.8329 Q1560.51 89.8329 1557.03 89.2252 Q1553.55 88.6581 1550.27 87.4428 L1550.27 80.1917 Q1553.55 81.9741 1556.75 82.8248 Q1559.95 83.6755 1563.27 83.6755 Q1570.6 83.6755 1574.25 79.8271 Q1577.89 76.0193 1577.89 68.282 L1577.89 64.5957 Q1575.58 68.6061 1571.98 70.5911 Q1568.37 72.576 1563.35 72.576 Q1555.01 72.576 1549.9 66.2161 Q1544.8 59.8562 1544.8 49.3643 Q1544.8 38.832 1549.9 32.472 Q1555.01 26.1121 1563.35 26.1121 Q1568.37 26.1121 1571.98 28.0971 Q1575.58 30.082 1577.89 34.0924 L1577.89 27.2059 L1585.35 27.2059 L1585.35 66.9452 Z" fill="#000000" fill-rule="evenodd" fill-opacity="1" /><path clip-path="url(#clip760)" d="M 0 0 M1630.88 45.1919 L1630.88 72.576 L1623.43 72.576 L1623.43 45.4349 Q1623.43 38.994 1620.91 35.7938 Q1618.4 32.5936 1613.38 32.5936 Q1607.34 32.5936 1603.86 36.4419 Q1600.38 40.2903 1600.38 46.9338 L1600.38 72.576 L1592.88 72.576 L1592.88 9.54393 L1600.38 9.54393 L1600.38 34.2544 Q1603.05 30.163 1606.65 28.1376 Q1610.3 26.1121 1615.04 26.1121 Q1622.86 26.1121 1626.87 30.9732 Q1630.88 35.7938 1630.88 45.1919 Z" fill="#000000" fill-rule="evenodd" fill-opacity="1" /><path clip-path="url(#clip760)" d="M 0 0 M1646.07 14.324 L1646.07 27.2059 L1661.42 27.2059 L1661.42 32.9987 L1646.07 32.9987 L1646.07 57.6282 Q1646.07 63.1779 1647.57 64.7578 Q1649.11 66.3376 1653.77 66.3376 L1661.42 66.3376 L1661.42 72.576 L1653.77 72.576 Q1645.14 72.576 1641.86 69.3758 Q1638.58 66.1351 1638.58 57.6282 L1638.58 32.9987 L1633.11 32.9987 L1633.11 27.2059 L1638.58 27.2059 L1638.58 14.324 L1646.07 14.324 Z" fill="#000000" fill-rule="evenodd" fill-opacity="1" /><path clip-path="url(#clip760)" d="M 0 0 M1668.07 9.62495 L1674.55 9.62495 Q1680.62 19.1851 1683.62 28.3401 Q1686.66 37.4952 1686.66 46.5287 Q1686.66 55.6027 1683.62 64.7983 Q1680.62 73.9938 1674.55 83.5134 L1668.07 83.5134 Q1673.45 74.2369 1676.09 65.0818 Q1678.76 55.8863 1678.76 46.5287 Q1678.76 37.1711 1676.09 28.0566 Q1673.45 18.942 1668.07 9.62495 Z" fill="#000000" fill-rule="evenodd" fill-opacity="1" /><polyline clip-path="url(#clip762)" style="stroke:#009af9; stroke-width:4; stroke-opacity:1; fill:none" points="
  151.118,1259.29 650.843,1259.29 1150.57,1259.29 1550.85,1259.29 1818.27,1259.29 1975.97,1259.29 2062.2,1259.29 2107.41,1259.29 2130.6,1259.29 2142.35,1259.29 
  2148.28,1259.29 2151.25,1259.29 2152.75,1259.29 2154.24,1259.29 
  "/>
<circle clip-path="url(#clip762)" cx="151.118" cy="1259.29" r="14" fill="#009af9" fill-rule="evenodd" fill-opacity="1" stroke="#000000" stroke-opacity="1" stroke-width="3.2"/>
<circle clip-path="url(#clip762)" cx="650.843" cy="1259.29" r="14" fill="#009af9" fill-rule="evenodd" fill-opacity="1" stroke="#000000" stroke-opacity="1" stroke-width="3.2"/>
<circle clip-path="url(#clip762)" cx="1150.57" cy="1259.29" r="14" fill="#009af9" fill-rule="evenodd" fill-opacity="1" stroke="#000000" stroke-opacity="1" stroke-width="3.2"/>
<circle clip-path="url(#clip762)" cx="1550.85" cy="1259.29" r="14" fill="#009af9" fill-rule="evenodd" fill-opacity="1" stroke="#000000" stroke-opacity="1" stroke-width="3.2"/>
<circle clip-path="url(#clip762)" cx="1818.27" cy="1259.29" r="14" fill="#009af9" fill-rule="evenodd" fill-opacity="1" stroke="#000000" stroke-opacity="1" stroke-width="3.2"/>
<circle clip-path="url(#clip762)" cx="1975.97" cy="1259.29" r="14" fill="#009af9" fill-rule="evenodd" fill-opacity="1" stroke="#000000" stroke-opacity="1" stroke-width="3.2"/>
<circle clip-path="url(#clip762)" cx="2062.2" cy="1259.29" r="14" fill="#009af9" fill-rule="evenodd" fill-opacity="1" stroke="#000000" stroke-opacity="1" stroke-width="3.2"/>
<circle clip-path="url(#clip762)" cx="2107.41" cy="1259.29" r="14" fill="#009af9" fill-rule="evenodd" fill-opacity="1" stroke="#000000" stroke-opacity="1" stroke-width="3.2"/>
<circle clip-path="url(#clip762)" cx="2130.6" cy="1259.29" r="14" fill="#009af9" fill-rule="evenodd" fill-opacity="1" stroke="#000000" stroke-opacity="1" stroke-width="3.2"/>
<circle clip-path="url(#clip762)" cx="2142.35" cy="1259.29" r="14" fill="#009af9" fill-rule="evenodd" fill-opacity="1" stroke="#000000" stroke-opacity="1" stroke-width="3.2"/>
<circle clip-path="url(#clip762)" cx="2148.28" cy="1259.29" r="14" fill="#009af9" fill-rule="evenodd" fill-opacity="1" stroke="#000000" stroke-opacity="1" stroke-width="3.2"/>
<circle clip-path="url(#clip762)" cx="2151.25" cy="1259.29" r="14" fill="#009af9" fill-rule="evenodd" fill-opacity="1" stroke="#000000" stroke-opacity="1" stroke-width="3.2"/>
<circle clip-path="url(#clip762)" cx="2152.75" cy="1259.29" r="14" fill="#009af9" fill-rule="evenodd" fill-opacity="1" stroke="#000000" stroke-opacity="1" stroke-width="3.2"/>
<circle clip-path="url(#clip762)" cx="2154.24" cy="1259.29" r="14" fill="#009af9" fill-rule="evenodd" fill-opacity="1" stroke="#000000" stroke-opacity="1" stroke-width="3.2"/>
<polyline clip-path="url(#clip762)" style="stroke:#e26f46; stroke-width:4; stroke-opacity:1; fill:none" points="
  338.545,1032.12 650.843,1032.12 963.14,1032.12 1250.59,1032.12 1495.67,1032.12 1691.34,1032.12 1839.55,1032.12 1947.38,1032.12 2023.55,1032.12 2076.26,1032.12 
  2112.2,1032.12 2136.47,1032.12 2152.75,1032.12 2169.03,1032.12 
  "/>
<circle clip-path="url(#clip762)" cx="338.545" cy="1032.12" r="14" fill="#e26f46" fill-rule="evenodd" fill-opacity="1" stroke="#000000" stroke-opacity="1" stroke-width="3.2"/>
<circle clip-path="url(#clip762)" cx="650.843" cy="1032.12" r="14" fill="#e26f46" fill-rule="evenodd" fill-opacity="1" stroke="#000000" stroke-opacity="1" stroke-width="3.2"/>
<circle clip-path="url(#clip762)" cx="963.14" cy="1032.12" r="14" fill="#e26f46" fill-rule="evenodd" fill-opacity="1" stroke="#000000" stroke-opacity="1" stroke-width="3.2"/>
<circle clip-path="url(#clip762)" cx="1250.59" cy="1032.12" r="14" fill="#e26f46" fill-rule="evenodd" fill-opacity="1" stroke="#000000" stroke-opacity="1" stroke-width="3.2"/>
<circle clip-path="url(#clip762)" cx="1495.67" cy="1032.12" r="14" fill="#e26f46" fill-rule="evenodd" fill-opacity="1" stroke="#000000" stroke-opacity="1" stroke-width="3.2"/>
<circle clip-path="url(#clip762)" cx="1691.34" cy="1032.12" r="14" fill="#e26f46" fill-rule="evenodd" fill-opacity="1" stroke="#000000" stroke-opacity="1" stroke-width="3.2"/>
<circle clip-path="url(#clip762)" cx="1839.55" cy="1032.12" r="14" fill="#e26f46" fill-rule="evenodd" fill-opacity="1" stroke="#000000" stroke-opacity="1" stroke-width="3.2"/>
<circle clip-path="url(#clip762)" cx="1947.38" cy="1032.12" r="14" fill="#e26f46" fill-rule="evenodd" fill-opacity="1" stroke="#000000" stroke-opacity="1" stroke-width="3.2"/>
<circle clip-path="url(#clip762)" cx="2023.55" cy="1032.12" r="14" fill="#e26f46" fill-rule="evenodd" fill-opacity="1" stroke="#000000" stroke-opacity="1" stroke-width="3.2"/>
<circle clip-path="url(#clip762)" cx="2076.26" cy="1032.12" r="14" fill="#e26f46" fill-rule="evenodd" fill-opacity="1" stroke="#000000" stroke-opacity="1" stroke-width="3.2"/>
<circle clip-path="url(#clip762)" cx="2112.2" cy="1032.12" r="14" fill="#e26f46" fill-rule="evenodd" fill-opacity="1" stroke="#000000" stroke-opacity="1" stroke-width="3.2"/>
<circle clip-path="url(#clip762)" cx="2136.47" cy="1032.12" r="14" fill="#e26f46" fill-rule="evenodd" fill-opacity="1" stroke="#000000" stroke-opacity="1" stroke-width="3.2"/>
<circle clip-path="url(#clip762)" cx="2152.75" cy="1032.12" r="14" fill="#e26f46" fill-rule="evenodd" fill-opacity="1" stroke="#000000" stroke-opacity="1" stroke-width="3.2"/>
<circle clip-path="url(#clip762)" cx="2169.03" cy="1032.12" r="14" fill="#e26f46" fill-rule="evenodd" fill-opacity="1" stroke="#000000" stroke-opacity="1" stroke-width="3.2"/>
<polyline clip-path="url(#clip762)" style="stroke:#3da44d; stroke-width:4; stroke-opacity:1; fill:none" points="
  484.298,804.96 650.843,804.96 817.387,804.96 982.032,804.96 1142.96,804.96 1298.53,804.96 1447.31,804.96 1588.14,804.96 1720.17,804.96 1842.81,804.96 
  1955.79,804.96 2059.04,804.96 2152.75,804.96 2246.45,804.96 
  "/>
<circle clip-path="url(#clip762)" cx="484.298" cy="804.96" r="14" fill="#3da44d" fill-rule="evenodd" fill-opacity="1" stroke="#000000" stroke-opacity="1" stroke-width="3.2"/>
<circle clip-path="url(#clip762)" cx="650.843" cy="804.96" r="14" fill="#3da44d" fill-rule="evenodd" fill-opacity="1" stroke="#000000" stroke-opacity="1" stroke-width="3.2"/>
<circle clip-path="url(#clip762)" cx="817.387" cy="804.96" r="14" fill="#3da44d" fill-rule="evenodd" fill-opacity="1" stroke="#000000" stroke-opacity="1" stroke-width="3.2"/>
<circle clip-path="url(#clip762)" cx="982.032" cy="804.96" r="14" fill="#3da44d" fill-rule="evenodd" fill-opacity="1" stroke="#000000" stroke-opacity="1" stroke-width="3.2"/>
<circle clip-path="url(#clip762)" cx="1142.96" cy="804.96" r="14" fill="#3da44d" fill-rule="evenodd" fill-opacity="1" stroke="#000000" stroke-opacity="1" stroke-width="3.2"/>
<circle clip-path="url(#clip762)" cx="1298.53" cy="804.96" r="14" fill="#3da44d" fill-rule="evenodd" fill-opacity="1" stroke="#000000" stroke-opacity="1" stroke-width="3.2"/>
<circle clip-path="url(#clip762)" cx="1447.31" cy="804.96" r="14" fill="#3da44d" fill-rule="evenodd" fill-opacity="1" stroke="#000000" stroke-opacity="1" stroke-width="3.2"/>
<circle clip-path="url(#clip762)" cx="1588.14" cy="804.96" r="14" fill="#3da44d" fill-rule="evenodd" fill-opacity="1" stroke="#000000" stroke-opacity="1" stroke-width="3.2"/>
<circle clip-path="url(#clip762)" cx="1720.17" cy="804.96" r="14" fill="#3da44d" fill-rule="evenodd" fill-opacity="1" stroke="#000000" stroke-opacity="1" stroke-width="3.2"/>
<circle clip-path="url(#clip762)" cx="1842.81" cy="804.96" r="14" fill="#3da44d" fill-rule="evenodd" fill-opacity="1" stroke="#000000" stroke-opacity="1" stroke-width="3.2"/>
<circle clip-path="url(#clip762)" cx="1955.79" cy="804.96" r="14" fill="#3da44d" fill-rule="evenodd" fill-opacity="1" stroke="#000000" stroke-opacity="1" stroke-width="3.2"/>
<circle clip-path="url(#clip762)" cx="2059.04" cy="804.96" r="14" fill="#3da44d" fill-rule="evenodd" fill-opacity="1" stroke="#000000" stroke-opacity="1" stroke-width="3.2"/>
<circle clip-path="url(#clip762)" cx="2152.75" cy="804.96" r="14" fill="#3da44d" fill-rule="evenodd" fill-opacity="1" stroke="#000000" stroke-opacity="1" stroke-width="3.2"/>
<circle clip-path="url(#clip762)" cx="2246.45" cy="804.96" r="14" fill="#3da44d" fill-rule="evenodd" fill-opacity="1" stroke="#000000" stroke-opacity="1" stroke-width="3.2"/>
<polyline clip-path="url(#clip762)" style="stroke:#c271d2; stroke-width:4; stroke-opacity:1; fill:none" points="
  513.931,577.797 650.843,577.797 787.754,577.797 924.647,577.797 1061.5,577.797 1198.3,577.797 1335.03,577.797 1471.66,577.797 1608.17,577.797 1744.56,577.797 
  1880.8,577.797 2016.87,577.797 2152.75,577.797 2288.63,577.797 
  "/>
<circle clip-path="url(#clip762)" cx="513.931" cy="577.797" r="14" fill="#c271d2" fill-rule="evenodd" fill-opacity="1" stroke="#000000" stroke-opacity="1" stroke-width="3.2"/>
<circle clip-path="url(#clip762)" cx="650.843" cy="577.797" r="14" fill="#c271d2" fill-rule="evenodd" fill-opacity="1" stroke="#000000" stroke-opacity="1" stroke-width="3.2"/>
<circle clip-path="url(#clip762)" cx="787.754" cy="577.797" r="14" fill="#c271d2" fill-rule="evenodd" fill-opacity="1" stroke="#000000" stroke-opacity="1" stroke-width="3.2"/>
<circle clip-path="url(#clip762)" cx="924.647" cy="577.797" r="14" fill="#c271d2" fill-rule="evenodd" fill-opacity="1" stroke="#000000" stroke-opacity="1" stroke-width="3.2"/>
<circle clip-path="url(#clip762)" cx="1061.5" cy="577.797" r="14" fill="#c271d2" fill-rule="evenodd" fill-opacity="1" stroke="#000000" stroke-opacity="1" stroke-width="3.2"/>
<circle clip-path="url(#clip762)" cx="1198.3" cy="577.797" r="14" fill="#c271d2" fill-rule="evenodd" fill-opacity="1" stroke="#000000" stroke-opacity="1" stroke-width="3.2"/>
<circle clip-path="url(#clip762)" cx="1335.03" cy="577.797" r="14" fill="#c271d2" fill-rule="evenodd" fill-opacity="1" stroke="#000000" stroke-opacity="1" stroke-width="3.2"/>
<circle clip-path="url(#clip762)" cx="1471.66" cy="577.797" r="14" fill="#c271d2" fill-rule="evenodd" fill-opacity="1" stroke="#000000" stroke-opacity="1" stroke-width="3.2"/>
<circle clip-path="url(#clip762)" cx="1608.17" cy="577.797" r="14" fill="#c271d2" fill-rule="evenodd" fill-opacity="1" stroke="#000000" stroke-opacity="1" stroke-width="3.2"/>
<circle clip-path="url(#clip762)" cx="1744.56" cy="577.797" r="14" fill="#c271d2" fill-rule="evenodd" fill-opacity="1" stroke="#000000" stroke-opacity="1" stroke-width="3.2"/>
<circle clip-path="url(#clip762)" cx="1880.8" cy="577.797" r="14" fill="#c271d2" fill-rule="evenodd" fill-opacity="1" stroke="#000000" stroke-opacity="1" stroke-width="3.2"/>
<circle clip-path="url(#clip762)" cx="2016.87" cy="577.797" r="14" fill="#c271d2" fill-rule="evenodd" fill-opacity="1" stroke="#000000" stroke-opacity="1" stroke-width="3.2"/>
<circle clip-path="url(#clip762)" cx="2152.75" cy="577.797" r="14" fill="#c271d2" fill-rule="evenodd" fill-opacity="1" stroke="#000000" stroke-opacity="1" stroke-width="3.2"/>
<circle clip-path="url(#clip762)" cx="2288.63" cy="577.797" r="14" fill="#c271d2" fill-rule="evenodd" fill-opacity="1" stroke="#000000" stroke-opacity="1" stroke-width="3.2"/>
<path clip-path="url(#clip760)" d="
M1532.52 471.305 L2277.23 471.305 L2277.23 168.905 L1532.52 168.905  Z
  " fill="#ffffff" fill-rule="evenodd" fill-opacity="1"/>
<polyline clip-path="url(#clip760)" style="stroke:#000000; stroke-width:4; stroke-opacity:1; fill:none" points="
  1532.52,471.305 2277.23,471.305 2277.23,168.905 1532.52,168.905 1532.52,471.305 
  "/>
<polyline clip-path="url(#clip760)" style="stroke:#009af9; stroke-width:4; stroke-opacity:1; fill:none" points="
  1557.69,229.385 1708.74,229.385 
  "/>
<circle clip-path="url(#clip760)" cx="1633.22" cy="229.385" r="23" fill="#009af9" fill-rule="evenodd" fill-opacity="1" stroke="#000000" stroke-opacity="1" stroke-width="5.12"/>
<path clip-path="url(#clip760)" d="M 0 0 M1738.2 245.067 L1738.2 256.526 L1733.92 256.526 L1733.92 220.901 Q1733.92 210.345 1743.78 210.345 Q1753.83 210.345 1753.83 219.257 Q1753.83 225.6 1749.85 227.915 Q1756.33 229.998 1756.33 236.179 Q1756.33 247.151 1745.17 247.151 Q1740.26 247.151 1738.2 245.067 M1738.2 239.512 Q1740.77 243.517 1745.33 243.517 Q1752 243.517 1752 236.248 Q1752 229.72 1741.26 230.23 L1741.26 226.294 Q1749.66 226.294 1749.66 218.887 Q1749.66 213.818 1744.24 213.818 Q1738.2 213.818 1738.2 221.04 L1738.2 239.512 Z" fill="#000000" fill-rule="evenodd" fill-opacity="1" /><path clip-path="url(#clip760)" d="M 0 0 M1761.35 225.137 L1791.03 225.137 L1791.03 229.026 L1761.35 229.026 L1761.35 225.137 M1761.35 234.581 L1791.03 234.581 L1791.03 238.517 L1761.35 238.517 L1761.35 234.581 Z" fill="#000000" fill-rule="evenodd" fill-opacity="1" /><path clip-path="url(#clip760)" d="M 0 0 M1796.91 242.729 L1804.54 242.729 L1804.54 216.364 L1796.23 218.031 L1796.23 213.771 L1804.5 212.105 L1809.17 212.105 L1809.17 242.729 L1816.81 242.729 L1816.81 246.665 L1796.91 246.665 L1796.91 242.729 Z" fill="#000000" fill-rule="evenodd" fill-opacity="1" /><path clip-path="url(#clip760)" d="M 0 0 M1821.88 240.785 L1826.77 240.785 L1826.77 246.665 L1821.88 246.665 L1821.88 240.785 Z" fill="#000000" fill-rule="evenodd" fill-opacity="1" /><path clip-path="url(#clip760)" d="M 0 0 M1841.84 215.183 Q1838.22 215.183 1836.4 218.748 Q1834.59 222.29 1834.59 229.419 Q1834.59 236.526 1836.4 240.091 Q1838.22 243.632 1841.84 243.632 Q1845.47 243.632 1847.28 240.091 Q1849.1 236.526 1849.1 229.419 Q1849.1 222.29 1847.28 218.748 Q1845.47 215.183 1841.84 215.183 M1841.84 211.48 Q1847.65 211.48 1850.7 216.086 Q1853.78 220.669 1853.78 229.419 Q1853.78 238.146 1850.7 242.753 Q1847.65 247.336 1841.84 247.336 Q1836.03 247.336 1832.95 242.753 Q1829.89 238.146 1829.89 229.419 Q1829.89 220.669 1832.95 216.086 Q1836.03 211.48 1841.84 211.48 Z" fill="#000000" fill-rule="evenodd" fill-opacity="1" /><path clip-path="url(#clip760)" d="M 0 0 M1868.85 215.183 Q1865.24 215.183 1863.41 218.748 Q1861.6 222.29 1861.6 229.419 Q1861.6 236.526 1863.41 240.091 Q1865.24 243.632 1868.85 243.632 Q1872.48 243.632 1874.29 240.091 Q1876.12 236.526 1876.12 229.419 Q1876.12 222.29 1874.29 218.748 Q1872.48 215.183 1868.85 215.183 M1868.85 211.48 Q1874.66 211.48 1877.72 216.086 Q1880.79 220.669 1880.79 229.419 Q1880.79 238.146 1877.72 242.753 Q1874.66 247.336 1868.85 247.336 Q1863.04 247.336 1859.96 242.753 Q1856.91 238.146 1856.91 229.419 Q1856.91 220.669 1859.96 216.086 Q1863.04 211.48 1868.85 211.48 Z" fill="#000000" fill-rule="evenodd" fill-opacity="1" /><path clip-path="url(#clip760)" d="M 0 0 M1886.67 242.729 L1894.31 242.729 L1894.31 216.364 L1886 218.031 L1886 213.771 L1894.27 212.105 L1898.94 212.105 L1898.94 242.729 L1906.58 242.729 L1906.58 246.665 L1886.67 246.665 L1886.67 242.729 Z" fill="#000000" fill-rule="evenodd" fill-opacity="1" /><polyline clip-path="url(#clip760)" style="stroke:#e26f46; stroke-width:4; stroke-opacity:1; fill:none" points="
  1557.69,289.865 1708.74,289.865 
  "/>
<circle clip-path="url(#clip760)" cx="1633.22" cy="289.865" r="23" fill="#e26f46" fill-rule="evenodd" fill-opacity="1" stroke="#000000" stroke-opacity="1" stroke-width="5.12"/>
<path clip-path="url(#clip760)" d="M 0 0 M1738.2 305.547 L1738.2 317.006 L1733.92 317.006 L1733.92 281.381 Q1733.92 270.825 1743.78 270.825 Q1753.83 270.825 1753.83 279.737 Q1753.83 286.08 1749.85 288.395 Q1756.33 290.478 1756.33 296.659 Q1756.33 307.631 1745.17 307.631 Q1740.26 307.631 1738.2 305.547 M1738.2 299.992 Q1740.77 303.997 1745.33 303.997 Q1752 303.997 1752 296.728 Q1752 290.2 1741.26 290.71 L1741.26 286.774 Q1749.66 286.774 1749.66 279.367 Q1749.66 274.298 1744.24 274.298 Q1738.2 274.298 1738.2 281.52 L1738.2 299.992 Z" fill="#000000" fill-rule="evenodd" fill-opacity="1" /><path clip-path="url(#clip760)" d="M 0 0 M1761.35 285.617 L1791.03 285.617 L1791.03 289.506 L1761.35 289.506 L1761.35 285.617 M1761.35 295.061 L1791.03 295.061 L1791.03 298.997 L1761.35 298.997 L1761.35 295.061 Z" fill="#000000" fill-rule="evenodd" fill-opacity="1" /><path clip-path="url(#clip760)" d="M 0 0 M1796.91 303.209 L1804.54 303.209 L1804.54 276.844 L1796.23 278.511 L1796.23 274.251 L1804.5 272.585 L1809.17 272.585 L1809.17 303.209 L1816.81 303.209 L1816.81 307.145 L1796.91 307.145 L1796.91 303.209 Z" fill="#000000" fill-rule="evenodd" fill-opacity="1" /><path clip-path="url(#clip760)" d="M 0 0 M1821.88 301.265 L1826.77 301.265 L1826.77 307.145 L1821.88 307.145 L1821.88 301.265 Z" fill="#000000" fill-rule="evenodd" fill-opacity="1" /><path clip-path="url(#clip760)" d="M 0 0 M1841.84 275.663 Q1838.22 275.663 1836.4 279.228 Q1834.59 282.77 1834.59 289.899 Q1834.59 297.006 1836.4 300.571 Q1838.22 304.112 1841.84 304.112 Q1845.47 304.112 1847.28 300.571 Q1849.1 297.006 1849.1 289.899 Q1849.1 282.77 1847.28 279.228 Q1845.47 275.663 1841.84 275.663 M1841.84 271.96 Q1847.65 271.96 1850.7 276.566 Q1853.78 281.149 1853.78 289.899 Q1853.78 298.626 1850.7 303.233 Q1847.65 307.816 1841.84 307.816 Q1836.03 307.816 1832.95 303.233 Q1829.89 298.626 1829.89 289.899 Q1829.89 281.149 1832.95 276.566 Q1836.03 271.96 1841.84 271.96 Z" fill="#000000" fill-rule="evenodd" fill-opacity="1" /><path clip-path="url(#clip760)" d="M 0 0 M1862.88 303.209 L1879.2 303.209 L1879.2 307.145 L1857.25 307.145 L1857.25 303.209 Q1859.91 300.455 1864.5 295.825 Q1869.1 291.173 1870.28 289.83 Q1872.53 287.307 1873.41 285.571 Q1874.31 283.811 1874.31 282.122 Q1874.31 279.367 1872.37 277.631 Q1870.45 275.895 1867.35 275.895 Q1865.15 275.895 1862.69 276.659 Q1860.26 277.423 1857.48 278.974 L1857.48 274.251 Q1860.31 273.117 1862.76 272.538 Q1865.22 271.96 1867.25 271.96 Q1872.62 271.96 1875.82 274.645 Q1879.01 277.33 1879.01 281.821 Q1879.01 283.95 1878.2 285.872 Q1877.41 287.77 1875.31 290.362 Q1874.73 291.034 1871.63 294.251 Q1868.53 297.446 1862.88 303.209 Z" fill="#000000" fill-rule="evenodd" fill-opacity="1" /><path clip-path="url(#clip760)" d="M 0 0 M1885.08 303.209 L1892.72 303.209 L1892.72 276.844 L1884.41 278.511 L1884.41 274.251 L1892.67 272.585 L1897.34 272.585 L1897.34 303.209 L1904.98 303.209 L1904.98 307.145 L1885.08 307.145 L1885.08 303.209 Z" fill="#000000" fill-rule="evenodd" fill-opacity="1" /><path clip-path="url(#clip760)" d="M 0 0 M1910.1 272.585 L1928.46 272.585 L1928.46 276.52 L1914.38 276.52 L1914.38 284.992 Q1915.4 284.645 1916.42 284.483 Q1917.44 284.298 1918.46 284.298 Q1924.24 284.298 1927.62 287.469 Q1931 290.64 1931 296.057 Q1931 301.635 1927.53 304.737 Q1924.06 307.816 1917.74 307.816 Q1915.56 307.816 1913.29 307.446 Q1911.05 307.075 1908.64 306.334 L1908.64 301.635 Q1910.72 302.77 1912.95 303.325 Q1915.17 303.881 1917.65 303.881 Q1921.65 303.881 1923.99 301.774 Q1926.33 299.668 1926.33 296.057 Q1926.33 292.446 1923.99 290.339 Q1921.65 288.233 1917.65 288.233 Q1915.77 288.233 1913.9 288.649 Q1912.04 289.066 1910.1 289.946 L1910.1 272.585 Z" fill="#000000" fill-rule="evenodd" fill-opacity="1" /><path clip-path="url(#clip760)" d="M 0 0 M1948.92 276.659 L1937.11 295.108 L1948.92 295.108 L1948.92 276.659 M1947.69 272.585 L1953.57 272.585 L1953.57 295.108 L1958.5 295.108 L1958.5 298.997 L1953.57 298.997 L1953.57 307.145 L1948.92 307.145 L1948.92 298.997 L1933.32 298.997 L1933.32 294.483 L1947.69 272.585 Z" fill="#000000" fill-rule="evenodd" fill-opacity="1" /><path clip-path="url(#clip760)" d="M 0 0 M1976.42 276.659 L1964.61 295.108 L1976.42 295.108 L1976.42 276.659 M1975.19 272.585 L1981.07 272.585 L1981.07 295.108 L1986 295.108 L1986 298.997 L1981.07 298.997 L1981.07 307.145 L1976.42 307.145 L1976.42 298.997 L1960.82 298.997 L1960.82 294.483 L1975.19 272.585 Z" fill="#000000" fill-rule="evenodd" fill-opacity="1" /><path clip-path="url(#clip760)" d="M 0 0 M2005.24 288.51 Q2008.59 289.228 2010.47 291.497 Q2012.37 293.765 2012.37 297.098 Q2012.37 302.214 2008.85 305.015 Q2005.33 307.816 1998.85 307.816 Q1996.67 307.816 1994.36 307.376 Q1992.07 306.959 1989.61 306.103 L1989.61 301.589 Q1991.56 302.723 1993.87 303.302 Q1996.19 303.881 1998.71 303.881 Q2003.11 303.881 2005.4 302.145 Q2007.71 300.409 2007.71 297.098 Q2007.71 294.043 2005.56 292.33 Q2003.43 290.594 1999.61 290.594 L1995.59 290.594 L1995.59 286.751 L1999.8 286.751 Q2003.25 286.751 2005.08 285.386 Q2006.9 283.997 2006.9 281.404 Q2006.9 278.742 2005.01 277.33 Q2003.13 275.895 1999.61 275.895 Q1997.69 275.895 1995.49 276.311 Q1993.29 276.728 1990.65 277.608 L1990.65 273.441 Q1993.32 272.7 1995.63 272.33 Q1997.97 271.96 2000.03 271.96 Q2005.35 271.96 2008.46 274.39 Q2011.56 276.798 2011.56 280.918 Q2011.56 283.788 2009.91 285.779 Q2008.27 287.747 2005.24 288.51 Z" fill="#000000" fill-rule="evenodd" fill-opacity="1" /><path clip-path="url(#clip760)" d="M 0 0 M2030.28 276.659 L2018.48 295.108 L2030.28 295.108 L2030.28 276.659 M2029.06 272.585 L2034.94 272.585 L2034.94 295.108 L2039.87 295.108 L2039.87 298.997 L2034.94 298.997 L2034.94 307.145 L2030.28 307.145 L2030.28 298.997 L2014.68 298.997 L2014.68 294.483 L2029.06 272.585 Z" fill="#000000" fill-rule="evenodd" fill-opacity="1" /><path clip-path="url(#clip760)" d="M 0 0 M2055.52 288.001 Q2052.37 288.001 2050.52 290.154 Q2048.69 292.307 2048.69 296.057 Q2048.69 299.784 2050.52 301.959 Q2052.37 304.112 2055.52 304.112 Q2058.66 304.112 2060.49 301.959 Q2062.34 299.784 2062.34 296.057 Q2062.34 292.307 2060.49 290.154 Q2058.66 288.001 2055.52 288.001 M2064.8 273.349 L2064.8 277.608 Q2063.04 276.774 2061.23 276.335 Q2059.45 275.895 2057.69 275.895 Q2053.06 275.895 2050.61 279.02 Q2048.18 282.145 2047.83 288.464 Q2049.2 286.45 2051.26 285.386 Q2053.32 284.298 2055.79 284.298 Q2061 284.298 2064.01 287.469 Q2067.04 290.617 2067.04 296.057 Q2067.04 301.381 2063.89 304.598 Q2060.75 307.816 2055.52 307.816 Q2049.52 307.816 2046.35 303.233 Q2043.18 298.626 2043.18 289.899 Q2043.18 281.705 2047.07 276.844 Q2050.96 271.96 2057.51 271.96 Q2059.27 271.96 2061.05 272.307 Q2062.85 272.654 2064.8 273.349 Z" fill="#000000" fill-rule="evenodd" fill-opacity="1" /><path clip-path="url(#clip760)" d="M 0 0 M2072.25 306.427 L2072.25 302.168 Q2074.01 303.001 2075.82 303.441 Q2077.62 303.881 2079.36 303.881 Q2083.99 303.881 2086.42 300.779 Q2088.87 297.654 2089.22 291.311 Q2087.88 293.302 2085.82 294.367 Q2083.76 295.432 2081.26 295.432 Q2076.07 295.432 2073.04 292.307 Q2070.03 289.159 2070.03 283.719 Q2070.03 278.395 2073.18 275.177 Q2076.33 271.96 2081.56 271.96 Q2087.55 271.96 2090.7 276.566 Q2093.87 281.149 2093.87 289.899 Q2093.87 298.071 2089.98 302.955 Q2086.12 307.816 2079.57 307.816 Q2077.81 307.816 2076 307.469 Q2074.2 307.122 2072.25 306.427 M2081.56 291.774 Q2084.7 291.774 2086.53 289.622 Q2088.39 287.469 2088.39 283.719 Q2088.39 279.992 2086.53 277.839 Q2084.7 275.663 2081.56 275.663 Q2078.41 275.663 2076.56 277.839 Q2074.73 279.992 2074.73 283.719 Q2074.73 287.469 2076.56 289.622 Q2078.41 291.774 2081.56 291.774 Z" fill="#000000" fill-rule="evenodd" fill-opacity="1" /><path clip-path="url(#clip760)" d="M 0 0 M2108.94 275.663 Q2105.33 275.663 2103.5 279.228 Q2101.7 282.77 2101.7 289.899 Q2101.7 297.006 2103.5 300.571 Q2105.33 304.112 2108.94 304.112 Q2112.58 304.112 2114.38 300.571 Q2116.21 297.006 2116.21 289.899 Q2116.21 282.77 2114.38 279.228 Q2112.58 275.663 2108.94 275.663 M2108.94 271.96 Q2114.75 271.96 2117.81 276.566 Q2120.89 281.149 2120.89 289.899 Q2120.89 298.626 2117.81 303.233 Q2114.75 307.816 2108.94 307.816 Q2103.13 307.816 2100.05 303.233 Q2097 298.626 2097 289.899 Q2097 281.149 2100.05 276.566 Q2103.13 271.96 2108.94 271.96 Z" fill="#000000" fill-rule="evenodd" fill-opacity="1" /><path clip-path="url(#clip760)" d="M 0 0 M2135.95 275.663 Q2132.34 275.663 2130.51 279.228 Q2128.71 282.77 2128.71 289.899 Q2128.71 297.006 2130.51 300.571 Q2132.34 304.112 2135.95 304.112 Q2139.59 304.112 2141.39 300.571 Q2143.22 297.006 2143.22 289.899 Q2143.22 282.77 2141.39 279.228 Q2139.59 275.663 2135.95 275.663 M2135.95 271.96 Q2141.76 271.96 2144.82 276.566 Q2147.9 281.149 2147.9 289.899 Q2147.9 298.626 2144.82 303.233 Q2141.76 307.816 2135.95 307.816 Q2130.14 307.816 2127.07 303.233 Q2124.01 298.626 2124.01 289.899 Q2124.01 281.149 2127.07 276.566 Q2130.14 271.96 2135.95 271.96 Z" fill="#000000" fill-rule="evenodd" fill-opacity="1" /><path clip-path="url(#clip760)" d="M 0 0 M2167.14 288.51 Q2170.49 289.228 2172.37 291.497 Q2174.26 293.765 2174.26 297.098 Q2174.26 302.214 2170.75 305.015 Q2167.23 307.816 2160.75 307.816 Q2158.57 307.816 2156.26 307.376 Q2153.96 306.959 2151.51 306.103 L2151.51 301.589 Q2153.45 302.723 2155.77 303.302 Q2158.08 303.881 2160.61 303.881 Q2165.01 303.881 2167.3 302.145 Q2169.61 300.409 2169.61 297.098 Q2169.61 294.043 2167.46 292.33 Q2165.33 290.594 2161.51 290.594 L2157.48 290.594 L2157.48 286.751 L2161.7 286.751 Q2165.14 286.751 2166.97 285.386 Q2168.8 283.997 2168.8 281.404 Q2168.8 278.742 2166.9 277.33 Q2165.03 275.895 2161.51 275.895 Q2159.59 275.895 2157.39 276.311 Q2155.19 276.728 2152.55 277.608 L2152.55 273.441 Q2155.21 272.7 2157.53 272.33 Q2159.87 271.96 2161.93 271.96 Q2167.25 271.96 2170.35 274.39 Q2173.45 276.798 2173.45 280.918 Q2173.45 283.788 2171.81 285.779 Q2170.17 287.747 2167.14 288.51 Z" fill="#000000" fill-rule="evenodd" fill-opacity="1" /><path clip-path="url(#clip760)" d="M 0 0 M2180.14 303.209 L2187.78 303.209 L2187.78 276.844 L2179.47 278.511 L2179.47 274.251 L2187.74 272.585 L2192.41 272.585 L2192.41 303.209 L2200.05 303.209 L2200.05 307.145 L2180.14 307.145 L2180.14 303.209 Z" fill="#000000" fill-rule="evenodd" fill-opacity="1" /><path clip-path="url(#clip760)" d="M 0 0 M2205.26 306.427 L2205.26 302.168 Q2207.02 303.001 2208.82 303.441 Q2210.63 303.881 2212.37 303.881 Q2217 303.881 2219.43 300.779 Q2221.88 297.654 2222.23 291.311 Q2220.88 293.302 2218.82 294.367 Q2216.76 295.432 2214.26 295.432 Q2209.08 295.432 2206.05 292.307 Q2203.04 289.159 2203.04 283.719 Q2203.04 278.395 2206.19 275.177 Q2209.33 271.96 2214.57 271.96 Q2220.56 271.96 2223.71 276.566 Q2226.88 281.149 2226.88 289.899 Q2226.88 298.071 2222.99 302.955 Q2219.13 307.816 2212.57 307.816 Q2210.82 307.816 2209.01 307.469 Q2207.2 307.122 2205.26 306.427 M2214.57 291.774 Q2217.71 291.774 2219.54 289.622 Q2221.39 287.469 2221.39 283.719 Q2221.39 279.992 2219.54 277.839 Q2217.71 275.663 2214.57 275.663 Q2211.42 275.663 2209.57 277.839 Q2207.74 279.992 2207.74 283.719 Q2207.74 287.469 2209.57 289.622 Q2211.42 291.774 2214.57 291.774 Z" fill="#000000" fill-rule="evenodd" fill-opacity="1" /><polyline clip-path="url(#clip760)" style="stroke:#3da44d; stroke-width:4; stroke-opacity:1; fill:none" points="
  1557.69,350.345 1708.74,350.345 
  "/>
<circle clip-path="url(#clip760)" cx="1633.22" cy="350.345" r="23" fill="#3da44d" fill-rule="evenodd" fill-opacity="1" stroke="#000000" stroke-opacity="1" stroke-width="5.12"/>
<path clip-path="url(#clip760)" d="M 0 0 M1738.2 366.027 L1738.2 377.486 L1733.92 377.486 L1733.92 341.861 Q1733.92 331.305 1743.78 331.305 Q1753.83 331.305 1753.83 340.217 Q1753.83 346.56 1749.85 348.875 Q1756.33 350.958 1756.33 357.139 Q1756.33 368.111 1745.17 368.111 Q1740.26 368.111 1738.2 366.027 M1738.2 360.472 Q1740.77 364.477 1745.33 364.477 Q1752 364.477 1752 357.208 Q1752 350.68 1741.26 351.19 L1741.26 347.254 Q1749.66 347.254 1749.66 339.847 Q1749.66 334.778 1744.24 334.778 Q1738.2 334.778 1738.2 342 L1738.2 360.472 Z" fill="#000000" fill-rule="evenodd" fill-opacity="1" /><path clip-path="url(#clip760)" d="M 0 0 M1761.35 346.097 L1791.03 346.097 L1791.03 349.986 L1761.35 349.986 L1761.35 346.097 M1761.35 355.541 L1791.03 355.541 L1791.03 359.477 L1761.35 359.477 L1761.35 355.541 Z" fill="#000000" fill-rule="evenodd" fill-opacity="1" /><path clip-path="url(#clip760)" d="M 0 0 M1796.91 363.689 L1804.54 363.689 L1804.54 337.324 L1796.23 338.991 L1796.23 334.731 L1804.5 333.065 L1809.17 333.065 L1809.17 363.689 L1816.81 363.689 L1816.81 367.625 L1796.91 367.625 L1796.91 363.689 Z" fill="#000000" fill-rule="evenodd" fill-opacity="1" /><path clip-path="url(#clip760)" d="M 0 0 M1821.88 361.745 L1826.77 361.745 L1826.77 367.625 L1821.88 367.625 L1821.88 361.745 Z" fill="#000000" fill-rule="evenodd" fill-opacity="1" /><path clip-path="url(#clip760)" d="M 0 0 M1844.68 337.139 L1832.88 355.588 L1844.68 355.588 L1844.68 337.139 M1843.46 333.065 L1849.34 333.065 L1849.34 355.588 L1854.27 355.588 L1854.27 359.477 L1849.34 359.477 L1849.34 367.625 L1844.68 367.625 L1844.68 359.477 L1829.08 359.477 L1829.08 354.963 L1843.46 333.065 Z" fill="#000000" fill-rule="evenodd" fill-opacity="1" /><path clip-path="url(#clip760)" d="M 0 0 M1869.91 348.481 Q1866.77 348.481 1864.91 350.634 Q1863.09 352.787 1863.09 356.537 Q1863.09 360.264 1864.91 362.439 Q1866.77 364.592 1869.91 364.592 Q1873.06 364.592 1874.89 362.439 Q1876.74 360.264 1876.74 356.537 Q1876.74 352.787 1874.89 350.634 Q1873.06 348.481 1869.91 348.481 M1879.2 333.829 L1879.2 338.088 Q1877.44 337.254 1875.63 336.815 Q1873.85 336.375 1872.09 336.375 Q1867.46 336.375 1865.01 339.5 Q1862.58 342.625 1862.23 348.944 Q1863.6 346.93 1865.66 345.866 Q1867.72 344.778 1870.19 344.778 Q1875.4 344.778 1878.41 347.949 Q1881.44 351.097 1881.44 356.537 Q1881.44 361.861 1878.29 365.078 Q1875.15 368.296 1869.91 368.296 Q1863.92 368.296 1860.75 363.713 Q1857.58 359.106 1857.58 350.379 Q1857.58 342.185 1861.47 337.324 Q1865.35 332.44 1871.91 332.44 Q1873.66 332.44 1875.45 332.787 Q1877.25 333.134 1879.2 333.829 Z" fill="#000000" fill-rule="evenodd" fill-opacity="1" /><path clip-path="url(#clip760)" d="M 0 0 M1899.36 337.139 L1887.55 355.588 L1899.36 355.588 L1899.36 337.139 M1898.13 333.065 L1904.01 333.065 L1904.01 355.588 L1908.94 355.588 L1908.94 359.477 L1904.01 359.477 L1904.01 367.625 L1899.36 367.625 L1899.36 359.477 L1883.76 359.477 L1883.76 354.963 L1898.13 333.065 Z" fill="#000000" fill-rule="evenodd" fill-opacity="1" /><path clip-path="url(#clip760)" d="M 0 0 M1914.82 363.689 L1922.46 363.689 L1922.46 337.324 L1914.15 338.991 L1914.15 334.731 L1922.41 333.065 L1927.09 333.065 L1927.09 363.689 L1934.73 363.689 L1934.73 367.625 L1914.82 367.625 L1914.82 363.689 Z" fill="#000000" fill-rule="evenodd" fill-opacity="1" /><path clip-path="url(#clip760)" d="M 0 0 M1939.84 333.065 L1958.2 333.065 L1958.2 337 L1944.13 337 L1944.13 345.472 Q1945.15 345.125 1946.16 344.963 Q1947.18 344.778 1948.2 344.778 Q1953.99 344.778 1957.37 347.949 Q1960.75 351.12 1960.75 356.537 Q1960.75 362.115 1957.28 365.217 Q1953.8 368.296 1947.48 368.296 Q1945.31 368.296 1943.04 367.926 Q1940.79 367.555 1938.39 366.814 L1938.39 362.115 Q1940.47 363.25 1942.69 363.805 Q1944.91 364.361 1947.39 364.361 Q1951.4 364.361 1953.73 362.254 Q1956.07 360.148 1956.07 356.537 Q1956.07 352.926 1953.73 350.819 Q1951.4 348.713 1947.39 348.713 Q1945.52 348.713 1943.64 349.129 Q1941.79 349.546 1939.84 350.426 L1939.84 333.065 Z" fill="#000000" fill-rule="evenodd" fill-opacity="1" /><path clip-path="url(#clip760)" d="M 0 0 M1975.82 351.213 Q1972.48 351.213 1970.56 352.995 Q1968.66 354.777 1968.66 357.902 Q1968.66 361.027 1970.56 362.81 Q1972.48 364.592 1975.82 364.592 Q1979.15 364.592 1981.07 362.81 Q1982.99 361.004 1982.99 357.902 Q1982.99 354.777 1981.07 352.995 Q1979.17 351.213 1975.82 351.213 M1971.14 349.222 Q1968.13 348.481 1966.44 346.421 Q1964.78 344.361 1964.78 341.398 Q1964.78 337.254 1967.71 334.847 Q1970.68 332.44 1975.82 332.44 Q1980.98 332.44 1983.92 334.847 Q1986.86 337.254 1986.86 341.398 Q1986.86 344.361 1985.17 346.421 Q1983.5 348.481 1980.52 349.222 Q1983.9 350.009 1985.77 352.301 Q1987.67 354.592 1987.67 357.902 Q1987.67 362.926 1984.59 365.611 Q1981.53 368.296 1975.82 368.296 Q1970.1 368.296 1967.02 365.611 Q1963.96 362.926 1963.96 357.902 Q1963.96 354.592 1965.86 352.301 Q1967.76 350.009 1971.14 349.222 M1969.43 341.838 Q1969.43 344.523 1971.09 346.028 Q1972.78 347.532 1975.82 347.532 Q1978.83 347.532 1980.52 346.028 Q1982.23 344.523 1982.23 341.838 Q1982.23 339.153 1980.52 337.648 Q1978.83 336.143 1975.82 336.143 Q1972.78 336.143 1971.09 337.648 Q1969.43 339.153 1969.43 341.838 Z" fill="#000000" fill-rule="evenodd" fill-opacity="1" /><path clip-path="url(#clip760)" d="M 0 0 M2002.74 351.213 Q1999.4 351.213 1997.48 352.995 Q1995.59 354.777 1995.59 357.902 Q1995.59 361.027 1997.48 362.81 Q1999.4 364.592 2002.74 364.592 Q2006.07 364.592 2007.99 362.81 Q2009.91 361.004 2009.91 357.902 Q2009.91 354.777 2007.99 352.995 Q2006.09 351.213 2002.74 351.213 M1998.06 349.222 Q1995.05 348.481 1993.36 346.421 Q1991.7 344.361 1991.7 341.398 Q1991.7 337.254 1994.64 334.847 Q1997.6 332.44 2002.74 332.44 Q2007.9 332.44 2010.84 334.847 Q2013.78 337.254 2013.78 341.398 Q2013.78 344.361 2012.09 346.421 Q2010.42 348.481 2007.44 349.222 Q2010.82 350.009 2012.69 352.301 Q2014.59 354.592 2014.59 357.902 Q2014.59 362.926 2011.51 365.611 Q2008.46 368.296 2002.74 368.296 Q1997.02 368.296 1993.94 365.611 Q1990.89 362.926 1990.89 357.902 Q1990.89 354.592 1992.78 352.301 Q1994.68 350.009 1998.06 349.222 M1996.35 341.838 Q1996.35 344.523 1998.02 346.028 Q1999.71 347.532 2002.74 347.532 Q2005.75 347.532 2007.44 346.028 Q2009.15 344.523 2009.15 341.838 Q2009.15 339.153 2007.44 337.648 Q2005.75 336.143 2002.74 336.143 Q1999.71 336.143 1998.02 337.648 Q1996.35 339.153 1996.35 341.838 Z" fill="#000000" fill-rule="evenodd" fill-opacity="1" /><path clip-path="url(#clip760)" d="M 0 0 M2029.66 351.213 Q2026.33 351.213 2024.4 352.995 Q2022.51 354.777 2022.51 357.902 Q2022.51 361.027 2024.4 362.81 Q2026.33 364.592 2029.66 364.592 Q2032.99 364.592 2034.91 362.81 Q2036.83 361.004 2036.83 357.902 Q2036.83 354.777 2034.91 352.995 Q2033.02 351.213 2029.66 351.213 M2024.98 349.222 Q2021.97 348.481 2020.28 346.421 Q2018.62 344.361 2018.62 341.398 Q2018.62 337.254 2021.56 334.847 Q2024.52 332.44 2029.66 332.44 Q2034.82 332.44 2037.76 334.847 Q2040.7 337.254 2040.7 341.398 Q2040.7 344.361 2039.01 346.421 Q2037.34 348.481 2034.36 349.222 Q2037.74 350.009 2039.61 352.301 Q2041.51 354.592 2041.51 357.902 Q2041.51 362.926 2038.43 365.611 Q2035.38 368.296 2029.66 368.296 Q2023.94 368.296 2020.86 365.611 Q2017.81 362.926 2017.81 357.902 Q2017.81 354.592 2019.71 352.301 Q2021.6 350.009 2024.98 349.222 M2023.27 341.838 Q2023.27 344.523 2024.94 346.028 Q2026.63 347.532 2029.66 347.532 Q2032.67 347.532 2034.36 346.028 Q2036.07 344.523 2036.07 341.838 Q2036.07 339.153 2034.36 337.648 Q2032.67 336.143 2029.66 336.143 Q2026.63 336.143 2024.94 337.648 Q2023.27 339.153 2023.27 341.838 Z" fill="#000000" fill-rule="evenodd" fill-opacity="1" /><path clip-path="url(#clip760)" d="M 0 0 M2060.75 348.99 Q2064.1 349.708 2065.98 351.977 Q2067.88 354.245 2067.88 357.578 Q2067.88 362.694 2064.36 365.495 Q2060.84 368.296 2054.36 368.296 Q2052.18 368.296 2049.87 367.856 Q2047.58 367.439 2045.12 366.583 L2045.12 362.069 Q2047.07 363.203 2049.38 363.782 Q2051.7 364.361 2054.22 364.361 Q2058.62 364.361 2060.91 362.625 Q2063.22 360.889 2063.22 357.578 Q2063.22 354.523 2061.07 352.81 Q2058.94 351.074 2055.12 351.074 L2051.09 351.074 L2051.09 347.231 L2055.31 347.231 Q2058.76 347.231 2060.58 345.866 Q2062.41 344.477 2062.41 341.884 Q2062.41 339.222 2060.52 337.81 Q2058.64 336.375 2055.12 336.375 Q2053.2 336.375 2051 336.791 Q2048.8 337.208 2046.16 338.088 L2046.16 333.921 Q2048.83 333.18 2051.14 332.81 Q2053.48 332.44 2055.54 332.44 Q2060.86 332.44 2063.96 334.87 Q2067.07 337.278 2067.07 341.398 Q2067.07 344.268 2065.42 346.259 Q2063.78 348.227 2060.75 348.99 Z" fill="#000000" fill-rule="evenodd" fill-opacity="1" /><path clip-path="url(#clip760)" d="M 0 0 M2087.11 348.99 Q2090.47 349.708 2092.34 351.977 Q2094.24 354.245 2094.24 357.578 Q2094.24 362.694 2090.72 365.495 Q2087.2 368.296 2080.72 368.296 Q2078.55 368.296 2076.23 367.856 Q2073.94 367.439 2071.49 366.583 L2071.49 362.069 Q2073.43 363.203 2075.75 363.782 Q2078.06 364.361 2080.58 364.361 Q2084.98 364.361 2087.27 362.625 Q2089.59 360.889 2089.59 357.578 Q2089.59 354.523 2087.44 352.81 Q2085.31 351.074 2081.49 351.074 L2077.46 351.074 L2077.46 347.231 L2081.67 347.231 Q2085.12 347.231 2086.95 345.866 Q2088.78 344.477 2088.78 341.884 Q2088.78 339.222 2086.88 337.81 Q2085.01 336.375 2081.49 336.375 Q2079.57 336.375 2077.37 336.791 Q2075.17 337.208 2072.53 338.088 L2072.53 333.921 Q2075.19 333.18 2077.51 332.81 Q2079.84 332.44 2081.9 332.44 Q2087.23 332.44 2090.33 334.87 Q2093.43 337.278 2093.43 341.398 Q2093.43 344.268 2091.79 346.259 Q2090.14 348.227 2087.11 348.99 Z" fill="#000000" fill-rule="evenodd" fill-opacity="1" /><path clip-path="url(#clip760)" d="M 0 0 M2109.89 348.481 Q2106.74 348.481 2104.89 350.634 Q2103.06 352.787 2103.06 356.537 Q2103.06 360.264 2104.89 362.439 Q2106.74 364.592 2109.89 364.592 Q2113.04 364.592 2114.87 362.439 Q2116.72 360.264 2116.72 356.537 Q2116.72 352.787 2114.87 350.634 Q2113.04 348.481 2109.89 348.481 M2119.17 333.829 L2119.17 338.088 Q2117.41 337.254 2115.61 336.815 Q2113.83 336.375 2112.07 336.375 Q2107.44 336.375 2104.98 339.5 Q2102.55 342.625 2102.2 348.944 Q2103.57 346.93 2105.63 345.866 Q2107.69 344.778 2110.17 344.778 Q2115.38 344.778 2118.39 347.949 Q2121.42 351.097 2121.42 356.537 Q2121.42 361.861 2118.27 365.078 Q2115.12 368.296 2109.89 368.296 Q2103.89 368.296 2100.72 363.713 Q2097.55 359.106 2097.55 350.379 Q2097.55 342.185 2101.44 337.324 Q2105.33 332.44 2111.88 332.44 Q2113.64 332.44 2115.42 332.787 Q2117.23 333.134 2119.17 333.829 Z" fill="#000000" fill-rule="evenodd" fill-opacity="1" /><path clip-path="url(#clip760)" d="M 0 0 M2127.3 363.689 L2134.94 363.689 L2134.94 337.324 L2126.63 338.991 L2126.63 334.731 L2134.89 333.065 L2139.57 333.065 L2139.57 363.689 L2147.2 363.689 L2147.2 367.625 L2127.3 367.625 L2127.3 363.689 Z" fill="#000000" fill-rule="evenodd" fill-opacity="1" /><path clip-path="url(#clip760)" d="M 0 0 M2156.3 363.689 L2172.62 363.689 L2172.62 367.625 L2150.68 367.625 L2150.68 363.689 Q2153.34 360.935 2157.92 356.305 Q2162.53 351.653 2163.71 350.31 Q2165.95 347.787 2166.83 346.051 Q2167.74 344.291 2167.74 342.602 Q2167.74 339.847 2165.79 338.111 Q2163.87 336.375 2160.77 336.375 Q2158.57 336.375 2156.12 337.139 Q2153.69 337.903 2150.91 339.454 L2150.91 334.731 Q2153.73 333.597 2156.19 333.018 Q2158.64 332.44 2160.68 332.44 Q2166.05 332.44 2169.24 335.125 Q2172.44 337.81 2172.44 342.301 Q2172.44 344.43 2171.63 346.352 Q2170.84 348.25 2168.73 350.842 Q2168.15 351.514 2165.05 354.731 Q2161.95 357.926 2156.3 363.689 Z" fill="#000000" fill-rule="evenodd" fill-opacity="1" /><path clip-path="url(#clip760)" d="M 0 0 M2176.51 333.065 L2198.73 333.065 L2198.73 335.055 L2186.19 367.625 L2181.3 367.625 L2193.11 337 L2176.51 337 L2176.51 333.065 Z" fill="#000000" fill-rule="evenodd" fill-opacity="1" /><path clip-path="url(#clip760)" d="M 0 0 M2213.8 351.213 Q2210.47 351.213 2208.55 352.995 Q2206.65 354.777 2206.65 357.902 Q2206.65 361.027 2208.55 362.81 Q2210.47 364.592 2213.8 364.592 Q2217.13 364.592 2219.06 362.81 Q2220.98 361.004 2220.98 357.902 Q2220.98 354.777 2219.06 352.995 Q2217.16 351.213 2213.8 351.213 M2209.13 349.222 Q2206.12 348.481 2204.43 346.421 Q2202.76 344.361 2202.76 341.398 Q2202.76 337.254 2205.7 334.847 Q2208.66 332.44 2213.8 332.44 Q2218.96 332.44 2221.9 334.847 Q2224.84 337.254 2224.84 341.398 Q2224.84 344.361 2223.15 346.421 Q2221.49 348.481 2218.5 349.222 Q2221.88 350.009 2223.76 352.301 Q2225.65 354.592 2225.65 357.902 Q2225.65 362.926 2222.57 365.611 Q2219.52 368.296 2213.8 368.296 Q2208.08 368.296 2205.01 365.611 Q2201.95 362.926 2201.95 357.902 Q2201.95 354.592 2203.85 352.301 Q2205.75 350.009 2209.13 349.222 M2207.41 341.838 Q2207.41 344.523 2209.08 346.028 Q2210.77 347.532 2213.8 347.532 Q2216.81 347.532 2218.5 346.028 Q2220.21 344.523 2220.21 341.838 Q2220.21 339.153 2218.5 337.648 Q2216.81 336.143 2213.8 336.143 Q2210.77 336.143 2209.08 337.648 Q2207.41 339.153 2207.41 341.838 Z" fill="#000000" fill-rule="evenodd" fill-opacity="1" /><polyline clip-path="url(#clip760)" style="stroke:#c271d2; stroke-width:4; stroke-opacity:1; fill:none" points="
  1557.69,410.825 1708.74,410.825 
  "/>
<circle clip-path="url(#clip760)" cx="1633.22" cy="410.825" r="23" fill="#c271d2" fill-rule="evenodd" fill-opacity="1" stroke="#000000" stroke-opacity="1" stroke-width="5.12"/>
<path clip-path="url(#clip760)" d="M 0 0 M1738.2 426.507 L1738.2 437.966 L1733.92 437.966 L1733.92 402.341 Q1733.92 391.785 1743.78 391.785 Q1753.83 391.785 1753.83 400.697 Q1753.83 407.04 1749.85 409.355 Q1756.33 411.438 1756.33 417.619 Q1756.33 428.591 1745.17 428.591 Q1740.26 428.591 1738.2 426.507 M1738.2 420.952 Q1740.77 424.957 1745.33 424.957 Q1752 424.957 1752 417.688 Q1752 411.16 1741.26 411.67 L1741.26 407.734 Q1749.66 407.734 1749.66 400.327 Q1749.66 395.258 1744.24 395.258 Q1738.2 395.258 1738.2 402.48 L1738.2 420.952 Z" fill="#000000" fill-rule="evenodd" fill-opacity="1" /><path clip-path="url(#clip760)" d="M 0 0 M1761.35 406.577 L1791.03 406.577 L1791.03 410.466 L1761.35 410.466 L1761.35 406.577 M1761.35 416.021 L1791.03 416.021 L1791.03 419.957 L1761.35 419.957 L1761.35 416.021 Z" fill="#000000" fill-rule="evenodd" fill-opacity="1" /><path clip-path="url(#clip760)" d="M 0 0 M1796.91 424.169 L1804.54 424.169 L1804.54 397.804 L1796.23 399.471 L1796.23 395.211 L1804.5 393.545 L1809.17 393.545 L1809.17 424.169 L1816.81 424.169 L1816.81 428.105 L1796.91 428.105 L1796.91 424.169 Z" fill="#000000" fill-rule="evenodd" fill-opacity="1" /><path clip-path="url(#clip760)" d="M 0 0 M1822.69 424.169 L1830.33 424.169 L1830.33 397.804 L1822.02 399.471 L1822.02 395.211 L1830.29 393.545 L1834.96 393.545 L1834.96 424.169 L1842.6 424.169 L1842.6 428.105 L1822.69 428.105 L1822.69 424.169 Z" fill="#000000" fill-rule="evenodd" fill-opacity="1" /><path clip-path="url(#clip760)" d="M 0 0 M1847.67 422.225 L1852.55 422.225 L1852.55 428.105 L1847.67 428.105 L1847.67 422.225 Z" fill="#000000" fill-rule="evenodd" fill-opacity="1" /><path clip-path="url(#clip760)" d="M 0 0 M1867.62 396.623 Q1864.01 396.623 1862.18 400.188 Q1860.38 403.73 1860.38 410.859 Q1860.38 417.966 1862.18 421.531 Q1864.01 425.072 1867.62 425.072 Q1871.26 425.072 1873.06 421.531 Q1874.89 417.966 1874.89 410.859 Q1874.89 403.73 1873.06 400.188 Q1871.26 396.623 1867.62 396.623 M1867.62 392.92 Q1873.43 392.92 1876.49 397.526 Q1879.57 402.109 1879.57 410.859 Q1879.57 419.586 1876.49 424.193 Q1873.43 428.776 1867.62 428.776 Q1861.81 428.776 1858.73 424.193 Q1855.68 419.586 1855.68 410.859 Q1855.68 402.109 1858.73 397.526 Q1861.81 392.92 1867.62 392.92 Z" fill="#000000" fill-rule="evenodd" fill-opacity="1" /></svg>
