<?xml version="1.0" encoding="utf-8"?>
<svg xmlns="http://www.w3.org/2000/svg" xmlns:xlink="http://www.w3.org/1999/xlink" width="600" height="400" viewBox="0 0 2400 1600">
<defs>
  <clipPath id="clip580">
    <rect x="0" y="0" width="2400" height="1600"/>
  </clipPath>
</defs>
<path clip-path="url(#clip580)" d="
M0 1600 L2400 1600 L2400 0 L0 0  Z
  " fill="#ffffff" fill-rule="evenodd" fill-opacity="1"/>
<defs>
  <clipPath id="clip581">
    <rect x="480" y="0" width="1681" height="1600"/>
  </clipPath>
</defs>
<path clip-path="url(#clip580)" d="
M86.9921 1486.45 L2352.76 1486.45 L2352.76 123.472 L86.9921 123.472  Z
  " fill="#ffffff" fill-rule="evenodd" fill-opacity="1"/>
<defs>
  <clipPath id="clip582">
    <rect x="86" y="123" width="2267" height="1364"/>
  </clipPath>
</defs>
<polyline clip-path="url(#clip582)" style="stroke:#000000; stroke-width:2; stroke-opacity:0.1; fill:none" points="
  296.566,1486.45 296.566,123.472 
  "/>
<polyline clip-path="url(#clip582)" style="stroke:#000000; stroke-width:2; stroke-opacity:0.1; fill:none" points="
  734.983,1486.45 734.983,123.472 
  "/>
<polyline clip-path="url(#clip582)" style="stroke:#000000; stroke-width:2; stroke-opacity:0.1; fill:none" points="
  1173.4,1486.45 1173.4,123.472 
  "/>
<polyline clip-path="url(#clip582)" style="stroke:#000000; stroke-width:2; stroke-opacity:0.1; fill:none" points="
  1611.82,1486.45 1611.82,123.472 
  "/>
<polyline clip-path="url(#clip582)" style="stroke:#000000; stroke-width:2; stroke-opacity:0.1; fill:none" points="
  2050.23,1486.45 2050.23,123.472 
  "/>
<polyline clip-path="url(#clip580)" style="stroke:#000000; stroke-width:4; stroke-opacity:1; fill:none" points="
  86.9921,1486.45 2352.76,1486.45 
  "/>
<polyline clip-path="url(#clip580)" style="stroke:#000000; stroke-width:4; stroke-opacity:1; fill:none" points="
  296.566,1486.45 296.566,1470.09 
  "/>
<polyline clip-path="url(#clip580)" style="stroke:#000000; stroke-width:4; stroke-opacity:1; fill:none" points="
  734.983,1486.45 734.983,1470.09 
  "/>
<polyline clip-path="url(#clip580)" style="stroke:#000000; stroke-width:4; stroke-opacity:1; fill:none" points="
  1173.4,1486.45 1173.4,1470.09 
  "/>
<polyline clip-path="url(#clip580)" style="stroke:#000000; stroke-width:4; stroke-opacity:1; fill:none" points="
  1611.82,1486.45 1611.82,1470.09 
  "/>
<polyline clip-path="url(#clip580)" style="stroke:#000000; stroke-width:4; stroke-opacity:1; fill:none" points="
  2050.23,1486.45 2050.23,1470.09 
  "/>
<path clip-path="url(#clip580)" d="M 0 0 M278.083 1515.64 Q274.472 1515.64 272.643 1519.2 Q270.837 1522.75 270.837 1529.87 Q270.837 1536.98 272.643 1540.55 Q274.472 1544.09 278.083 1544.09 Q281.717 1544.09 283.522 1540.55 Q285.351 1536.98 285.351 1529.87 Q285.351 1522.75 283.522 1519.2 Q281.717 1515.64 278.083 1515.64 M278.083 1511.93 Q283.893 1511.93 286.948 1516.54 Q290.027 1521.12 290.027 1529.87 Q290.027 1538.6 286.948 1543.21 Q283.893 1547.79 278.083 1547.79 Q272.273 1547.79 269.194 1543.21 Q266.138 1538.6 266.138 1529.87 Q266.138 1521.12 269.194 1516.54 Q272.273 1511.93 278.083 1511.93 Z" fill="#000000" fill-rule="evenodd" fill-opacity="1" /><path clip-path="url(#clip580)" d="M 0 0 M295.096 1541.24 L299.981 1541.24 L299.981 1547.12 L295.096 1547.12 L295.096 1541.24 Z" fill="#000000" fill-rule="evenodd" fill-opacity="1" /><path clip-path="url(#clip580)" d="M 0 0 M315.05 1515.64 Q311.439 1515.64 309.61 1519.2 Q307.805 1522.75 307.805 1529.87 Q307.805 1536.98 309.61 1540.55 Q311.439 1544.09 315.05 1544.09 Q318.684 1544.09 320.49 1540.55 Q322.319 1536.98 322.319 1529.87 Q322.319 1522.75 320.49 1519.2 Q318.684 1515.64 315.05 1515.64 M315.05 1511.93 Q320.86 1511.93 323.916 1516.54 Q326.994 1521.12 326.994 1529.87 Q326.994 1538.6 323.916 1543.21 Q320.86 1547.79 315.05 1547.79 Q309.24 1547.79 306.161 1543.21 Q303.106 1538.6 303.106 1529.87 Q303.106 1521.12 306.161 1516.54 Q309.24 1511.93 315.05 1511.93 Z" fill="#000000" fill-rule="evenodd" fill-opacity="1" /><path clip-path="url(#clip580)" d="M 0 0 M716.823 1515.64 Q713.212 1515.64 711.384 1519.2 Q709.578 1522.75 709.578 1529.87 Q709.578 1536.98 711.384 1540.55 Q713.212 1544.09 716.823 1544.09 Q720.458 1544.09 722.263 1540.55 Q724.092 1536.98 724.092 1529.87 Q724.092 1522.75 722.263 1519.2 Q720.458 1515.64 716.823 1515.64 M716.823 1511.93 Q722.633 1511.93 725.689 1516.54 Q728.768 1521.12 728.768 1529.87 Q728.768 1538.6 725.689 1543.21 Q722.633 1547.79 716.823 1547.79 Q711.013 1547.79 707.934 1543.21 Q704.879 1538.6 704.879 1529.87 Q704.879 1521.12 707.934 1516.54 Q711.013 1511.93 716.823 1511.93 Z" fill="#000000" fill-rule="evenodd" fill-opacity="1" /><path clip-path="url(#clip580)" d="M 0 0 M733.837 1541.24 L738.721 1541.24 L738.721 1547.12 L733.837 1547.12 L733.837 1541.24 Z" fill="#000000" fill-rule="evenodd" fill-opacity="1" /><path clip-path="url(#clip580)" d="M 0 0 M757.957 1528.49 Q761.314 1529.2 763.189 1531.47 Q765.087 1533.74 765.087 1537.07 Q765.087 1542.19 761.568 1544.99 Q758.05 1547.79 751.568 1547.79 Q749.393 1547.79 747.078 1547.35 Q744.786 1546.93 742.332 1546.08 L742.332 1541.56 Q744.277 1542.7 746.592 1543.28 Q748.906 1543.86 751.43 1543.86 Q755.828 1543.86 758.119 1542.12 Q760.434 1540.38 760.434 1537.07 Q760.434 1534.02 758.281 1532.31 Q756.152 1530.57 752.332 1530.57 L748.305 1530.57 L748.305 1526.73 L752.518 1526.73 Q755.967 1526.73 757.795 1525.36 Q759.624 1523.97 759.624 1521.38 Q759.624 1518.72 757.726 1517.31 Q755.851 1515.87 752.332 1515.87 Q750.411 1515.87 748.212 1516.29 Q746.013 1516.7 743.374 1517.58 L743.374 1513.42 Q746.036 1512.68 748.351 1512.31 Q750.689 1511.93 752.749 1511.93 Q758.073 1511.93 761.175 1514.37 Q764.277 1516.77 764.277 1520.89 Q764.277 1523.76 762.633 1525.75 Q760.99 1527.72 757.957 1528.49 Z" fill="#000000" fill-rule="evenodd" fill-opacity="1" /><path clip-path="url(#clip580)" d="M 0 0 M1154.83 1515.64 Q1151.22 1515.64 1149.39 1519.2 Q1147.59 1522.75 1147.59 1529.87 Q1147.59 1536.98 1149.39 1540.55 Q1151.22 1544.09 1154.83 1544.09 Q1158.47 1544.09 1160.27 1540.55 Q1162.1 1536.98 1162.1 1529.87 Q1162.1 1522.75 1160.27 1519.2 Q1158.47 1515.64 1154.83 1515.64 M1154.83 1511.93 Q1160.64 1511.93 1163.7 1516.54 Q1166.78 1521.12 1166.78 1529.87 Q1166.78 1538.6 1163.7 1543.21 Q1160.64 1547.79 1154.83 1547.79 Q1149.02 1547.79 1145.95 1543.21 Q1142.89 1538.6 1142.89 1529.87 Q1142.89 1521.12 1145.95 1516.54 Q1149.02 1511.93 1154.83 1511.93 Z" fill="#000000" fill-rule="evenodd" fill-opacity="1" /><path clip-path="url(#clip580)" d="M 0 0 M1171.85 1541.24 L1176.73 1541.24 L1176.73 1547.12 L1171.85 1547.12 L1171.85 1541.24 Z" fill="#000000" fill-rule="evenodd" fill-opacity="1" /><path clip-path="url(#clip580)" d="M 0 0 M1192.38 1527.98 Q1189.23 1527.98 1187.38 1530.13 Q1185.55 1532.28 1185.55 1536.03 Q1185.55 1539.76 1187.38 1541.93 Q1189.23 1544.09 1192.38 1544.09 Q1195.53 1544.09 1197.36 1541.93 Q1199.21 1539.76 1199.21 1536.03 Q1199.21 1532.28 1197.36 1530.13 Q1195.53 1527.98 1192.38 1527.98 M1201.66 1513.32 L1201.66 1517.58 Q1199.9 1516.75 1198.1 1516.31 Q1196.32 1515.87 1194.56 1515.87 Q1189.93 1515.87 1187.47 1519 Q1185.04 1522.12 1184.7 1528.44 Q1186.06 1526.43 1188.12 1525.36 Q1190.18 1524.27 1192.66 1524.27 Q1197.87 1524.27 1200.88 1527.44 Q1203.91 1530.59 1203.91 1536.03 Q1203.91 1541.36 1200.76 1544.57 Q1197.61 1547.79 1192.38 1547.79 Q1186.39 1547.79 1183.21 1543.21 Q1180.04 1538.6 1180.04 1529.87 Q1180.04 1521.68 1183.93 1516.82 Q1187.82 1511.93 1194.37 1511.93 Q1196.13 1511.93 1197.91 1512.28 Q1199.72 1512.63 1201.66 1513.32 Z" fill="#000000" fill-rule="evenodd" fill-opacity="1" /><path clip-path="url(#clip580)" d="M 0 0 M1593.42 1515.64 Q1589.81 1515.64 1587.99 1519.2 Q1586.18 1522.75 1586.18 1529.87 Q1586.18 1536.98 1587.99 1540.55 Q1589.81 1544.09 1593.42 1544.09 Q1597.06 1544.09 1598.86 1540.55 Q1600.69 1536.98 1600.69 1529.87 Q1600.69 1522.75 1598.86 1519.2 Q1597.06 1515.64 1593.42 1515.64 M1593.42 1511.93 Q1599.24 1511.93 1602.29 1516.54 Q1605.37 1521.12 1605.37 1529.87 Q1605.37 1538.6 1602.29 1543.21 Q1599.24 1547.79 1593.42 1547.79 Q1587.61 1547.79 1584.54 1543.21 Q1581.48 1538.6 1581.48 1529.87 Q1581.48 1521.12 1584.54 1516.54 Q1587.61 1511.93 1593.42 1511.93 Z" fill="#000000" fill-rule="evenodd" fill-opacity="1" /><path clip-path="url(#clip580)" d="M 0 0 M1610.44 1541.24 L1615.32 1541.24 L1615.32 1547.12 L1610.44 1547.12 L1610.44 1541.24 Z" fill="#000000" fill-rule="evenodd" fill-opacity="1" /><path clip-path="url(#clip580)" d="M 0 0 M1620.53 1546.4 L1620.53 1542.14 Q1622.29 1542.98 1624.1 1543.42 Q1625.9 1543.86 1627.64 1543.86 Q1632.27 1543.86 1634.7 1540.75 Q1637.15 1537.63 1637.5 1531.29 Q1636.16 1533.28 1634.1 1534.34 Q1632.04 1535.41 1629.54 1535.41 Q1624.35 1535.41 1621.32 1532.28 Q1618.31 1529.13 1618.31 1523.69 Q1618.31 1518.37 1621.46 1515.15 Q1624.61 1511.93 1629.84 1511.93 Q1635.83 1511.93 1638.98 1516.54 Q1642.15 1521.12 1642.15 1529.87 Q1642.15 1538.05 1638.26 1542.93 Q1634.4 1547.79 1627.85 1547.79 Q1626.09 1547.79 1624.28 1547.44 Q1622.48 1547.1 1620.53 1546.4 M1629.84 1531.75 Q1632.98 1531.75 1634.81 1529.6 Q1636.67 1527.44 1636.67 1523.69 Q1636.67 1519.97 1634.81 1517.81 Q1632.98 1515.64 1629.84 1515.64 Q1626.69 1515.64 1624.84 1517.81 Q1623.01 1519.97 1623.01 1523.69 Q1623.01 1527.44 1624.84 1529.6 Q1626.69 1531.75 1629.84 1531.75 Z" fill="#000000" fill-rule="evenodd" fill-opacity="1" /><path clip-path="url(#clip580)" d="M 0 0 M2022.93 1543.18 L2030.57 1543.18 L2030.57 1516.82 L2022.26 1518.49 L2022.26 1514.23 L2030.52 1512.56 L2035.2 1512.56 L2035.2 1543.18 L2042.84 1543.18 L2042.84 1547.12 L2022.93 1547.12 L2022.93 1543.18 Z" fill="#000000" fill-rule="evenodd" fill-opacity="1" /><path clip-path="url(#clip580)" d="M 0 0 M2047.91 1541.24 L2052.79 1541.24 L2052.79 1547.12 L2047.91 1547.12 L2047.91 1541.24 Z" fill="#000000" fill-rule="evenodd" fill-opacity="1" /><path clip-path="url(#clip580)" d="M 0 0 M2061.89 1543.18 L2078.21 1543.18 L2078.21 1547.12 L2056.26 1547.12 L2056.26 1543.18 Q2058.92 1540.43 2063.51 1535.8 Q2068.11 1531.15 2069.29 1529.81 Q2071.54 1527.28 2072.42 1525.55 Q2073.32 1523.79 2073.32 1522.1 Q2073.32 1519.34 2071.38 1517.61 Q2069.46 1515.87 2066.36 1515.87 Q2064.16 1515.87 2061.7 1516.63 Q2059.27 1517.4 2056.49 1518.95 L2056.49 1514.23 Q2059.32 1513.09 2061.77 1512.51 Q2064.23 1511.93 2066.26 1511.93 Q2071.63 1511.93 2074.83 1514.62 Q2078.02 1517.31 2078.02 1521.8 Q2078.02 1523.93 2077.21 1525.85 Q2076.42 1527.74 2074.32 1530.34 Q2073.74 1531.01 2070.64 1534.23 Q2067.54 1537.42 2061.89 1543.18 Z" fill="#000000" fill-rule="evenodd" fill-opacity="1" /><polyline clip-path="url(#clip580)" style="stroke:#000000; stroke-width:4; stroke-opacity:1; fill:none" points="
  86.9921,1486.45 86.9921,123.472 
  "/>
<path clip-path="url(#clip580)" d="M 0 0 M806.175 44.2197 Q808.809 45.1109 811.28 48.0275 Q813.791 50.9442 816.303 56.0483 L824.607 72.576 L815.817 72.576 L808.079 57.061 Q805.082 50.9847 802.246 48.9997 Q799.451 47.0148 794.59 47.0148 L785.678 47.0148 L785.678 72.576 L777.495 72.576 L777.495 12.096 L795.967 12.096 Q806.337 12.096 811.442 16.4305 Q816.546 20.7649 816.546 29.5149 Q816.546 35.2267 813.872 38.994 Q811.239 42.7613 806.175 44.2197 M785.678 18.8205 L785.678 40.2903 L795.967 40.2903 Q801.881 40.2903 804.879 37.5762 Q807.917 34.8216 807.917 29.5149 Q807.917 24.2082 804.879 21.5346 Q801.881 18.8205 795.967 18.8205 L785.678 18.8205 Z" fill="#000000" fill-rule="evenodd" fill-opacity="1" /><path clip-path="url(#clip580)" d="M 0 0 M846.279 32.4315 Q840.284 32.4315 836.8 37.1306 Q833.316 41.7891 833.316 49.9314 Q833.316 58.0738 836.76 62.7728 Q840.244 67.4314 846.279 67.4314 Q852.234 67.4314 855.718 62.7323 Q859.202 58.0333 859.202 49.9314 Q859.202 41.8701 855.718 37.1711 Q852.234 32.4315 846.279 32.4315 M846.279 26.1121 Q856.002 26.1121 861.551 32.4315 Q867.101 38.7509 867.101 49.9314 Q867.101 61.0714 861.551 67.4314 Q856.002 73.7508 846.279 73.7508 Q836.517 73.7508 830.967 67.4314 Q825.458 61.0714 825.458 49.9314 Q825.458 38.7509 830.967 32.4315 Q836.517 26.1121 846.279 26.1121 Z" fill="#000000" fill-rule="evenodd" fill-opacity="1" /><path clip-path="url(#clip580)" d="M 0 0 M907.489 49.9314 Q907.489 41.7081 904.086 37.0496 Q900.724 32.3505 894.809 32.3505 Q888.895 32.3505 885.492 37.0496 Q882.13 41.7081 882.13 49.9314 Q882.13 58.1548 885.492 62.8538 Q888.895 67.5124 894.809 67.5124 Q900.724 67.5124 904.086 62.8538 Q907.489 58.1548 907.489 49.9314 M882.13 34.0924 Q884.479 30.0415 888.044 28.0971 Q891.65 26.1121 896.632 26.1121 Q904.896 26.1121 910.041 32.6746 Q915.226 39.2371 915.226 49.9314 Q915.226 60.6258 910.041 67.1883 Q904.896 73.7508 896.632 73.7508 Q891.65 73.7508 888.044 71.8063 Q884.479 69.8214 882.13 65.7705 L882.13 72.576 L874.636 72.576 L874.636 9.54393 L882.13 9.54393 L882.13 34.0924 Z" fill="#000000" fill-rule="evenodd" fill-opacity="1" /><path clip-path="url(#clip580)" d="M 0 0 M961.852 48.0275 L961.852 51.6733 L927.581 51.6733 Q928.067 59.3701 932.199 63.421 Q936.371 67.4314 943.785 67.4314 Q948.079 67.4314 952.089 66.3781 Q956.14 65.3249 960.11 63.2184 L960.11 70.267 Q956.099 71.9684 951.886 72.8596 Q947.674 73.7508 943.339 73.7508 Q932.483 73.7508 926.123 67.4314 Q919.803 61.1119 919.803 50.3365 Q919.803 39.1965 925.799 32.6746 Q931.834 26.1121 942.043 26.1121 Q951.198 26.1121 956.504 32.0264 Q961.852 37.9003 961.852 48.0275 M954.398 45.84 Q954.317 39.7232 950.955 36.0774 Q947.633 32.4315 942.124 32.4315 Q935.885 32.4315 932.118 35.9558 Q928.391 39.4801 927.824 45.8805 L954.398 45.84 Z" fill="#000000" fill-rule="evenodd" fill-opacity="1" /><path clip-path="url(#clip580)" d="M 0 0 M995.96 34.1734 Q994.705 33.4443 993.206 33.1202 Q991.747 32.7556 989.965 32.7556 Q983.646 32.7556 980.243 36.8875 Q976.881 40.9789 976.881 48.6757 L976.881 72.576 L969.386 72.576 L969.386 27.2059 L976.881 27.2059 L976.881 34.2544 Q979.23 30.1225 982.997 28.1376 Q986.765 26.1121 992.152 26.1121 Q992.922 26.1121 993.854 26.2337 Q994.786 26.3147 995.92 26.5172 L995.96 34.1734 Z" fill="#000000" fill-rule="evenodd" fill-opacity="1" /><path clip-path="url(#clip580)" d="M 0 0 M1011.15 14.324 L1011.15 27.2059 L1026.5 27.2059 L1026.5 32.9987 L1011.15 32.9987 L1011.15 57.6282 Q1011.15 63.1779 1012.65 64.7578 Q1014.19 66.3376 1018.85 66.3376 L1026.5 66.3376 L1026.5 72.576 L1018.85 72.576 Q1010.22 72.576 1006.94 69.3758 Q1003.66 66.1351 1003.66 57.6282 L1003.66 32.9987 L998.188 32.9987 L998.188 27.2059 L1003.66 27.2059 L1003.66 14.324 L1011.15 14.324 Z" fill="#000000" fill-rule="evenodd" fill-opacity="1" /><path clip-path="url(#clip580)" d="M 0 0 M1063.25 28.5427 L1063.25 35.5912 Q1060.09 33.9709 1056.68 33.1607 Q1053.28 32.3505 1049.63 32.3505 Q1044.09 32.3505 1041.29 34.0519 Q1038.54 35.7533 1038.54 39.156 Q1038.54 41.7486 1040.52 43.2475 Q1042.51 44.7058 1048.5 46.0426 L1051.05 46.6097 Q1058.99 48.3111 1062.31 51.4303 Q1065.68 54.509 1065.68 60.0587 Q1065.68 66.3781 1060.65 70.0644 Q1055.67 73.7508 1046.92 73.7508 Q1043.27 73.7508 1039.3 73.0216 Q1035.38 72.3329 1031 70.9151 L1031 63.2184 Q1035.13 65.3654 1039.14 66.4591 Q1043.15 67.5124 1047.08 67.5124 Q1052.35 67.5124 1055.18 65.73 Q1058.02 63.9071 1058.02 60.6258 Q1058.02 57.5877 1055.95 55.9673 Q1053.93 54.3469 1047 52.8481 L1044.41 52.2405 Q1037.48 50.7821 1034.4 47.7845 Q1031.32 44.7463 1031.32 39.4801 Q1031.32 33.0797 1035.86 29.5959 Q1040.4 26.1121 1048.74 26.1121 Q1052.88 26.1121 1056.52 26.7198 Q1060.17 27.3274 1063.25 28.5427 Z" fill="#000000" fill-rule="evenodd" fill-opacity="1" /><path clip-path="url(#clip580)" d="M 0 0 M1128.79 28.5427 L1128.79 35.5912 Q1125.63 33.9709 1122.23 33.1607 Q1118.82 32.3505 1115.18 32.3505 Q1109.63 32.3505 1106.83 34.0519 Q1104.08 35.7533 1104.08 39.156 Q1104.08 41.7486 1106.06 43.2475 Q1108.05 44.7058 1114.04 46.0426 L1116.6 46.6097 Q1124.54 48.3111 1127.86 51.4303 Q1131.22 54.509 1131.22 60.0587 Q1131.22 66.3781 1126.2 70.0644 Q1121.21 73.7508 1112.46 73.7508 Q1108.82 73.7508 1104.85 73.0216 Q1100.92 72.3329 1096.54 70.9151 L1096.54 63.2184 Q1100.68 65.3654 1104.69 66.4591 Q1108.7 67.5124 1112.63 67.5124 Q1117.89 67.5124 1120.73 65.73 Q1123.56 63.9071 1123.56 60.6258 Q1123.56 57.5877 1121.5 55.9673 Q1119.47 54.3469 1112.55 52.8481 L1109.95 52.2405 Q1103.03 50.7821 1099.95 47.7845 Q1096.87 44.7463 1096.87 39.4801 Q1096.87 33.0797 1101.41 29.5959 Q1105.94 26.1121 1114.29 26.1121 Q1118.42 26.1121 1122.06 26.7198 Q1125.71 27.3274 1128.79 28.5427 Z" fill="#000000" fill-rule="evenodd" fill-opacity="1" /><path clip-path="url(#clip580)" d="M 0 0 M1146.41 14.324 L1146.41 27.2059 L1161.76 27.2059 L1161.76 32.9987 L1146.41 32.9987 L1146.41 57.6282 Q1146.41 63.1779 1147.91 64.7578 Q1149.45 66.3376 1154.11 66.3376 L1161.76 66.3376 L1161.76 72.576 L1154.11 72.576 Q1145.48 72.576 1142.2 69.3758 Q1138.92 66.1351 1138.92 57.6282 L1138.92 32.9987 L1133.45 32.9987 L1133.45 27.2059 L1138.92 27.2059 L1138.92 14.324 L1146.41 14.324 Z" fill="#000000" fill-rule="evenodd" fill-opacity="1" /><path clip-path="url(#clip580)" d="M 0 0 M1195.87 34.1734 Q1194.62 33.4443 1193.12 33.1202 Q1191.66 32.7556 1189.88 32.7556 Q1183.56 32.7556 1180.15 36.8875 Q1176.79 40.9789 1176.79 48.6757 L1176.79 72.576 L1169.3 72.576 L1169.3 27.2059 L1176.79 27.2059 L1176.79 34.2544 Q1179.14 30.1225 1182.91 28.1376 Q1186.68 26.1121 1192.06 26.1121 Q1192.83 26.1121 1193.77 26.2337 Q1194.7 26.3147 1195.83 26.5172 L1195.87 34.1734 Z" fill="#000000" fill-rule="evenodd" fill-opacity="1" /><path clip-path="url(#clip580)" d="M 0 0 M1240.68 48.0275 L1240.68 51.6733 L1206.4 51.6733 Q1206.89 59.3701 1211.02 63.421 Q1215.2 67.4314 1222.61 67.4314 Q1226.9 67.4314 1230.91 66.3781 Q1234.96 65.3249 1238.93 63.2184 L1238.93 70.267 Q1234.92 71.9684 1230.71 72.8596 Q1226.5 73.7508 1222.16 73.7508 Q1211.31 73.7508 1204.95 67.4314 Q1198.63 61.1119 1198.63 50.3365 Q1198.63 39.1965 1204.62 32.6746 Q1210.66 26.1121 1220.87 26.1121 Q1230.02 26.1121 1235.33 32.0264 Q1240.68 37.9003 1240.68 48.0275 M1233.22 45.84 Q1233.14 39.7232 1229.78 36.0774 Q1226.46 32.4315 1220.95 32.4315 Q1214.71 32.4315 1210.94 35.9558 Q1207.21 39.4801 1206.65 45.8805 L1233.22 45.84 Z" fill="#000000" fill-rule="evenodd" fill-opacity="1" /><path clip-path="url(#clip580)" d="M 0 0 M1255.87 14.324 L1255.87 27.2059 L1271.22 27.2059 L1271.22 32.9987 L1255.87 32.9987 L1255.87 57.6282 Q1255.87 63.1779 1257.37 64.7578 Q1258.9 66.3376 1263.56 66.3376 L1271.22 66.3376 L1271.22 72.576 L1263.56 72.576 Q1254.93 72.576 1251.65 69.3758 Q1248.37 66.1351 1248.37 57.6282 L1248.37 32.9987 L1242.9 32.9987 L1242.9 27.2059 L1248.37 27.2059 L1248.37 14.324 L1255.87 14.324 Z" fill="#000000" fill-rule="evenodd" fill-opacity="1" /><path clip-path="url(#clip580)" d="M 0 0 M1311.69 28.9478 L1311.69 35.9153 Q1308.53 34.1734 1305.33 33.3227 Q1302.17 32.4315 1298.93 32.4315 Q1291.68 32.4315 1287.67 37.0496 Q1283.66 41.6271 1283.66 49.9314 Q1283.66 58.2358 1287.67 62.8538 Q1291.68 67.4314 1298.93 67.4314 Q1302.17 67.4314 1305.33 66.5807 Q1308.53 65.6895 1311.69 63.9476 L1311.69 70.8341 Q1308.57 72.2924 1305.21 73.0216 Q1301.88 73.7508 1298.12 73.7508 Q1287.87 73.7508 1281.83 67.3098 Q1275.8 60.8689 1275.8 49.9314 Q1275.8 38.832 1281.87 32.472 Q1287.99 26.1121 1298.6 26.1121 Q1302.05 26.1121 1305.33 26.8413 Q1308.61 27.5299 1311.69 28.9478 Z" fill="#000000" fill-rule="evenodd" fill-opacity="1" /><path clip-path="url(#clip580)" d="M 0 0 M1357.22 45.1919 L1357.22 72.576 L1349.77 72.576 L1349.77 45.4349 Q1349.77 38.994 1347.25 35.7938 Q1344.74 32.5936 1339.72 32.5936 Q1333.68 32.5936 1330.2 36.4419 Q1326.72 40.2903 1326.72 46.9338 L1326.72 72.576 L1319.22 72.576 L1319.22 9.54393 L1326.72 9.54393 L1326.72 34.2544 Q1329.39 30.163 1333 28.1376 Q1336.64 26.1121 1341.38 26.1121 Q1349.2 26.1121 1353.21 30.9732 Q1357.22 35.7938 1357.22 45.1919 Z" fill="#000000" fill-rule="evenodd" fill-opacity="1" /><path clip-path="url(#clip580)" d="M 0 0 M1365.04 27.2059 L1372.49 27.2059 L1372.49 72.576 L1365.04 72.576 L1365.04 27.2059 M1365.04 9.54393 L1372.49 9.54393 L1372.49 18.9825 L1365.04 18.9825 L1365.04 9.54393 Z" fill="#000000" fill-rule="evenodd" fill-opacity="1" /><path clip-path="url(#clip580)" d="M 0 0 M1418.02 45.1919 L1418.02 72.576 L1410.57 72.576 L1410.57 45.4349 Q1410.57 38.994 1408.06 35.7938 Q1405.55 32.5936 1400.52 32.5936 Q1394.49 32.5936 1391 36.4419 Q1387.52 40.2903 1387.52 46.9338 L1387.52 72.576 L1380.03 72.576 L1380.03 27.2059 L1387.52 27.2059 L1387.52 34.2544 Q1390.19 30.163 1393.8 28.1376 Q1397.45 26.1121 1402.18 26.1121 Q1410 26.1121 1414.01 30.9732 Q1418.02 35.7938 1418.02 45.1919 Z" fill="#000000" fill-rule="evenodd" fill-opacity="1" /><path clip-path="url(#clip580)" d="M 0 0 M1455.7 49.3643 Q1455.7 41.2625 1452.34 36.8065 Q1449.01 32.3505 1442.98 32.3505 Q1436.98 32.3505 1433.62 36.8065 Q1430.3 41.2625 1430.3 49.3643 Q1430.3 57.4256 1433.62 61.8816 Q1436.98 66.3376 1442.98 66.3376 Q1449.01 66.3376 1452.34 61.8816 Q1455.7 57.4256 1455.7 49.3643 M1463.15 66.9452 Q1463.15 78.5308 1458.01 84.1616 Q1452.86 89.8329 1442.25 89.8329 Q1438.32 89.8329 1434.84 89.2252 Q1431.35 88.6581 1428.07 87.4428 L1428.07 80.1917 Q1431.35 81.9741 1434.55 82.8248 Q1437.75 83.6755 1441.07 83.6755 Q1448.41 83.6755 1452.05 79.8271 Q1455.7 76.0193 1455.7 68.282 L1455.7 64.5957 Q1453.39 68.6061 1449.78 70.5911 Q1446.18 72.576 1441.15 72.576 Q1432.81 72.576 1427.71 66.2161 Q1422.6 59.8562 1422.6 49.3643 Q1422.6 38.832 1427.71 32.472 Q1432.81 26.1121 1441.15 26.1121 Q1446.18 26.1121 1449.78 28.0971 Q1453.39 30.082 1455.7 34.0924 L1455.7 27.2059 L1463.15 27.2059 L1463.15 66.9452 Z" fill="#000000" fill-rule="evenodd" fill-opacity="1" /><path clip-path="url(#clip580)" d="M 0 0 M1515.25 9.62495 Q1509.82 18.942 1507.18 28.0566 Q1504.55 37.1711 1504.55 46.5287 Q1504.55 55.8863 1507.18 65.0818 Q1509.86 74.2369 1515.25 83.5134 L1508.76 83.5134 Q1502.69 73.9938 1499.65 64.7983 Q1496.65 55.6027 1496.65 46.5287 Q1496.65 37.4952 1499.65 28.3401 Q1502.65 19.1851 1508.76 9.62495 L1515.25 9.62495 Z" fill="#000000" fill-rule="evenodd" fill-opacity="1" /><path clip-path="url(#clip580)" d="M 0 0 M1523.06 9.54393 L1530.52 9.54393 L1530.52 72.576 L1523.06 72.576 L1523.06 9.54393 Z" fill="#000000" fill-rule="evenodd" fill-opacity="1" /><path clip-path="url(#clip580)" d="M 0 0 M1577.14 48.0275 L1577.14 51.6733 L1542.87 51.6733 Q1543.36 59.3701 1547.49 63.421 Q1551.66 67.4314 1559.08 67.4314 Q1563.37 67.4314 1567.38 66.3781 Q1571.43 65.3249 1575.4 63.2184 L1575.4 70.267 Q1571.39 71.9684 1567.18 72.8596 Q1562.97 73.7508 1558.63 73.7508 Q1547.77 73.7508 1541.41 67.4314 Q1535.1 61.1119 1535.1 50.3365 Q1535.1 39.1965 1541.09 32.6746 Q1547.13 26.1121 1557.33 26.1121 Q1566.49 26.1121 1571.8 32.0264 Q1577.14 37.9003 1577.14 48.0275 M1569.69 45.84 Q1569.61 39.7232 1566.25 36.0774 Q1562.92 32.4315 1557.42 32.4315 Q1551.18 32.4315 1547.41 35.9558 Q1543.68 39.4801 1543.12 45.8805 L1569.69 45.84 Z" fill="#000000" fill-rule="evenodd" fill-opacity="1" /><path clip-path="url(#clip580)" d="M 0 0 M1607.93 9.54393 L1607.93 15.7418 L1600.8 15.7418 Q1596.79 15.7418 1595.21 17.3622 Q1593.67 18.9825 1593.67 23.1955 L1593.67 27.2059 L1605.95 27.2059 L1605.95 32.9987 L1593.67 32.9987 L1593.67 72.576 L1586.18 72.576 L1586.18 32.9987 L1579.05 32.9987 L1579.05 27.2059 L1586.18 27.2059 L1586.18 24.0462 Q1586.18 16.471 1589.7 13.0277 Q1593.23 9.54393 1600.88 9.54393 L1607.93 9.54393 Z" fill="#000000" fill-rule="evenodd" fill-opacity="1" /><path clip-path="url(#clip580)" d="M 0 0 M1621.66 14.324 L1621.66 27.2059 L1637.02 27.2059 L1637.02 32.9987 L1621.66 32.9987 L1621.66 57.6282 Q1621.66 63.1779 1623.16 64.7578 Q1624.7 66.3376 1629.36 66.3376 L1637.02 66.3376 L1637.02 72.576 L1629.36 72.576 Q1620.73 72.576 1617.45 69.3758 Q1614.17 66.1351 1614.17 57.6282 L1614.17 32.9987 L1608.7 32.9987 L1608.7 27.2059 L1614.17 27.2059 L1614.17 14.324 L1621.66 14.324 Z" fill="#000000" fill-rule="evenodd" fill-opacity="1" /><path clip-path="url(#clip580)" d="M 0 0 M1643.66 9.62495 L1650.14 9.62495 Q1656.22 19.1851 1659.21 28.3401 Q1662.25 37.4952 1662.25 46.5287 Q1662.25 55.6027 1659.21 64.7983 Q1656.22 73.9938 1650.14 83.5134 L1643.66 83.5134 Q1649.05 74.2369 1651.68 65.0818 Q1654.35 55.8863 1654.35 46.5287 Q1654.35 37.1711 1651.68 28.0566 Q1649.05 18.942 1643.66 9.62495 Z" fill="#000000" fill-rule="evenodd" fill-opacity="1" /><polyline clip-path="url(#clip582)" style="stroke:#009af9; stroke-width:4; stroke-opacity:1; fill:none" points="
  294.904,1259.29 296.566,1259.29 298.228,1259.29 301.777,1259.29 309.336,1259.29 325.372,1259.29 359.079,1259.29 428.595,1259.29 566.486,1259.29 820.035,1259.29 
  1227.28,1259.29 1757.95,1259.29 2288.63,1259.29 
  "/>
<circle clip-path="url(#clip582)" cx="294.904" cy="1259.29" r="14" fill="#009af9" fill-rule="evenodd" fill-opacity="1" stroke="#000000" stroke-opacity="1" stroke-width="3.2"/>
<circle clip-path="url(#clip582)" cx="296.566" cy="1259.29" r="14" fill="#009af9" fill-rule="evenodd" fill-opacity="1" stroke="#000000" stroke-opacity="1" stroke-width="3.2"/>
<circle clip-path="url(#clip582)" cx="298.228" cy="1259.29" r="14" fill="#009af9" fill-rule="evenodd" fill-opacity="1" stroke="#000000" stroke-opacity="1" stroke-width="3.2"/>
<circle clip-path="url(#clip582)" cx="301.777" cy="1259.29" r="14" fill="#009af9" fill-rule="evenodd" fill-opacity="1" stroke="#000000" stroke-opacity="1" stroke-width="3.2"/>
<circle clip-path="url(#clip582)" cx="309.336" cy="1259.29" r="14" fill="#009af9" fill-rule="evenodd" fill-opacity="1" stroke="#000000" stroke-opacity="1" stroke-width="3.2"/>
<circle clip-path="url(#clip582)" cx="325.372" cy="1259.29" r="14" fill="#009af9" fill-rule="evenodd" fill-opacity="1" stroke="#000000" stroke-opacity="1" stroke-width="3.2"/>
<circle clip-path="url(#clip582)" cx="359.079" cy="1259.29" r="14" fill="#009af9" fill-rule="evenodd" fill-opacity="1" stroke="#000000" stroke-opacity="1" stroke-width="3.2"/>
<circle clip-path="url(#clip582)" cx="428.595" cy="1259.29" r="14" fill="#009af9" fill-rule="evenodd" fill-opacity="1" stroke="#000000" stroke-opacity="1" stroke-width="3.2"/>
<circle clip-path="url(#clip582)" cx="566.486" cy="1259.29" r="14" fill="#009af9" fill-rule="evenodd" fill-opacity="1" stroke="#000000" stroke-opacity="1" stroke-width="3.2"/>
<circle clip-path="url(#clip582)" cx="820.035" cy="1259.29" r="14" fill="#009af9" fill-rule="evenodd" fill-opacity="1" stroke="#000000" stroke-opacity="1" stroke-width="3.2"/>
<circle clip-path="url(#clip582)" cx="1227.28" cy="1259.29" r="14" fill="#009af9" fill-rule="evenodd" fill-opacity="1" stroke="#000000" stroke-opacity="1" stroke-width="3.2"/>
<circle clip-path="url(#clip582)" cx="1757.95" cy="1259.29" r="14" fill="#009af9" fill-rule="evenodd" fill-opacity="1" stroke="#000000" stroke-opacity="1" stroke-width="3.2"/>
<circle clip-path="url(#clip582)" cx="2288.63" cy="1259.29" r="14" fill="#009af9" fill-rule="evenodd" fill-opacity="1" stroke="#000000" stroke-opacity="1" stroke-width="3.2"/>
<polyline clip-path="url(#clip582)" style="stroke:#e26f46; stroke-width:4; stroke-opacity:1; fill:none" points="
  278.767,1032.12 296.566,1032.12 314.366,1032.12 341.967,1032.12 384.397,1032.12 448.764,1032.12 544.471,1032.12 682.615,1032.12 873.703,1032.12 1123.03,1032.12 
  1424.67,1032.12 1757.95,1032.12 2091.24,1032.12 
  "/>
<circle clip-path="url(#clip582)" cx="278.767" cy="1032.12" r="14" fill="#e26f46" fill-rule="evenodd" fill-opacity="1" stroke="#000000" stroke-opacity="1" stroke-width="3.2"/>
<circle clip-path="url(#clip582)" cx="296.566" cy="1032.12" r="14" fill="#e26f46" fill-rule="evenodd" fill-opacity="1" stroke="#000000" stroke-opacity="1" stroke-width="3.2"/>
<circle clip-path="url(#clip582)" cx="314.366" cy="1032.12" r="14" fill="#e26f46" fill-rule="evenodd" fill-opacity="1" stroke="#000000" stroke-opacity="1" stroke-width="3.2"/>
<circle clip-path="url(#clip582)" cx="341.967" cy="1032.12" r="14" fill="#e26f46" fill-rule="evenodd" fill-opacity="1" stroke="#000000" stroke-opacity="1" stroke-width="3.2"/>
<circle clip-path="url(#clip582)" cx="384.397" cy="1032.12" r="14" fill="#e26f46" fill-rule="evenodd" fill-opacity="1" stroke="#000000" stroke-opacity="1" stroke-width="3.2"/>
<circle clip-path="url(#clip582)" cx="448.764" cy="1032.12" r="14" fill="#e26f46" fill-rule="evenodd" fill-opacity="1" stroke="#000000" stroke-opacity="1" stroke-width="3.2"/>
<circle clip-path="url(#clip582)" cx="544.471" cy="1032.12" r="14" fill="#e26f46" fill-rule="evenodd" fill-opacity="1" stroke="#000000" stroke-opacity="1" stroke-width="3.2"/>
<circle clip-path="url(#clip582)" cx="682.615" cy="1032.12" r="14" fill="#e26f46" fill-rule="evenodd" fill-opacity="1" stroke="#000000" stroke-opacity="1" stroke-width="3.2"/>
<circle clip-path="url(#clip582)" cx="873.703" cy="1032.12" r="14" fill="#e26f46" fill-rule="evenodd" fill-opacity="1" stroke="#000000" stroke-opacity="1" stroke-width="3.2"/>
<circle clip-path="url(#clip582)" cx="1123.03" cy="1032.12" r="14" fill="#e26f46" fill-rule="evenodd" fill-opacity="1" stroke="#000000" stroke-opacity="1" stroke-width="3.2"/>
<circle clip-path="url(#clip582)" cx="1424.67" cy="1032.12" r="14" fill="#e26f46" fill-rule="evenodd" fill-opacity="1" stroke="#000000" stroke-opacity="1" stroke-width="3.2"/>
<circle clip-path="url(#clip582)" cx="1757.95" cy="1032.12" r="14" fill="#e26f46" fill-rule="evenodd" fill-opacity="1" stroke="#000000" stroke-opacity="1" stroke-width="3.2"/>
<circle clip-path="url(#clip582)" cx="2091.24" cy="1032.12" r="14" fill="#e26f46" fill-rule="evenodd" fill-opacity="1" stroke="#000000" stroke-opacity="1" stroke-width="3.2"/>
<polyline clip-path="url(#clip582)" style="stroke:#3da44d; stroke-width:4; stroke-opacity:1; fill:none" points="
  195.766,804.96 296.566,804.96 397.367,804.96 509.439,804.96 632.96,804.96 767.792,804.96 913.432,804.96 1068.97,804.96 1233.08,804.96 1404.04,804.96 
  1579.77,804.96 1757.95,804.96 1936.14,804.96 
  "/>
<circle clip-path="url(#clip582)" cx="195.766" cy="804.96" r="14" fill="#3da44d" fill-rule="evenodd" fill-opacity="1" stroke="#000000" stroke-opacity="1" stroke-width="3.2"/>
<circle clip-path="url(#clip582)" cx="296.566" cy="804.96" r="14" fill="#3da44d" fill-rule="evenodd" fill-opacity="1" stroke="#000000" stroke-opacity="1" stroke-width="3.2"/>
<circle clip-path="url(#clip582)" cx="397.367" cy="804.96" r="14" fill="#3da44d" fill-rule="evenodd" fill-opacity="1" stroke="#000000" stroke-opacity="1" stroke-width="3.2"/>
<circle clip-path="url(#clip582)" cx="509.439" cy="804.96" r="14" fill="#3da44d" fill-rule="evenodd" fill-opacity="1" stroke="#000000" stroke-opacity="1" stroke-width="3.2"/>
<circle clip-path="url(#clip582)" cx="632.96" cy="804.96" r="14" fill="#3da44d" fill-rule="evenodd" fill-opacity="1" stroke="#000000" stroke-opacity="1" stroke-width="3.2"/>
<circle clip-path="url(#clip582)" cx="767.792" cy="804.96" r="14" fill="#3da44d" fill-rule="evenodd" fill-opacity="1" stroke="#000000" stroke-opacity="1" stroke-width="3.2"/>
<circle clip-path="url(#clip582)" cx="913.432" cy="804.96" r="14" fill="#3da44d" fill-rule="evenodd" fill-opacity="1" stroke="#000000" stroke-opacity="1" stroke-width="3.2"/>
<circle clip-path="url(#clip582)" cx="1068.97" cy="804.96" r="14" fill="#3da44d" fill-rule="evenodd" fill-opacity="1" stroke="#000000" stroke-opacity="1" stroke-width="3.2"/>
<circle clip-path="url(#clip582)" cx="1233.08" cy="804.96" r="14" fill="#3da44d" fill-rule="evenodd" fill-opacity="1" stroke="#000000" stroke-opacity="1" stroke-width="3.2"/>
<circle clip-path="url(#clip582)" cx="1404.04" cy="804.96" r="14" fill="#3da44d" fill-rule="evenodd" fill-opacity="1" stroke="#000000" stroke-opacity="1" stroke-width="3.2"/>
<circle clip-path="url(#clip582)" cx="1579.77" cy="804.96" r="14" fill="#3da44d" fill-rule="evenodd" fill-opacity="1" stroke="#000000" stroke-opacity="1" stroke-width="3.2"/>
<circle clip-path="url(#clip582)" cx="1757.95" cy="804.96" r="14" fill="#3da44d" fill-rule="evenodd" fill-opacity="1" stroke="#000000" stroke-opacity="1" stroke-width="3.2"/>
<circle clip-path="url(#clip582)" cx="1936.14" cy="804.96" r="14" fill="#3da44d" fill-rule="evenodd" fill-opacity="1" stroke="#000000" stroke-opacity="1" stroke-width="3.2"/>
<polyline clip-path="url(#clip582)" style="stroke:#c271d2; stroke-width:4; stroke-opacity:1; fill:none" points="
  151.118,577.797 296.566,577.797 442.015,577.797 587.681,577.797 733.541,577.797 879.57,577.797 1025.74,577.797 1172.04,577.797 1318.43,577.797 1464.9,577.797 
  1611.42,577.797 1757.95,577.797 1904.49,577.797 
  "/>
<circle clip-path="url(#clip582)" cx="151.118" cy="577.797" r="14" fill="#c271d2" fill-rule="evenodd" fill-opacity="1" stroke="#000000" stroke-opacity="1" stroke-width="3.2"/>
<circle clip-path="url(#clip582)" cx="296.566" cy="577.797" r="14" fill="#c271d2" fill-rule="evenodd" fill-opacity="1" stroke="#000000" stroke-opacity="1" stroke-width="3.2"/>
<circle clip-path="url(#clip582)" cx="442.015" cy="577.797" r="14" fill="#c271d2" fill-rule="evenodd" fill-opacity="1" stroke="#000000" stroke-opacity="1" stroke-width="3.2"/>
<circle clip-path="url(#clip582)" cx="587.681" cy="577.797" r="14" fill="#c271d2" fill-rule="evenodd" fill-opacity="1" stroke="#000000" stroke-opacity="1" stroke-width="3.2"/>
<circle clip-path="url(#clip582)" cx="733.541" cy="577.797" r="14" fill="#c271d2" fill-rule="evenodd" fill-opacity="1" stroke="#000000" stroke-opacity="1" stroke-width="3.2"/>
<circle clip-path="url(#clip582)" cx="879.57" cy="577.797" r="14" fill="#c271d2" fill-rule="evenodd" fill-opacity="1" stroke="#000000" stroke-opacity="1" stroke-width="3.2"/>
<circle clip-path="url(#clip582)" cx="1025.74" cy="577.797" r="14" fill="#c271d2" fill-rule="evenodd" fill-opacity="1" stroke="#000000" stroke-opacity="1" stroke-width="3.2"/>
<circle clip-path="url(#clip582)" cx="1172.04" cy="577.797" r="14" fill="#c271d2" fill-rule="evenodd" fill-opacity="1" stroke="#000000" stroke-opacity="1" stroke-width="3.2"/>
<circle clip-path="url(#clip582)" cx="1318.43" cy="577.797" r="14" fill="#c271d2" fill-rule="evenodd" fill-opacity="1" stroke="#000000" stroke-opacity="1" stroke-width="3.2"/>
<circle clip-path="url(#clip582)" cx="1464.9" cy="577.797" r="14" fill="#c271d2" fill-rule="evenodd" fill-opacity="1" stroke="#000000" stroke-opacity="1" stroke-width="3.2"/>
<circle clip-path="url(#clip582)" cx="1611.42" cy="577.797" r="14" fill="#c271d2" fill-rule="evenodd" fill-opacity="1" stroke="#000000" stroke-opacity="1" stroke-width="3.2"/>
<circle clip-path="url(#clip582)" cx="1757.95" cy="577.797" r="14" fill="#c271d2" fill-rule="evenodd" fill-opacity="1" stroke="#000000" stroke-opacity="1" stroke-width="3.2"/>
<circle clip-path="url(#clip582)" cx="1904.49" cy="577.797" r="14" fill="#c271d2" fill-rule="evenodd" fill-opacity="1" stroke="#000000" stroke-opacity="1" stroke-width="3.2"/>
<path clip-path="url(#clip580)" d="
M1532.52 471.305 L2277.23 471.305 L2277.23 168.905 L1532.52 168.905  Z
  " fill="#ffffff" fill-rule="evenodd" fill-opacity="1"/>
<polyline clip-path="url(#clip580)" style="stroke:#000000; stroke-width:4; stroke-opacity:1; fill:none" points="
  1532.52,471.305 2277.23,471.305 2277.23,168.905 1532.52,168.905 1532.52,471.305 
  "/>
<polyline clip-path="url(#clip580)" style="stroke:#009af9; stroke-width:4; stroke-opacity:1; fill:none" points="
  1557.69,229.385 1708.74,229.385 
  "/>
<circle clip-path="url(#clip580)" cx="1633.22" cy="229.385" r="23" fill="#009af9" fill-rule="evenodd" fill-opacity="1" stroke="#000000" stroke-opacity="1" stroke-width="5.12"/>
<path clip-path="url(#clip580)" d="M 0 0 M1738.2 245.067 L1738.2 256.526 L1733.92 256.526 L1733.92 220.901 Q1733.92 210.345 1743.78 210.345 Q1753.83 210.345 1753.83 219.257 Q1753.83 225.6 1749.85 227.915 Q1756.33 229.998 1756.33 236.179 Q1756.33 247.151 1745.17 247.151 Q1740.26 247.151 1738.2 245.067 M1738.2 239.512 Q1740.77 243.517 1745.33 243.517 Q1752 243.517 1752 236.248 Q1752 229.72 1741.26 230.23 L1741.26 226.294 Q1749.66 226.294 1749.66 218.887 Q1749.66 213.818 1744.24 213.818 Q1738.2 213.818 1738.2 221.04 L1738.2 239.512 Z" fill="#000000" fill-rule="evenodd" fill-opacity="1" /><path clip-path="url(#clip580)" d="M 0 0 M1761.35 225.137 L1791.03 225.137 L1791.03 229.026 L1761.35 229.026 L1761.35 225.137 M1761.35 234.581 L1791.03 234.581 L1791.03 238.517 L1761.35 238.517 L1761.35 234.581 Z" fill="#000000" fill-rule="evenodd" fill-opacity="1" /><path clip-path="url(#clip580)" d="M 0 0 M1796.91 242.729 L1804.54 242.729 L1804.54 216.364 L1796.23 218.031 L1796.23 213.771 L1804.5 212.105 L1809.17 212.105 L1809.17 242.729 L1816.81 242.729 L1816.81 246.665 L1796.91 246.665 L1796.91 242.729 Z" fill="#000000" fill-rule="evenodd" fill-opacity="1" /><path clip-path="url(#clip580)" d="M 0 0 M1821.88 240.785 L1826.77 240.785 L1826.77 246.665 L1821.88 246.665 L1821.88 240.785 Z" fill="#000000" fill-rule="evenodd" fill-opacity="1" /><path clip-path="url(#clip580)" d="M 0 0 M1841.84 215.183 Q1838.22 215.183 1836.4 218.748 Q1834.59 222.29 1834.59 229.419 Q1834.59 236.526 1836.4 240.091 Q1838.22 243.632 1841.84 243.632 Q1845.47 243.632 1847.28 240.091 Q1849.1 236.526 1849.1 229.419 Q1849.1 222.29 1847.28 218.748 Q1845.47 215.183 1841.84 215.183 M1841.84 211.48 Q1847.65 211.48 1850.7 216.086 Q1853.78 220.669 1853.78 229.419 Q1853.78 238.146 1850.7 242.753 Q1847.65 247.336 1841.84 247.336 Q1836.03 247.336 1832.95 242.753 Q1829.89 238.146 1829.89 229.419 Q1829.89 220.669 1832.95 216.086 Q1836.03 211.48 1841.84 211.48 Z" fill="#000000" fill-rule="evenodd" fill-opacity="1" /><path clip-path="url(#clip580)" d="M 0 0 M1868.85 215.183 Q1865.24 215.183 1863.41 218.748 Q1861.6 222.29 1861.6 229.419 Q1861.6 236.526 1863.41 240.091 Q1865.24 243.632 1868.85 243.632 Q1872.48 243.632 1874.29 240.091 Q1876.12 236.526 1876.12 229.419 Q1876.12 222.29 1874.29 218.748 Q1872.48 215.183 1868.85 215.183 M1868.85 211.48 Q1874.66 211.48 1877.72 216.086 Q1880.79 220.669 1880.79 229.419 Q1880.79 238.146 1877.72 242.753 Q1874.66 247.336 1868.85 247.336 Q1863.04 247.336 1859.96 242.753 Q1856.91 238.146 1856.91 229.419 Q1856.91 220.669 1859.96 216.086 Q1863.04 211.48 1868.85 211.48 Z" fill="#000000" fill-rule="evenodd" fill-opacity="1" /><path clip-path="url(#clip580)" d="M 0 0 M1886.67 242.729 L1894.31 242.729 L1894.31 216.364 L1886 218.031 L1886 213.771 L1894.27 212.105 L1898.94 212.105 L1898.94 242.729 L1906.58 242.729 L1906.58 246.665 L1886.67 246.665 L1886.67 242.729 Z" fill="#000000" fill-rule="evenodd" fill-opacity="1" /><polyline clip-path="url(#clip580)" style="stroke:#e26f46; stroke-width:4; stroke-opacity:1; fill:none" points="
  1557.69,289.865 1708.74,289.865 
  "/>
<circle clip-path="url(#clip580)" cx="1633.22" cy="289.865" r="23" fill="#e26f46" fill-rule="evenodd" fill-opacity="1" stroke="#000000" stroke-opacity="1" stroke-width="5.12"/>
<path clip-path="url(#clip580)" d="M 0 0 M1738.2 305.547 L1738.2 317.006 L1733.92 317.006 L1733.92 281.381 Q1733.92 270.825 1743.78 270.825 Q1753.83 270.825 1753.83 279.737 Q1753.83 286.08 1749.85 288.395 Q1756.33 290.478 1756.33 296.659 Q1756.33 307.631 1745.17 307.631 Q1740.26 307.631 1738.2 305.547 M1738.2 299.992 Q1740.77 303.997 1745.33 303.997 Q1752 303.997 1752 296.728 Q1752 290.2 1741.26 290.71 L1741.26 286.774 Q1749.66 286.774 1749.66 279.367 Q1749.66 274.298 1744.24 274.298 Q1738.2 274.298 1738.2 281.52 L1738.2 299.992 Z" fill="#000000" fill-rule="evenodd" fill-opacity="1" /><path clip-path="url(#clip580)" d="M 0 0 M1761.35 285.617 L1791.03 285.617 L1791.03 289.506 L1761.35 289.506 L1761.35 285.617 M1761.35 295.061 L1791.03 295.061 L1791.03 298.997 L1761.35 298.997 L1761.35 295.061 Z" fill="#000000" fill-rule="evenodd" fill-opacity="1" /><path clip-path="url(#clip580)" d="M 0 0 M1796.91 303.209 L1804.54 303.209 L1804.54 276.844 L1796.23 278.511 L1796.23 274.251 L1804.5 272.585 L1809.17 272.585 L1809.17 303.209 L1816.81 303.209 L1816.81 307.145 L1796.91 307.145 L1796.91 303.209 Z" fill="#000000" fill-rule="evenodd" fill-opacity="1" /><path clip-path="url(#clip580)" d="M 0 0 M1821.88 301.265 L1826.77 301.265 L1826.77 307.145 L1821.88 307.145 L1821.88 301.265 Z" fill="#000000" fill-rule="evenodd" fill-opacity="1" /><path clip-path="url(#clip580)" d="M 0 0 M1841.84 275.663 Q1838.22 275.663 1836.4 279.228 Q1834.59 282.77 1834.59 289.899 Q1834.59 297.006 1836.4 300.571 Q1838.22 304.112 1841.84 304.112 Q1845.47 304.112 1847.28 300.571 Q1849.1 297.006 1849.1 289.899 Q1849.1 282.77 1847.28 279.228 Q1845.47 275.663 1841.84 275.663 M1841.84 271.96 Q1847.65 271.96 1850.7 276.566 Q1853.78 281.149 1853.78 289.899 Q1853.78 298.626 1850.7 303.233 Q1847.65 307.816 1841.84 307.816 Q1836.03 307.816 1832.95 303.233 Q1829.89 298.626 1829.89 289.899 Q1829.89 281.149 1832.95 276.566 Q1836.03 271.96 1841.84 271.96 Z" fill="#000000" fill-rule="evenodd" fill-opacity="1" /><path clip-path="url(#clip580)" d="M 0 0 M1862.88 303.209 L1879.2 303.209 L1879.2 307.145 L1857.25 307.145 L1857.25 303.209 Q1859.91 300.455 1864.5 295.825 Q1869.1 291.173 1870.28 289.83 Q1872.53 287.307 1873.41 285.571 Q1874.31 283.811 1874.31 282.122 Q1874.31 279.367 1872.37 277.631 Q1870.45 275.895 1867.35 275.895 Q1865.15 275.895 1862.69 276.659 Q1860.26 277.423 1857.48 278.974 L1857.48 274.251 Q1860.31 273.117 1862.76 272.538 Q1865.22 271.96 1867.25 271.96 Q1872.62 271.96 1875.82 274.645 Q1879.01 277.33 1879.01 281.821 Q1879.01 283.95 1878.2 285.872 Q1877.41 287.77 1875.31 290.362 Q1874.73 291.034 1871.63 294.251 Q1868.53 297.446 1862.88 303.209 Z" fill="#000000" fill-rule="evenodd" fill-opacity="1" /><path clip-path="url(#clip580)" d="M 0 0 M1885.08 303.209 L1892.72 303.209 L1892.72 276.844 L1884.41 278.511 L1884.41 274.251 L1892.67 272.585 L1897.34 272.585 L1897.34 303.209 L1904.98 303.209 L1904.98 307.145 L1885.08 307.145 L1885.08 303.209 Z" fill="#000000" fill-rule="evenodd" fill-opacity="1" /><path clip-path="url(#clip580)" d="M 0 0 M1910.1 272.585 L1928.46 272.585 L1928.46 276.52 L1914.38 276.52 L1914.38 284.992 Q1915.4 284.645 1916.42 284.483 Q1917.44 284.298 1918.46 284.298 Q1924.24 284.298 1927.62 287.469 Q1931 290.64 1931 296.057 Q1931 301.635 1927.53 304.737 Q1924.06 307.816 1917.74 307.816 Q1915.56 307.816 1913.29 307.446 Q1911.05 307.075 1908.64 306.334 L1908.64 301.635 Q1910.72 302.77 1912.95 303.325 Q1915.17 303.881 1917.65 303.881 Q1921.65 303.881 1923.99 301.774 Q1926.33 299.668 1926.33 296.057 Q1926.33 292.446 1923.99 290.339 Q1921.65 288.233 1917.65 288.233 Q1915.77 288.233 1913.9 288.649 Q1912.04 289.066 1910.1 289.946 L1910.1 272.585 Z" fill="#000000" fill-rule="evenodd" fill-opacity="1" /><path clip-path="url(#clip580)" d="M 0 0 M1948.92 276.659 L1937.11 295.108 L1948.92 295.108 L1948.92 276.659 M1947.69 272.585 L1953.57 272.585 L1953.57 295.108 L1958.5 295.108 L1958.5 298.997 L1953.57 298.997 L1953.57 307.145 L1948.92 307.145 L1948.92 298.997 L1933.32 298.997 L1933.32 294.483 L1947.69 272.585 Z" fill="#000000" fill-rule="evenodd" fill-opacity="1" /><path clip-path="url(#clip580)" d="M 0 0 M1976.42 276.659 L1964.61 295.108 L1976.42 295.108 L1976.42 276.659 M1975.19 272.585 L1981.07 272.585 L1981.07 295.108 L1986 295.108 L1986 298.997 L1981.07 298.997 L1981.07 307.145 L1976.42 307.145 L1976.42 298.997 L1960.82 298.997 L1960.82 294.483 L1975.19 272.585 Z" fill="#000000" fill-rule="evenodd" fill-opacity="1" /><path clip-path="url(#clip580)" d="M 0 0 M2005.24 288.51 Q2008.59 289.228 2010.47 291.497 Q2012.37 293.765 2012.37 297.098 Q2012.37 302.214 2008.85 305.015 Q2005.33 307.816 1998.85 307.816 Q1996.67 307.816 1994.36 307.376 Q1992.07 306.959 1989.61 306.103 L1989.61 301.589 Q1991.56 302.723 1993.87 303.302 Q1996.19 303.881 1998.71 303.881 Q2003.11 303.881 2005.4 302.145 Q2007.71 300.409 2007.71 297.098 Q2007.71 294.043 2005.56 292.33 Q2003.43 290.594 1999.61 290.594 L1995.59 290.594 L1995.59 286.751 L1999.8 286.751 Q2003.25 286.751 2005.08 285.386 Q2006.9 283.997 2006.9 281.404 Q2006.9 278.742 2005.01 277.33 Q2003.13 275.895 1999.61 275.895 Q1997.69 275.895 1995.49 276.311 Q1993.29 276.728 1990.65 277.608 L1990.65 273.441 Q1993.32 272.7 1995.63 272.33 Q1997.97 271.96 2000.03 271.96 Q2005.35 271.96 2008.46 274.39 Q2011.56 276.798 2011.56 280.918 Q2011.56 283.788 2009.91 285.779 Q2008.27 287.747 2005.24 288.51 Z" fill="#000000" fill-rule="evenodd" fill-opacity="1" /><path clip-path="url(#clip580)" d="M 0 0 M2030.28 276.659 L2018.48 295.108 L2030.28 295.108 L2030.28 276.659 M2029.06 272.585 L2034.94 272.585 L2034.94 295.108 L2039.87 295.108 L2039.87 298.997 L2034.94 298.997 L2034.94 307.145 L2030.28 307.145 L2030.28 298.997 L2014.68 298.997 L2014.68 294.483 L2029.06 272.585 Z" fill="#000000" fill-rule="evenodd" fill-opacity="1" /><path clip-path="url(#clip580)" d="M 0 0 M2055.52 288.001 Q2052.37 288.001 2050.52 290.154 Q2048.69 292.307 2048.69 296.057 Q2048.69 299.784 2050.52 301.959 Q2052.37 304.112 2055.52 304.112 Q2058.66 304.112 2060.49 301.959 Q2062.34 299.784 2062.34 296.057 Q2062.34 292.307 2060.49 290.154 Q2058.66 288.001 2055.52 288.001 M2064.8 273.349 L2064.8 277.608 Q2063.04 276.774 2061.23 276.335 Q2059.45 275.895 2057.69 275.895 Q2053.06 275.895 2050.61 279.02 Q2048.18 282.145 2047.83 288.464 Q2049.2 286.45 2051.26 285.386 Q2053.32 284.298 2055.79 284.298 Q2061 284.298 2064.01 287.469 Q2067.04 290.617 2067.04 296.057 Q2067.04 301.381 2063.89 304.598 Q2060.75 307.816 2055.52 307.816 Q2049.52 307.816 2046.35 303.233 Q2043.18 298.626 2043.18 289.899 Q2043.18 281.705 2047.07 276.844 Q2050.96 271.96 2057.51 271.96 Q2059.27 271.96 2061.05 272.307 Q2062.85 272.654 2064.8 273.349 Z" fill="#000000" fill-rule="evenodd" fill-opacity="1" /><path clip-path="url(#clip580)" d="M 0 0 M2072.25 306.427 L2072.25 302.168 Q2074.01 303.001 2075.82 303.441 Q2077.62 303.881 2079.36 303.881 Q2083.99 303.881 2086.42 300.779 Q2088.87 297.654 2089.22 291.311 Q2087.88 293.302 2085.82 294.367 Q2083.76 295.432 2081.26 295.432 Q2076.07 295.432 2073.04 292.307 Q2070.03 289.159 2070.03 283.719 Q2070.03 278.395 2073.18 275.177 Q2076.33 271.96 2081.56 271.96 Q2087.55 271.96 2090.7 276.566 Q2093.87 281.149 2093.87 289.899 Q2093.87 298.071 2089.98 302.955 Q2086.12 307.816 2079.57 307.816 Q2077.81 307.816 2076 307.469 Q2074.2 307.122 2072.25 306.427 M2081.56 291.774 Q2084.7 291.774 2086.53 289.622 Q2088.39 287.469 2088.39 283.719 Q2088.39 279.992 2086.53 277.839 Q2084.7 275.663 2081.56 275.663 Q2078.41 275.663 2076.56 277.839 Q2074.73 279.992 2074.73 283.719 Q2074.73 287.469 2076.56 289.622 Q2078.41 291.774 2081.56 291.774 Z" fill="#000000" fill-rule="evenodd" fill-opacity="1" /><path clip-path="url(#clip580)" d="M 0 0 M2108.94 275.663 Q2105.33 275.663 2103.5 279.228 Q2101.7 282.77 2101.7 289.899 Q2101.7 297.006 2103.5 300.571 Q2105.33 304.112 2108.94 304.112 Q2112.58 304.112 2114.38 300.571 Q2116.21 297.006 2116.21 289.899 Q2116.21 282.77 2114.38 279.228 Q2112.58 275.663 2108.94 275.663 M2108.94 271.96 Q2114.75 271.96 2117.81 276.566 Q2120.89 281.149 2120.89 289.899 Q2120.89 298.626 2117.81 303.233 Q2114.75 307.816 2108.94 307.816 Q2103.13 307.816 2100.05 303.233 Q2097 298.626 2097 289.899 Q2097 281.149 2100.05 276.566 Q2103.13 271.96 2108.94 271.96 Z" fill="#000000" fill-rule="evenodd" fill-opacity="1" /><path clip-path="url(#clip580)" d="M 0 0 M2135.95 275.663 Q2132.34 275.663 2130.51 279.228 Q2128.71 282.77 2128.71 289.899 Q2128.71 297.006 2130.51 300.571 Q2132.34 304.112 2135.95 304.112 Q2139.59 304.112 2141.39 300.571 Q2143.22 297.006 2143.22 289.899 Q2143.22 282.77 2141.39 279.228 Q2139.59 275.663 2135.95 275.663 M2135.95 271.96 Q2141.76 271.96 2144.82 276.566 Q2147.9 281.149 2147.9 289.899 Q2147.9 298.626 2144.82 303.233 Q2141.76 307.816 2135.95 307.816 Q2130.14 307.816 2127.07 303.233 Q2124.01 298.626 2124.01 289.899 Q2124.01 281.149 2127.07 276.566 Q2130.14 271.96 2135.95 271.96 Z" fill="#000000" fill-rule="evenodd" fill-opacity="1" /><path clip-path="url(#clip580)" d="M 0 0 M2167.14 288.51 Q2170.49 289.228 2172.37 291.497 Q2174.26 293.765 2174.26 297.098 Q2174.26 302.214 2170.75 305.015 Q2167.23 307.816 2160.75 307.816 Q2158.57 307.816 2156.26 307.376 Q2153.96 306.959 2151.51 306.103 L2151.51 301.589 Q2153.45 302.723 2155.77 303.302 Q2158.08 303.881 2160.61 303.881 Q2165.01 303.881 2167.3 302.145 Q2169.61 300.409 2169.61 297.098 Q2169.61 294.043 2167.46 292.33 Q2165.33 290.594 2161.51 290.594 L2157.48 290.594 L2157.48 286.751 L2161.7 286.751 Q2165.14 286.751 2166.97 285.386 Q2168.8 283.997 2168.8 281.404 Q2168.8 278.742 2166.9 277.33 Q2165.03 275.895 2161.51 275.895 Q2159.59 275.895 2157.39 276.311 Q2155.19 276.728 2152.55 277.608 L2152.55 273.441 Q2155.21 272.7 2157.53 272.33 Q2159.87 271.96 2161.93 271.96 Q2167.25 271.96 2170.35 274.39 Q2173.45 276.798 2173.45 280.918 Q2173.45 283.788 2171.81 285.779 Q2170.17 287.747 2167.14 288.51 Z" fill="#000000" fill-rule="evenodd" fill-opacity="1" /><path clip-path="url(#clip580)" d="M 0 0 M2180.14 303.209 L2187.78 303.209 L2187.78 276.844 L2179.47 278.511 L2179.47 274.251 L2187.74 272.585 L2192.41 272.585 L2192.41 303.209 L2200.05 303.209 L2200.05 307.145 L2180.14 307.145 L2180.14 303.209 Z" fill="#000000" fill-rule="evenodd" fill-opacity="1" /><path clip-path="url(#clip580)" d="M 0 0 M2205.26 306.427 L2205.26 302.168 Q2207.02 303.001 2208.82 303.441 Q2210.63 303.881 2212.37 303.881 Q2217 303.881 2219.43 300.779 Q2221.88 297.654 2222.23 291.311 Q2220.88 293.302 2218.82 294.367 Q2216.76 295.432 2214.26 295.432 Q2209.08 295.432 2206.05 292.307 Q2203.04 289.159 2203.04 283.719 Q2203.04 278.395 2206.19 275.177 Q2209.33 271.96 2214.57 271.96 Q2220.56 271.96 2223.71 276.566 Q2226.88 281.149 2226.88 289.899 Q2226.88 298.071 2222.99 302.955 Q2219.13 307.816 2212.57 307.816 Q2210.82 307.816 2209.01 307.469 Q2207.2 307.122 2205.26 306.427 M2214.57 291.774 Q2217.71 291.774 2219.54 289.622 Q2221.39 287.469 2221.39 283.719 Q2221.39 279.992 2219.54 277.839 Q2217.71 275.663 2214.57 275.663 Q2211.42 275.663 2209.57 277.839 Q2207.74 279.992 2207.74 283.719 Q2207.74 287.469 2209.57 289.622 Q2211.42 291.774 2214.57 291.774 Z" fill="#000000" fill-rule="evenodd" fill-opacity="1" /><polyline clip-path="url(#clip580)" style="stroke:#3da44d; stroke-width:4; stroke-opacity:1; fill:none" points="
  1557.69,350.345 1708.74,350.345 
  "/>
<circle clip-path="url(#clip580)" cx="1633.22" cy="350.345" r="23" fill="#3da44d" fill-rule="evenodd" fill-opacity="1" stroke="#000000" stroke-opacity="1" stroke-width="5.12"/>
<path clip-path="url(#clip580)" d="M 0 0 M1738.2 366.027 L1738.2 377.486 L1733.92 377.486 L1733.92 341.861 Q1733.92 331.305 1743.78 331.305 Q1753.83 331.305 1753.83 340.217 Q1753.83 346.56 1749.85 348.875 Q1756.33 350.958 1756.33 357.139 Q1756.33 368.111 1745.17 368.111 Q1740.26 368.111 1738.2 366.027 M1738.2 360.472 Q1740.77 364.477 1745.33 364.477 Q1752 364.477 1752 357.208 Q1752 350.68 1741.26 351.19 L1741.26 347.254 Q1749.66 347.254 1749.66 339.847 Q1749.66 334.778 1744.24 334.778 Q1738.2 334.778 1738.2 342 L1738.2 360.472 Z" fill="#000000" fill-rule="evenodd" fill-opacity="1" /><path clip-path="url(#clip580)" d="M 0 0 M1761.35 346.097 L1791.03 346.097 L1791.03 349.986 L1761.35 349.986 L1761.35 346.097 M1761.35 355.541 L1791.03 355.541 L1791.03 359.477 L1761.35 359.477 L1761.35 355.541 Z" fill="#000000" fill-rule="evenodd" fill-opacity="1" /><path clip-path="url(#clip580)" d="M 0 0 M1796.91 363.689 L1804.54 363.689 L1804.54 337.324 L1796.23 338.991 L1796.23 334.731 L1804.5 333.065 L1809.17 333.065 L1809.17 363.689 L1816.81 363.689 L1816.81 367.625 L1796.91 367.625 L1796.91 363.689 Z" fill="#000000" fill-rule="evenodd" fill-opacity="1" /><path clip-path="url(#clip580)" d="M 0 0 M1821.88 361.745 L1826.77 361.745 L1826.77 367.625 L1821.88 367.625 L1821.88 361.745 Z" fill="#000000" fill-rule="evenodd" fill-opacity="1" /><path clip-path="url(#clip580)" d="M 0 0 M1844.68 337.139 L1832.88 355.588 L1844.68 355.588 L1844.68 337.139 M1843.46 333.065 L1849.34 333.065 L1849.34 355.588 L1854.27 355.588 L1854.27 359.477 L1849.34 359.477 L1849.34 367.625 L1844.68 367.625 L1844.68 359.477 L1829.08 359.477 L1829.08 354.963 L1843.46 333.065 Z" fill="#000000" fill-rule="evenodd" fill-opacity="1" /><path clip-path="url(#clip580)" d="M 0 0 M1869.91 348.481 Q1866.77 348.481 1864.91 350.634 Q1863.09 352.787 1863.09 356.537 Q1863.09 360.264 1864.91 362.439 Q1866.77 364.592 1869.91 364.592 Q1873.06 364.592 1874.89 362.439 Q1876.74 360.264 1876.74 356.537 Q1876.74 352.787 1874.89 350.634 Q1873.06 348.481 1869.91 348.481 M1879.2 333.829 L1879.2 338.088 Q1877.44 337.254 1875.63 336.815 Q1873.85 336.375 1872.09 336.375 Q1867.46 336.375 1865.01 339.5 Q1862.58 342.625 1862.23 348.944 Q1863.6 346.93 1865.66 345.866 Q1867.72 344.778 1870.19 344.778 Q1875.4 344.778 1878.41 347.949 Q1881.44 351.097 1881.44 356.537 Q1881.44 361.861 1878.29 365.078 Q1875.15 368.296 1869.91 368.296 Q1863.92 368.296 1860.75 363.713 Q1857.58 359.106 1857.58 350.379 Q1857.58 342.185 1861.47 337.324 Q1865.35 332.44 1871.91 332.44 Q1873.66 332.44 1875.45 332.787 Q1877.25 333.134 1879.2 333.829 Z" fill="#000000" fill-rule="evenodd" fill-opacity="1" /><path clip-path="url(#clip580)" d="M 0 0 M1899.36 337.139 L1887.55 355.588 L1899.36 355.588 L1899.36 337.139 M1898.13 333.065 L1904.01 333.065 L1904.01 355.588 L1908.94 355.588 L1908.94 359.477 L1904.01 359.477 L1904.01 367.625 L1899.36 367.625 L1899.36 359.477 L1883.76 359.477 L1883.76 354.963 L1898.13 333.065 Z" fill="#000000" fill-rule="evenodd" fill-opacity="1" /><path clip-path="url(#clip580)" d="M 0 0 M1914.82 363.689 L1922.46 363.689 L1922.46 337.324 L1914.15 338.991 L1914.15 334.731 L1922.41 333.065 L1927.09 333.065 L1927.09 363.689 L1934.73 363.689 L1934.73 367.625 L1914.82 367.625 L1914.82 363.689 Z" fill="#000000" fill-rule="evenodd" fill-opacity="1" /><path clip-path="url(#clip580)" d="M 0 0 M1939.84 333.065 L1958.2 333.065 L1958.2 337 L1944.13 337 L1944.13 345.472 Q1945.15 345.125 1946.16 344.963 Q1947.18 344.778 1948.2 344.778 Q1953.99 344.778 1957.37 347.949 Q1960.75 351.12 1960.75 356.537 Q1960.75 362.115 1957.28 365.217 Q1953.8 368.296 1947.48 368.296 Q1945.31 368.296 1943.04 367.926 Q1940.79 367.555 1938.39 366.814 L1938.39 362.115 Q1940.47 363.25 1942.69 363.805 Q1944.91 364.361 1947.39 364.361 Q1951.4 364.361 1953.73 362.254 Q1956.07 360.148 1956.07 356.537 Q1956.07 352.926 1953.73 350.819 Q1951.4 348.713 1947.39 348.713 Q1945.52 348.713 1943.64 349.129 Q1941.79 349.546 1939.84 350.426 L1939.84 333.065 Z" fill="#000000" fill-rule="evenodd" fill-opacity="1" /><path clip-path="url(#clip580)" d="M 0 0 M1975.82 351.213 Q1972.48 351.213 1970.56 352.995 Q1968.66 354.777 1968.66 357.902 Q1968.66 361.027 1970.56 362.81 Q1972.48 364.592 1975.82 364.592 Q1979.15 364.592 1981.07 362.81 Q1982.99 361.004 1982.99 357.902 Q1982.99 354.777 1981.07 352.995 Q1979.17 351.213 1975.82 351.213 M1971.14 349.222 Q1968.13 348.481 1966.44 346.421 Q1964.78 344.361 1964.78 341.398 Q1964.78 337.254 1967.71 334.847 Q1970.68 332.44 1975.82 332.44 Q1980.98 332.44 1983.92 334.847 Q1986.86 337.254 1986.86 341.398 Q1986.86 344.361 1985.17 346.421 Q1983.5 348.481 1980.52 349.222 Q1983.9 350.009 1985.77 352.301 Q1987.67 354.592 1987.67 357.902 Q1987.67 362.926 1984.59 365.611 Q1981.53 368.296 1975.82 368.296 Q1970.1 368.296 1967.02 365.611 Q1963.96 362.926 1963.96 357.902 Q1963.96 354.592 1965.86 352.301 Q1967.76 350.009 1971.14 349.222 M1969.43 341.838 Q1969.43 344.523 1971.09 346.028 Q1972.78 347.532 1975.82 347.532 Q1978.83 347.532 1980.52 346.028 Q1982.23 344.523 1982.23 341.838 Q1982.23 339.153 1980.52 337.648 Q1978.83 336.143 1975.82 336.143 Q1972.78 336.143 1971.09 337.648 Q1969.43 339.153 1969.43 341.838 Z" fill="#000000" fill-rule="evenodd" fill-opacity="1" /><path clip-path="url(#clip580)" d="M 0 0 M2002.74 351.213 Q1999.4 351.213 1997.48 352.995 Q1995.59 354.777 1995.59 357.902 Q1995.59 361.027 1997.48 362.81 Q1999.4 364.592 2002.74 364.592 Q2006.07 364.592 2007.99 362.81 Q2009.91 361.004 2009.91 357.902 Q2009.91 354.777 2007.99 352.995 Q2006.09 351.213 2002.74 351.213 M1998.06 349.222 Q1995.05 348.481 1993.36 346.421 Q1991.7 344.361 1991.7 341.398 Q1991.7 337.254 1994.64 334.847 Q1997.6 332.44 2002.74 332.44 Q2007.9 332.44 2010.84 334.847 Q2013.78 337.254 2013.78 341.398 Q2013.78 344.361 2012.09 346.421 Q2010.42 348.481 2007.44 349.222 Q2010.82 350.009 2012.69 352.301 Q2014.59 354.592 2014.59 357.902 Q2014.59 362.926 2011.51 365.611 Q2008.46 368.296 2002.74 368.296 Q1997.02 368.296 1993.94 365.611 Q1990.89 362.926 1990.89 357.902 Q1990.89 354.592 1992.78 352.301 Q1994.68 350.009 1998.06 349.222 M1996.35 341.838 Q1996.35 344.523 1998.02 346.028 Q1999.71 347.532 2002.74 347.532 Q2005.75 347.532 2007.44 346.028 Q2009.15 344.523 2009.15 341.838 Q2009.15 339.153 2007.44 337.648 Q2005.75 336.143 2002.74 336.143 Q1999.71 336.143 1998.02 337.648 Q1996.35 339.153 1996.35 341.838 Z" fill="#000000" fill-rule="evenodd" fill-opacity="1" /><path clip-path="url(#clip580)" d="M 0 0 M2029.66 351.213 Q2026.33 351.213 2024.4 352.995 Q2022.51 354.777 2022.51 357.902 Q2022.51 361.027 2024.4 362.81 Q2026.33 364.592 2029.66 364.592 Q2032.99 364.592 2034.91 362.81 Q2036.83 361.004 2036.83 357.902 Q2036.83 354.777 2034.91 352.995 Q2033.02 351.213 2029.66 351.213 M2024.98 349.222 Q2021.97 348.481 2020.28 346.421 Q2018.62 344.361 2018.62 341.398 Q2018.62 337.254 2021.56 334.847 Q2024.52 332.44 2029.66 332.44 Q2034.82 332.44 2037.76 334.847 Q2040.7 337.254 2040.7 341.398 Q2040.7 344.361 2039.01 346.421 Q2037.34 348.481 2034.36 349.222 Q2037.74 350.009 2039.61 352.301 Q2041.51 354.592 2041.51 357.902 Q2041.51 362.926 2038.43 365.611 Q2035.38 368.296 2029.66 368.296 Q2023.94 368.296 2020.86 365.611 Q2017.81 362.926 2017.81 357.902 Q2017.81 354.592 2019.71 352.301 Q2021.6 350.009 2024.98 349.222 M2023.27 341.838 Q2023.27 344.523 2024.94 346.028 Q2026.63 347.532 2029.66 347.532 Q2032.67 347.532 2034.36 346.028 Q2036.07 344.523 2036.07 341.838 Q2036.07 339.153 2034.36 337.648 Q2032.67 336.143 2029.66 336.143 Q2026.63 336.143 2024.94 337.648 Q2023.27 339.153 2023.27 341.838 Z" fill="#000000" fill-rule="evenodd" fill-opacity="1" /><path clip-path="url(#clip580)" d="M 0 0 M2060.75 348.99 Q2064.1 349.708 2065.98 351.977 Q2067.88 354.245 2067.88 357.578 Q2067.88 362.694 2064.36 365.495 Q2060.84 368.296 2054.36 368.296 Q2052.18 368.296 2049.87 367.856 Q2047.58 367.439 2045.12 366.583 L2045.12 362.069 Q2047.07 363.203 2049.38 363.782 Q2051.7 364.361 2054.22 364.361 Q2058.62 364.361 2060.91 362.625 Q2063.22 360.889 2063.22 357.578 Q2063.22 354.523 2061.07 352.81 Q2058.94 351.074 2055.12 351.074 L2051.09 351.074 L2051.09 347.231 L2055.31 347.231 Q2058.76 347.231 2060.58 345.866 Q2062.41 344.477 2062.41 341.884 Q2062.41 339.222 2060.52 337.81 Q2058.64 336.375 2055.12 336.375 Q2053.2 336.375 2051 336.791 Q2048.8 337.208 2046.16 338.088 L2046.16 333.921 Q2048.83 333.18 2051.14 332.81 Q2053.48 332.44 2055.54 332.44 Q2060.86 332.44 2063.96 334.87 Q2067.07 337.278 2067.07 341.398 Q2067.07 344.268 2065.42 346.259 Q2063.78 348.227 2060.75 348.99 Z" fill="#000000" fill-rule="evenodd" fill-opacity="1" /><path clip-path="url(#clip580)" d="M 0 0 M2087.11 348.99 Q2090.47 349.708 2092.34 351.977 Q2094.24 354.245 2094.24 357.578 Q2094.24 362.694 2090.72 365.495 Q2087.2 368.296 2080.72 368.296 Q2078.55 368.296 2076.23 367.856 Q2073.94 367.439 2071.49 366.583 L2071.49 362.069 Q2073.43 363.203 2075.75 363.782 Q2078.06 364.361 2080.58 364.361 Q2084.98 364.361 2087.27 362.625 Q2089.59 360.889 2089.59 357.578 Q2089.59 354.523 2087.44 352.81 Q2085.31 351.074 2081.49 351.074 L2077.46 351.074 L2077.46 347.231 L2081.67 347.231 Q2085.12 347.231 2086.95 345.866 Q2088.78 344.477 2088.78 341.884 Q2088.78 339.222 2086.88 337.81 Q2085.01 336.375 2081.49 336.375 Q2079.57 336.375 2077.37 336.791 Q2075.17 337.208 2072.53 338.088 L2072.53 333.921 Q2075.19 333.18 2077.51 332.81 Q2079.84 332.44 2081.9 332.44 Q2087.23 332.44 2090.33 334.87 Q2093.43 337.278 2093.43 341.398 Q2093.43 344.268 2091.79 346.259 Q2090.14 348.227 2087.11 348.99 Z" fill="#000000" fill-rule="evenodd" fill-opacity="1" /><path clip-path="url(#clip580)" d="M 0 0 M2109.89 348.481 Q2106.74 348.481 2104.89 350.634 Q2103.06 352.787 2103.06 356.537 Q2103.06 360.264 2104.89 362.439 Q2106.74 364.592 2109.89 364.592 Q2113.04 364.592 2114.87 362.439 Q2116.72 360.264 2116.72 356.537 Q2116.72 352.787 2114.87 350.634 Q2113.04 348.481 2109.89 348.481 M2119.17 333.829 L2119.17 338.088 Q2117.41 337.254 2115.61 336.815 Q2113.83 336.375 2112.07 336.375 Q2107.44 336.375 2104.98 339.5 Q2102.55 342.625 2102.2 348.944 Q2103.57 346.93 2105.63 345.866 Q2107.69 344.778 2110.17 344.778 Q2115.38 344.778 2118.39 347.949 Q2121.42 351.097 2121.42 356.537 Q2121.42 361.861 2118.27 365.078 Q2115.12 368.296 2109.89 368.296 Q2103.89 368.296 2100.72 363.713 Q2097.55 359.106 2097.55 350.379 Q2097.55 342.185 2101.44 337.324 Q2105.33 332.44 2111.88 332.44 Q2113.64 332.44 2115.42 332.787 Q2117.23 333.134 2119.17 333.829 Z" fill="#000000" fill-rule="evenodd" fill-opacity="1" /><path clip-path="url(#clip580)" d="M 0 0 M2127.3 363.689 L2134.94 363.689 L2134.94 337.324 L2126.63 338.991 L2126.63 334.731 L2134.89 333.065 L2139.57 333.065 L2139.57 363.689 L2147.2 363.689 L2147.2 367.625 L2127.3 367.625 L2127.3 363.689 Z" fill="#000000" fill-rule="evenodd" fill-opacity="1" /><path clip-path="url(#clip580)" d="M 0 0 M2156.3 363.689 L2172.62 363.689 L2172.62 367.625 L2150.68 367.625 L2150.68 363.689 Q2153.34 360.935 2157.92 356.305 Q2162.53 351.653 2163.71 350.31 Q2165.95 347.787 2166.83 346.051 Q2167.74 344.291 2167.74 342.602 Q2167.74 339.847 2165.79 338.111 Q2163.87 336.375 2160.77 336.375 Q2158.57 336.375 2156.12 337.139 Q2153.69 337.903 2150.91 339.454 L2150.91 334.731 Q2153.73 333.597 2156.19 333.018 Q2158.64 332.44 2160.68 332.44 Q2166.05 332.44 2169.24 335.125 Q2172.44 337.81 2172.44 342.301 Q2172.44 344.43 2171.63 346.352 Q2170.84 348.25 2168.73 350.842 Q2168.15 351.514 2165.05 354.731 Q2161.95 357.926 2156.3 363.689 Z" fill="#000000" fill-rule="evenodd" fill-opacity="1" /><path clip-path="url(#clip580)" d="M 0 0 M2176.51 333.065 L2198.73 333.065 L2198.73 335.055 L2186.19 367.625 L2181.3 367.625 L2193.11 337 L2176.51 337 L2176.51 333.065 Z" fill="#000000" fill-rule="evenodd" fill-opacity="1" /><path clip-path="url(#clip580)" d="M 0 0 M2213.8 351.213 Q2210.47 351.213 2208.55 352.995 Q2206.65 354.777 2206.65 357.902 Q2206.65 361.027 2208.55 362.81 Q2210.47 364.592 2213.8 364.592 Q2217.13 364.592 2219.06 362.81 Q2220.98 361.004 2220.98 357.902 Q2220.98 354.777 2219.06 352.995 Q2217.16 351.213 2213.8 351.213 M2209.13 349.222 Q2206.12 348.481 2204.43 346.421 Q2202.76 344.361 2202.76 341.398 Q2202.76 337.254 2205.7 334.847 Q2208.66 332.44 2213.8 332.44 Q2218.96 332.44 2221.9 334.847 Q2224.84 337.254 2224.84 341.398 Q2224.84 344.361 2223.15 346.421 Q2221.49 348.481 2218.5 349.222 Q2221.88 350.009 2223.76 352.301 Q2225.65 354.592 2225.65 357.902 Q2225.65 362.926 2222.57 365.611 Q2219.52 368.296 2213.8 368.296 Q2208.08 368.296 2205.01 365.611 Q2201.95 362.926 2201.95 357.902 Q2201.95 354.592 2203.85 352.301 Q2205.75 350.009 2209.13 349.222 M2207.41 341.838 Q2207.41 344.523 2209.08 346.028 Q2210.77 347.532 2213.8 347.532 Q2216.81 347.532 2218.5 346.028 Q2220.21 344.523 2220.21 341.838 Q2220.21 339.153 2218.5 337.648 Q2216.81 336.143 2213.8 336.143 Q2210.77 336.143 2209.08 337.648 Q2207.41 339.153 2207.41 341.838 Z" fill="#000000" fill-rule="evenodd" fill-opacity="1" /><polyline clip-path="url(#clip580)" style="stroke:#c271d2; stroke-width:4; stroke-opacity:1; fill:none" points="
  1557.69,410.825 1708.74,410.825 
  "/>
<circle clip-path="url(#clip580)" cx="1633.22" cy="410.825" r="23" fill="#c271d2" fill-rule="evenodd" fill-opacity="1" stroke="#000000" stroke-opacity="1" stroke-width="5.12"/>
<path clip-path="url(#clip580)" d="M 0 0 M1738.2 426.507 L1738.2 437.966 L1733.92 437.966 L1733.92 402.341 Q1733.92 391.785 1743.78 391.785 Q1753.83 391.785 1753.83 400.697 Q1753.83 407.04 1749.85 409.355 Q1756.33 411.438 1756.33 417.619 Q1756.33 428.591 1745.17 428.591 Q1740.26 428.591 1738.2 426.507 M1738.2 420.952 Q1740.77 424.957 1745.33 424.957 Q1752 424.957 1752 417.688 Q1752 411.16 1741.26 411.67 L1741.26 407.734 Q1749.66 407.734 1749.66 400.327 Q1749.66 395.258 1744.24 395.258 Q1738.2 395.258 1738.2 402.48 L1738.2 420.952 Z" fill="#000000" fill-rule="evenodd" fill-opacity="1" /><path clip-path="url(#clip580)" d="M 0 0 M1761.35 406.577 L1791.03 406.577 L1791.03 410.466 L1761.35 410.466 L1761.35 406.577 M1761.35 416.021 L1791.03 416.021 L1791.03 419.957 L1761.35 419.957 L1761.35 416.021 Z" fill="#000000" fill-rule="evenodd" fill-opacity="1" /><path clip-path="url(#clip580)" d="M 0 0 M1796.91 424.169 L1804.54 424.169 L1804.54 397.804 L1796.23 399.471 L1796.23 395.211 L1804.5 393.545 L1809.17 393.545 L1809.17 424.169 L1816.81 424.169 L1816.81 428.105 L1796.91 428.105 L1796.91 424.169 Z" fill="#000000" fill-rule="evenodd" fill-opacity="1" /><path clip-path="url(#clip580)" d="M 0 0 M1822.69 424.169 L1830.33 424.169 L1830.33 397.804 L1822.02 399.471 L1822.02 395.211 L1830.29 393.545 L1834.96 393.545 L1834.96 424.169 L1842.6 424.169 L1842.6 428.105 L1822.69 428.105 L1822.69 424.169 Z" fill="#000000" fill-rule="evenodd" fill-opacity="1" /><path clip-path="url(#clip580)" d="M 0 0 M1847.67 422.225 L1852.55 422.225 L1852.55 428.105 L1847.67 428.105 L1847.67 422.225 Z" fill="#000000" fill-rule="evenodd" fill-opacity="1" /><path clip-path="url(#clip580)" d="M 0 0 M1867.62 396.623 Q1864.01 396.623 1862.18 400.188 Q1860.38 403.73 1860.38 410.859 Q1860.38 417.966 1862.18 421.531 Q1864.01 425.072 1867.62 425.072 Q1871.26 425.072 1873.06 421.531 Q1874.89 417.966 1874.89 410.859 Q1874.89 403.73 1873.06 400.188 Q1871.26 396.623 1867.62 396.623 M1867.62 392.92 Q1873.43 392.92 1876.49 397.526 Q1879.57 402.109 1879.57 410.859 Q1879.57 419.586 1876.49 424.193 Q1873.43 428.776 1867.62 428.776 Q1861.81 428.776 1858.73 424.193 Q1855.68 419.586 1855.68 410.859 Q1855.68 402.109 1858.73 397.526 Q1861.81 392.92 1867.62 392.92 Z" fill="#000000" fill-rule="evenodd" fill-opacity="1" /></svg>
