<?xml version="1.0" encoding="utf-8"?>
<svg xmlns="http://www.w3.org/2000/svg" xmlns:xlink="http://www.w3.org/1999/xlink" width="600" height="400" viewBox="0 0 2400 1600">
<defs>
  <clipPath id="clip830">
    <rect x="0" y="0" width="2400" height="1600"/>
  </clipPath>
</defs>
<path clip-path="url(#clip830)" d="
M0 1600 L2400 1600 L2400 0 L0 0  Z
  " fill="#ffffff" fill-rule="evenodd" fill-opacity="1"/>
<defs>
  <clipPath id="clip831">
    <rect x="480" y="0" width="1681" height="1600"/>
  </clipPath>
</defs>
<path clip-path="url(#clip830)" d="
M86.9921 1486.45 L2352.76 1486.45 L2352.76 123.472 L86.9921 123.472  Z
  " fill="#ffffff" fill-rule="evenodd" fill-opacity="1"/>
<defs>
  <clipPath id="clip832">
    <rect x="86" y="123" width="2267" height="1364"/>
  </clipPath>
</defs>
<polyline clip-path="url(#clip832)" style="stroke:#000000; stroke-width:2; stroke-opacity:0.1; fill:none" points="
  314.97,1486.45 314.97,123.472 
  "/>
<polyline clip-path="url(#clip832)" style="stroke:#000000; stroke-width:2; stroke-opacity:0.1; fill:none" points="
  767.422,1486.45 767.422,123.472 
  "/>
<polyline clip-path="url(#clip832)" style="stroke:#000000; stroke-width:2; stroke-opacity:0.1; fill:none" points="
  1219.87,1486.45 1219.87,123.472 
  "/>
<polyline clip-path="url(#clip832)" style="stroke:#000000; stroke-width:2; stroke-opacity:0.1; fill:none" points="
  1672.33,1486.45 1672.33,123.472 
  "/>
<polyline clip-path="url(#clip832)" style="stroke:#000000; stroke-width:2; stroke-opacity:0.1; fill:none" points="
  2124.78,1486.45 2124.78,123.472 
  "/>
<polyline clip-path="url(#clip830)" style="stroke:#000000; stroke-width:4; stroke-opacity:1; fill:none" points="
  86.9921,1486.45 2352.76,1486.45 
  "/>
<polyline clip-path="url(#clip830)" style="stroke:#000000; stroke-width:4; stroke-opacity:1; fill:none" points="
  314.97,1486.45 314.97,1470.09 
  "/>
<polyline clip-path="url(#clip830)" style="stroke:#000000; stroke-width:4; stroke-opacity:1; fill:none" points="
  767.422,1486.45 767.422,1470.09 
  "/>
<polyline clip-path="url(#clip830)" style="stroke:#000000; stroke-width:4; stroke-opacity:1; fill:none" points="
  1219.87,1486.45 1219.87,1470.09 
  "/>
<polyline clip-path="url(#clip830)" style="stroke:#000000; stroke-width:4; stroke-opacity:1; fill:none" points="
  1672.33,1486.45 1672.33,1470.09 
  "/>
<polyline clip-path="url(#clip830)" style="stroke:#000000; stroke-width:4; stroke-opacity:1; fill:none" points="
  2124.78,1486.45 2124.78,1470.09 
  "/>
<path clip-path="url(#clip830)" d="M 0 0 M282.979 1515.64 Q279.368 1515.64 277.539 1519.2 Q275.734 1522.75 275.734 1529.87 Q275.734 1536.98 277.539 1540.55 Q279.368 1544.09 282.979 1544.09 Q286.613 1544.09 288.419 1540.55 Q290.247 1536.98 290.247 1529.87 Q290.247 1522.75 288.419 1519.2 Q286.613 1515.64 282.979 1515.64 M282.979 1511.93 Q288.789 1511.93 291.845 1516.54 Q294.923 1521.12 294.923 1529.87 Q294.923 1538.6 291.845 1543.21 Q288.789 1547.79 282.979 1547.79 Q277.169 1547.79 274.09 1543.21 Q271.035 1538.6 271.035 1529.87 Q271.035 1521.12 274.09 1516.54 Q277.169 1511.93 282.979 1511.93 Z" fill="#000000" fill-rule="evenodd" fill-opacity="1" /><path clip-path="url(#clip830)" d="M 0 0 M299.993 1541.24 L304.877 1541.24 L304.877 1547.12 L299.993 1547.12 L299.993 1541.24 Z" fill="#000000" fill-rule="evenodd" fill-opacity="1" /><path clip-path="url(#clip830)" d="M 0 0 M319.946 1515.64 Q316.335 1515.64 314.507 1519.2 Q312.701 1522.75 312.701 1529.87 Q312.701 1536.98 314.507 1540.55 Q316.335 1544.09 319.946 1544.09 Q323.581 1544.09 325.386 1540.55 Q327.215 1536.98 327.215 1529.87 Q327.215 1522.75 325.386 1519.2 Q323.581 1515.64 319.946 1515.64 M319.946 1511.93 Q325.756 1511.93 328.812 1516.54 Q331.891 1521.12 331.891 1529.87 Q331.891 1538.6 328.812 1543.21 Q325.756 1547.79 319.946 1547.79 Q314.136 1547.79 311.057 1543.21 Q308.002 1538.6 308.002 1529.87 Q308.002 1521.12 311.057 1516.54 Q314.136 1511.93 319.946 1511.93 Z" fill="#000000" fill-rule="evenodd" fill-opacity="1" /><path clip-path="url(#clip830)" d="M 0 0 M346.96 1515.64 Q343.349 1515.64 341.52 1519.2 Q339.715 1522.75 339.715 1529.87 Q339.715 1536.98 341.52 1540.55 Q343.349 1544.09 346.96 1544.09 Q350.594 1544.09 352.4 1540.55 Q354.229 1536.98 354.229 1529.87 Q354.229 1522.75 352.4 1519.2 Q350.594 1515.64 346.96 1515.64 M346.96 1511.93 Q352.77 1511.93 355.826 1516.54 Q358.904 1521.12 358.904 1529.87 Q358.904 1538.6 355.826 1543.21 Q352.77 1547.79 346.96 1547.79 Q341.15 1547.79 338.071 1543.21 Q335.016 1538.6 335.016 1529.87 Q335.016 1521.12 338.071 1516.54 Q341.15 1511.93 346.96 1511.93 Z" fill="#000000" fill-rule="evenodd" fill-opacity="1" /><path clip-path="url(#clip830)" d="M 0 0 M736.727 1515.64 Q733.116 1515.64 731.288 1519.2 Q729.482 1522.75 729.482 1529.87 Q729.482 1536.98 731.288 1540.55 Q733.116 1544.09 736.727 1544.09 Q740.362 1544.09 742.167 1540.55 Q743.996 1536.98 743.996 1529.87 Q743.996 1522.75 742.167 1519.2 Q740.362 1515.64 736.727 1515.64 M736.727 1511.93 Q742.538 1511.93 745.593 1516.54 Q748.672 1521.12 748.672 1529.87 Q748.672 1538.6 745.593 1543.21 Q742.538 1547.79 736.727 1547.79 Q730.917 1547.79 727.839 1543.21 Q724.783 1538.6 724.783 1529.87 Q724.783 1521.12 727.839 1516.54 Q730.917 1511.93 736.727 1511.93 Z" fill="#000000" fill-rule="evenodd" fill-opacity="1" /><path clip-path="url(#clip830)" d="M 0 0 M753.741 1541.24 L758.626 1541.24 L758.626 1547.12 L753.741 1547.12 L753.741 1541.24 Z" fill="#000000" fill-rule="evenodd" fill-opacity="1" /><path clip-path="url(#clip830)" d="M 0 0 M767.723 1543.18 L784.042 1543.18 L784.042 1547.12 L762.098 1547.12 L762.098 1543.18 Q764.76 1540.43 769.343 1535.8 Q773.95 1531.15 775.13 1529.81 Q777.375 1527.28 778.255 1525.55 Q779.158 1523.79 779.158 1522.1 Q779.158 1519.34 777.213 1517.61 Q775.292 1515.87 772.19 1515.87 Q769.991 1515.87 767.537 1516.63 Q765.107 1517.4 762.329 1518.95 L762.329 1514.23 Q765.153 1513.09 767.607 1512.51 Q770.061 1511.93 772.098 1511.93 Q777.468 1511.93 780.662 1514.62 Q783.857 1517.31 783.857 1521.8 Q783.857 1523.93 783.047 1525.85 Q782.26 1527.74 780.153 1530.34 Q779.574 1531.01 776.473 1534.23 Q773.371 1537.42 767.723 1543.18 Z" fill="#000000" fill-rule="evenodd" fill-opacity="1" /><path clip-path="url(#clip830)" d="M 0 0 M789.158 1512.56 L807.514 1512.56 L807.514 1516.5 L793.44 1516.5 L793.44 1524.97 Q794.459 1524.62 795.477 1524.46 Q796.496 1524.27 797.514 1524.27 Q803.301 1524.27 806.681 1527.44 Q810.06 1530.62 810.06 1536.03 Q810.06 1541.61 806.588 1544.71 Q803.116 1547.79 796.797 1547.79 Q794.621 1547.79 792.352 1547.42 Q790.107 1547.05 787.699 1546.31 L787.699 1541.61 Q789.783 1542.74 792.005 1543.3 Q794.227 1543.86 796.704 1543.86 Q800.709 1543.86 803.047 1541.75 Q805.385 1539.64 805.385 1536.03 Q805.385 1532.42 803.047 1530.31 Q800.709 1528.21 796.704 1528.21 Q794.829 1528.21 792.954 1528.62 Q791.102 1529.04 789.158 1529.92 L789.158 1512.56 Z" fill="#000000" fill-rule="evenodd" fill-opacity="1" /><path clip-path="url(#clip830)" d="M 0 0 M1188.38 1515.64 Q1184.77 1515.64 1182.94 1519.2 Q1181.14 1522.75 1181.14 1529.87 Q1181.14 1536.98 1182.94 1540.55 Q1184.77 1544.09 1188.38 1544.09 Q1192.02 1544.09 1193.82 1540.55 Q1195.65 1536.98 1195.65 1529.87 Q1195.65 1522.75 1193.82 1519.2 Q1192.02 1515.64 1188.38 1515.64 M1188.38 1511.93 Q1194.19 1511.93 1197.25 1516.54 Q1200.33 1521.12 1200.33 1529.87 Q1200.33 1538.6 1197.25 1543.21 Q1194.19 1547.79 1188.38 1547.79 Q1182.57 1547.79 1179.49 1543.21 Q1176.44 1538.6 1176.44 1529.87 Q1176.44 1521.12 1179.49 1516.54 Q1182.57 1511.93 1188.38 1511.93 Z" fill="#000000" fill-rule="evenodd" fill-opacity="1" /><path clip-path="url(#clip830)" d="M 0 0 M1205.39 1541.24 L1210.28 1541.24 L1210.28 1547.12 L1205.39 1547.12 L1205.39 1541.24 Z" fill="#000000" fill-rule="evenodd" fill-opacity="1" /><path clip-path="url(#clip830)" d="M 0 0 M1215.39 1512.56 L1233.75 1512.56 L1233.75 1516.5 L1219.68 1516.5 L1219.68 1524.97 Q1220.7 1524.62 1221.71 1524.46 Q1222.73 1524.27 1223.75 1524.27 Q1229.54 1524.27 1232.92 1527.44 Q1236.3 1530.62 1236.3 1536.03 Q1236.3 1541.61 1232.83 1544.71 Q1229.35 1547.79 1223.03 1547.79 Q1220.86 1547.79 1218.59 1547.42 Q1216.34 1547.05 1213.94 1546.31 L1213.94 1541.61 Q1216.02 1542.74 1218.24 1543.3 Q1220.46 1543.86 1222.94 1543.86 Q1226.95 1543.86 1229.28 1541.75 Q1231.62 1539.64 1231.62 1536.03 Q1231.62 1532.42 1229.28 1530.31 Q1226.95 1528.21 1222.94 1528.21 Q1221.07 1528.21 1219.19 1528.62 Q1217.34 1529.04 1215.39 1529.92 L1215.39 1512.56 Z" fill="#000000" fill-rule="evenodd" fill-opacity="1" /><path clip-path="url(#clip830)" d="M 0 0 M1251.37 1515.64 Q1247.76 1515.64 1245.93 1519.2 Q1244.12 1522.75 1244.12 1529.87 Q1244.12 1536.98 1245.93 1540.55 Q1247.76 1544.09 1251.37 1544.09 Q1255 1544.09 1256.81 1540.55 Q1258.64 1536.98 1258.64 1529.87 Q1258.64 1522.75 1256.81 1519.2 Q1255 1515.64 1251.37 1515.64 M1251.37 1511.93 Q1257.18 1511.93 1260.23 1516.54 Q1263.31 1521.12 1263.31 1529.87 Q1263.31 1538.6 1260.23 1543.21 Q1257.18 1547.79 1251.37 1547.79 Q1245.56 1547.79 1242.48 1543.21 Q1239.42 1538.6 1239.42 1529.87 Q1239.42 1521.12 1242.48 1516.54 Q1245.56 1511.93 1251.37 1511.93 Z" fill="#000000" fill-rule="evenodd" fill-opacity="1" /><path clip-path="url(#clip830)" d="M 0 0 M1641.28 1515.64 Q1637.67 1515.64 1635.84 1519.2 Q1634.04 1522.75 1634.04 1529.87 Q1634.04 1536.98 1635.84 1540.55 Q1637.67 1544.09 1641.28 1544.09 Q1644.92 1544.09 1646.72 1540.55 Q1648.55 1536.98 1648.55 1529.87 Q1648.55 1522.75 1646.72 1519.2 Q1644.92 1515.64 1641.28 1515.64 M1641.28 1511.93 Q1647.09 1511.93 1650.15 1516.54 Q1653.23 1521.12 1653.23 1529.87 Q1653.23 1538.6 1650.15 1543.21 Q1647.09 1547.79 1641.28 1547.79 Q1635.47 1547.79 1632.4 1543.21 Q1629.34 1538.6 1629.34 1529.87 Q1629.34 1521.12 1632.4 1516.54 Q1635.47 1511.93 1641.28 1511.93 Z" fill="#000000" fill-rule="evenodd" fill-opacity="1" /><path clip-path="url(#clip830)" d="M 0 0 M1658.3 1541.24 L1663.18 1541.24 L1663.18 1547.12 L1658.3 1547.12 L1658.3 1541.24 Z" fill="#000000" fill-rule="evenodd" fill-opacity="1" /><path clip-path="url(#clip830)" d="M 0 0 M1667.07 1512.56 L1689.29 1512.56 L1689.29 1514.55 L1676.75 1547.12 L1671.86 1547.12 L1683.67 1516.5 L1667.07 1516.5 L1667.07 1512.56 Z" fill="#000000" fill-rule="evenodd" fill-opacity="1" /><path clip-path="url(#clip830)" d="M 0 0 M1694.41 1512.56 L1712.77 1512.56 L1712.77 1516.5 L1698.69 1516.5 L1698.69 1524.97 Q1699.71 1524.62 1700.73 1524.46 Q1701.75 1524.27 1702.77 1524.27 Q1708.55 1524.27 1711.93 1527.44 Q1715.31 1530.62 1715.31 1536.03 Q1715.31 1541.61 1711.84 1544.71 Q1708.37 1547.79 1702.05 1547.79 Q1699.87 1547.79 1697.6 1547.42 Q1695.36 1547.05 1692.95 1546.31 L1692.95 1541.61 Q1695.03 1542.74 1697.26 1543.3 Q1699.48 1543.86 1701.96 1543.86 Q1705.96 1543.86 1708.3 1541.75 Q1710.64 1539.64 1710.64 1536.03 Q1710.64 1532.42 1708.3 1530.31 Q1705.96 1528.21 1701.96 1528.21 Q1700.08 1528.21 1698.21 1528.62 Q1696.35 1529.04 1694.41 1529.92 L1694.41 1512.56 Z" fill="#000000" fill-rule="evenodd" fill-opacity="1" /><path clip-path="url(#clip830)" d="M 0 0 M2083.17 1543.18 L2090.81 1543.18 L2090.81 1516.82 L2082.5 1518.49 L2082.5 1514.23 L2090.76 1512.56 L2095.44 1512.56 L2095.44 1543.18 L2103.08 1543.18 L2103.08 1547.12 L2083.17 1547.12 L2083.17 1543.18 Z" fill="#000000" fill-rule="evenodd" fill-opacity="1" /><path clip-path="url(#clip830)" d="M 0 0 M2108.15 1541.24 L2113.03 1541.24 L2113.03 1547.12 L2108.15 1547.12 L2108.15 1541.24 Z" fill="#000000" fill-rule="evenodd" fill-opacity="1" /><path clip-path="url(#clip830)" d="M 0 0 M2128.1 1515.64 Q2124.49 1515.64 2122.66 1519.2 Q2120.85 1522.75 2120.85 1529.87 Q2120.85 1536.98 2122.66 1540.55 Q2124.49 1544.09 2128.1 1544.09 Q2131.73 1544.09 2133.54 1540.55 Q2135.37 1536.98 2135.37 1529.87 Q2135.37 1522.75 2133.54 1519.2 Q2131.73 1515.64 2128.1 1515.64 M2128.1 1511.93 Q2133.91 1511.93 2136.97 1516.54 Q2140.04 1521.12 2140.04 1529.87 Q2140.04 1538.6 2136.97 1543.21 Q2133.91 1547.79 2128.1 1547.79 Q2122.29 1547.79 2119.21 1543.21 Q2116.16 1538.6 2116.16 1529.87 Q2116.16 1521.12 2119.21 1516.54 Q2122.29 1511.93 2128.1 1511.93 Z" fill="#000000" fill-rule="evenodd" fill-opacity="1" /><path clip-path="url(#clip830)" d="M 0 0 M2155.11 1515.64 Q2151.5 1515.64 2149.67 1519.2 Q2147.87 1522.75 2147.87 1529.87 Q2147.87 1536.98 2149.67 1540.55 Q2151.5 1544.09 2155.11 1544.09 Q2158.75 1544.09 2160.55 1540.55 Q2162.38 1536.98 2162.38 1529.87 Q2162.38 1522.75 2160.55 1519.2 Q2158.75 1515.64 2155.11 1515.64 M2155.11 1511.93 Q2160.92 1511.93 2163.98 1516.54 Q2167.06 1521.12 2167.06 1529.87 Q2167.06 1538.6 2163.98 1543.21 Q2160.92 1547.79 2155.11 1547.79 Q2149.3 1547.79 2146.23 1543.21 Q2143.17 1538.6 2143.17 1529.87 Q2143.17 1521.12 2146.23 1516.54 Q2149.3 1511.93 2155.11 1511.93 Z" fill="#000000" fill-rule="evenodd" fill-opacity="1" /><polyline clip-path="url(#clip830)" style="stroke:#000000; stroke-width:4; stroke-opacity:1; fill:none" points="
  86.9921,1486.45 86.9921,123.472 
  "/>
<path clip-path="url(#clip830)" d="M 0 0 M781.85 44.2197 Q784.483 45.1109 786.954 48.0275 Q789.465 50.9442 791.977 56.0483 L800.281 72.576 L791.491 72.576 L783.754 57.061 Q780.756 50.9847 777.92 48.9997 Q775.125 47.0148 770.264 47.0148 L761.352 47.0148 L761.352 72.576 L753.169 72.576 L753.169 12.096 L771.641 12.096 Q782.012 12.096 787.116 16.4305 Q792.22 20.7649 792.22 29.5149 Q792.22 35.2267 789.546 38.994 Q786.913 42.7613 781.85 44.2197 M761.352 18.8205 L761.352 40.2903 L771.641 40.2903 Q777.556 40.2903 780.553 37.5762 Q783.592 34.8216 783.592 29.5149 Q783.592 24.2082 780.553 21.5346 Q777.556 18.8205 771.641 18.8205 L761.352 18.8205 Z" fill="#000000" fill-rule="evenodd" fill-opacity="1" /><path clip-path="url(#clip830)" d="M 0 0 M821.954 32.4315 Q815.958 32.4315 812.475 37.1306 Q808.991 41.7891 808.991 49.9314 Q808.991 58.0738 812.434 62.7728 Q815.918 67.4314 821.954 67.4314 Q827.909 67.4314 831.392 62.7323 Q834.876 58.0333 834.876 49.9314 Q834.876 41.8701 831.392 37.1711 Q827.909 32.4315 821.954 32.4315 M821.954 26.1121 Q831.676 26.1121 837.226 32.4315 Q842.775 38.7509 842.775 49.9314 Q842.775 61.0714 837.226 67.4314 Q831.676 73.7508 821.954 73.7508 Q812.191 73.7508 806.641 67.4314 Q801.132 61.0714 801.132 49.9314 Q801.132 38.7509 806.641 32.4315 Q812.191 26.1121 821.954 26.1121 Z" fill="#000000" fill-rule="evenodd" fill-opacity="1" /><path clip-path="url(#clip830)" d="M 0 0 M883.163 49.9314 Q883.163 41.7081 879.76 37.0496 Q876.398 32.3505 870.484 32.3505 Q864.569 32.3505 861.166 37.0496 Q857.804 41.7081 857.804 49.9314 Q857.804 58.1548 861.166 62.8538 Q864.569 67.5124 870.484 67.5124 Q876.398 67.5124 879.76 62.8538 Q883.163 58.1548 883.163 49.9314 M857.804 34.0924 Q860.154 30.0415 863.719 28.0971 Q867.324 26.1121 872.306 26.1121 Q880.57 26.1121 885.715 32.6746 Q890.9 39.2371 890.9 49.9314 Q890.9 60.6258 885.715 67.1883 Q880.57 73.7508 872.306 73.7508 Q867.324 73.7508 863.719 71.8063 Q860.154 69.8214 857.804 65.7705 L857.804 72.576 L850.31 72.576 L850.31 9.54393 L857.804 9.54393 L857.804 34.0924 Z" fill="#000000" fill-rule="evenodd" fill-opacity="1" /><path clip-path="url(#clip830)" d="M 0 0 M937.526 48.0275 L937.526 51.6733 L903.255 51.6733 Q903.741 59.3701 907.873 63.421 Q912.046 67.4314 919.459 67.4314 Q923.753 67.4314 927.763 66.3781 Q931.814 65.3249 935.784 63.2184 L935.784 70.267 Q931.774 71.9684 927.561 72.8596 Q923.348 73.7508 919.013 73.7508 Q908.157 73.7508 901.797 67.4314 Q895.478 61.1119 895.478 50.3365 Q895.478 39.1965 901.473 32.6746 Q907.509 26.1121 917.717 26.1121 Q926.872 26.1121 932.179 32.0264 Q937.526 37.9003 937.526 48.0275 M930.072 45.84 Q929.991 39.7232 926.629 36.0774 Q923.307 32.4315 917.798 32.4315 Q911.56 32.4315 907.792 35.9558 Q904.066 39.4801 903.498 45.8805 L930.072 45.84 Z" fill="#000000" fill-rule="evenodd" fill-opacity="1" /><path clip-path="url(#clip830)" d="M 0 0 M971.635 34.1734 Q970.379 33.4443 968.88 33.1202 Q967.422 32.7556 965.639 32.7556 Q959.32 32.7556 955.917 36.8875 Q952.555 40.9789 952.555 48.6757 L952.555 72.576 L945.061 72.576 L945.061 27.2059 L952.555 27.2059 L952.555 34.2544 Q954.904 30.1225 958.672 28.1376 Q962.439 26.1121 967.827 26.1121 Q968.596 26.1121 969.528 26.2337 Q970.46 26.3147 971.594 26.5172 L971.635 34.1734 Z" fill="#000000" fill-rule="evenodd" fill-opacity="1" /><path clip-path="url(#clip830)" d="M 0 0 M986.825 14.324 L986.825 27.2059 L1002.18 27.2059 L1002.18 32.9987 L986.825 32.9987 L986.825 57.6282 Q986.825 63.1779 988.324 64.7578 Q989.864 66.3376 994.522 66.3376 L1002.18 66.3376 L1002.18 72.576 L994.522 72.576 Q985.894 72.576 982.613 69.3758 Q979.331 66.1351 979.331 57.6282 L979.331 32.9987 L973.863 32.9987 L973.863 27.2059 L979.331 27.2059 L979.331 14.324 L986.825 14.324 Z" fill="#000000" fill-rule="evenodd" fill-opacity="1" /><path clip-path="url(#clip830)" d="M 0 0 M1038.92 28.5427 L1038.92 35.5912 Q1035.76 33.9709 1032.36 33.1607 Q1028.95 32.3505 1025.31 32.3505 Q1019.76 32.3505 1016.96 34.0519 Q1014.21 35.7533 1014.21 39.156 Q1014.21 41.7486 1016.19 43.2475 Q1018.18 44.7058 1024.17 46.0426 L1026.73 46.6097 Q1034.67 48.3111 1037.99 51.4303 Q1041.35 54.509 1041.35 60.0587 Q1041.35 66.3781 1036.33 70.0644 Q1031.34 73.7508 1022.59 73.7508 Q1018.95 73.7508 1014.98 73.0216 Q1011.05 72.3329 1006.67 70.9151 L1006.67 63.2184 Q1010.81 65.3654 1014.82 66.4591 Q1018.83 67.5124 1022.76 67.5124 Q1028.02 67.5124 1030.86 65.73 Q1033.69 63.9071 1033.69 60.6258 Q1033.69 57.5877 1031.63 55.9673 Q1029.6 54.3469 1022.68 52.8481 L1020.08 52.2405 Q1013.16 50.7821 1010.08 47.7845 Q1007 44.7463 1007 39.4801 Q1007 33.0797 1011.54 29.5959 Q1016.07 26.1121 1024.42 26.1121 Q1028.55 26.1121 1032.2 26.7198 Q1035.84 27.3274 1038.92 28.5427 Z" fill="#000000" fill-rule="evenodd" fill-opacity="1" /><path clip-path="url(#clip830)" d="M 0 0 M1104.46 28.5427 L1104.46 35.5912 Q1101.3 33.9709 1097.9 33.1607 Q1094.5 32.3505 1090.85 32.3505 Q1085.3 32.3505 1082.51 34.0519 Q1079.75 35.7533 1079.75 39.156 Q1079.75 41.7486 1081.74 43.2475 Q1083.72 44.7058 1089.72 46.0426 L1092.27 46.6097 Q1100.21 48.3111 1103.53 51.4303 Q1106.89 54.509 1106.89 60.0587 Q1106.89 66.3781 1101.87 70.0644 Q1096.89 73.7508 1088.14 73.7508 Q1084.49 73.7508 1080.52 73.0216 Q1076.59 72.3329 1072.22 70.9151 L1072.22 63.2184 Q1076.35 65.3654 1080.36 66.4591 Q1084.37 67.5124 1088.3 67.5124 Q1093.57 67.5124 1096.4 65.73 Q1099.24 63.9071 1099.24 60.6258 Q1099.24 57.5877 1097.17 55.9673 Q1095.15 54.3469 1088.22 52.8481 L1085.63 52.2405 Q1078.7 50.7821 1075.62 47.7845 Q1072.54 44.7463 1072.54 39.4801 Q1072.54 33.0797 1077.08 29.5959 Q1081.62 26.1121 1089.96 26.1121 Q1094.09 26.1121 1097.74 26.7198 Q1101.39 27.3274 1104.46 28.5427 Z" fill="#000000" fill-rule="evenodd" fill-opacity="1" /><path clip-path="url(#clip830)" d="M 0 0 M1122.09 14.324 L1122.09 27.2059 L1137.44 27.2059 L1137.44 32.9987 L1122.09 32.9987 L1122.09 57.6282 Q1122.09 63.1779 1123.58 64.7578 Q1125.12 66.3376 1129.78 66.3376 L1137.44 66.3376 L1137.44 72.576 L1129.78 72.576 Q1121.15 72.576 1117.87 69.3758 Q1114.59 66.1351 1114.59 57.6282 L1114.59 32.9987 L1109.12 32.9987 L1109.12 27.2059 L1114.59 27.2059 L1114.59 14.324 L1122.09 14.324 Z" fill="#000000" fill-rule="evenodd" fill-opacity="1" /><path clip-path="url(#clip830)" d="M 0 0 M1171.55 34.1734 Q1170.29 33.4443 1168.79 33.1202 Q1167.33 32.7556 1165.55 32.7556 Q1159.23 32.7556 1155.83 36.8875 Q1152.47 40.9789 1152.47 48.6757 L1152.47 72.576 L1144.97 72.576 L1144.97 27.2059 L1152.47 27.2059 L1152.47 34.2544 Q1154.82 30.1225 1158.58 28.1376 Q1162.35 26.1121 1167.74 26.1121 Q1168.51 26.1121 1169.44 26.2337 Q1170.37 26.3147 1171.51 26.5172 L1171.55 34.1734 Z" fill="#000000" fill-rule="evenodd" fill-opacity="1" /><path clip-path="url(#clip830)" d="M 0 0 M1216.35 48.0275 L1216.35 51.6733 L1182.08 51.6733 Q1182.57 59.3701 1186.7 63.421 Q1190.87 67.4314 1198.28 67.4314 Q1202.58 67.4314 1206.59 66.3781 Q1210.64 65.3249 1214.61 63.2184 L1214.61 70.267 Q1210.6 71.9684 1206.38 72.8596 Q1202.17 73.7508 1197.84 73.7508 Q1186.98 73.7508 1180.62 67.4314 Q1174.3 61.1119 1174.3 50.3365 Q1174.3 39.1965 1180.3 32.6746 Q1186.33 26.1121 1196.54 26.1121 Q1205.7 26.1121 1211 32.0264 Q1216.35 37.9003 1216.35 48.0275 M1208.9 45.84 Q1208.82 39.7232 1205.45 36.0774 Q1202.13 32.4315 1196.62 32.4315 Q1190.38 32.4315 1186.62 35.9558 Q1182.89 39.4801 1182.32 45.8805 L1208.9 45.84 Z" fill="#000000" fill-rule="evenodd" fill-opacity="1" /><path clip-path="url(#clip830)" d="M 0 0 M1231.54 14.324 L1231.54 27.2059 L1246.89 27.2059 L1246.89 32.9987 L1231.54 32.9987 L1231.54 57.6282 Q1231.54 63.1779 1233.04 64.7578 Q1234.58 66.3376 1239.24 66.3376 L1246.89 66.3376 L1246.89 72.576 L1239.24 72.576 Q1230.61 72.576 1227.33 69.3758 Q1224.05 66.1351 1224.05 57.6282 L1224.05 32.9987 L1218.58 32.9987 L1218.58 27.2059 L1224.05 27.2059 L1224.05 14.324 L1231.54 14.324 Z" fill="#000000" fill-rule="evenodd" fill-opacity="1" /><path clip-path="url(#clip830)" d="M 0 0 M1287.36 28.9478 L1287.36 35.9153 Q1284.2 34.1734 1281 33.3227 Q1277.84 32.4315 1274.6 32.4315 Q1267.35 32.4315 1263.34 37.0496 Q1259.33 41.6271 1259.33 49.9314 Q1259.33 58.2358 1263.34 62.8538 Q1267.35 67.4314 1274.6 67.4314 Q1277.84 67.4314 1281 66.5807 Q1284.2 65.6895 1287.36 63.9476 L1287.36 70.8341 Q1284.24 72.2924 1280.88 73.0216 Q1277.56 73.7508 1273.79 73.7508 Q1263.54 73.7508 1257.51 67.3098 Q1251.47 60.8689 1251.47 49.9314 Q1251.47 38.832 1257.55 32.472 Q1263.66 26.1121 1274.28 26.1121 Q1277.72 26.1121 1281 26.8413 Q1284.28 27.5299 1287.36 28.9478 Z" fill="#000000" fill-rule="evenodd" fill-opacity="1" /><path clip-path="url(#clip830)" d="M 0 0 M1332.89 45.1919 L1332.89 72.576 L1325.44 72.576 L1325.44 45.4349 Q1325.44 38.994 1322.93 35.7938 Q1320.42 32.5936 1315.39 32.5936 Q1309.36 32.5936 1305.87 36.4419 Q1302.39 40.2903 1302.39 46.9338 L1302.39 72.576 L1294.9 72.576 L1294.9 9.54393 L1302.39 9.54393 L1302.39 34.2544 Q1305.06 30.163 1308.67 28.1376 Q1312.32 26.1121 1317.06 26.1121 Q1324.87 26.1121 1328.88 30.9732 Q1332.89 35.7938 1332.89 45.1919 Z" fill="#000000" fill-rule="evenodd" fill-opacity="1" /><path clip-path="url(#clip830)" d="M 0 0 M1340.71 27.2059 L1348.17 27.2059 L1348.17 72.576 L1340.71 72.576 L1340.71 27.2059 M1340.71 9.54393 L1348.17 9.54393 L1348.17 18.9825 L1340.71 18.9825 L1340.71 9.54393 Z" fill="#000000" fill-rule="evenodd" fill-opacity="1" /><path clip-path="url(#clip830)" d="M 0 0 M1393.7 45.1919 L1393.7 72.576 L1386.24 72.576 L1386.24 45.4349 Q1386.24 38.994 1383.73 35.7938 Q1381.22 32.5936 1376.2 32.5936 Q1370.16 32.5936 1366.68 36.4419 Q1363.2 40.2903 1363.2 46.9338 L1363.2 72.576 L1355.7 72.576 L1355.7 27.2059 L1363.2 27.2059 L1363.2 34.2544 Q1365.87 30.163 1369.47 28.1376 Q1373.12 26.1121 1377.86 26.1121 Q1385.68 26.1121 1389.69 30.9732 Q1393.7 35.7938 1393.7 45.1919 Z" fill="#000000" fill-rule="evenodd" fill-opacity="1" /><path clip-path="url(#clip830)" d="M 0 0 M1431.37 49.3643 Q1431.37 41.2625 1428.01 36.8065 Q1424.69 32.3505 1418.65 32.3505 Q1412.66 32.3505 1409.29 36.8065 Q1405.97 41.2625 1405.97 49.3643 Q1405.97 57.4256 1409.29 61.8816 Q1412.66 66.3376 1418.65 66.3376 Q1424.69 66.3376 1428.01 61.8816 Q1431.37 57.4256 1431.37 49.3643 M1438.83 66.9452 Q1438.83 78.5308 1433.68 84.1616 Q1428.54 89.8329 1417.92 89.8329 Q1413.99 89.8329 1410.51 89.2252 Q1407.03 88.6581 1403.74 87.4428 L1403.74 80.1917 Q1407.03 81.9741 1410.23 82.8248 Q1413.43 83.6755 1416.75 83.6755 Q1424.08 83.6755 1427.73 79.8271 Q1431.37 76.0193 1431.37 68.282 L1431.37 64.5957 Q1429.06 68.6061 1425.46 70.5911 Q1421.85 72.576 1416.83 72.576 Q1408.48 72.576 1403.38 66.2161 Q1398.28 59.8562 1398.28 49.3643 Q1398.28 38.832 1403.38 32.472 Q1408.48 26.1121 1416.83 26.1121 Q1421.85 26.1121 1425.46 28.0971 Q1429.06 30.082 1431.37 34.0924 L1431.37 27.2059 L1438.83 27.2059 L1438.83 66.9452 Z" fill="#000000" fill-rule="evenodd" fill-opacity="1" /><path clip-path="url(#clip830)" d="M 0 0 M1490.92 9.62495 Q1485.49 18.942 1482.86 28.0566 Q1480.23 37.1711 1480.23 46.5287 Q1480.23 55.8863 1482.86 65.0818 Q1485.53 74.2369 1490.92 83.5134 L1484.44 83.5134 Q1478.36 73.9938 1475.32 64.7983 Q1472.33 55.6027 1472.33 46.5287 Q1472.33 37.4952 1475.32 28.3401 Q1478.32 19.1851 1484.44 9.62495 L1490.92 9.62495 Z" fill="#000000" fill-rule="evenodd" fill-opacity="1" /><path clip-path="url(#clip830)" d="M 0 0 M1531.31 49.9314 Q1531.31 41.7081 1527.9 37.0496 Q1524.54 32.3505 1518.63 32.3505 Q1512.71 32.3505 1509.31 37.0496 Q1505.95 41.7081 1505.95 49.9314 Q1505.95 58.1548 1509.31 62.8538 Q1512.71 67.5124 1518.63 67.5124 Q1524.54 67.5124 1527.9 62.8538 Q1531.31 58.1548 1531.31 49.9314 M1505.95 34.0924 Q1508.3 30.0415 1511.86 28.0971 Q1515.47 26.1121 1520.45 26.1121 Q1528.71 26.1121 1533.86 32.6746 Q1539.04 39.2371 1539.04 49.9314 Q1539.04 60.6258 1533.86 67.1883 Q1528.71 73.7508 1520.45 73.7508 Q1515.47 73.7508 1511.86 71.8063 Q1508.3 69.8214 1505.95 65.7705 L1505.95 72.576 L1498.45 72.576 L1498.45 9.54393 L1505.95 9.54393 L1505.95 34.0924 Z" fill="#000000" fill-rule="evenodd" fill-opacity="1" /><path clip-path="url(#clip830)" d="M 0 0 M1564.44 32.4315 Q1558.45 32.4315 1554.96 37.1306 Q1551.48 41.7891 1551.48 49.9314 Q1551.48 58.0738 1554.92 62.7728 Q1558.41 67.4314 1564.44 67.4314 Q1570.4 67.4314 1573.88 62.7323 Q1577.37 58.0333 1577.37 49.9314 Q1577.37 41.8701 1573.88 37.1711 Q1570.4 32.4315 1564.44 32.4315 M1564.44 26.1121 Q1574.17 26.1121 1579.72 32.4315 Q1585.27 38.7509 1585.27 49.9314 Q1585.27 61.0714 1579.72 67.4314 Q1574.17 73.7508 1564.44 73.7508 Q1554.68 73.7508 1549.13 67.4314 Q1543.62 61.0714 1543.62 49.9314 Q1543.62 38.7509 1549.13 32.4315 Q1554.68 26.1121 1564.44 26.1121 Z" fill="#000000" fill-rule="evenodd" fill-opacity="1" /><path clip-path="url(#clip830)" d="M 0 0 M1600.46 14.324 L1600.46 27.2059 L1615.81 27.2059 L1615.81 32.9987 L1600.46 32.9987 L1600.46 57.6282 Q1600.46 63.1779 1601.96 64.7578 Q1603.49 66.3376 1608.15 66.3376 L1615.81 66.3376 L1615.81 72.576 L1608.15 72.576 Q1599.52 72.576 1596.24 69.3758 Q1592.96 66.1351 1592.96 57.6282 L1592.96 32.9987 L1587.49 32.9987 L1587.49 27.2059 L1592.96 27.2059 L1592.96 14.324 L1600.46 14.324 Z" fill="#000000" fill-rule="evenodd" fill-opacity="1" /><path clip-path="url(#clip830)" d="M 0 0 M1661.34 45.1919 L1661.34 72.576 L1653.89 72.576 L1653.89 45.4349 Q1653.89 38.994 1651.38 35.7938 Q1648.86 32.5936 1643.84 32.5936 Q1637.81 32.5936 1634.32 36.4419 Q1630.84 40.2903 1630.84 46.9338 L1630.84 72.576 L1623.34 72.576 L1623.34 9.54393 L1630.84 9.54393 L1630.84 34.2544 Q1633.51 30.163 1637.12 28.1376 Q1640.76 26.1121 1645.5 26.1121 Q1653.32 26.1121 1657.33 30.9732 Q1661.34 35.7938 1661.34 45.1919 Z" fill="#000000" fill-rule="evenodd" fill-opacity="1" /><path clip-path="url(#clip830)" d="M 0 0 M1667.99 9.62495 L1674.47 9.62495 Q1680.54 19.1851 1683.54 28.3401 Q1686.58 37.4952 1686.58 46.5287 Q1686.58 55.6027 1683.54 64.7983 Q1680.54 73.9938 1674.47 83.5134 L1667.99 83.5134 Q1673.37 74.2369 1676.01 65.0818 Q1678.68 55.8863 1678.68 46.5287 Q1678.68 37.1711 1676.01 28.0566 Q1673.37 18.942 1667.99 9.62495 Z" fill="#000000" fill-rule="evenodd" fill-opacity="1" /><polyline clip-path="url(#clip832)" style="stroke:#009af9; stroke-width:4; stroke-opacity:1; fill:none" points="
  312.275,1259.29 314.97,1259.29 317.664,1259.29 328.316,1259.29 369.527,1259.29 516.491,1259.29 918.788,1259.29 1520.96,1259.29 1923.26,1259.29 2070.22,1259.29 
  2111.43,1259.29 2122.08,1259.29 2124.78,1259.29 2127.47,1259.29 
  "/>
<circle clip-path="url(#clip832)" cx="312.275" cy="1259.29" r="14" fill="#009af9" fill-rule="evenodd" fill-opacity="1" stroke="#000000" stroke-opacity="1" stroke-width="3.2"/>
<circle clip-path="url(#clip832)" cx="314.97" cy="1259.29" r="14" fill="#009af9" fill-rule="evenodd" fill-opacity="1" stroke="#000000" stroke-opacity="1" stroke-width="3.2"/>
<circle clip-path="url(#clip832)" cx="317.664" cy="1259.29" r="14" fill="#009af9" fill-rule="evenodd" fill-opacity="1" stroke="#000000" stroke-opacity="1" stroke-width="3.2"/>
<circle clip-path="url(#clip832)" cx="328.316" cy="1259.29" r="14" fill="#009af9" fill-rule="evenodd" fill-opacity="1" stroke="#000000" stroke-opacity="1" stroke-width="3.2"/>
<circle clip-path="url(#clip832)" cx="369.527" cy="1259.29" r="14" fill="#009af9" fill-rule="evenodd" fill-opacity="1" stroke="#000000" stroke-opacity="1" stroke-width="3.2"/>
<circle clip-path="url(#clip832)" cx="516.491" cy="1259.29" r="14" fill="#009af9" fill-rule="evenodd" fill-opacity="1" stroke="#000000" stroke-opacity="1" stroke-width="3.2"/>
<circle clip-path="url(#clip832)" cx="918.788" cy="1259.29" r="14" fill="#009af9" fill-rule="evenodd" fill-opacity="1" stroke="#000000" stroke-opacity="1" stroke-width="3.2"/>
<circle clip-path="url(#clip832)" cx="1520.96" cy="1259.29" r="14" fill="#009af9" fill-rule="evenodd" fill-opacity="1" stroke="#000000" stroke-opacity="1" stroke-width="3.2"/>
<circle clip-path="url(#clip832)" cx="1923.26" cy="1259.29" r="14" fill="#009af9" fill-rule="evenodd" fill-opacity="1" stroke="#000000" stroke-opacity="1" stroke-width="3.2"/>
<circle clip-path="url(#clip832)" cx="2070.22" cy="1259.29" r="14" fill="#009af9" fill-rule="evenodd" fill-opacity="1" stroke="#000000" stroke-opacity="1" stroke-width="3.2"/>
<circle clip-path="url(#clip832)" cx="2111.43" cy="1259.29" r="14" fill="#009af9" fill-rule="evenodd" fill-opacity="1" stroke="#000000" stroke-opacity="1" stroke-width="3.2"/>
<circle clip-path="url(#clip832)" cx="2122.08" cy="1259.29" r="14" fill="#009af9" fill-rule="evenodd" fill-opacity="1" stroke="#000000" stroke-opacity="1" stroke-width="3.2"/>
<circle clip-path="url(#clip832)" cx="2124.78" cy="1259.29" r="14" fill="#009af9" fill-rule="evenodd" fill-opacity="1" stroke="#000000" stroke-opacity="1" stroke-width="3.2"/>
<circle clip-path="url(#clip832)" cx="2127.47" cy="1259.29" r="14" fill="#009af9" fill-rule="evenodd" fill-opacity="1" stroke="#000000" stroke-opacity="1" stroke-width="3.2"/>
<polyline clip-path="url(#clip832)" style="stroke:#e26f46; stroke-width:4; stroke-opacity:1; fill:none" points="
  290.541,1032.12 314.97,1032.12 339.398,1032.12 392.809,1032.12 503.674,1032.12 710.865,1032.12 1031.71,1032.12 1408.03,1032.12 1728.88,1032.12 1936.07,1032.12 
  2046.94,1032.12 2100.35,1032.12 2124.78,1032.12 2149.21,1032.12 
  "/>
<circle clip-path="url(#clip832)" cx="290.541" cy="1032.12" r="14" fill="#e26f46" fill-rule="evenodd" fill-opacity="1" stroke="#000000" stroke-opacity="1" stroke-width="3.2"/>
<circle clip-path="url(#clip832)" cx="314.97" cy="1032.12" r="14" fill="#e26f46" fill-rule="evenodd" fill-opacity="1" stroke="#000000" stroke-opacity="1" stroke-width="3.2"/>
<circle clip-path="url(#clip832)" cx="339.398" cy="1032.12" r="14" fill="#e26f46" fill-rule="evenodd" fill-opacity="1" stroke="#000000" stroke-opacity="1" stroke-width="3.2"/>
<circle clip-path="url(#clip832)" cx="392.809" cy="1032.12" r="14" fill="#e26f46" fill-rule="evenodd" fill-opacity="1" stroke="#000000" stroke-opacity="1" stroke-width="3.2"/>
<circle clip-path="url(#clip832)" cx="503.674" cy="1032.12" r="14" fill="#e26f46" fill-rule="evenodd" fill-opacity="1" stroke="#000000" stroke-opacity="1" stroke-width="3.2"/>
<circle clip-path="url(#clip832)" cx="710.865" cy="1032.12" r="14" fill="#e26f46" fill-rule="evenodd" fill-opacity="1" stroke="#000000" stroke-opacity="1" stroke-width="3.2"/>
<circle clip-path="url(#clip832)" cx="1031.71" cy="1032.12" r="14" fill="#e26f46" fill-rule="evenodd" fill-opacity="1" stroke="#000000" stroke-opacity="1" stroke-width="3.2"/>
<circle clip-path="url(#clip832)" cx="1408.03" cy="1032.12" r="14" fill="#e26f46" fill-rule="evenodd" fill-opacity="1" stroke="#000000" stroke-opacity="1" stroke-width="3.2"/>
<circle clip-path="url(#clip832)" cx="1728.88" cy="1032.12" r="14" fill="#e26f46" fill-rule="evenodd" fill-opacity="1" stroke="#000000" stroke-opacity="1" stroke-width="3.2"/>
<circle clip-path="url(#clip832)" cx="1936.07" cy="1032.12" r="14" fill="#e26f46" fill-rule="evenodd" fill-opacity="1" stroke="#000000" stroke-opacity="1" stroke-width="3.2"/>
<circle clip-path="url(#clip832)" cx="2046.94" cy="1032.12" r="14" fill="#e26f46" fill-rule="evenodd" fill-opacity="1" stroke="#000000" stroke-opacity="1" stroke-width="3.2"/>
<circle clip-path="url(#clip832)" cx="2100.35" cy="1032.12" r="14" fill="#e26f46" fill-rule="evenodd" fill-opacity="1" stroke="#000000" stroke-opacity="1" stroke-width="3.2"/>
<circle clip-path="url(#clip832)" cx="2124.78" cy="1032.12" r="14" fill="#e26f46" fill-rule="evenodd" fill-opacity="1" stroke="#000000" stroke-opacity="1" stroke-width="3.2"/>
<circle clip-path="url(#clip832)" cx="2149.21" cy="1032.12" r="14" fill="#e26f46" fill-rule="evenodd" fill-opacity="1" stroke="#000000" stroke-opacity="1" stroke-width="3.2"/>
<polyline clip-path="url(#clip832)" style="stroke:#3da44d; stroke-width:4; stroke-opacity:1; fill:none" points="
  196.301,804.96 314.97,804.96 433.638,804.96 575.601,804.96 740,804.96 923.369,804.96 1119.53,804.96 1320.22,804.96 1516.38,804.96 1699.75,804.96 
  1864.15,804.96 2006.11,804.96 2124.78,804.96 2243.45,804.96 
  "/>
<circle clip-path="url(#clip832)" cx="196.301" cy="804.96" r="14" fill="#3da44d" fill-rule="evenodd" fill-opacity="1" stroke="#000000" stroke-opacity="1" stroke-width="3.2"/>
<circle clip-path="url(#clip832)" cx="314.97" cy="804.96" r="14" fill="#3da44d" fill-rule="evenodd" fill-opacity="1" stroke="#000000" stroke-opacity="1" stroke-width="3.2"/>
<circle clip-path="url(#clip832)" cx="433.638" cy="804.96" r="14" fill="#3da44d" fill-rule="evenodd" fill-opacity="1" stroke="#000000" stroke-opacity="1" stroke-width="3.2"/>
<circle clip-path="url(#clip832)" cx="575.601" cy="804.96" r="14" fill="#3da44d" fill-rule="evenodd" fill-opacity="1" stroke="#000000" stroke-opacity="1" stroke-width="3.2"/>
<circle clip-path="url(#clip832)" cx="740" cy="804.96" r="14" fill="#3da44d" fill-rule="evenodd" fill-opacity="1" stroke="#000000" stroke-opacity="1" stroke-width="3.2"/>
<circle clip-path="url(#clip832)" cx="923.369" cy="804.96" r="14" fill="#3da44d" fill-rule="evenodd" fill-opacity="1" stroke="#000000" stroke-opacity="1" stroke-width="3.2"/>
<circle clip-path="url(#clip832)" cx="1119.53" cy="804.96" r="14" fill="#3da44d" fill-rule="evenodd" fill-opacity="1" stroke="#000000" stroke-opacity="1" stroke-width="3.2"/>
<circle clip-path="url(#clip832)" cx="1320.22" cy="804.96" r="14" fill="#3da44d" fill-rule="evenodd" fill-opacity="1" stroke="#000000" stroke-opacity="1" stroke-width="3.2"/>
<circle clip-path="url(#clip832)" cx="1516.38" cy="804.96" r="14" fill="#3da44d" fill-rule="evenodd" fill-opacity="1" stroke="#000000" stroke-opacity="1" stroke-width="3.2"/>
<circle clip-path="url(#clip832)" cx="1699.75" cy="804.96" r="14" fill="#3da44d" fill-rule="evenodd" fill-opacity="1" stroke="#000000" stroke-opacity="1" stroke-width="3.2"/>
<circle clip-path="url(#clip832)" cx="1864.15" cy="804.96" r="14" fill="#3da44d" fill-rule="evenodd" fill-opacity="1" stroke="#000000" stroke-opacity="1" stroke-width="3.2"/>
<circle clip-path="url(#clip832)" cx="2006.11" cy="804.96" r="14" fill="#3da44d" fill-rule="evenodd" fill-opacity="1" stroke="#000000" stroke-opacity="1" stroke-width="3.2"/>
<circle clip-path="url(#clip832)" cx="2124.78" cy="804.96" r="14" fill="#3da44d" fill-rule="evenodd" fill-opacity="1" stroke="#000000" stroke-opacity="1" stroke-width="3.2"/>
<circle clip-path="url(#clip832)" cx="2243.45" cy="804.96" r="14" fill="#3da44d" fill-rule="evenodd" fill-opacity="1" stroke="#000000" stroke-opacity="1" stroke-width="3.2"/>
<polyline clip-path="url(#clip832)" style="stroke:#c271d2; stroke-width:4; stroke-opacity:1; fill:none" points="
  151.118,577.797 314.97,577.797 478.821,577.797 643.078,577.797 807.651,577.797 972.45,577.797 1137.38,577.797 1302.36,577.797 1467.3,577.797 1632.1,577.797 
  1796.67,577.797 1960.93,577.797 2124.78,577.797 2288.63,577.797 
  "/>
<circle clip-path="url(#clip832)" cx="151.118" cy="577.797" r="14" fill="#c271d2" fill-rule="evenodd" fill-opacity="1" stroke="#000000" stroke-opacity="1" stroke-width="3.2"/>
<circle clip-path="url(#clip832)" cx="314.97" cy="577.797" r="14" fill="#c271d2" fill-rule="evenodd" fill-opacity="1" stroke="#000000" stroke-opacity="1" stroke-width="3.2"/>
<circle clip-path="url(#clip832)" cx="478.821" cy="577.797" r="14" fill="#c271d2" fill-rule="evenodd" fill-opacity="1" stroke="#000000" stroke-opacity="1" stroke-width="3.2"/>
<circle clip-path="url(#clip832)" cx="643.078" cy="577.797" r="14" fill="#c271d2" fill-rule="evenodd" fill-opacity="1" stroke="#000000" stroke-opacity="1" stroke-width="3.2"/>
<circle clip-path="url(#clip832)" cx="807.651" cy="577.797" r="14" fill="#c271d2" fill-rule="evenodd" fill-opacity="1" stroke="#000000" stroke-opacity="1" stroke-width="3.2"/>
<circle clip-path="url(#clip832)" cx="972.45" cy="577.797" r="14" fill="#c271d2" fill-rule="evenodd" fill-opacity="1" stroke="#000000" stroke-opacity="1" stroke-width="3.2"/>
<circle clip-path="url(#clip832)" cx="1137.38" cy="577.797" r="14" fill="#c271d2" fill-rule="evenodd" fill-opacity="1" stroke="#000000" stroke-opacity="1" stroke-width="3.2"/>
<circle clip-path="url(#clip832)" cx="1302.36" cy="577.797" r="14" fill="#c271d2" fill-rule="evenodd" fill-opacity="1" stroke="#000000" stroke-opacity="1" stroke-width="3.2"/>
<circle clip-path="url(#clip832)" cx="1467.3" cy="577.797" r="14" fill="#c271d2" fill-rule="evenodd" fill-opacity="1" stroke="#000000" stroke-opacity="1" stroke-width="3.2"/>
<circle clip-path="url(#clip832)" cx="1632.1" cy="577.797" r="14" fill="#c271d2" fill-rule="evenodd" fill-opacity="1" stroke="#000000" stroke-opacity="1" stroke-width="3.2"/>
<circle clip-path="url(#clip832)" cx="1796.67" cy="577.797" r="14" fill="#c271d2" fill-rule="evenodd" fill-opacity="1" stroke="#000000" stroke-opacity="1" stroke-width="3.2"/>
<circle clip-path="url(#clip832)" cx="1960.93" cy="577.797" r="14" fill="#c271d2" fill-rule="evenodd" fill-opacity="1" stroke="#000000" stroke-opacity="1" stroke-width="3.2"/>
<circle clip-path="url(#clip832)" cx="2124.78" cy="577.797" r="14" fill="#c271d2" fill-rule="evenodd" fill-opacity="1" stroke="#000000" stroke-opacity="1" stroke-width="3.2"/>
<circle clip-path="url(#clip832)" cx="2288.63" cy="577.797" r="14" fill="#c271d2" fill-rule="evenodd" fill-opacity="1" stroke="#000000" stroke-opacity="1" stroke-width="3.2"/>
<path clip-path="url(#clip830)" d="
M1532.52 471.305 L2277.23 471.305 L2277.23 168.905 L1532.52 168.905  Z
  " fill="#ffffff" fill-rule="evenodd" fill-opacity="1"/>
<polyline clip-path="url(#clip830)" style="stroke:#000000; stroke-width:4; stroke-opacity:1; fill:none" points="
  1532.52,471.305 2277.23,471.305 2277.23,168.905 1532.52,168.905 1532.52,471.305 
  "/>
<polyline clip-path="url(#clip830)" style="stroke:#009af9; stroke-width:4; stroke-opacity:1; fill:none" points="
  1557.69,229.385 1708.74,229.385 
  "/>
<circle clip-path="url(#clip830)" cx="1633.22" cy="229.385" r="23" fill="#009af9" fill-rule="evenodd" fill-opacity="1" stroke="#000000" stroke-opacity="1" stroke-width="5.12"/>
<path clip-path="url(#clip830)" d="M 0 0 M1738.2 245.067 L1738.2 256.526 L1733.92 256.526 L1733.92 220.901 Q1733.92 210.345 1743.78 210.345 Q1753.83 210.345 1753.83 219.257 Q1753.83 225.6 1749.85 227.915 Q1756.33 229.998 1756.33 236.179 Q1756.33 247.151 1745.17 247.151 Q1740.26 247.151 1738.2 245.067 M1738.2 239.512 Q1740.77 243.517 1745.33 243.517 Q1752 243.517 1752 236.248 Q1752 229.72 1741.26 230.23 L1741.26 226.294 Q1749.66 226.294 1749.66 218.887 Q1749.66 213.818 1744.24 213.818 Q1738.2 213.818 1738.2 221.04 L1738.2 239.512 Z" fill="#000000" fill-rule="evenodd" fill-opacity="1" /><path clip-path="url(#clip830)" d="M 0 0 M1761.35 225.137 L1791.03 225.137 L1791.03 229.026 L1761.35 229.026 L1761.35 225.137 M1761.35 234.581 L1791.03 234.581 L1791.03 238.517 L1761.35 238.517 L1761.35 234.581 Z" fill="#000000" fill-rule="evenodd" fill-opacity="1" /><path clip-path="url(#clip830)" d="M 0 0 M1796.91 242.729 L1804.54 242.729 L1804.54 216.364 L1796.23 218.031 L1796.23 213.771 L1804.5 212.105 L1809.17 212.105 L1809.17 242.729 L1816.81 242.729 L1816.81 246.665 L1796.91 246.665 L1796.91 242.729 Z" fill="#000000" fill-rule="evenodd" fill-opacity="1" /><path clip-path="url(#clip830)" d="M 0 0 M1821.88 240.785 L1826.77 240.785 L1826.77 246.665 L1821.88 246.665 L1821.88 240.785 Z" fill="#000000" fill-rule="evenodd" fill-opacity="1" /><path clip-path="url(#clip830)" d="M 0 0 M1841.84 215.183 Q1838.22 215.183 1836.4 218.748 Q1834.59 222.29 1834.59 229.419 Q1834.59 236.526 1836.4 240.091 Q1838.22 243.632 1841.84 243.632 Q1845.47 243.632 1847.28 240.091 Q1849.1 236.526 1849.1 229.419 Q1849.1 222.29 1847.28 218.748 Q1845.47 215.183 1841.84 215.183 M1841.84 211.48 Q1847.65 211.48 1850.7 216.086 Q1853.78 220.669 1853.78 229.419 Q1853.78 238.146 1850.7 242.753 Q1847.65 247.336 1841.84 247.336 Q1836.03 247.336 1832.95 242.753 Q1829.89 238.146 1829.89 229.419 Q1829.89 220.669 1832.95 216.086 Q1836.03 211.48 1841.84 211.48 Z" fill="#000000" fill-rule="evenodd" fill-opacity="1" /><path clip-path="url(#clip830)" d="M 0 0 M1868.85 215.183 Q1865.24 215.183 1863.41 218.748 Q1861.6 222.29 1861.6 229.419 Q1861.6 236.526 1863.41 240.091 Q1865.24 243.632 1868.85 243.632 Q1872.48 243.632 1874.29 240.091 Q1876.12 236.526 1876.12 229.419 Q1876.12 222.29 1874.29 218.748 Q1872.48 215.183 1868.85 215.183 M1868.85 211.48 Q1874.66 211.48 1877.72 216.086 Q1880.79 220.669 1880.79 229.419 Q1880.79 238.146 1877.72 242.753 Q1874.66 247.336 1868.85 247.336 Q1863.04 247.336 1859.96 242.753 Q1856.91 238.146 1856.91 229.419 Q1856.91 220.669 1859.96 216.086 Q1863.04 211.48 1868.85 211.48 Z" fill="#000000" fill-rule="evenodd" fill-opacity="1" /><path clip-path="url(#clip830)" d="M 0 0 M1886.67 242.729 L1894.31 242.729 L1894.31 216.364 L1886 218.031 L1886 213.771 L1894.27 212.105 L1898.94 212.105 L1898.94 242.729 L1906.58 242.729 L1906.58 246.665 L1886.67 246.665 L1886.67 242.729 Z" fill="#000000" fill-rule="evenodd" fill-opacity="1" /><polyline clip-path="url(#clip830)" style="stroke:#e26f46; stroke-width:4; stroke-opacity:1; fill:none" points="
  1557.69,289.865 1708.74,289.865 
  "/>
<circle clip-path="url(#clip830)" cx="1633.22" cy="289.865" r="23" fill="#e26f46" fill-rule="evenodd" fill-opacity="1" stroke="#000000" stroke-opacity="1" stroke-width="5.12"/>
<path clip-path="url(#clip830)" d="M 0 0 M1738.2 305.547 L1738.2 317.006 L1733.92 317.006 L1733.92 281.381 Q1733.92 270.825 1743.78 270.825 Q1753.83 270.825 1753.83 279.737 Q1753.83 286.08 1749.85 288.395 Q1756.33 290.478 1756.33 296.659 Q1756.33 307.631 1745.17 307.631 Q1740.26 307.631 1738.2 305.547 M1738.2 299.992 Q1740.77 303.997 1745.33 303.997 Q1752 303.997 1752 296.728 Q1752 290.2 1741.26 290.71 L1741.26 286.774 Q1749.66 286.774 1749.66 279.367 Q1749.66 274.298 1744.24 274.298 Q1738.2 274.298 1738.2 281.52 L1738.2 299.992 Z" fill="#000000" fill-rule="evenodd" fill-opacity="1" /><path clip-path="url(#clip830)" d="M 0 0 M1761.35 285.617 L1791.03 285.617 L1791.03 289.506 L1761.35 289.506 L1761.35 285.617 M1761.35 295.061 L1791.03 295.061 L1791.03 298.997 L1761.35 298.997 L1761.35 295.061 Z" fill="#000000" fill-rule="evenodd" fill-opacity="1" /><path clip-path="url(#clip830)" d="M 0 0 M1796.91 303.209 L1804.54 303.209 L1804.54 276.844 L1796.23 278.511 L1796.23 274.251 L1804.5 272.585 L1809.17 272.585 L1809.17 303.209 L1816.81 303.209 L1816.81 307.145 L1796.91 307.145 L1796.91 303.209 Z" fill="#000000" fill-rule="evenodd" fill-opacity="1" /><path clip-path="url(#clip830)" d="M 0 0 M1821.88 301.265 L1826.77 301.265 L1826.77 307.145 L1821.88 307.145 L1821.88 301.265 Z" fill="#000000" fill-rule="evenodd" fill-opacity="1" /><path clip-path="url(#clip830)" d="M 0 0 M1841.84 275.663 Q1838.22 275.663 1836.4 279.228 Q1834.59 282.77 1834.59 289.899 Q1834.59 297.006 1836.4 300.571 Q1838.22 304.112 1841.84 304.112 Q1845.47 304.112 1847.28 300.571 Q1849.1 297.006 1849.1 289.899 Q1849.1 282.77 1847.28 279.228 Q1845.47 275.663 1841.84 275.663 M1841.84 271.96 Q1847.65 271.96 1850.7 276.566 Q1853.78 281.149 1853.78 289.899 Q1853.78 298.626 1850.7 303.233 Q1847.65 307.816 1841.84 307.816 Q1836.03 307.816 1832.95 303.233 Q1829.89 298.626 1829.89 289.899 Q1829.89 281.149 1832.95 276.566 Q1836.03 271.96 1841.84 271.96 Z" fill="#000000" fill-rule="evenodd" fill-opacity="1" /><path clip-path="url(#clip830)" d="M 0 0 M1862.88 303.209 L1879.2 303.209 L1879.2 307.145 L1857.25 307.145 L1857.25 303.209 Q1859.91 300.455 1864.5 295.825 Q1869.1 291.173 1870.28 289.83 Q1872.53 287.307 1873.41 285.571 Q1874.31 283.811 1874.31 282.122 Q1874.31 279.367 1872.37 277.631 Q1870.45 275.895 1867.35 275.895 Q1865.15 275.895 1862.69 276.659 Q1860.26 277.423 1857.48 278.974 L1857.48 274.251 Q1860.31 273.117 1862.76 272.538 Q1865.22 271.96 1867.25 271.96 Q1872.62 271.96 1875.82 274.645 Q1879.01 277.33 1879.01 281.821 Q1879.01 283.95 1878.2 285.872 Q1877.41 287.77 1875.31 290.362 Q1874.73 291.034 1871.63 294.251 Q1868.53 297.446 1862.88 303.209 Z" fill="#000000" fill-rule="evenodd" fill-opacity="1" /><path clip-path="url(#clip830)" d="M 0 0 M1885.08 303.209 L1892.72 303.209 L1892.72 276.844 L1884.41 278.511 L1884.41 274.251 L1892.67 272.585 L1897.34 272.585 L1897.34 303.209 L1904.98 303.209 L1904.98 307.145 L1885.08 307.145 L1885.08 303.209 Z" fill="#000000" fill-rule="evenodd" fill-opacity="1" /><path clip-path="url(#clip830)" d="M 0 0 M1910.1 272.585 L1928.46 272.585 L1928.46 276.52 L1914.38 276.52 L1914.38 284.992 Q1915.4 284.645 1916.42 284.483 Q1917.44 284.298 1918.46 284.298 Q1924.24 284.298 1927.62 287.469 Q1931 290.64 1931 296.057 Q1931 301.635 1927.53 304.737 Q1924.06 307.816 1917.74 307.816 Q1915.56 307.816 1913.29 307.446 Q1911.05 307.075 1908.64 306.334 L1908.64 301.635 Q1910.72 302.77 1912.95 303.325 Q1915.17 303.881 1917.65 303.881 Q1921.65 303.881 1923.99 301.774 Q1926.33 299.668 1926.33 296.057 Q1926.33 292.446 1923.99 290.339 Q1921.65 288.233 1917.65 288.233 Q1915.77 288.233 1913.9 288.649 Q1912.04 289.066 1910.1 289.946 L1910.1 272.585 Z" fill="#000000" fill-rule="evenodd" fill-opacity="1" /><path clip-path="url(#clip830)" d="M 0 0 M1948.92 276.659 L1937.11 295.108 L1948.92 295.108 L1948.92 276.659 M1947.69 272.585 L1953.57 272.585 L1953.57 295.108 L1958.5 295.108 L1958.5 298.997 L1953.57 298.997 L1953.57 307.145 L1948.92 307.145 L1948.92 298.997 L1933.32 298.997 L1933.32 294.483 L1947.69 272.585 Z" fill="#000000" fill-rule="evenodd" fill-opacity="1" /><path clip-path="url(#clip830)" d="M 0 0 M1976.42 276.659 L1964.61 295.108 L1976.42 295.108 L1976.42 276.659 M1975.19 272.585 L1981.07 272.585 L1981.07 295.108 L1986 295.108 L1986 298.997 L1981.07 298.997 L1981.07 307.145 L1976.42 307.145 L1976.42 298.997 L1960.82 298.997 L1960.82 294.483 L1975.19 272.585 Z" fill="#000000" fill-rule="evenodd" fill-opacity="1" /><path clip-path="url(#clip830)" d="M 0 0 M2005.24 288.51 Q2008.59 289.228 2010.47 291.497 Q2012.37 293.765 2012.37 297.098 Q2012.37 302.214 2008.85 305.015 Q2005.33 307.816 1998.85 307.816 Q1996.67 307.816 1994.36 307.376 Q1992.07 306.959 1989.61 306.103 L1989.61 301.589 Q1991.56 302.723 1993.87 303.302 Q1996.19 303.881 1998.71 303.881 Q2003.11 303.881 2005.4 302.145 Q2007.71 300.409 2007.71 297.098 Q2007.71 294.043 2005.56 292.33 Q2003.43 290.594 1999.61 290.594 L1995.59 290.594 L1995.59 286.751 L1999.8 286.751 Q2003.25 286.751 2005.08 285.386 Q2006.9 283.997 2006.9 281.404 Q2006.9 278.742 2005.01 277.33 Q2003.13 275.895 1999.61 275.895 Q1997.69 275.895 1995.49 276.311 Q1993.29 276.728 1990.65 277.608 L1990.65 273.441 Q1993.32 272.7 1995.63 272.33 Q1997.97 271.96 2000.03 271.96 Q2005.35 271.96 2008.46 274.39 Q2011.56 276.798 2011.56 280.918 Q2011.56 283.788 2009.91 285.779 Q2008.27 287.747 2005.24 288.51 Z" fill="#000000" fill-rule="evenodd" fill-opacity="1" /><path clip-path="url(#clip830)" d="M 0 0 M2030.28 276.659 L2018.48 295.108 L2030.28 295.108 L2030.28 276.659 M2029.06 272.585 L2034.94 272.585 L2034.94 295.108 L2039.87 295.108 L2039.87 298.997 L2034.94 298.997 L2034.94 307.145 L2030.28 307.145 L2030.28 298.997 L2014.68 298.997 L2014.68 294.483 L2029.06 272.585 Z" fill="#000000" fill-rule="evenodd" fill-opacity="1" /><path clip-path="url(#clip830)" d="M 0 0 M2055.52 288.001 Q2052.37 288.001 2050.52 290.154 Q2048.69 292.307 2048.69 296.057 Q2048.69 299.784 2050.52 301.959 Q2052.37 304.112 2055.52 304.112 Q2058.66 304.112 2060.49 301.959 Q2062.34 299.784 2062.34 296.057 Q2062.34 292.307 2060.49 290.154 Q2058.66 288.001 2055.52 288.001 M2064.8 273.349 L2064.8 277.608 Q2063.04 276.774 2061.23 276.335 Q2059.45 275.895 2057.69 275.895 Q2053.06 275.895 2050.61 279.02 Q2048.18 282.145 2047.83 288.464 Q2049.2 286.45 2051.26 285.386 Q2053.32 284.298 2055.79 284.298 Q2061 284.298 2064.01 287.469 Q2067.04 290.617 2067.04 296.057 Q2067.04 301.381 2063.89 304.598 Q2060.75 307.816 2055.52 307.816 Q2049.52 307.816 2046.35 303.233 Q2043.18 298.626 2043.18 289.899 Q2043.18 281.705 2047.07 276.844 Q2050.96 271.96 2057.51 271.96 Q2059.27 271.96 2061.05 272.307 Q2062.85 272.654 2064.8 273.349 Z" fill="#000000" fill-rule="evenodd" fill-opacity="1" /><path clip-path="url(#clip830)" d="M 0 0 M2072.25 306.427 L2072.25 302.168 Q2074.01 303.001 2075.82 303.441 Q2077.62 303.881 2079.36 303.881 Q2083.99 303.881 2086.42 300.779 Q2088.87 297.654 2089.22 291.311 Q2087.88 293.302 2085.82 294.367 Q2083.76 295.432 2081.26 295.432 Q2076.07 295.432 2073.04 292.307 Q2070.03 289.159 2070.03 283.719 Q2070.03 278.395 2073.18 275.177 Q2076.33 271.96 2081.56 271.96 Q2087.55 271.96 2090.7 276.566 Q2093.87 281.149 2093.87 289.899 Q2093.87 298.071 2089.98 302.955 Q2086.12 307.816 2079.57 307.816 Q2077.81 307.816 2076 307.469 Q2074.2 307.122 2072.25 306.427 M2081.56 291.774 Q2084.7 291.774 2086.53 289.622 Q2088.39 287.469 2088.39 283.719 Q2088.39 279.992 2086.53 277.839 Q2084.7 275.663 2081.56 275.663 Q2078.41 275.663 2076.56 277.839 Q2074.73 279.992 2074.73 283.719 Q2074.73 287.469 2076.56 289.622 Q2078.41 291.774 2081.56 291.774 Z" fill="#000000" fill-rule="evenodd" fill-opacity="1" /><path clip-path="url(#clip830)" d="M 0 0 M2108.94 275.663 Q2105.33 275.663 2103.5 279.228 Q2101.7 282.77 2101.7 289.899 Q2101.7 297.006 2103.5 300.571 Q2105.33 304.112 2108.94 304.112 Q2112.58 304.112 2114.38 300.571 Q2116.21 297.006 2116.21 289.899 Q2116.21 282.77 2114.38 279.228 Q2112.58 275.663 2108.94 275.663 M2108.94 271.96 Q2114.75 271.96 2117.81 276.566 Q2120.89 281.149 2120.89 289.899 Q2120.89 298.626 2117.81 303.233 Q2114.75 307.816 2108.94 307.816 Q2103.13 307.816 2100.05 303.233 Q2097 298.626 2097 289.899 Q2097 281.149 2100.05 276.566 Q2103.13 271.96 2108.94 271.96 Z" fill="#000000" fill-rule="evenodd" fill-opacity="1" /><path clip-path="url(#clip830)" d="M 0 0 M2135.95 275.663 Q2132.34 275.663 2130.51 279.228 Q2128.71 282.77 2128.71 289.899 Q2128.71 297.006 2130.51 300.571 Q2132.34 304.112 2135.95 304.112 Q2139.59 304.112 2141.39 300.571 Q2143.22 297.006 2143.22 289.899 Q2143.22 282.77 2141.39 279.228 Q2139.59 275.663 2135.95 275.663 M2135.95 271.96 Q2141.76 271.96 2144.82 276.566 Q2147.9 281.149 2147.9 289.899 Q2147.9 298.626 2144.82 303.233 Q2141.76 307.816 2135.95 307.816 Q2130.14 307.816 2127.07 303.233 Q2124.01 298.626 2124.01 289.899 Q2124.01 281.149 2127.07 276.566 Q2130.14 271.96 2135.95 271.96 Z" fill="#000000" fill-rule="evenodd" fill-opacity="1" /><path clip-path="url(#clip830)" d="M 0 0 M2167.14 288.51 Q2170.49 289.228 2172.37 291.497 Q2174.26 293.765 2174.26 297.098 Q2174.26 302.214 2170.75 305.015 Q2167.23 307.816 2160.75 307.816 Q2158.57 307.816 2156.26 307.376 Q2153.96 306.959 2151.51 306.103 L2151.51 301.589 Q2153.45 302.723 2155.77 303.302 Q2158.08 303.881 2160.61 303.881 Q2165.01 303.881 2167.3 302.145 Q2169.61 300.409 2169.61 297.098 Q2169.61 294.043 2167.46 292.33 Q2165.33 290.594 2161.51 290.594 L2157.48 290.594 L2157.48 286.751 L2161.7 286.751 Q2165.14 286.751 2166.97 285.386 Q2168.8 283.997 2168.8 281.404 Q2168.8 278.742 2166.9 277.33 Q2165.03 275.895 2161.51 275.895 Q2159.59 275.895 2157.39 276.311 Q2155.19 276.728 2152.55 277.608 L2152.55 273.441 Q2155.21 272.7 2157.53 272.33 Q2159.87 271.96 2161.93 271.96 Q2167.25 271.96 2170.35 274.39 Q2173.45 276.798 2173.45 280.918 Q2173.45 283.788 2171.81 285.779 Q2170.17 287.747 2167.14 288.51 Z" fill="#000000" fill-rule="evenodd" fill-opacity="1" /><path clip-path="url(#clip830)" d="M 0 0 M2180.14 303.209 L2187.78 303.209 L2187.78 276.844 L2179.47 278.511 L2179.47 274.251 L2187.74 272.585 L2192.41 272.585 L2192.41 303.209 L2200.05 303.209 L2200.05 307.145 L2180.14 307.145 L2180.14 303.209 Z" fill="#000000" fill-rule="evenodd" fill-opacity="1" /><path clip-path="url(#clip830)" d="M 0 0 M2205.26 306.427 L2205.26 302.168 Q2207.02 303.001 2208.82 303.441 Q2210.63 303.881 2212.37 303.881 Q2217 303.881 2219.43 300.779 Q2221.88 297.654 2222.23 291.311 Q2220.88 293.302 2218.82 294.367 Q2216.76 295.432 2214.26 295.432 Q2209.08 295.432 2206.05 292.307 Q2203.04 289.159 2203.04 283.719 Q2203.04 278.395 2206.19 275.177 Q2209.33 271.96 2214.57 271.96 Q2220.56 271.96 2223.71 276.566 Q2226.88 281.149 2226.88 289.899 Q2226.88 298.071 2222.99 302.955 Q2219.13 307.816 2212.57 307.816 Q2210.82 307.816 2209.01 307.469 Q2207.2 307.122 2205.26 306.427 M2214.57 291.774 Q2217.71 291.774 2219.54 289.622 Q2221.39 287.469 2221.39 283.719 Q2221.39 279.992 2219.54 277.839 Q2217.71 275.663 2214.57 275.663 Q2211.42 275.663 2209.57 277.839 Q2207.74 279.992 2207.74 283.719 Q2207.74 287.469 2209.57 289.622 Q2211.42 291.774 2214.57 291.774 Z" fill="#000000" fill-rule="evenodd" fill-opacity="1" /><polyline clip-path="url(#clip830)" style="stroke:#3da44d; stroke-width:4; stroke-opacity:1; fill:none" points="
  1557.69,350.345 1708.74,350.345 
  "/>
<circle clip-path="url(#clip830)" cx="1633.22" cy="350.345" r="23" fill="#3da44d" fill-rule="evenodd" fill-opacity="1" stroke="#000000" stroke-opacity="1" stroke-width="5.12"/>
<path clip-path="url(#clip830)" d="M 0 0 M1738.2 366.027 L1738.2 377.486 L1733.92 377.486 L1733.92 341.861 Q1733.92 331.305 1743.78 331.305 Q1753.83 331.305 1753.83 340.217 Q1753.83 346.56 1749.85 348.875 Q1756.33 350.958 1756.33 357.139 Q1756.33 368.111 1745.17 368.111 Q1740.26 368.111 1738.2 366.027 M1738.2 360.472 Q1740.77 364.477 1745.33 364.477 Q1752 364.477 1752 357.208 Q1752 350.68 1741.26 351.19 L1741.26 347.254 Q1749.66 347.254 1749.66 339.847 Q1749.66 334.778 1744.24 334.778 Q1738.2 334.778 1738.2 342 L1738.2 360.472 Z" fill="#000000" fill-rule="evenodd" fill-opacity="1" /><path clip-path="url(#clip830)" d="M 0 0 M1761.35 346.097 L1791.03 346.097 L1791.03 349.986 L1761.35 349.986 L1761.35 346.097 M1761.35 355.541 L1791.03 355.541 L1791.03 359.477 L1761.35 359.477 L1761.35 355.541 Z" fill="#000000" fill-rule="evenodd" fill-opacity="1" /><path clip-path="url(#clip830)" d="M 0 0 M1796.91 363.689 L1804.54 363.689 L1804.54 337.324 L1796.23 338.991 L1796.23 334.731 L1804.5 333.065 L1809.17 333.065 L1809.17 363.689 L1816.81 363.689 L1816.81 367.625 L1796.91 367.625 L1796.91 363.689 Z" fill="#000000" fill-rule="evenodd" fill-opacity="1" /><path clip-path="url(#clip830)" d="M 0 0 M1821.88 361.745 L1826.77 361.745 L1826.77 367.625 L1821.88 367.625 L1821.88 361.745 Z" fill="#000000" fill-rule="evenodd" fill-opacity="1" /><path clip-path="url(#clip830)" d="M 0 0 M1844.68 337.139 L1832.88 355.588 L1844.68 355.588 L1844.68 337.139 M1843.46 333.065 L1849.34 333.065 L1849.34 355.588 L1854.27 355.588 L1854.27 359.477 L1849.34 359.477 L1849.34 367.625 L1844.68 367.625 L1844.68 359.477 L1829.08 359.477 L1829.08 354.963 L1843.46 333.065 Z" fill="#000000" fill-rule="evenodd" fill-opacity="1" /><path clip-path="url(#clip830)" d="M 0 0 M1869.91 348.481 Q1866.77 348.481 1864.91 350.634 Q1863.09 352.787 1863.09 356.537 Q1863.09 360.264 1864.91 362.439 Q1866.77 364.592 1869.91 364.592 Q1873.06 364.592 1874.89 362.439 Q1876.74 360.264 1876.74 356.537 Q1876.74 352.787 1874.89 350.634 Q1873.06 348.481 1869.91 348.481 M1879.2 333.829 L1879.2 338.088 Q1877.44 337.254 1875.63 336.815 Q1873.85 336.375 1872.09 336.375 Q1867.46 336.375 1865.01 339.5 Q1862.58 342.625 1862.23 348.944 Q1863.6 346.93 1865.66 345.866 Q1867.72 344.778 1870.19 344.778 Q1875.4 344.778 1878.41 347.949 Q1881.44 351.097 1881.44 356.537 Q1881.44 361.861 1878.29 365.078 Q1875.15 368.296 1869.91 368.296 Q1863.92 368.296 1860.75 363.713 Q1857.58 359.106 1857.58 350.379 Q1857.58 342.185 1861.47 337.324 Q1865.35 332.44 1871.91 332.44 Q1873.66 332.44 1875.45 332.787 Q1877.25 333.134 1879.2 333.829 Z" fill="#000000" fill-rule="evenodd" fill-opacity="1" /><path clip-path="url(#clip830)" d="M 0 0 M1899.36 337.139 L1887.55 355.588 L1899.36 355.588 L1899.36 337.139 M1898.13 333.065 L1904.01 333.065 L1904.01 355.588 L1908.94 355.588 L1908.94 359.477 L1904.01 359.477 L1904.01 367.625 L1899.36 367.625 L1899.36 359.477 L1883.76 359.477 L1883.76 354.963 L1898.13 333.065 Z" fill="#000000" fill-rule="evenodd" fill-opacity="1" /><path clip-path="url(#clip830)" d="M 0 0 M1914.82 363.689 L1922.46 363.689 L1922.46 337.324 L1914.15 338.991 L1914.15 334.731 L1922.41 333.065 L1927.09 333.065 L1927.09 363.689 L1934.73 363.689 L1934.73 367.625 L1914.82 367.625 L1914.82 363.689 Z" fill="#000000" fill-rule="evenodd" fill-opacity="1" /><path clip-path="url(#clip830)" d="M 0 0 M1939.84 333.065 L1958.2 333.065 L1958.2 337 L1944.13 337 L1944.13 345.472 Q1945.15 345.125 1946.16 344.963 Q1947.18 344.778 1948.2 344.778 Q1953.99 344.778 1957.37 347.949 Q1960.75 351.12 1960.75 356.537 Q1960.75 362.115 1957.28 365.217 Q1953.8 368.296 1947.48 368.296 Q1945.31 368.296 1943.04 367.926 Q1940.79 367.555 1938.39 366.814 L1938.39 362.115 Q1940.47 363.25 1942.69 363.805 Q1944.91 364.361 1947.39 364.361 Q1951.4 364.361 1953.73 362.254 Q1956.07 360.148 1956.07 356.537 Q1956.07 352.926 1953.73 350.819 Q1951.4 348.713 1947.39 348.713 Q1945.52 348.713 1943.64 349.129 Q1941.79 349.546 1939.84 350.426 L1939.84 333.065 Z" fill="#000000" fill-rule="evenodd" fill-opacity="1" /><path clip-path="url(#clip830)" d="M 0 0 M1975.82 351.213 Q1972.48 351.213 1970.56 352.995 Q1968.66 354.777 1968.66 357.902 Q1968.66 361.027 1970.56 362.81 Q1972.48 364.592 1975.82 364.592 Q1979.15 364.592 1981.07 362.81 Q1982.99 361.004 1982.99 357.902 Q1982.99 354.777 1981.07 352.995 Q1979.17 351.213 1975.82 351.213 M1971.14 349.222 Q1968.13 348.481 1966.44 346.421 Q1964.78 344.361 1964.78 341.398 Q1964.78 337.254 1967.71 334.847 Q1970.68 332.44 1975.82 332.44 Q1980.98 332.44 1983.92 334.847 Q1986.86 337.254 1986.86 341.398 Q1986.86 344.361 1985.17 346.421 Q1983.5 348.481 1980.52 349.222 Q1983.9 350.009 1985.77 352.301 Q1987.67 354.592 1987.67 357.902 Q1987.67 362.926 1984.59 365.611 Q1981.53 368.296 1975.82 368.296 Q1970.1 368.296 1967.02 365.611 Q1963.96 362.926 1963.96 357.902 Q1963.96 354.592 1965.86 352.301 Q1967.76 350.009 1971.14 349.222 M1969.43 341.838 Q1969.43 344.523 1971.09 346.028 Q1972.78 347.532 1975.82 347.532 Q1978.83 347.532 1980.52 346.028 Q1982.23 344.523 1982.23 341.838 Q1982.23 339.153 1980.52 337.648 Q1978.83 336.143 1975.82 336.143 Q1972.78 336.143 1971.09 337.648 Q1969.43 339.153 1969.43 341.838 Z" fill="#000000" fill-rule="evenodd" fill-opacity="1" /><path clip-path="url(#clip830)" d="M 0 0 M2002.74 351.213 Q1999.4 351.213 1997.48 352.995 Q1995.59 354.777 1995.59 357.902 Q1995.59 361.027 1997.48 362.81 Q1999.4 364.592 2002.74 364.592 Q2006.07 364.592 2007.99 362.81 Q2009.91 361.004 2009.91 357.902 Q2009.91 354.777 2007.99 352.995 Q2006.09 351.213 2002.74 351.213 M1998.06 349.222 Q1995.05 348.481 1993.36 346.421 Q1991.7 344.361 1991.7 341.398 Q1991.7 337.254 1994.64 334.847 Q1997.6 332.44 2002.74 332.44 Q2007.9 332.44 2010.84 334.847 Q2013.78 337.254 2013.78 341.398 Q2013.78 344.361 2012.09 346.421 Q2010.42 348.481 2007.44 349.222 Q2010.82 350.009 2012.69 352.301 Q2014.59 354.592 2014.59 357.902 Q2014.59 362.926 2011.51 365.611 Q2008.46 368.296 2002.74 368.296 Q1997.02 368.296 1993.94 365.611 Q1990.89 362.926 1990.89 357.902 Q1990.89 354.592 1992.78 352.301 Q1994.68 350.009 1998.06 349.222 M1996.35 341.838 Q1996.35 344.523 1998.02 346.028 Q1999.71 347.532 2002.74 347.532 Q2005.75 347.532 2007.44 346.028 Q2009.15 344.523 2009.15 341.838 Q2009.15 339.153 2007.44 337.648 Q2005.75 336.143 2002.74 336.143 Q1999.71 336.143 1998.02 337.648 Q1996.35 339.153 1996.35 341.838 Z" fill="#000000" fill-rule="evenodd" fill-opacity="1" /><path clip-path="url(#clip830)" d="M 0 0 M2029.66 351.213 Q2026.33 351.213 2024.4 352.995 Q2022.51 354.777 2022.51 357.902 Q2022.51 361.027 2024.4 362.81 Q2026.33 364.592 2029.66 364.592 Q2032.99 364.592 2034.91 362.81 Q2036.83 361.004 2036.83 357.902 Q2036.83 354.777 2034.91 352.995 Q2033.02 351.213 2029.66 351.213 M2024.98 349.222 Q2021.97 348.481 2020.28 346.421 Q2018.62 344.361 2018.62 341.398 Q2018.62 337.254 2021.56 334.847 Q2024.52 332.44 2029.66 332.44 Q2034.82 332.44 2037.76 334.847 Q2040.7 337.254 2040.7 341.398 Q2040.7 344.361 2039.01 346.421 Q2037.34 348.481 2034.36 349.222 Q2037.74 350.009 2039.61 352.301 Q2041.51 354.592 2041.51 357.902 Q2041.51 362.926 2038.43 365.611 Q2035.38 368.296 2029.66 368.296 Q2023.94 368.296 2020.86 365.611 Q2017.81 362.926 2017.81 357.902 Q2017.81 354.592 2019.71 352.301 Q2021.6 350.009 2024.98 349.222 M2023.27 341.838 Q2023.27 344.523 2024.94 346.028 Q2026.63 347.532 2029.66 347.532 Q2032.67 347.532 2034.36 346.028 Q2036.07 344.523 2036.07 341.838 Q2036.07 339.153 2034.36 337.648 Q2032.67 336.143 2029.66 336.143 Q2026.63 336.143 2024.94 337.648 Q2023.27 339.153 2023.27 341.838 Z" fill="#000000" fill-rule="evenodd" fill-opacity="1" /><path clip-path="url(#clip830)" d="M 0 0 M2060.75 348.99 Q2064.1 349.708 2065.98 351.977 Q2067.88 354.245 2067.88 357.578 Q2067.88 362.694 2064.36 365.495 Q2060.84 368.296 2054.36 368.296 Q2052.18 368.296 2049.87 367.856 Q2047.58 367.439 2045.12 366.583 L2045.12 362.069 Q2047.07 363.203 2049.38 363.782 Q2051.7 364.361 2054.22 364.361 Q2058.62 364.361 2060.91 362.625 Q2063.22 360.889 2063.22 357.578 Q2063.22 354.523 2061.07 352.81 Q2058.94 351.074 2055.12 351.074 L2051.09 351.074 L2051.09 347.231 L2055.31 347.231 Q2058.76 347.231 2060.58 345.866 Q2062.41 344.477 2062.41 341.884 Q2062.41 339.222 2060.52 337.81 Q2058.64 336.375 2055.12 336.375 Q2053.2 336.375 2051 336.791 Q2048.8 337.208 2046.16 338.088 L2046.16 333.921 Q2048.83 333.18 2051.14 332.81 Q2053.48 332.44 2055.54 332.44 Q2060.86 332.44 2063.96 334.87 Q2067.07 337.278 2067.07 341.398 Q2067.07 344.268 2065.42 346.259 Q2063.78 348.227 2060.75 348.99 Z" fill="#000000" fill-rule="evenodd" fill-opacity="1" /><path clip-path="url(#clip830)" d="M 0 0 M2087.11 348.99 Q2090.47 349.708 2092.34 351.977 Q2094.24 354.245 2094.24 357.578 Q2094.24 362.694 2090.72 365.495 Q2087.2 368.296 2080.72 368.296 Q2078.55 368.296 2076.23 367.856 Q2073.94 367.439 2071.49 366.583 L2071.49 362.069 Q2073.43 363.203 2075.75 363.782 Q2078.06 364.361 2080.58 364.361 Q2084.98 364.361 2087.27 362.625 Q2089.59 360.889 2089.59 357.578 Q2089.59 354.523 2087.44 352.81 Q2085.31 351.074 2081.49 351.074 L2077.46 351.074 L2077.46 347.231 L2081.67 347.231 Q2085.12 347.231 2086.95 345.866 Q2088.78 344.477 2088.78 341.884 Q2088.78 339.222 2086.88 337.81 Q2085.01 336.375 2081.49 336.375 Q2079.57 336.375 2077.37 336.791 Q2075.17 337.208 2072.53 338.088 L2072.53 333.921 Q2075.19 333.18 2077.51 332.81 Q2079.84 332.44 2081.9 332.44 Q2087.23 332.44 2090.33 334.87 Q2093.43 337.278 2093.43 341.398 Q2093.43 344.268 2091.79 346.259 Q2090.14 348.227 2087.11 348.99 Z" fill="#000000" fill-rule="evenodd" fill-opacity="1" /><path clip-path="url(#clip830)" d="M 0 0 M2109.89 348.481 Q2106.74 348.481 2104.89 350.634 Q2103.06 352.787 2103.06 356.537 Q2103.06 360.264 2104.89 362.439 Q2106.74 364.592 2109.89 364.592 Q2113.04 364.592 2114.87 362.439 Q2116.72 360.264 2116.72 356.537 Q2116.72 352.787 2114.87 350.634 Q2113.04 348.481 2109.89 348.481 M2119.17 333.829 L2119.17 338.088 Q2117.41 337.254 2115.61 336.815 Q2113.83 336.375 2112.07 336.375 Q2107.44 336.375 2104.98 339.5 Q2102.55 342.625 2102.2 348.944 Q2103.57 346.93 2105.63 345.866 Q2107.69 344.778 2110.17 344.778 Q2115.38 344.778 2118.39 347.949 Q2121.42 351.097 2121.42 356.537 Q2121.42 361.861 2118.27 365.078 Q2115.12 368.296 2109.89 368.296 Q2103.89 368.296 2100.72 363.713 Q2097.55 359.106 2097.55 350.379 Q2097.55 342.185 2101.44 337.324 Q2105.33 332.44 2111.88 332.44 Q2113.64 332.44 2115.42 332.787 Q2117.23 333.134 2119.17 333.829 Z" fill="#000000" fill-rule="evenodd" fill-opacity="1" /><path clip-path="url(#clip830)" d="M 0 0 M2127.3 363.689 L2134.94 363.689 L2134.94 337.324 L2126.63 338.991 L2126.63 334.731 L2134.89 333.065 L2139.57 333.065 L2139.57 363.689 L2147.2 363.689 L2147.2 367.625 L2127.3 367.625 L2127.3 363.689 Z" fill="#000000" fill-rule="evenodd" fill-opacity="1" /><path clip-path="url(#clip830)" d="M 0 0 M2156.3 363.689 L2172.62 363.689 L2172.62 367.625 L2150.68 367.625 L2150.68 363.689 Q2153.34 360.935 2157.92 356.305 Q2162.53 351.653 2163.71 350.31 Q2165.95 347.787 2166.83 346.051 Q2167.74 344.291 2167.74 342.602 Q2167.74 339.847 2165.79 338.111 Q2163.87 336.375 2160.77 336.375 Q2158.57 336.375 2156.12 337.139 Q2153.69 337.903 2150.91 339.454 L2150.91 334.731 Q2153.73 333.597 2156.19 333.018 Q2158.64 332.44 2160.68 332.44 Q2166.05 332.44 2169.24 335.125 Q2172.44 337.81 2172.44 342.301 Q2172.44 344.43 2171.63 346.352 Q2170.84 348.25 2168.73 350.842 Q2168.15 351.514 2165.05 354.731 Q2161.95 357.926 2156.3 363.689 Z" fill="#000000" fill-rule="evenodd" fill-opacity="1" /><path clip-path="url(#clip830)" d="M 0 0 M2176.51 333.065 L2198.73 333.065 L2198.73 335.055 L2186.19 367.625 L2181.3 367.625 L2193.11 337 L2176.51 337 L2176.51 333.065 Z" fill="#000000" fill-rule="evenodd" fill-opacity="1" /><path clip-path="url(#clip830)" d="M 0 0 M2213.8 351.213 Q2210.47 351.213 2208.55 352.995 Q2206.65 354.777 2206.65 357.902 Q2206.65 361.027 2208.55 362.81 Q2210.47 364.592 2213.8 364.592 Q2217.13 364.592 2219.06 362.81 Q2220.98 361.004 2220.98 357.902 Q2220.98 354.777 2219.06 352.995 Q2217.16 351.213 2213.8 351.213 M2209.13 349.222 Q2206.12 348.481 2204.43 346.421 Q2202.76 344.361 2202.76 341.398 Q2202.76 337.254 2205.7 334.847 Q2208.66 332.44 2213.8 332.44 Q2218.96 332.44 2221.9 334.847 Q2224.84 337.254 2224.84 341.398 Q2224.84 344.361 2223.15 346.421 Q2221.49 348.481 2218.5 349.222 Q2221.88 350.009 2223.76 352.301 Q2225.65 354.592 2225.65 357.902 Q2225.65 362.926 2222.57 365.611 Q2219.52 368.296 2213.8 368.296 Q2208.08 368.296 2205.01 365.611 Q2201.95 362.926 2201.95 357.902 Q2201.95 354.592 2203.85 352.301 Q2205.75 350.009 2209.13 349.222 M2207.41 341.838 Q2207.41 344.523 2209.08 346.028 Q2210.77 347.532 2213.8 347.532 Q2216.81 347.532 2218.5 346.028 Q2220.21 344.523 2220.21 341.838 Q2220.21 339.153 2218.5 337.648 Q2216.81 336.143 2213.8 336.143 Q2210.77 336.143 2209.08 337.648 Q2207.41 339.153 2207.41 341.838 Z" fill="#000000" fill-rule="evenodd" fill-opacity="1" /><polyline clip-path="url(#clip830)" style="stroke:#c271d2; stroke-width:4; stroke-opacity:1; fill:none" points="
  1557.69,410.825 1708.74,410.825 
  "/>
<circle clip-path="url(#clip830)" cx="1633.22" cy="410.825" r="23" fill="#c271d2" fill-rule="evenodd" fill-opacity="1" stroke="#000000" stroke-opacity="1" stroke-width="5.12"/>
<path clip-path="url(#clip830)" d="M 0 0 M1738.2 426.507 L1738.2 437.966 L1733.92 437.966 L1733.92 402.341 Q1733.92 391.785 1743.78 391.785 Q1753.83 391.785 1753.83 400.697 Q1753.83 407.04 1749.85 409.355 Q1756.33 411.438 1756.33 417.619 Q1756.33 428.591 1745.17 428.591 Q1740.26 428.591 1738.2 426.507 M1738.2 420.952 Q1740.77 424.957 1745.33 424.957 Q1752 424.957 1752 417.688 Q1752 411.16 1741.26 411.67 L1741.26 407.734 Q1749.66 407.734 1749.66 400.327 Q1749.66 395.258 1744.24 395.258 Q1738.2 395.258 1738.2 402.48 L1738.2 420.952 Z" fill="#000000" fill-rule="evenodd" fill-opacity="1" /><path clip-path="url(#clip830)" d="M 0 0 M1761.35 406.577 L1791.03 406.577 L1791.03 410.466 L1761.35 410.466 L1761.35 406.577 M1761.35 416.021 L1791.03 416.021 L1791.03 419.957 L1761.35 419.957 L1761.35 416.021 Z" fill="#000000" fill-rule="evenodd" fill-opacity="1" /><path clip-path="url(#clip830)" d="M 0 0 M1796.91 424.169 L1804.54 424.169 L1804.54 397.804 L1796.23 399.471 L1796.23 395.211 L1804.5 393.545 L1809.17 393.545 L1809.17 424.169 L1816.81 424.169 L1816.81 428.105 L1796.91 428.105 L1796.91 424.169 Z" fill="#000000" fill-rule="evenodd" fill-opacity="1" /><path clip-path="url(#clip830)" d="M 0 0 M1822.69 424.169 L1830.33 424.169 L1830.33 397.804 L1822.02 399.471 L1822.02 395.211 L1830.29 393.545 L1834.96 393.545 L1834.96 424.169 L1842.6 424.169 L1842.6 428.105 L1822.69 428.105 L1822.69 424.169 Z" fill="#000000" fill-rule="evenodd" fill-opacity="1" /><path clip-path="url(#clip830)" d="M 0 0 M1847.67 422.225 L1852.55 422.225 L1852.55 428.105 L1847.67 428.105 L1847.67 422.225 Z" fill="#000000" fill-rule="evenodd" fill-opacity="1" /><path clip-path="url(#clip830)" d="M 0 0 M1867.62 396.623 Q1864.01 396.623 1862.18 400.188 Q1860.38 403.73 1860.38 410.859 Q1860.38 417.966 1862.18 421.531 Q1864.01 425.072 1867.62 425.072 Q1871.26 425.072 1873.06 421.531 Q1874.89 417.966 1874.89 410.859 Q1874.89 403.73 1873.06 400.188 Q1871.26 396.623 1867.62 396.623 M1867.62 392.92 Q1873.43 392.92 1876.49 397.526 Q1879.57 402.109 1879.57 410.859 Q1879.57 419.586 1876.49 424.193 Q1873.43 428.776 1867.62 428.776 Q1861.81 428.776 1858.73 424.193 Q1855.68 419.586 1855.68 410.859 Q1855.68 402.109 1858.73 397.526 Q1861.81 392.92 1867.62 392.92 Z" fill="#000000" fill-rule="evenodd" fill-opacity="1" /></svg>
