<?xml version="1.0" encoding="utf-8"?>
<svg xmlns="http://www.w3.org/2000/svg" xmlns:xlink="http://www.w3.org/1999/xlink" width="600" height="400" viewBox="0 0 2400 1600">
<defs>
  <clipPath id="clip080">
    <rect x="0" y="0" width="2400" height="1600"/>
  </clipPath>
</defs>
<path clip-path="url(#clip080)" d="
M0 1600 L2400 1600 L2400 0 L0 0  Z
  " fill="#ffffff" fill-rule="evenodd" fill-opacity="1"/>
<defs>
  <clipPath id="clip081">
    <rect x="480" y="0" width="1681" height="1600"/>
  </clipPath>
</defs>
<path clip-path="url(#clip080)" d="
M47.2441 1486.45 L2352.76 1486.45 L2352.76 123.472 L47.2441 123.472  Z
  " fill="#ffffff" fill-rule="evenodd" fill-opacity="1"/>
<defs>
  <clipPath id="clip082">
    <rect x="47" y="123" width="2307" height="1364"/>
  </clipPath>
</defs>
<polyline clip-path="url(#clip082)" style="stroke:#000000; stroke-width:2; stroke-opacity:0.1; fill:none" points="
  206.372,1486.45 206.372,123.472 
  "/>
<polyline clip-path="url(#clip082)" style="stroke:#000000; stroke-width:2; stroke-opacity:0.1; fill:none" points="
  652.48,1486.45 652.48,123.472 
  "/>
<polyline clip-path="url(#clip082)" style="stroke:#000000; stroke-width:2; stroke-opacity:0.1; fill:none" points="
  1098.59,1486.45 1098.59,123.472 
  "/>
<polyline clip-path="url(#clip082)" style="stroke:#000000; stroke-width:2; stroke-opacity:0.1; fill:none" points="
  1544.69,1486.45 1544.69,123.472 
  "/>
<polyline clip-path="url(#clip082)" style="stroke:#000000; stroke-width:2; stroke-opacity:0.1; fill:none" points="
  1990.8,1486.45 1990.8,123.472 
  "/>
<polyline clip-path="url(#clip080)" style="stroke:#000000; stroke-width:4; stroke-opacity:1; fill:none" points="
  47.2441,1486.45 2352.76,1486.45 
  "/>
<polyline clip-path="url(#clip080)" style="stroke:#000000; stroke-width:4; stroke-opacity:1; fill:none" points="
  206.372,1486.45 206.372,1470.09 
  "/>
<polyline clip-path="url(#clip080)" style="stroke:#000000; stroke-width:4; stroke-opacity:1; fill:none" points="
  652.48,1486.45 652.48,1470.09 
  "/>
<polyline clip-path="url(#clip080)" style="stroke:#000000; stroke-width:4; stroke-opacity:1; fill:none" points="
  1098.59,1486.45 1098.59,1470.09 
  "/>
<polyline clip-path="url(#clip080)" style="stroke:#000000; stroke-width:4; stroke-opacity:1; fill:none" points="
  1544.69,1486.45 1544.69,1470.09 
  "/>
<polyline clip-path="url(#clip080)" style="stroke:#000000; stroke-width:4; stroke-opacity:1; fill:none" points="
  1990.8,1486.45 1990.8,1470.09 
  "/>
<path clip-path="url(#clip080)" d="M 0 0 M153.224 1530.29 L182.9 1530.29 L182.9 1534.23 L153.224 1534.23 L153.224 1530.29 Z" fill="#000000" fill-rule="evenodd" fill-opacity="1" /><path clip-path="url(#clip080)" d="M 0 0 M202.992 1515.64 Q199.381 1515.64 197.553 1519.2 Q195.747 1522.75 195.747 1529.87 Q195.747 1536.98 197.553 1540.55 Q199.381 1544.09 202.992 1544.09 Q206.627 1544.09 208.432 1540.55 Q210.261 1536.98 210.261 1529.87 Q210.261 1522.75 208.432 1519.2 Q206.627 1515.64 202.992 1515.64 M202.992 1511.93 Q208.803 1511.93 211.858 1516.54 Q214.937 1521.12 214.937 1529.87 Q214.937 1538.6 211.858 1543.21 Q208.803 1547.79 202.992 1547.79 Q197.182 1547.79 194.104 1543.21 Q191.048 1538.6 191.048 1529.87 Q191.048 1521.12 194.104 1516.54 Q197.182 1511.93 202.992 1511.93 Z" fill="#000000" fill-rule="evenodd" fill-opacity="1" /><path clip-path="url(#clip080)" d="M 0 0 M223.154 1541.24 L228.039 1541.24 L228.039 1547.12 L223.154 1547.12 L223.154 1541.24 Z" fill="#000000" fill-rule="evenodd" fill-opacity="1" /><path clip-path="url(#clip080)" d="M 0 0 M252.39 1528.49 Q255.747 1529.2 257.622 1531.47 Q259.52 1533.74 259.52 1537.07 Q259.52 1542.19 256.001 1544.99 Q252.483 1547.79 246.001 1547.79 Q243.826 1547.79 241.511 1547.35 Q239.219 1546.93 236.765 1546.08 L236.765 1541.56 Q238.71 1542.7 241.025 1543.28 Q243.339 1543.86 245.863 1543.86 Q250.261 1543.86 252.552 1542.12 Q254.867 1540.38 254.867 1537.07 Q254.867 1534.02 252.714 1532.31 Q250.585 1530.57 246.765 1530.57 L242.738 1530.57 L242.738 1526.73 L246.951 1526.73 Q250.4 1526.73 252.228 1525.36 Q254.057 1523.97 254.057 1521.38 Q254.057 1518.72 252.159 1517.31 Q250.284 1515.87 246.765 1515.87 Q244.844 1515.87 242.645 1516.29 Q240.446 1516.7 237.807 1517.58 L237.807 1513.42 Q240.469 1512.68 242.784 1512.31 Q245.122 1511.93 247.182 1511.93 Q252.506 1511.93 255.608 1514.37 Q258.71 1516.77 258.71 1520.89 Q258.71 1523.76 257.066 1525.75 Q255.423 1527.72 252.39 1528.49 Z" fill="#000000" fill-rule="evenodd" fill-opacity="1" /><path clip-path="url(#clip080)" d="M 0 0 M629.864 1515.64 Q626.253 1515.64 624.424 1519.2 Q622.619 1522.75 622.619 1529.87 Q622.619 1536.98 624.424 1540.55 Q626.253 1544.09 629.864 1544.09 Q633.498 1544.09 635.304 1540.55 Q637.133 1536.98 637.133 1529.87 Q637.133 1522.75 635.304 1519.2 Q633.498 1515.64 629.864 1515.64 M629.864 1511.93 Q635.674 1511.93 638.73 1516.54 Q641.808 1521.12 641.808 1529.87 Q641.808 1538.6 638.73 1543.21 Q635.674 1547.79 629.864 1547.79 Q624.054 1547.79 620.975 1543.21 Q617.92 1538.6 617.92 1529.87 Q617.92 1521.12 620.975 1516.54 Q624.054 1511.93 629.864 1511.93 Z" fill="#000000" fill-rule="evenodd" fill-opacity="1" /><path clip-path="url(#clip080)" d="M 0 0 M650.026 1541.24 L654.91 1541.24 L654.91 1547.12 L650.026 1547.12 L650.026 1541.24 Z" fill="#000000" fill-rule="evenodd" fill-opacity="1" /><path clip-path="url(#clip080)" d="M 0 0 M675.095 1515.64 Q671.484 1515.64 669.655 1519.2 Q667.85 1522.75 667.85 1529.87 Q667.85 1536.98 669.655 1540.55 Q671.484 1544.09 675.095 1544.09 Q678.73 1544.09 680.535 1540.55 Q682.364 1536.98 682.364 1529.87 Q682.364 1522.75 680.535 1519.2 Q678.73 1515.64 675.095 1515.64 M675.095 1511.93 Q680.905 1511.93 683.961 1516.54 Q687.04 1521.12 687.04 1529.87 Q687.04 1538.6 683.961 1543.21 Q680.905 1547.79 675.095 1547.79 Q669.285 1547.79 666.206 1543.21 Q663.151 1538.6 663.151 1529.87 Q663.151 1521.12 666.206 1516.54 Q669.285 1511.93 675.095 1511.93 Z" fill="#000000" fill-rule="evenodd" fill-opacity="1" /><path clip-path="url(#clip080)" d="M 0 0 M1076.3 1515.64 Q1072.68 1515.64 1070.86 1519.2 Q1069.05 1522.75 1069.05 1529.87 Q1069.05 1536.98 1070.86 1540.55 Q1072.68 1544.09 1076.3 1544.09 Q1079.93 1544.09 1081.74 1540.55 Q1083.56 1536.98 1083.56 1529.87 Q1083.56 1522.75 1081.74 1519.2 Q1079.93 1515.64 1076.3 1515.64 M1076.3 1511.93 Q1082.11 1511.93 1085.16 1516.54 Q1088.24 1521.12 1088.24 1529.87 Q1088.24 1538.6 1085.16 1543.21 Q1082.11 1547.79 1076.3 1547.79 Q1070.49 1547.79 1067.41 1543.21 Q1064.35 1538.6 1064.35 1529.87 Q1064.35 1521.12 1067.41 1516.54 Q1070.49 1511.93 1076.3 1511.93 Z" fill="#000000" fill-rule="evenodd" fill-opacity="1" /><path clip-path="url(#clip080)" d="M 0 0 M1096.46 1541.24 L1101.34 1541.24 L1101.34 1547.12 L1096.46 1547.12 L1096.46 1541.24 Z" fill="#000000" fill-rule="evenodd" fill-opacity="1" /><path clip-path="url(#clip080)" d="M 0 0 M1125.69 1528.49 Q1129.05 1529.2 1130.93 1531.47 Q1132.82 1533.74 1132.82 1537.07 Q1132.82 1542.19 1129.3 1544.99 Q1125.79 1547.79 1119.3 1547.79 Q1117.13 1547.79 1114.81 1547.35 Q1112.52 1546.93 1110.07 1546.08 L1110.07 1541.56 Q1112.01 1542.7 1114.33 1543.28 Q1116.64 1543.86 1119.17 1543.86 Q1123.56 1543.86 1125.86 1542.12 Q1128.17 1540.38 1128.17 1537.07 Q1128.17 1534.02 1126.02 1532.31 Q1123.89 1530.57 1120.07 1530.57 L1116.04 1530.57 L1116.04 1526.73 L1120.25 1526.73 Q1123.7 1526.73 1125.53 1525.36 Q1127.36 1523.97 1127.36 1521.38 Q1127.36 1518.72 1125.46 1517.31 Q1123.59 1515.87 1120.07 1515.87 Q1118.15 1515.87 1115.95 1516.29 Q1113.75 1516.7 1111.11 1517.58 L1111.11 1513.42 Q1113.77 1512.68 1116.09 1512.31 Q1118.43 1511.93 1120.49 1511.93 Q1125.81 1511.93 1128.91 1514.37 Q1132.01 1516.77 1132.01 1520.89 Q1132.01 1523.76 1130.37 1525.75 Q1128.73 1527.72 1125.69 1528.49 Z" fill="#000000" fill-rule="evenodd" fill-opacity="1" /><path clip-path="url(#clip080)" d="M 0 0 M1522 1515.64 Q1518.39 1515.64 1516.56 1519.2 Q1514.75 1522.75 1514.75 1529.87 Q1514.75 1536.98 1516.56 1540.55 Q1518.39 1544.09 1522 1544.09 Q1525.63 1544.09 1527.44 1540.55 Q1529.27 1536.98 1529.27 1529.87 Q1529.27 1522.75 1527.44 1519.2 Q1525.63 1515.64 1522 1515.64 M1522 1511.93 Q1527.81 1511.93 1530.86 1516.54 Q1533.94 1521.12 1533.94 1529.87 Q1533.94 1538.6 1530.86 1543.21 Q1527.81 1547.79 1522 1547.79 Q1516.19 1547.79 1513.11 1543.21 Q1510.05 1538.6 1510.05 1529.87 Q1510.05 1521.12 1513.11 1516.54 Q1516.19 1511.93 1522 1511.93 Z" fill="#000000" fill-rule="evenodd" fill-opacity="1" /><path clip-path="url(#clip080)" d="M 0 0 M1542.16 1541.24 L1547.04 1541.24 L1547.04 1547.12 L1542.16 1547.12 L1542.16 1541.24 Z" fill="#000000" fill-rule="evenodd" fill-opacity="1" /><path clip-path="url(#clip080)" d="M 0 0 M1567.81 1527.98 Q1564.66 1527.98 1562.81 1530.13 Q1560.98 1532.28 1560.98 1536.03 Q1560.98 1539.76 1562.81 1541.93 Q1564.66 1544.09 1567.81 1544.09 Q1570.96 1544.09 1572.79 1541.93 Q1574.64 1539.76 1574.64 1536.03 Q1574.64 1532.28 1572.79 1530.13 Q1570.96 1527.98 1567.81 1527.98 M1577.09 1513.32 L1577.09 1517.58 Q1575.33 1516.75 1573.53 1516.31 Q1571.74 1515.87 1569.98 1515.87 Q1565.35 1515.87 1562.9 1519 Q1560.47 1522.12 1560.12 1528.44 Q1561.49 1526.43 1563.55 1525.36 Q1565.61 1524.27 1568.09 1524.27 Q1573.29 1524.27 1576.3 1527.44 Q1579.34 1530.59 1579.34 1536.03 Q1579.34 1541.36 1576.19 1544.57 Q1573.04 1547.79 1567.81 1547.79 Q1561.81 1547.79 1558.64 1543.21 Q1555.47 1538.6 1555.47 1529.87 Q1555.47 1521.68 1559.36 1516.82 Q1563.25 1511.93 1569.8 1511.93 Q1571.56 1511.93 1573.34 1512.28 Q1575.15 1512.63 1577.09 1513.32 Z" fill="#000000" fill-rule="evenodd" fill-opacity="1" /><path clip-path="url(#clip080)" d="M 0 0 M1968.28 1515.64 Q1964.67 1515.64 1962.84 1519.2 Q1961.03 1522.75 1961.03 1529.87 Q1961.03 1536.98 1962.84 1540.55 Q1964.67 1544.09 1968.28 1544.09 Q1971.91 1544.09 1973.72 1540.55 Q1975.55 1536.98 1975.55 1529.87 Q1975.55 1522.75 1973.72 1519.2 Q1971.91 1515.64 1968.28 1515.64 M1968.28 1511.93 Q1974.09 1511.93 1977.15 1516.54 Q1980.22 1521.12 1980.22 1529.87 Q1980.22 1538.6 1977.15 1543.21 Q1974.09 1547.79 1968.28 1547.79 Q1962.47 1547.79 1959.39 1543.21 Q1956.34 1538.6 1956.34 1529.87 Q1956.34 1521.12 1959.39 1516.54 Q1962.47 1511.93 1968.28 1511.93 Z" fill="#000000" fill-rule="evenodd" fill-opacity="1" /><path clip-path="url(#clip080)" d="M 0 0 M1988.44 1541.24 L1993.33 1541.24 L1993.33 1547.12 L1988.44 1547.12 L1988.44 1541.24 Z" fill="#000000" fill-rule="evenodd" fill-opacity="1" /><path clip-path="url(#clip080)" d="M 0 0 M2003.65 1546.4 L2003.65 1542.14 Q2005.41 1542.98 2007.21 1543.42 Q2009.02 1543.86 2010.76 1543.86 Q2015.39 1543.86 2017.82 1540.75 Q2020.27 1537.63 2020.62 1531.29 Q2019.27 1533.28 2017.21 1534.34 Q2015.15 1535.41 2012.65 1535.41 Q2007.47 1535.41 2004.44 1532.28 Q2001.43 1529.13 2001.43 1523.69 Q2001.43 1518.37 2004.58 1515.15 Q2007.72 1511.93 2012.96 1511.93 Q2018.95 1511.93 2022.1 1516.54 Q2025.27 1521.12 2025.27 1529.87 Q2025.27 1538.05 2021.38 1542.93 Q2017.52 1547.79 2010.96 1547.79 Q2009.21 1547.79 2007.4 1547.44 Q2005.59 1547.1 2003.65 1546.4 M2012.96 1531.75 Q2016.1 1531.75 2017.93 1529.6 Q2019.78 1527.44 2019.78 1523.69 Q2019.78 1519.97 2017.93 1517.81 Q2016.1 1515.64 2012.96 1515.64 Q2009.81 1515.64 2007.96 1517.81 Q2006.13 1519.97 2006.13 1523.69 Q2006.13 1527.44 2007.96 1529.6 Q2009.81 1531.75 2012.96 1531.75 Z" fill="#000000" fill-rule="evenodd" fill-opacity="1" /><polyline clip-path="url(#clip080)" style="stroke:#000000; stroke-width:4; stroke-opacity:1; fill:none" points="
  47.2441,1486.45 47.2441,123.472 
  "/>
<path clip-path="url(#clip080)" d="M 0 0 M711.947 44.2197 Q714.58 45.1109 717.051 48.0275 Q719.563 50.9442 722.074 56.0483 L730.379 72.576 L721.588 72.576 L713.851 57.061 Q710.853 50.9847 708.018 48.9997 Q705.223 47.0148 700.361 47.0148 L691.449 47.0148 L691.449 72.576 L683.267 72.576 L683.267 12.096 L701.739 12.096 Q712.109 12.096 717.213 16.4305 Q722.317 20.7649 722.317 29.5149 Q722.317 35.2267 719.644 38.994 Q717.011 42.7613 711.947 44.2197 M691.449 18.8205 L691.449 40.2903 L701.739 40.2903 Q707.653 40.2903 710.651 37.5762 Q713.689 34.8216 713.689 29.5149 Q713.689 24.2082 710.651 21.5346 Q707.653 18.8205 701.739 18.8205 L691.449 18.8205 Z" fill="#000000" fill-rule="evenodd" fill-opacity="1" /><path clip-path="url(#clip080)" d="M 0 0 M754.441 32.4315 Q748.446 32.4315 744.962 37.1306 Q741.478 41.7891 741.478 49.9314 Q741.478 58.0738 744.921 62.7728 Q748.405 67.4314 754.441 67.4314 Q760.396 67.4314 763.88 62.7323 Q767.363 58.0333 767.363 49.9314 Q767.363 41.8701 763.88 37.1711 Q760.396 32.4315 754.441 32.4315 M754.441 26.1121 Q764.163 26.1121 769.713 32.4315 Q775.263 38.7509 775.263 49.9314 Q775.263 61.0714 769.713 67.4314 Q764.163 73.7508 754.441 73.7508 Q744.678 73.7508 739.129 67.4314 Q733.619 61.0714 733.619 49.9314 Q733.619 38.7509 739.129 32.4315 Q744.678 26.1121 754.441 26.1121 Z" fill="#000000" fill-rule="evenodd" fill-opacity="1" /><path clip-path="url(#clip080)" d="M 0 0 M820.187 49.9314 Q820.187 41.7081 816.784 37.0496 Q813.422 32.3505 807.508 32.3505 Q801.594 32.3505 798.191 37.0496 Q794.829 41.7081 794.829 49.9314 Q794.829 58.1548 798.191 62.8538 Q801.594 67.5124 807.508 67.5124 Q813.422 67.5124 816.784 62.8538 Q820.187 58.1548 820.187 49.9314 M794.829 34.0924 Q797.178 30.0415 800.743 28.0971 Q804.348 26.1121 809.331 26.1121 Q817.595 26.1121 822.739 32.6746 Q827.924 39.2371 827.924 49.9314 Q827.924 60.6258 822.739 67.1883 Q817.595 73.7508 809.331 73.7508 Q804.348 73.7508 800.743 71.8063 Q797.178 69.8214 794.829 65.7705 L794.829 72.576 L787.334 72.576 L787.334 9.54393 L794.829 9.54393 L794.829 34.0924 Z" fill="#000000" fill-rule="evenodd" fill-opacity="1" /><path clip-path="url(#clip080)" d="M 0 0 M879.087 48.0275 L879.087 51.6733 L844.817 51.6733 Q845.303 59.3701 849.435 63.421 Q853.607 67.4314 861.02 67.4314 Q865.314 67.4314 869.325 66.3781 Q873.376 65.3249 877.345 63.2184 L877.345 70.267 Q873.335 71.9684 869.122 72.8596 Q864.909 73.7508 860.575 73.7508 Q849.718 73.7508 843.358 67.4314 Q837.039 61.1119 837.039 50.3365 Q837.039 39.1965 843.034 32.6746 Q849.07 26.1121 859.278 26.1121 Q868.433 26.1121 873.74 32.0264 Q879.087 37.9003 879.087 48.0275 M871.634 45.84 Q871.553 39.7232 868.19 36.0774 Q864.869 32.4315 859.359 32.4315 Q853.121 32.4315 849.354 35.9558 Q845.627 39.4801 845.06 45.8805 L871.634 45.84 Z" fill="#000000" fill-rule="evenodd" fill-opacity="1" /><path clip-path="url(#clip080)" d="M 0 0 M917.611 34.1734 Q916.356 33.4443 914.857 33.1202 Q913.399 32.7556 911.616 32.7556 Q905.297 32.7556 901.894 36.8875 Q898.532 40.9789 898.532 48.6757 L898.532 72.576 L891.038 72.576 L891.038 27.2059 L898.532 27.2059 L898.532 34.2544 Q900.881 30.1225 904.649 28.1376 Q908.416 26.1121 913.804 26.1121 Q914.573 26.1121 915.505 26.2337 Q916.437 26.3147 917.571 26.5172 L917.611 34.1734 Z" fill="#000000" fill-rule="evenodd" fill-opacity="1" /><path clip-path="url(#clip080)" d="M 0 0 M932.802 14.324 L932.802 27.2059 L948.155 27.2059 L948.155 32.9987 L932.802 32.9987 L932.802 57.6282 Q932.802 63.1779 934.301 64.7578 Q935.841 66.3376 940.499 66.3376 L948.155 66.3376 L948.155 72.576 L940.499 72.576 Q931.871 72.576 928.589 69.3758 Q925.308 66.1351 925.308 57.6282 L925.308 32.9987 L919.839 32.9987 L919.839 27.2059 L925.308 27.2059 L925.308 14.324 L932.802 14.324 Z" fill="#000000" fill-rule="evenodd" fill-opacity="1" /><path clip-path="url(#clip080)" d="M 0 0 M986.882 28.5427 L986.882 35.5912 Q983.722 33.9709 980.319 33.1607 Q976.917 32.3505 973.271 32.3505 Q967.721 32.3505 964.926 34.0519 Q962.171 35.7533 962.171 39.156 Q962.171 41.7486 964.156 43.2475 Q966.141 44.7058 972.137 46.0426 L974.689 46.6097 Q982.628 48.3111 985.95 51.4303 Q989.312 54.509 989.312 60.0587 Q989.312 66.3781 984.289 70.0644 Q979.307 73.7508 970.557 73.7508 Q966.911 73.7508 962.941 73.0216 Q959.012 72.3329 954.637 70.9151 L954.637 63.2184 Q958.769 65.3654 962.779 66.4591 Q966.789 67.5124 970.719 67.5124 Q975.985 67.5124 978.821 65.73 Q981.656 63.9071 981.656 60.6258 Q981.656 57.5877 979.59 55.9673 Q977.565 54.3469 970.638 52.8481 L968.045 52.2405 Q961.118 50.7821 958.039 47.7845 Q954.961 44.7463 954.961 39.4801 Q954.961 33.0797 959.498 29.5959 Q964.035 26.1121 972.38 26.1121 Q976.512 26.1121 980.157 26.7198 Q983.803 27.3274 986.882 28.5427 Z" fill="#000000" fill-rule="evenodd" fill-opacity="1" /><path clip-path="url(#clip080)" d="M 0 0 M1056.48 28.5427 L1056.48 35.5912 Q1053.32 33.9709 1049.91 33.1607 Q1046.51 32.3505 1042.87 32.3505 Q1037.32 32.3505 1034.52 34.0519 Q1031.77 35.7533 1031.77 39.156 Q1031.77 41.7486 1033.75 43.2475 Q1035.74 44.7058 1041.73 46.0426 L1044.28 46.6097 Q1052.22 48.3111 1055.54 51.4303 Q1058.91 54.509 1058.91 60.0587 Q1058.91 66.3781 1053.88 70.0644 Q1048.9 73.7508 1040.15 73.7508 Q1036.51 73.7508 1032.54 73.0216 Q1028.61 72.3329 1024.23 70.9151 L1024.23 63.2184 Q1028.36 65.3654 1032.37 66.4591 Q1036.38 67.5124 1040.31 67.5124 Q1045.58 67.5124 1048.42 65.73 Q1051.25 63.9071 1051.25 60.6258 Q1051.25 57.5877 1049.18 55.9673 Q1047.16 54.3469 1040.23 52.8481 L1037.64 52.2405 Q1030.71 50.7821 1027.63 47.7845 Q1024.56 44.7463 1024.56 39.4801 Q1024.56 33.0797 1029.09 29.5959 Q1033.63 26.1121 1041.97 26.1121 Q1046.11 26.1121 1049.75 26.7198 Q1053.4 27.3274 1056.48 28.5427 Z" fill="#000000" fill-rule="evenodd" fill-opacity="1" /><path clip-path="url(#clip080)" d="M 0 0 M1078.15 14.324 L1078.15 27.2059 L1093.5 27.2059 L1093.5 32.9987 L1078.15 32.9987 L1078.15 57.6282 Q1078.15 63.1779 1079.65 64.7578 Q1081.19 66.3376 1085.85 66.3376 L1093.5 66.3376 L1093.5 72.576 L1085.85 72.576 Q1077.22 72.576 1073.94 69.3758 Q1070.65 66.1351 1070.65 57.6282 L1070.65 32.9987 L1065.19 32.9987 L1065.19 27.2059 L1070.65 27.2059 L1070.65 14.324 L1078.15 14.324 Z" fill="#000000" fill-rule="evenodd" fill-opacity="1" /><path clip-path="url(#clip080)" d="M 0 0 M1129.6 34.1734 Q1128.34 33.4443 1126.84 33.1202 Q1125.38 32.7556 1123.6 32.7556 Q1117.28 32.7556 1113.88 36.8875 Q1110.52 40.9789 1110.52 48.6757 L1110.52 72.576 L1103.02 72.576 L1103.02 27.2059 L1110.52 27.2059 L1110.52 34.2544 Q1112.87 30.1225 1116.63 28.1376 Q1120.4 26.1121 1125.79 26.1121 Q1126.56 26.1121 1127.49 26.2337 Q1128.42 26.3147 1129.55 26.5172 L1129.6 34.1734 Z" fill="#000000" fill-rule="evenodd" fill-opacity="1" /><path clip-path="url(#clip080)" d="M 0 0 M1174.4 48.0275 L1174.4 51.6733 L1140.13 51.6733 Q1140.61 59.3701 1144.75 63.421 Q1148.92 67.4314 1156.33 67.4314 Q1160.63 67.4314 1164.64 66.3781 Q1168.69 65.3249 1172.66 63.2184 L1172.66 70.267 Q1168.65 71.9684 1164.43 72.8596 Q1160.22 73.7508 1155.89 73.7508 Q1145.03 73.7508 1138.67 67.4314 Q1132.35 61.1119 1132.35 50.3365 Q1132.35 39.1965 1138.35 32.6746 Q1144.38 26.1121 1154.59 26.1121 Q1163.74 26.1121 1169.05 32.0264 Q1174.4 37.9003 1174.4 48.0275 M1166.94 45.84 Q1166.86 39.7232 1163.5 36.0774 Q1160.18 32.4315 1154.67 32.4315 Q1148.43 32.4315 1144.66 35.9558 Q1140.94 39.4801 1140.37 45.8805 L1166.94 45.84 Z" fill="#000000" fill-rule="evenodd" fill-opacity="1" /><path clip-path="url(#clip080)" d="M 0 0 M1194 14.324 L1194 27.2059 L1209.36 27.2059 L1209.36 32.9987 L1194 32.9987 L1194 57.6282 Q1194 63.1779 1195.5 64.7578 Q1197.04 66.3376 1201.7 66.3376 L1209.36 66.3376 L1209.36 72.576 L1201.7 72.576 Q1193.07 72.576 1189.79 69.3758 Q1186.51 66.1351 1186.51 57.6282 L1186.51 32.9987 L1181.04 32.9987 L1181.04 27.2059 L1186.51 27.2059 L1186.51 14.324 L1194 14.324 Z" fill="#000000" fill-rule="evenodd" fill-opacity="1" /><path clip-path="url(#clip080)" d="M 0 0 M1251.81 28.9478 L1251.81 35.9153 Q1248.65 34.1734 1245.45 33.3227 Q1242.29 32.4315 1239.05 32.4315 Q1231.8 32.4315 1227.79 37.0496 Q1223.78 41.6271 1223.78 49.9314 Q1223.78 58.2358 1227.79 62.8538 Q1231.8 67.4314 1239.05 67.4314 Q1242.29 67.4314 1245.45 66.5807 Q1248.65 65.6895 1251.81 63.9476 L1251.81 70.8341 Q1248.69 72.2924 1245.33 73.0216 Q1242.01 73.7508 1238.24 73.7508 Q1227.99 73.7508 1221.96 67.3098 Q1215.92 60.8689 1215.92 49.9314 Q1215.92 38.832 1222 32.472 Q1228.11 26.1121 1238.73 26.1121 Q1242.17 26.1121 1245.45 26.8413 Q1248.73 27.5299 1251.81 28.9478 Z" fill="#000000" fill-rule="evenodd" fill-opacity="1" /><path clip-path="url(#clip080)" d="M 0 0 M1302.49 45.1919 L1302.49 72.576 L1295.03 72.576 L1295.03 45.4349 Q1295.03 38.994 1292.52 35.7938 Q1290.01 32.5936 1284.99 32.5936 Q1278.95 32.5936 1275.47 36.4419 Q1271.98 40.2903 1271.98 46.9338 L1271.98 72.576 L1264.49 72.576 L1264.49 9.54393 L1271.98 9.54393 L1271.98 34.2544 Q1274.66 30.163 1278.26 28.1376 Q1281.91 26.1121 1286.65 26.1121 Q1294.47 26.1121 1298.48 30.9732 Q1302.49 35.7938 1302.49 45.1919 Z" fill="#000000" fill-rule="evenodd" fill-opacity="1" /><path clip-path="url(#clip080)" d="M 0 0 M1317.35 27.2059 L1324.81 27.2059 L1324.81 72.576 L1317.35 72.576 L1317.35 27.2059 M1317.35 9.54393 L1324.81 9.54393 L1324.81 18.9825 L1317.35 18.9825 L1317.35 9.54393 Z" fill="#000000" fill-rule="evenodd" fill-opacity="1" /><path clip-path="url(#clip080)" d="M 0 0 M1378.12 45.1919 L1378.12 72.576 L1370.66 72.576 L1370.66 45.4349 Q1370.66 38.994 1368.15 35.7938 Q1365.64 32.5936 1360.62 32.5936 Q1354.58 32.5936 1351.1 36.4419 Q1347.61 40.2903 1347.61 46.9338 L1347.61 72.576 L1340.12 72.576 L1340.12 27.2059 L1347.61 27.2059 L1347.61 34.2544 Q1350.29 30.163 1353.89 28.1376 Q1357.54 26.1121 1362.28 26.1121 Q1370.1 26.1121 1374.11 30.9732 Q1378.12 35.7938 1378.12 45.1919 Z" fill="#000000" fill-rule="evenodd" fill-opacity="1" /><path clip-path="url(#clip080)" d="M 0 0 M1422.84 49.3643 Q1422.84 41.2625 1419.48 36.8065 Q1416.16 32.3505 1410.12 32.3505 Q1404.13 32.3505 1400.76 36.8065 Q1397.44 41.2625 1397.44 49.3643 Q1397.44 57.4256 1400.76 61.8816 Q1404.13 66.3376 1410.12 66.3376 Q1416.16 66.3376 1419.48 61.8816 Q1422.84 57.4256 1422.84 49.3643 M1430.29 66.9452 Q1430.29 78.5308 1425.15 84.1616 Q1420 89.8329 1409.39 89.8329 Q1405.46 89.8329 1401.98 89.2252 Q1398.49 88.6581 1395.21 87.4428 L1395.21 80.1917 Q1398.49 81.9741 1401.69 82.8248 Q1404.89 83.6755 1408.22 83.6755 Q1415.55 83.6755 1419.19 79.8271 Q1422.84 76.0193 1422.84 68.282 L1422.84 64.5957 Q1420.53 68.6061 1416.93 70.5911 Q1413.32 72.576 1408.3 72.576 Q1399.95 72.576 1394.85 66.2161 Q1389.74 59.8562 1389.74 49.3643 Q1389.74 38.832 1394.85 32.472 Q1399.95 26.1121 1408.3 26.1121 Q1413.32 26.1121 1416.93 28.0971 Q1420.53 30.082 1422.84 34.0924 L1422.84 27.2059 L1430.29 27.2059 L1430.29 66.9452 Z" fill="#000000" fill-rule="evenodd" fill-opacity="1" /><path clip-path="url(#clip080)" d="M 0 0 M1489.92 9.62495 Q1484.5 18.942 1481.86 28.0566 Q1479.23 37.1711 1479.23 46.5287 Q1479.23 55.8863 1481.86 65.0818 Q1484.54 74.2369 1489.92 83.5134 L1483.44 83.5134 Q1477.37 73.9938 1474.33 64.7983 Q1471.33 55.6027 1471.33 46.5287 Q1471.33 37.4952 1474.33 28.3401 Q1477.32 19.1851 1483.44 9.62495 L1489.92 9.62495 Z" fill="#000000" fill-rule="evenodd" fill-opacity="1" /><path clip-path="url(#clip080)" d="M 0 0 M1530.68 34.1734 Q1529.42 33.4443 1527.92 33.1202 Q1526.46 32.7556 1524.68 32.7556 Q1518.36 32.7556 1514.96 36.8875 Q1511.6 40.9789 1511.6 48.6757 L1511.6 72.576 L1504.1 72.576 L1504.1 27.2059 L1511.6 27.2059 L1511.6 34.2544 Q1513.95 30.1225 1517.71 28.1376 Q1521.48 26.1121 1526.87 26.1121 Q1527.64 26.1121 1528.57 26.2337 Q1529.5 26.3147 1530.63 26.5172 L1530.68 34.1734 Z" fill="#000000" fill-rule="evenodd" fill-opacity="1" /><path clip-path="url(#clip080)" d="M 0 0 M1538.49 27.2059 L1545.95 27.2059 L1545.95 72.576 L1538.49 72.576 L1538.49 27.2059 M1538.49 9.54393 L1545.95 9.54393 L1545.95 18.9825 L1538.49 18.9825 L1538.49 9.54393 Z" fill="#000000" fill-rule="evenodd" fill-opacity="1" /><path clip-path="url(#clip080)" d="M 0 0 M1591.4 49.3643 Q1591.4 41.2625 1588.04 36.8065 Q1584.71 32.3505 1578.68 32.3505 Q1572.68 32.3505 1569.32 36.8065 Q1566 41.2625 1566 49.3643 Q1566 57.4256 1569.32 61.8816 Q1572.68 66.3376 1578.68 66.3376 Q1584.71 66.3376 1588.04 61.8816 Q1591.4 57.4256 1591.4 49.3643 M1598.85 66.9452 Q1598.85 78.5308 1593.71 84.1616 Q1588.56 89.8329 1577.95 89.8329 Q1574.02 89.8329 1570.54 89.2252 Q1567.05 88.6581 1563.77 87.4428 L1563.77 80.1917 Q1567.05 81.9741 1570.25 82.8248 Q1573.45 83.6755 1576.77 83.6755 Q1584.11 83.6755 1587.75 79.8271 Q1591.4 76.0193 1591.4 68.282 L1591.4 64.5957 Q1589.09 68.6061 1585.48 70.5911 Q1581.88 72.576 1576.86 72.576 Q1568.51 72.576 1563.41 66.2161 Q1558.3 59.8562 1558.3 49.3643 Q1558.3 38.832 1563.41 32.472 Q1568.51 26.1121 1576.86 26.1121 Q1581.88 26.1121 1585.48 28.0971 Q1589.09 30.082 1591.4 34.0924 L1591.4 27.2059 L1598.85 27.2059 L1598.85 66.9452 Z" fill="#000000" fill-rule="evenodd" fill-opacity="1" /><path clip-path="url(#clip080)" d="M 0 0 M1651.92 45.1919 L1651.92 72.576 L1644.47 72.576 L1644.47 45.4349 Q1644.47 38.994 1641.95 35.7938 Q1639.44 32.5936 1634.42 32.5936 Q1628.38 32.5936 1624.9 36.4419 Q1621.42 40.2903 1621.42 46.9338 L1621.42 72.576 L1613.92 72.576 L1613.92 9.54393 L1621.42 9.54393 L1621.42 34.2544 Q1624.09 30.163 1627.69 28.1376 Q1631.34 26.1121 1636.08 26.1121 Q1643.9 26.1121 1647.91 30.9732 Q1651.92 35.7938 1651.92 45.1919 Z" fill="#000000" fill-rule="evenodd" fill-opacity="1" /><path clip-path="url(#clip080)" d="M 0 0 M1674.16 14.324 L1674.16 27.2059 L1689.51 27.2059 L1689.51 32.9987 L1674.16 32.9987 L1674.16 57.6282 Q1674.16 63.1779 1675.66 64.7578 Q1677.2 66.3376 1681.86 66.3376 L1689.51 66.3376 L1689.51 72.576 L1681.86 72.576 Q1673.23 72.576 1669.95 69.3758 Q1666.66 66.1351 1666.66 57.6282 L1666.66 32.9987 L1661.2 32.9987 L1661.2 27.2059 L1666.66 27.2059 L1666.66 14.324 L1674.16 14.324 Z" fill="#000000" fill-rule="evenodd" fill-opacity="1" /><path clip-path="url(#clip080)" d="M 0 0 M1698.14 9.62495 L1704.62 9.62495 Q1710.7 19.1851 1713.7 28.3401 Q1716.73 37.4952 1716.73 46.5287 Q1716.73 55.6027 1713.7 64.7983 Q1710.7 73.9938 1704.62 83.5134 L1698.14 83.5134 Q1703.53 74.2369 1706.16 65.0818 Q1708.83 55.8863 1708.83 46.5287 Q1708.83 37.1711 1706.16 28.0566 Q1703.53 18.942 1698.14 9.62495 Z" fill="#000000" fill-rule="evenodd" fill-opacity="1" /><polyline clip-path="url(#clip082)" style="stroke:#009af9; stroke-width:4; stroke-opacity:1; fill:none" points="
  112.494,1259.29 652.48,1259.29 1192.46,1259.29 1606.85,1259.29 1864.85,1259.29 2005.16,1259.29 2075.9,1259.29 2110.19,1259.29 2126.51,1259.29 2134.2,1259.29 
  2137.81,1259.29 2139.51,1259.29 2141.2,1259.29 
  "/>
<circle clip-path="url(#clip082)" cx="112.494" cy="1259.29" r="14" fill="#009af9" fill-rule="evenodd" fill-opacity="1" stroke="#000000" stroke-opacity="1" stroke-width="3.2"/>
<circle clip-path="url(#clip082)" cx="652.48" cy="1259.29" r="14" fill="#009af9" fill-rule="evenodd" fill-opacity="1" stroke="#000000" stroke-opacity="1" stroke-width="3.2"/>
<circle clip-path="url(#clip082)" cx="1192.46" cy="1259.29" r="14" fill="#009af9" fill-rule="evenodd" fill-opacity="1" stroke="#000000" stroke-opacity="1" stroke-width="3.2"/>
<circle clip-path="url(#clip082)" cx="1606.85" cy="1259.29" r="14" fill="#009af9" fill-rule="evenodd" fill-opacity="1" stroke="#000000" stroke-opacity="1" stroke-width="3.2"/>
<circle clip-path="url(#clip082)" cx="1864.85" cy="1259.29" r="14" fill="#009af9" fill-rule="evenodd" fill-opacity="1" stroke="#000000" stroke-opacity="1" stroke-width="3.2"/>
<circle clip-path="url(#clip082)" cx="2005.16" cy="1259.29" r="14" fill="#009af9" fill-rule="evenodd" fill-opacity="1" stroke="#000000" stroke-opacity="1" stroke-width="3.2"/>
<circle clip-path="url(#clip082)" cx="2075.9" cy="1259.29" r="14" fill="#009af9" fill-rule="evenodd" fill-opacity="1" stroke="#000000" stroke-opacity="1" stroke-width="3.2"/>
<circle clip-path="url(#clip082)" cx="2110.19" cy="1259.29" r="14" fill="#009af9" fill-rule="evenodd" fill-opacity="1" stroke="#000000" stroke-opacity="1" stroke-width="3.2"/>
<circle clip-path="url(#clip082)" cx="2126.51" cy="1259.29" r="14" fill="#009af9" fill-rule="evenodd" fill-opacity="1" stroke="#000000" stroke-opacity="1" stroke-width="3.2"/>
<circle clip-path="url(#clip082)" cx="2134.2" cy="1259.29" r="14" fill="#009af9" fill-rule="evenodd" fill-opacity="1" stroke="#000000" stroke-opacity="1" stroke-width="3.2"/>
<circle clip-path="url(#clip082)" cx="2137.81" cy="1259.29" r="14" fill="#009af9" fill-rule="evenodd" fill-opacity="1" stroke="#000000" stroke-opacity="1" stroke-width="3.2"/>
<circle clip-path="url(#clip082)" cx="2139.51" cy="1259.29" r="14" fill="#009af9" fill-rule="evenodd" fill-opacity="1" stroke="#000000" stroke-opacity="1" stroke-width="3.2"/>
<circle clip-path="url(#clip082)" cx="2141.2" cy="1259.29" r="14" fill="#009af9" fill-rule="evenodd" fill-opacity="1" stroke="#000000" stroke-opacity="1" stroke-width="3.2"/>
<polyline clip-path="url(#clip082)" style="stroke:#e26f46; stroke-width:4; stroke-opacity:1; fill:none" points="
  313.347,1032.12 652.48,1032.12 991.612,1032.12 1298.54,1032.12 1552.24,1032.12 1746.68,1032.12 1887.25,1032.12 1984.64,1032.12 2050.13,1032.12 2093.31,1032.12 
  2121.39,1032.12 2139.51,1032.12 2157.62,1032.12 
  "/>
<circle clip-path="url(#clip082)" cx="313.347" cy="1032.12" r="14" fill="#e26f46" fill-rule="evenodd" fill-opacity="1" stroke="#000000" stroke-opacity="1" stroke-width="3.2"/>
<circle clip-path="url(#clip082)" cx="652.48" cy="1032.12" r="14" fill="#e26f46" fill-rule="evenodd" fill-opacity="1" stroke="#000000" stroke-opacity="1" stroke-width="3.2"/>
<circle clip-path="url(#clip082)" cx="991.612" cy="1032.12" r="14" fill="#e26f46" fill-rule="evenodd" fill-opacity="1" stroke="#000000" stroke-opacity="1" stroke-width="3.2"/>
<circle clip-path="url(#clip082)" cx="1298.54" cy="1032.12" r="14" fill="#e26f46" fill-rule="evenodd" fill-opacity="1" stroke="#000000" stroke-opacity="1" stroke-width="3.2"/>
<circle clip-path="url(#clip082)" cx="1552.24" cy="1032.12" r="14" fill="#e26f46" fill-rule="evenodd" fill-opacity="1" stroke="#000000" stroke-opacity="1" stroke-width="3.2"/>
<circle clip-path="url(#clip082)" cx="1746.68" cy="1032.12" r="14" fill="#e26f46" fill-rule="evenodd" fill-opacity="1" stroke="#000000" stroke-opacity="1" stroke-width="3.2"/>
<circle clip-path="url(#clip082)" cx="1887.25" cy="1032.12" r="14" fill="#e26f46" fill-rule="evenodd" fill-opacity="1" stroke="#000000" stroke-opacity="1" stroke-width="3.2"/>
<circle clip-path="url(#clip082)" cx="1984.64" cy="1032.12" r="14" fill="#e26f46" fill-rule="evenodd" fill-opacity="1" stroke="#000000" stroke-opacity="1" stroke-width="3.2"/>
<circle clip-path="url(#clip082)" cx="2050.13" cy="1032.12" r="14" fill="#e26f46" fill-rule="evenodd" fill-opacity="1" stroke="#000000" stroke-opacity="1" stroke-width="3.2"/>
<circle clip-path="url(#clip082)" cx="2093.31" cy="1032.12" r="14" fill="#e26f46" fill-rule="evenodd" fill-opacity="1" stroke="#000000" stroke-opacity="1" stroke-width="3.2"/>
<circle clip-path="url(#clip082)" cx="2121.39" cy="1032.12" r="14" fill="#e26f46" fill-rule="evenodd" fill-opacity="1" stroke="#000000" stroke-opacity="1" stroke-width="3.2"/>
<circle clip-path="url(#clip082)" cx="2139.51" cy="1032.12" r="14" fill="#e26f46" fill-rule="evenodd" fill-opacity="1" stroke="#000000" stroke-opacity="1" stroke-width="3.2"/>
<circle clip-path="url(#clip082)" cx="2157.62" cy="1032.12" r="14" fill="#e26f46" fill-rule="evenodd" fill-opacity="1" stroke="#000000" stroke-opacity="1" stroke-width="3.2"/>
<polyline clip-path="url(#clip082)" style="stroke:#3da44d; stroke-width:4; stroke-opacity:1; fill:none" points="
  471.168,804.96 652.48,804.96 833.791,804.96 1012.6,804.96 1186.56,804.96 1353.55,804.96 1511.82,804.96 1660.01,804.96 1797.21,804.96 1922.9,804.96 
  2036.94,804.96 2139.51,804.96 2242.07,804.96 
  "/>
<circle clip-path="url(#clip082)" cx="471.168" cy="804.96" r="14" fill="#3da44d" fill-rule="evenodd" fill-opacity="1" stroke="#000000" stroke-opacity="1" stroke-width="3.2"/>
<circle clip-path="url(#clip082)" cx="652.48" cy="804.96" r="14" fill="#3da44d" fill-rule="evenodd" fill-opacity="1" stroke="#000000" stroke-opacity="1" stroke-width="3.2"/>
<circle clip-path="url(#clip082)" cx="833.791" cy="804.96" r="14" fill="#3da44d" fill-rule="evenodd" fill-opacity="1" stroke="#000000" stroke-opacity="1" stroke-width="3.2"/>
<circle clip-path="url(#clip082)" cx="1012.6" cy="804.96" r="14" fill="#3da44d" fill-rule="evenodd" fill-opacity="1" stroke="#000000" stroke-opacity="1" stroke-width="3.2"/>
<circle clip-path="url(#clip082)" cx="1186.56" cy="804.96" r="14" fill="#3da44d" fill-rule="evenodd" fill-opacity="1" stroke="#000000" stroke-opacity="1" stroke-width="3.2"/>
<circle clip-path="url(#clip082)" cx="1353.55" cy="804.96" r="14" fill="#3da44d" fill-rule="evenodd" fill-opacity="1" stroke="#000000" stroke-opacity="1" stroke-width="3.2"/>
<circle clip-path="url(#clip082)" cx="1511.82" cy="804.96" r="14" fill="#3da44d" fill-rule="evenodd" fill-opacity="1" stroke="#000000" stroke-opacity="1" stroke-width="3.2"/>
<circle clip-path="url(#clip082)" cx="1660.01" cy="804.96" r="14" fill="#3da44d" fill-rule="evenodd" fill-opacity="1" stroke="#000000" stroke-opacity="1" stroke-width="3.2"/>
<circle clip-path="url(#clip082)" cx="1797.21" cy="804.96" r="14" fill="#3da44d" fill-rule="evenodd" fill-opacity="1" stroke="#000000" stroke-opacity="1" stroke-width="3.2"/>
<circle clip-path="url(#clip082)" cx="1922.9" cy="804.96" r="14" fill="#3da44d" fill-rule="evenodd" fill-opacity="1" stroke="#000000" stroke-opacity="1" stroke-width="3.2"/>
<circle clip-path="url(#clip082)" cx="2036.94" cy="804.96" r="14" fill="#3da44d" fill-rule="evenodd" fill-opacity="1" stroke="#000000" stroke-opacity="1" stroke-width="3.2"/>
<circle clip-path="url(#clip082)" cx="2139.51" cy="804.96" r="14" fill="#3da44d" fill-rule="evenodd" fill-opacity="1" stroke="#000000" stroke-opacity="1" stroke-width="3.2"/>
<circle clip-path="url(#clip082)" cx="2242.07" cy="804.96" r="14" fill="#3da44d" fill-rule="evenodd" fill-opacity="1" stroke="#000000" stroke-opacity="1" stroke-width="3.2"/>
<polyline clip-path="url(#clip082)" style="stroke:#c271d2; stroke-width:4; stroke-opacity:1; fill:none" points="
  503.37,577.797 652.48,577.797 801.59,577.797 950.675,577.797 1099.71,577.797 1248.67,577.797 1397.53,577.797 1546.27,577.797 1694.86,577.797 1843.28,577.797 
  1991.5,577.797 2139.51,577.797 2287.51,577.797 
  "/>
<circle clip-path="url(#clip082)" cx="503.37" cy="577.797" r="14" fill="#c271d2" fill-rule="evenodd" fill-opacity="1" stroke="#000000" stroke-opacity="1" stroke-width="3.2"/>
<circle clip-path="url(#clip082)" cx="652.48" cy="577.797" r="14" fill="#c271d2" fill-rule="evenodd" fill-opacity="1" stroke="#000000" stroke-opacity="1" stroke-width="3.2"/>
<circle clip-path="url(#clip082)" cx="801.59" cy="577.797" r="14" fill="#c271d2" fill-rule="evenodd" fill-opacity="1" stroke="#000000" stroke-opacity="1" stroke-width="3.2"/>
<circle clip-path="url(#clip082)" cx="950.675" cy="577.797" r="14" fill="#c271d2" fill-rule="evenodd" fill-opacity="1" stroke="#000000" stroke-opacity="1" stroke-width="3.2"/>
<circle clip-path="url(#clip082)" cx="1099.71" cy="577.797" r="14" fill="#c271d2" fill-rule="evenodd" fill-opacity="1" stroke="#000000" stroke-opacity="1" stroke-width="3.2"/>
<circle clip-path="url(#clip082)" cx="1248.67" cy="577.797" r="14" fill="#c271d2" fill-rule="evenodd" fill-opacity="1" stroke="#000000" stroke-opacity="1" stroke-width="3.2"/>
<circle clip-path="url(#clip082)" cx="1397.53" cy="577.797" r="14" fill="#c271d2" fill-rule="evenodd" fill-opacity="1" stroke="#000000" stroke-opacity="1" stroke-width="3.2"/>
<circle clip-path="url(#clip082)" cx="1546.27" cy="577.797" r="14" fill="#c271d2" fill-rule="evenodd" fill-opacity="1" stroke="#000000" stroke-opacity="1" stroke-width="3.2"/>
<circle clip-path="url(#clip082)" cx="1694.86" cy="577.797" r="14" fill="#c271d2" fill-rule="evenodd" fill-opacity="1" stroke="#000000" stroke-opacity="1" stroke-width="3.2"/>
<circle clip-path="url(#clip082)" cx="1843.28" cy="577.797" r="14" fill="#c271d2" fill-rule="evenodd" fill-opacity="1" stroke="#000000" stroke-opacity="1" stroke-width="3.2"/>
<circle clip-path="url(#clip082)" cx="1991.5" cy="577.797" r="14" fill="#c271d2" fill-rule="evenodd" fill-opacity="1" stroke="#000000" stroke-opacity="1" stroke-width="3.2"/>
<circle clip-path="url(#clip082)" cx="2139.51" cy="577.797" r="14" fill="#c271d2" fill-rule="evenodd" fill-opacity="1" stroke="#000000" stroke-opacity="1" stroke-width="3.2"/>
<circle clip-path="url(#clip082)" cx="2287.51" cy="577.797" r="14" fill="#c271d2" fill-rule="evenodd" fill-opacity="1" stroke="#000000" stroke-opacity="1" stroke-width="3.2"/>
<path clip-path="url(#clip080)" d="
M1459.79 471.305 L2275.91 471.305 L2275.91 168.905 L1459.79 168.905  Z
  " fill="#ffffff" fill-rule="evenodd" fill-opacity="1"/>
<polyline clip-path="url(#clip080)" style="stroke:#000000; stroke-width:4; stroke-opacity:1; fill:none" points="
  1459.79,471.305 2275.91,471.305 2275.91,168.905 1459.79,168.905 1459.79,471.305 
  "/>
<polyline clip-path="url(#clip080)" style="stroke:#009af9; stroke-width:4; stroke-opacity:1; fill:none" points="
  1485.4,229.385 1639.1,229.385 
  "/>
<circle clip-path="url(#clip080)" cx="1562.25" cy="229.385" r="23" fill="#009af9" fill-rule="evenodd" fill-opacity="1" stroke="#000000" stroke-opacity="1" stroke-width="5.12"/>
<path clip-path="url(#clip080)" d="M 0 0 M1669 245.067 L1669 256.526 L1664.72 256.526 L1664.72 220.901 Q1664.72 210.345 1674.58 210.345 Q1684.63 210.345 1684.63 219.257 Q1684.63 225.6 1680.65 227.915 Q1687.13 229.998 1687.13 236.179 Q1687.13 247.151 1675.97 247.151 Q1671.06 247.151 1669 245.067 M1669 239.512 Q1671.57 243.517 1676.13 243.517 Q1682.8 243.517 1682.8 236.248 Q1682.8 229.72 1672.06 230.23 L1672.06 226.294 Q1680.46 226.294 1680.46 218.887 Q1680.46 213.818 1675.05 213.818 Q1669 213.818 1669 221.04 L1669 239.512 Z" fill="#000000" fill-rule="evenodd" fill-opacity="1" /><path clip-path="url(#clip080)" d="M 0 0 M1695.55 225.137 L1725.23 225.137 L1725.23 229.026 L1695.55 229.026 L1695.55 225.137 M1695.55 234.581 L1725.23 234.581 L1725.23 238.517 L1695.55 238.517 L1695.55 234.581 Z" fill="#000000" fill-rule="evenodd" fill-opacity="1" /><path clip-path="url(#clip080)" d="M 0 0 M1736.13 242.729 L1743.77 242.729 L1743.77 216.364 L1735.46 218.031 L1735.46 213.771 L1743.73 212.105 L1748.4 212.105 L1748.4 242.729 L1756.04 242.729 L1756.04 246.665 L1736.13 246.665 L1736.13 242.729 Z" fill="#000000" fill-rule="evenodd" fill-opacity="1" /><path clip-path="url(#clip080)" d="M 0 0 M1765.48 240.785 L1770.37 240.785 L1770.37 246.665 L1765.48 246.665 L1765.48 240.785 Z" fill="#000000" fill-rule="evenodd" fill-opacity="1" /><path clip-path="url(#clip080)" d="M 0 0 M1790.55 215.183 Q1786.94 215.183 1785.11 218.748 Q1783.31 222.29 1783.31 229.419 Q1783.31 236.526 1785.11 240.091 Q1786.94 243.632 1790.55 243.632 Q1794.19 243.632 1795.99 240.091 Q1797.82 236.526 1797.82 229.419 Q1797.82 222.29 1795.99 218.748 Q1794.19 215.183 1790.55 215.183 M1790.55 211.48 Q1796.36 211.48 1799.42 216.086 Q1802.5 220.669 1802.5 229.419 Q1802.5 238.146 1799.42 242.753 Q1796.36 247.336 1790.55 247.336 Q1784.74 247.336 1781.67 242.753 Q1778.61 238.146 1778.61 229.419 Q1778.61 220.669 1781.67 216.086 Q1784.74 211.48 1790.55 211.48 Z" fill="#000000" fill-rule="evenodd" fill-opacity="1" /><path clip-path="url(#clip080)" d="M 0 0 M1820.72 215.183 Q1817.1 215.183 1815.28 218.748 Q1813.47 222.29 1813.47 229.419 Q1813.47 236.526 1815.28 240.091 Q1817.1 243.632 1820.72 243.632 Q1824.35 243.632 1826.16 240.091 Q1827.98 236.526 1827.98 229.419 Q1827.98 222.29 1826.16 218.748 Q1824.35 215.183 1820.72 215.183 M1820.72 211.48 Q1826.53 211.48 1829.58 216.086 Q1832.66 220.669 1832.66 229.419 Q1832.66 238.146 1829.58 242.753 Q1826.53 247.336 1820.72 247.336 Q1814.91 247.336 1811.83 242.753 Q1808.77 238.146 1808.77 229.419 Q1808.77 220.669 1811.83 216.086 Q1814.91 211.48 1820.72 211.48 Z" fill="#000000" fill-rule="evenodd" fill-opacity="1" /><path clip-path="url(#clip080)" d="M 0 0 M1841.69 242.729 L1849.33 242.729 L1849.33 216.364 L1841.02 218.031 L1841.02 213.771 L1849.28 212.105 L1853.96 212.105 L1853.96 242.729 L1861.6 242.729 L1861.6 246.665 L1841.69 246.665 L1841.69 242.729 Z" fill="#000000" fill-rule="evenodd" fill-opacity="1" /><polyline clip-path="url(#clip080)" style="stroke:#e26f46; stroke-width:4; stroke-opacity:1; fill:none" points="
  1485.4,289.865 1639.1,289.865 
  "/>
<circle clip-path="url(#clip080)" cx="1562.25" cy="289.865" r="23" fill="#e26f46" fill-rule="evenodd" fill-opacity="1" stroke="#000000" stroke-opacity="1" stroke-width="5.12"/>
<path clip-path="url(#clip080)" d="M 0 0 M1669 305.547 L1669 317.006 L1664.72 317.006 L1664.72 281.381 Q1664.72 270.825 1674.58 270.825 Q1684.63 270.825 1684.63 279.737 Q1684.63 286.08 1680.65 288.395 Q1687.13 290.478 1687.13 296.659 Q1687.13 307.631 1675.97 307.631 Q1671.06 307.631 1669 305.547 M1669 299.992 Q1671.57 303.997 1676.13 303.997 Q1682.8 303.997 1682.8 296.728 Q1682.8 290.2 1672.06 290.71 L1672.06 286.774 Q1680.46 286.774 1680.46 279.367 Q1680.46 274.298 1675.05 274.298 Q1669 274.298 1669 281.52 L1669 299.992 Z" fill="#000000" fill-rule="evenodd" fill-opacity="1" /><path clip-path="url(#clip080)" d="M 0 0 M1695.55 285.617 L1725.23 285.617 L1725.23 289.506 L1695.55 289.506 L1695.55 285.617 M1695.55 295.061 L1725.23 295.061 L1725.23 298.997 L1695.55 298.997 L1695.55 295.061 Z" fill="#000000" fill-rule="evenodd" fill-opacity="1" /><path clip-path="url(#clip080)" d="M 0 0 M1736.13 303.209 L1743.77 303.209 L1743.77 276.844 L1735.46 278.511 L1735.46 274.251 L1743.73 272.585 L1748.4 272.585 L1748.4 303.209 L1756.04 303.209 L1756.04 307.145 L1736.13 307.145 L1736.13 303.209 Z" fill="#000000" fill-rule="evenodd" fill-opacity="1" /><path clip-path="url(#clip080)" d="M 0 0 M1765.48 301.265 L1770.37 301.265 L1770.37 307.145 L1765.48 307.145 L1765.48 301.265 Z" fill="#000000" fill-rule="evenodd" fill-opacity="1" /><path clip-path="url(#clip080)" d="M 0 0 M1790.55 275.663 Q1786.94 275.663 1785.11 279.228 Q1783.31 282.77 1783.31 289.899 Q1783.31 297.006 1785.11 300.571 Q1786.94 304.112 1790.55 304.112 Q1794.19 304.112 1795.99 300.571 Q1797.82 297.006 1797.82 289.899 Q1797.82 282.77 1795.99 279.228 Q1794.19 275.663 1790.55 275.663 M1790.55 271.96 Q1796.36 271.96 1799.42 276.566 Q1802.5 281.149 1802.5 289.899 Q1802.5 298.626 1799.42 303.233 Q1796.36 307.816 1790.55 307.816 Q1784.74 307.816 1781.67 303.233 Q1778.61 298.626 1778.61 289.899 Q1778.61 281.149 1781.67 276.566 Q1784.74 271.96 1790.55 271.96 Z" fill="#000000" fill-rule="evenodd" fill-opacity="1" /><path clip-path="url(#clip080)" d="M 0 0 M1814.74 303.209 L1831.06 303.209 L1831.06 307.145 L1809.12 307.145 L1809.12 303.209 Q1811.78 300.455 1816.36 295.825 Q1820.97 291.173 1822.15 289.83 Q1824.4 287.307 1825.28 285.571 Q1826.18 283.811 1826.18 282.122 Q1826.18 279.367 1824.23 277.631 Q1822.31 275.895 1819.21 275.895 Q1817.01 275.895 1814.56 276.659 Q1812.13 277.423 1809.35 278.974 L1809.35 274.251 Q1812.17 273.117 1814.63 272.538 Q1817.08 271.96 1819.12 271.96 Q1824.49 271.96 1827.68 274.645 Q1830.88 277.33 1830.88 281.821 Q1830.88 283.95 1830.07 285.872 Q1829.28 287.77 1827.17 290.362 Q1826.6 291.034 1823.49 294.251 Q1820.39 297.446 1814.74 303.209 Z" fill="#000000" fill-rule="evenodd" fill-opacity="1" /><path clip-path="url(#clip080)" d="M 0 0 M1841.69 303.209 L1849.33 303.209 L1849.33 276.844 L1841.02 278.511 L1841.02 274.251 L1849.28 272.585 L1853.96 272.585 L1853.96 303.209 L1861.6 303.209 L1861.6 307.145 L1841.69 307.145 L1841.69 303.209 Z" fill="#000000" fill-rule="evenodd" fill-opacity="1" /><path clip-path="url(#clip080)" d="M 0 0 M1871.09 272.585 L1889.44 272.585 L1889.44 276.52 L1875.37 276.52 L1875.37 284.992 Q1876.39 284.645 1877.41 284.483 Q1878.42 284.298 1879.44 284.298 Q1885.23 284.298 1888.61 287.469 Q1891.99 290.64 1891.99 296.057 Q1891.99 301.635 1888.52 304.737 Q1885.04 307.816 1878.72 307.816 Q1876.55 307.816 1874.28 307.446 Q1872.03 307.075 1869.63 306.334 L1869.63 301.635 Q1871.71 302.77 1873.93 303.325 Q1876.16 303.881 1878.63 303.881 Q1882.64 303.881 1884.97 301.774 Q1887.31 299.668 1887.31 296.057 Q1887.31 292.446 1884.97 290.339 Q1882.64 288.233 1878.63 288.233 Q1876.76 288.233 1874.88 288.649 Q1873.03 289.066 1871.09 289.946 L1871.09 272.585 Z" fill="#000000" fill-rule="evenodd" fill-opacity="1" /><path clip-path="url(#clip080)" d="M 0 0 M1914.05 276.659 L1902.24 295.108 L1914.05 295.108 L1914.05 276.659 M1912.82 272.585 L1918.7 272.585 L1918.7 295.108 L1923.63 295.108 L1923.63 298.997 L1918.7 298.997 L1918.7 307.145 L1914.05 307.145 L1914.05 298.997 L1898.45 298.997 L1898.45 294.483 L1912.82 272.585 Z" fill="#000000" fill-rule="evenodd" fill-opacity="1" /><path clip-path="url(#clip080)" d="M 0 0 M1944.21 276.659 L1932.4 295.108 L1944.21 295.108 L1944.21 276.659 M1942.98 272.585 L1948.86 272.585 L1948.86 295.108 L1953.79 295.108 L1953.79 298.997 L1948.86 298.997 L1948.86 307.145 L1944.21 307.145 L1944.21 298.997 L1928.61 298.997 L1928.61 294.483 L1942.98 272.585 Z" fill="#000000" fill-rule="evenodd" fill-opacity="1" /><path clip-path="url(#clip080)" d="M 0 0 M1975.69 288.51 Q1979.05 289.228 1980.92 291.497 Q1982.82 293.765 1982.82 297.098 Q1982.82 302.214 1979.3 305.015 Q1975.78 307.816 1969.3 307.816 Q1967.13 307.816 1964.81 307.376 Q1962.52 306.959 1960.07 306.103 L1960.07 301.589 Q1962.01 302.723 1964.33 303.302 Q1966.64 303.881 1969.16 303.881 Q1973.56 303.881 1975.85 302.145 Q1978.17 300.409 1978.17 297.098 Q1978.17 294.043 1976.02 292.33 Q1973.89 290.594 1970.07 290.594 L1966.04 290.594 L1966.04 286.751 L1970.25 286.751 Q1973.7 286.751 1975.53 285.386 Q1977.36 283.997 1977.36 281.404 Q1977.36 278.742 1975.46 277.33 Q1973.59 275.895 1970.07 275.895 Q1968.15 275.895 1965.95 276.311 Q1963.75 276.728 1961.11 277.608 L1961.11 273.441 Q1963.77 272.7 1966.09 272.33 Q1968.42 271.96 1970.48 271.96 Q1975.81 271.96 1978.91 274.39 Q1982.01 276.798 1982.01 280.918 Q1982.01 283.788 1980.37 285.779 Q1978.72 287.747 1975.69 288.51 Z" fill="#000000" fill-rule="evenodd" fill-opacity="1" /><path clip-path="url(#clip080)" d="M 0 0 M2004.53 276.659 L1992.73 295.108 L2004.53 295.108 L2004.53 276.659 M2003.31 272.585 L2009.19 272.585 L2009.19 295.108 L2014.12 295.108 L2014.12 298.997 L2009.19 298.997 L2009.19 307.145 L2004.53 307.145 L2004.53 298.997 L1988.93 298.997 L1988.93 294.483 L2003.31 272.585 Z" fill="#000000" fill-rule="evenodd" fill-opacity="1" /><path clip-path="url(#clip080)" d="M 0 0 M2032.43 288.001 Q2029.28 288.001 2027.43 290.154 Q2025.6 292.307 2025.6 296.057 Q2025.6 299.784 2027.43 301.959 Q2029.28 304.112 2032.43 304.112 Q2035.58 304.112 2037.4 301.959 Q2039.26 299.784 2039.26 296.057 Q2039.26 292.307 2037.4 290.154 Q2035.58 288.001 2032.43 288.001 M2041.71 273.349 L2041.71 277.608 Q2039.95 276.774 2038.15 276.335 Q2036.36 275.895 2034.6 275.895 Q2029.97 275.895 2027.52 279.02 Q2025.09 282.145 2024.74 288.464 Q2026.11 286.45 2028.17 285.386 Q2030.23 284.298 2032.71 284.298 Q2037.91 284.298 2040.92 287.469 Q2043.96 290.617 2043.96 296.057 Q2043.96 301.381 2040.81 304.598 Q2037.66 307.816 2032.43 307.816 Q2026.43 307.816 2023.26 303.233 Q2020.09 298.626 2020.09 289.899 Q2020.09 281.705 2023.98 276.844 Q2027.87 271.96 2034.42 271.96 Q2036.18 271.96 2037.96 272.307 Q2039.77 272.654 2041.71 273.349 Z" fill="#000000" fill-rule="evenodd" fill-opacity="1" /><path clip-path="url(#clip080)" d="M 0 0 M2052.15 306.427 L2052.15 302.168 Q2053.91 303.001 2055.71 303.441 Q2057.52 303.881 2059.26 303.881 Q2063.89 303.881 2066.32 300.779 Q2068.77 297.654 2069.12 291.311 Q2067.77 293.302 2065.71 294.367 Q2063.65 295.432 2061.15 295.432 Q2055.97 295.432 2052.94 292.307 Q2049.93 289.159 2049.93 283.719 Q2049.93 278.395 2053.08 275.177 Q2056.22 271.96 2061.46 271.96 Q2067.45 271.96 2070.6 276.566 Q2073.77 281.149 2073.77 289.899 Q2073.77 298.071 2069.88 302.955 Q2066.02 307.816 2059.46 307.816 Q2057.71 307.816 2055.9 307.469 Q2054.09 307.122 2052.15 306.427 M2061.46 291.774 Q2064.6 291.774 2066.43 289.622 Q2068.28 287.469 2068.28 283.719 Q2068.28 279.992 2066.43 277.839 Q2064.6 275.663 2061.46 275.663 Q2058.31 275.663 2056.46 277.839 Q2054.63 279.992 2054.63 283.719 Q2054.63 287.469 2056.46 289.622 Q2058.31 291.774 2061.46 291.774 Z" fill="#000000" fill-rule="evenodd" fill-opacity="1" /><path clip-path="url(#clip080)" d="M 0 0 M2092.17 275.663 Q2088.56 275.663 2086.73 279.228 Q2084.93 282.77 2084.93 289.899 Q2084.93 297.006 2086.73 300.571 Q2088.56 304.112 2092.17 304.112 Q2095.81 304.112 2097.61 300.571 Q2099.44 297.006 2099.44 289.899 Q2099.44 282.77 2097.61 279.228 Q2095.81 275.663 2092.17 275.663 M2092.17 271.96 Q2097.98 271.96 2101.04 276.566 Q2104.12 281.149 2104.12 289.899 Q2104.12 298.626 2101.04 303.233 Q2097.98 307.816 2092.17 307.816 Q2086.36 307.816 2083.28 303.233 Q2080.23 298.626 2080.23 289.899 Q2080.23 281.149 2083.28 276.566 Q2086.36 271.96 2092.17 271.96 Z" fill="#000000" fill-rule="evenodd" fill-opacity="1" /><path clip-path="url(#clip080)" d="M 0 0 M2122.33 275.663 Q2118.72 275.663 2116.89 279.228 Q2115.09 282.77 2115.09 289.899 Q2115.09 297.006 2116.89 300.571 Q2118.72 304.112 2122.33 304.112 Q2125.97 304.112 2127.77 300.571 Q2129.6 297.006 2129.6 289.899 Q2129.6 282.77 2127.77 279.228 Q2125.97 275.663 2122.33 275.663 M2122.33 271.96 Q2128.14 271.96 2131.2 276.566 Q2134.28 281.149 2134.28 289.899 Q2134.28 298.626 2131.2 303.233 Q2128.14 307.816 2122.33 307.816 Q2116.52 307.816 2113.45 303.233 Q2110.39 298.626 2110.39 289.899 Q2110.39 281.149 2113.45 276.566 Q2116.52 271.96 2122.33 271.96 Z" fill="#000000" fill-rule="evenodd" fill-opacity="1" /><path clip-path="url(#clip080)" d="M 0 0 M2156.66 288.51 Q2160.02 289.228 2161.89 291.497 Q2163.79 293.765 2163.79 297.098 Q2163.79 302.214 2160.27 305.015 Q2156.76 307.816 2150.27 307.816 Q2148.1 307.816 2145.78 307.376 Q2143.49 306.959 2141.04 306.103 L2141.04 301.589 Q2142.98 302.723 2145.3 303.302 Q2147.61 303.881 2150.14 303.881 Q2154.53 303.881 2156.83 302.145 Q2159.14 300.409 2159.14 297.098 Q2159.14 294.043 2156.99 292.33 Q2154.86 290.594 2151.04 290.594 L2147.01 290.594 L2147.01 286.751 L2151.22 286.751 Q2154.67 286.751 2156.5 285.386 Q2158.33 283.997 2158.33 281.404 Q2158.33 278.742 2156.43 277.33 Q2154.56 275.895 2151.04 275.895 Q2149.12 275.895 2146.92 276.311 Q2144.72 276.728 2142.08 277.608 L2142.08 273.441 Q2144.74 272.7 2147.06 272.33 Q2149.39 271.96 2151.45 271.96 Q2156.78 271.96 2159.88 274.39 Q2162.98 276.798 2162.98 280.918 Q2162.98 283.788 2161.34 285.779 Q2159.7 287.747 2156.66 288.51 Z" fill="#000000" fill-rule="evenodd" fill-opacity="1" /><path clip-path="url(#clip080)" d="M 0 0 M2173.47 303.209 L2181.11 303.209 L2181.11 276.844 L2172.8 278.511 L2172.8 274.251 L2181.06 272.585 L2185.74 272.585 L2185.74 303.209 L2193.38 303.209 L2193.38 307.145 L2173.47 307.145 L2173.47 303.209 Z" fill="#000000" fill-rule="evenodd" fill-opacity="1" /><path clip-path="url(#clip080)" d="M 0 0 M2202.96 306.427 L2202.96 302.168 Q2204.72 303.001 2206.52 303.441 Q2208.33 303.881 2210.07 303.881 Q2214.7 303.881 2217.13 300.779 Q2219.58 297.654 2219.93 291.311 Q2218.58 293.302 2216.52 294.367 Q2214.46 295.432 2211.96 295.432 Q2206.78 295.432 2203.75 292.307 Q2200.74 289.159 2200.74 283.719 Q2200.74 278.395 2203.88 275.177 Q2207.03 271.96 2212.26 271.96 Q2218.26 271.96 2221.41 276.566 Q2224.58 281.149 2224.58 289.899 Q2224.58 298.071 2220.69 302.955 Q2216.82 307.816 2210.27 307.816 Q2208.51 307.816 2206.71 307.469 Q2204.9 307.122 2202.96 306.427 M2212.26 291.774 Q2215.41 291.774 2217.24 289.622 Q2219.09 287.469 2219.09 283.719 Q2219.09 279.992 2217.24 277.839 Q2215.41 275.663 2212.26 275.663 Q2209.12 275.663 2207.26 277.839 Q2205.44 279.992 2205.44 283.719 Q2205.44 287.469 2207.26 289.622 Q2209.12 291.774 2212.26 291.774 Z" fill="#000000" fill-rule="evenodd" fill-opacity="1" /><polyline clip-path="url(#clip080)" style="stroke:#3da44d; stroke-width:4; stroke-opacity:1; fill:none" points="
  1485.4,350.345 1639.1,350.345 
  "/>
<circle clip-path="url(#clip080)" cx="1562.25" cy="350.345" r="23" fill="#3da44d" fill-rule="evenodd" fill-opacity="1" stroke="#000000" stroke-opacity="1" stroke-width="5.12"/>
<path clip-path="url(#clip080)" d="M 0 0 M1669 366.027 L1669 377.486 L1664.72 377.486 L1664.72 341.861 Q1664.72 331.305 1674.58 331.305 Q1684.63 331.305 1684.63 340.217 Q1684.63 346.56 1680.65 348.875 Q1687.13 350.958 1687.13 357.139 Q1687.13 368.111 1675.97 368.111 Q1671.06 368.111 1669 366.027 M1669 360.472 Q1671.57 364.477 1676.13 364.477 Q1682.8 364.477 1682.8 357.208 Q1682.8 350.68 1672.06 351.19 L1672.06 347.254 Q1680.46 347.254 1680.46 339.847 Q1680.46 334.778 1675.05 334.778 Q1669 334.778 1669 342 L1669 360.472 Z" fill="#000000" fill-rule="evenodd" fill-opacity="1" /><path clip-path="url(#clip080)" d="M 0 0 M1695.55 346.097 L1725.23 346.097 L1725.23 349.986 L1695.55 349.986 L1695.55 346.097 M1695.55 355.541 L1725.23 355.541 L1725.23 359.477 L1695.55 359.477 L1695.55 355.541 Z" fill="#000000" fill-rule="evenodd" fill-opacity="1" /><path clip-path="url(#clip080)" d="M 0 0 M1736.13 363.689 L1743.77 363.689 L1743.77 337.324 L1735.46 338.991 L1735.46 334.731 L1743.73 333.065 L1748.4 333.065 L1748.4 363.689 L1756.04 363.689 L1756.04 367.625 L1736.13 367.625 L1736.13 363.689 Z" fill="#000000" fill-rule="evenodd" fill-opacity="1" /><path clip-path="url(#clip080)" d="M 0 0 M1765.48 361.745 L1770.37 361.745 L1770.37 367.625 L1765.48 367.625 L1765.48 361.745 Z" fill="#000000" fill-rule="evenodd" fill-opacity="1" /><path clip-path="url(#clip080)" d="M 0 0 M1793.4 337.139 L1781.6 355.588 L1793.4 355.588 L1793.4 337.139 M1792.17 333.065 L1798.05 333.065 L1798.05 355.588 L1802.98 355.588 L1802.98 359.477 L1798.05 359.477 L1798.05 367.625 L1793.4 367.625 L1793.4 359.477 L1777.8 359.477 L1777.8 354.963 L1792.17 333.065 Z" fill="#000000" fill-rule="evenodd" fill-opacity="1" /><path clip-path="url(#clip080)" d="M 0 0 M1821.29 348.481 Q1818.15 348.481 1816.29 350.634 Q1814.47 352.787 1814.47 356.537 Q1814.47 360.264 1816.29 362.439 Q1818.15 364.592 1821.29 364.592 Q1824.44 364.592 1826.27 362.439 Q1828.12 360.264 1828.12 356.537 Q1828.12 352.787 1826.27 350.634 Q1824.44 348.481 1821.29 348.481 M1830.58 333.829 L1830.58 338.088 Q1828.82 337.254 1827.01 336.815 Q1825.23 336.375 1823.47 336.375 Q1818.84 336.375 1816.39 339.5 Q1813.96 342.625 1813.61 348.944 Q1814.98 346.93 1817.04 345.866 Q1819.1 344.778 1821.57 344.778 Q1826.78 344.778 1829.79 347.949 Q1832.82 351.097 1832.82 356.537 Q1832.82 361.861 1829.67 365.078 Q1826.53 368.296 1821.29 368.296 Q1815.3 368.296 1812.13 363.713 Q1808.96 359.106 1808.96 350.379 Q1808.96 342.185 1812.85 337.324 Q1816.73 332.44 1823.29 332.44 Q1825.04 332.44 1826.83 332.787 Q1828.63 333.134 1830.58 333.829 Z" fill="#000000" fill-rule="evenodd" fill-opacity="1" /><path clip-path="url(#clip080)" d="M 0 0 M1853.72 337.139 L1841.92 355.588 L1853.72 355.588 L1853.72 337.139 M1852.5 333.065 L1858.38 333.065 L1858.38 355.588 L1863.31 355.588 L1863.31 359.477 L1858.38 359.477 L1858.38 367.625 L1853.72 367.625 L1853.72 359.477 L1838.12 359.477 L1838.12 354.963 L1852.5 333.065 Z" fill="#000000" fill-rule="evenodd" fill-opacity="1" /><path clip-path="url(#clip080)" d="M 0 0 M1871.85 363.689 L1879.49 363.689 L1879.49 337.324 L1871.18 338.991 L1871.18 334.731 L1879.44 333.065 L1884.12 333.065 L1884.12 363.689 L1891.76 363.689 L1891.76 367.625 L1871.85 367.625 L1871.85 363.689 Z" fill="#000000" fill-rule="evenodd" fill-opacity="1" /><path clip-path="url(#clip080)" d="M 0 0 M1901.25 333.065 L1919.6 333.065 L1919.6 337 L1905.53 337 L1905.53 345.472 Q1906.55 345.125 1907.57 344.963 Q1908.59 344.778 1909.6 344.778 Q1915.39 344.778 1918.77 347.949 Q1922.15 351.12 1922.15 356.537 Q1922.15 362.115 1918.68 365.217 Q1915.21 368.296 1908.89 368.296 Q1906.71 368.296 1904.44 367.926 Q1902.2 367.555 1899.79 366.814 L1899.79 362.115 Q1901.87 363.25 1904.09 363.805 Q1906.32 364.361 1908.79 364.361 Q1912.8 364.361 1915.14 362.254 Q1917.47 360.148 1917.47 356.537 Q1917.47 352.926 1915.14 350.819 Q1912.8 348.713 1908.79 348.713 Q1906.92 348.713 1905.04 349.129 Q1903.19 349.546 1901.25 350.426 L1901.25 333.065 Z" fill="#000000" fill-rule="evenodd" fill-opacity="1" /><path clip-path="url(#clip080)" d="M 0 0 M1941.36 351.213 Q1938.03 351.213 1936.11 352.995 Q1934.21 354.777 1934.21 357.902 Q1934.21 361.027 1936.11 362.81 Q1938.03 364.592 1941.36 364.592 Q1944.7 364.592 1946.62 362.81 Q1948.54 361.004 1948.54 357.902 Q1948.54 354.777 1946.62 352.995 Q1944.72 351.213 1941.36 351.213 M1936.69 349.222 Q1933.68 348.481 1931.99 346.421 Q1930.32 344.361 1930.32 341.398 Q1930.32 337.254 1933.26 334.847 Q1936.22 332.44 1941.36 332.44 Q1946.53 332.44 1949.47 334.847 Q1952.4 337.254 1952.4 341.398 Q1952.4 344.361 1950.72 346.421 Q1949.05 348.481 1946.06 349.222 Q1949.44 350.009 1951.32 352.301 Q1953.22 354.592 1953.22 357.902 Q1953.22 362.926 1950.14 365.611 Q1947.08 368.296 1941.36 368.296 Q1935.65 368.296 1932.57 365.611 Q1929.51 362.926 1929.51 357.902 Q1929.51 354.592 1931.41 352.301 Q1933.31 350.009 1936.69 349.222 M1934.97 341.838 Q1934.97 344.523 1936.64 346.028 Q1938.33 347.532 1941.36 347.532 Q1944.37 347.532 1946.06 346.028 Q1947.78 344.523 1947.78 341.838 Q1947.78 339.153 1946.06 337.648 Q1944.37 336.143 1941.36 336.143 Q1938.33 336.143 1936.64 337.648 Q1934.97 339.153 1934.97 341.838 Z" fill="#000000" fill-rule="evenodd" fill-opacity="1" /><path clip-path="url(#clip080)" d="M 0 0 M1971.53 351.213 Q1968.19 351.213 1966.27 352.995 Q1964.37 354.777 1964.37 357.902 Q1964.37 361.027 1966.27 362.81 Q1968.19 364.592 1971.53 364.592 Q1974.86 364.592 1976.78 362.81 Q1978.7 361.004 1978.7 357.902 Q1978.7 354.777 1976.78 352.995 Q1974.88 351.213 1971.53 351.213 M1966.85 349.222 Q1963.84 348.481 1962.15 346.421 Q1960.48 344.361 1960.48 341.398 Q1960.48 337.254 1963.42 334.847 Q1966.39 332.44 1971.53 332.44 Q1976.69 332.44 1979.63 334.847 Q1982.57 337.254 1982.57 341.398 Q1982.57 344.361 1980.88 346.421 Q1979.21 348.481 1976.22 349.222 Q1979.6 350.009 1981.48 352.301 Q1983.38 354.592 1983.38 357.902 Q1983.38 362.926 1980.3 365.611 Q1977.24 368.296 1971.53 368.296 Q1965.81 368.296 1962.73 365.611 Q1959.67 362.926 1959.67 357.902 Q1959.67 354.592 1961.57 352.301 Q1963.47 350.009 1966.85 349.222 M1965.14 341.838 Q1965.14 344.523 1966.8 346.028 Q1968.49 347.532 1971.53 347.532 Q1974.53 347.532 1976.22 346.028 Q1977.94 344.523 1977.94 341.838 Q1977.94 339.153 1976.22 337.648 Q1974.53 336.143 1971.53 336.143 Q1968.49 336.143 1966.8 337.648 Q1965.14 339.153 1965.14 341.838 Z" fill="#000000" fill-rule="evenodd" fill-opacity="1" /><path clip-path="url(#clip080)" d="M 0 0 M2001.69 351.213 Q1998.35 351.213 1996.43 352.995 Q1994.53 354.777 1994.53 357.902 Q1994.53 361.027 1996.43 362.81 Q1998.35 364.592 2001.69 364.592 Q2005.02 364.592 2006.94 362.81 Q2008.86 361.004 2008.86 357.902 Q2008.86 354.777 2006.94 352.995 Q2005.04 351.213 2001.69 351.213 M1997.01 349.222 Q1994 348.481 1992.31 346.421 Q1990.65 344.361 1990.65 341.398 Q1990.65 337.254 1993.59 334.847 Q1996.55 332.44 2001.69 332.44 Q2006.85 332.44 2009.79 334.847 Q2012.73 337.254 2012.73 341.398 Q2012.73 344.361 2011.04 346.421 Q2009.37 348.481 2006.39 349.222 Q2009.77 350.009 2011.64 352.301 Q2013.54 354.592 2013.54 357.902 Q2013.54 362.926 2010.46 365.611 Q2007.4 368.296 2001.69 368.296 Q1995.97 368.296 1992.89 365.611 Q1989.84 362.926 1989.84 357.902 Q1989.84 354.592 1991.73 352.301 Q1993.63 350.009 1997.01 349.222 M1995.3 341.838 Q1995.3 344.523 1996.96 346.028 Q1998.65 347.532 2001.69 347.532 Q2004.7 347.532 2006.39 346.028 Q2008.1 344.523 2008.1 341.838 Q2008.1 339.153 2006.39 337.648 Q2004.7 336.143 2001.69 336.143 Q1998.65 336.143 1996.96 337.648 Q1995.3 339.153 1995.3 341.838 Z" fill="#000000" fill-rule="evenodd" fill-opacity="1" /><path clip-path="url(#clip080)" d="M 0 0 M2036.02 348.99 Q2039.37 349.708 2041.25 351.977 Q2043.15 354.245 2043.15 357.578 Q2043.15 362.694 2039.63 365.495 Q2036.11 368.296 2029.63 368.296 Q2027.45 368.296 2025.14 367.856 Q2022.84 367.439 2020.39 366.583 L2020.39 362.069 Q2022.34 363.203 2024.65 363.782 Q2026.96 364.361 2029.49 364.361 Q2033.89 364.361 2036.18 362.625 Q2038.49 360.889 2038.49 357.578 Q2038.49 354.523 2036.34 352.81 Q2034.21 351.074 2030.39 351.074 L2026.36 351.074 L2026.36 347.231 L2030.58 347.231 Q2034.02 347.231 2035.85 345.866 Q2037.68 344.477 2037.68 341.884 Q2037.68 339.222 2035.78 337.81 Q2033.91 336.375 2030.39 336.375 Q2028.47 336.375 2026.27 336.791 Q2024.07 337.208 2021.43 338.088 L2021.43 333.921 Q2024.09 333.18 2026.41 332.81 Q2028.75 332.44 2030.81 332.44 Q2036.13 332.44 2039.23 334.87 Q2042.33 337.278 2042.33 341.398 Q2042.33 344.268 2040.69 346.259 Q2039.05 348.227 2036.02 348.99 Z" fill="#000000" fill-rule="evenodd" fill-opacity="1" /><path clip-path="url(#clip080)" d="M 0 0 M2066.18 348.99 Q2069.53 349.708 2071.41 351.977 Q2073.31 354.245 2073.31 357.578 Q2073.31 362.694 2069.79 365.495 Q2066.27 368.296 2059.79 368.296 Q2057.61 368.296 2055.3 367.856 Q2053.01 367.439 2050.55 366.583 L2050.55 362.069 Q2052.5 363.203 2054.81 363.782 Q2057.13 364.361 2059.65 364.361 Q2064.05 364.361 2066.34 362.625 Q2068.65 360.889 2068.65 357.578 Q2068.65 354.523 2066.5 352.81 Q2064.37 351.074 2060.55 351.074 L2056.52 351.074 L2056.52 347.231 L2060.74 347.231 Q2064.19 347.231 2066.02 345.866 Q2067.84 344.477 2067.84 341.884 Q2067.84 339.222 2065.95 337.81 Q2064.07 336.375 2060.55 336.375 Q2058.63 336.375 2056.43 336.791 Q2054.23 337.208 2051.59 338.088 L2051.59 333.921 Q2054.26 333.18 2056.57 332.81 Q2058.91 332.44 2060.97 332.44 Q2066.29 332.44 2069.39 334.87 Q2072.5 337.278 2072.5 341.398 Q2072.5 344.268 2070.85 346.259 Q2069.21 348.227 2066.18 348.99 Z" fill="#000000" fill-rule="evenodd" fill-opacity="1" /><path clip-path="url(#clip080)" d="M 0 0 M2092.75 348.481 Q2089.6 348.481 2087.75 350.634 Q2085.92 352.787 2085.92 356.537 Q2085.92 360.264 2087.75 362.439 Q2089.6 364.592 2092.75 364.592 Q2095.9 364.592 2097.73 362.439 Q2099.58 360.264 2099.58 356.537 Q2099.58 352.787 2097.73 350.634 Q2095.9 348.481 2092.75 348.481 M2102.03 333.829 L2102.03 338.088 Q2100.27 337.254 2098.47 336.815 Q2096.69 336.375 2094.93 336.375 Q2090.3 336.375 2087.84 339.5 Q2085.41 342.625 2085.07 348.944 Q2086.43 346.93 2088.49 345.866 Q2090.55 344.778 2093.03 344.778 Q2098.24 344.778 2101.25 347.949 Q2104.28 351.097 2104.28 356.537 Q2104.28 361.861 2101.13 365.078 Q2097.98 368.296 2092.75 368.296 Q2086.76 368.296 2083.58 363.713 Q2080.41 359.106 2080.41 350.379 Q2080.41 342.185 2084.3 337.324 Q2088.19 332.44 2094.74 332.44 Q2096.5 332.44 2098.28 332.787 Q2100.09 333.134 2102.03 333.829 Z" fill="#000000" fill-rule="evenodd" fill-opacity="1" /><path clip-path="url(#clip080)" d="M 0 0 M2113.14 363.689 L2120.78 363.689 L2120.78 337.324 L2112.47 338.991 L2112.47 334.731 L2120.74 333.065 L2125.41 333.065 L2125.41 363.689 L2133.05 363.689 L2133.05 367.625 L2113.14 367.625 L2113.14 363.689 Z" fill="#000000" fill-rule="evenodd" fill-opacity="1" /><path clip-path="url(#clip080)" d="M 0 0 M2146.52 363.689 L2162.84 363.689 L2162.84 367.625 L2140.9 367.625 L2140.9 363.689 Q2143.56 360.935 2148.14 356.305 Q2152.75 351.653 2153.93 350.31 Q2156.18 347.787 2157.06 346.051 Q2157.96 344.291 2157.96 342.602 Q2157.96 339.847 2156.01 338.111 Q2154.09 336.375 2150.99 336.375 Q2148.79 336.375 2146.34 337.139 Q2143.91 337.903 2141.13 339.454 L2141.13 334.731 Q2143.95 333.597 2146.41 333.018 Q2148.86 332.44 2150.9 332.44 Q2156.27 332.44 2159.46 335.125 Q2162.66 337.81 2162.66 342.301 Q2162.66 344.43 2161.85 346.352 Q2161.06 348.25 2158.95 350.842 Q2158.38 351.514 2155.27 354.731 Q2152.17 357.926 2146.52 363.689 Z" fill="#000000" fill-rule="evenodd" fill-opacity="1" /><path clip-path="url(#clip080)" d="M 0 0 M2171.48 333.065 L2193.7 333.065 L2193.7 335.055 L2181.15 367.625 L2176.27 367.625 L2188.07 337 L2171.48 337 L2171.48 333.065 Z" fill="#000000" fill-rule="evenodd" fill-opacity="1" /><path clip-path="url(#clip080)" d="M 0 0 M2212.82 351.213 Q2209.49 351.213 2207.57 352.995 Q2205.67 354.777 2205.67 357.902 Q2205.67 361.027 2207.57 362.81 Q2209.49 364.592 2212.82 364.592 Q2216.15 364.592 2218.07 362.81 Q2220 361.004 2220 357.902 Q2220 354.777 2218.07 352.995 Q2216.18 351.213 2212.82 351.213 M2208.14 349.222 Q2205.13 348.481 2203.45 346.421 Q2201.78 344.361 2201.78 341.398 Q2201.78 337.254 2204.72 334.847 Q2207.68 332.44 2212.82 332.44 Q2217.98 332.44 2220.92 334.847 Q2223.86 337.254 2223.86 341.398 Q2223.86 344.361 2222.17 346.421 Q2220.51 348.481 2217.52 349.222 Q2220.9 350.009 2222.77 352.301 Q2224.67 354.592 2224.67 357.902 Q2224.67 362.926 2221.59 365.611 Q2218.54 368.296 2212.82 368.296 Q2207.1 368.296 2204.02 365.611 Q2200.97 362.926 2200.97 357.902 Q2200.97 354.592 2202.87 352.301 Q2204.76 350.009 2208.14 349.222 M2206.43 341.838 Q2206.43 344.523 2208.1 346.028 Q2209.79 347.532 2212.82 347.532 Q2215.83 347.532 2217.52 346.028 Q2219.23 344.523 2219.23 341.838 Q2219.23 339.153 2217.52 337.648 Q2215.83 336.143 2212.82 336.143 Q2209.79 336.143 2208.1 337.648 Q2206.43 339.153 2206.43 341.838 Z" fill="#000000" fill-rule="evenodd" fill-opacity="1" /><polyline clip-path="url(#clip080)" style="stroke:#c271d2; stroke-width:4; stroke-opacity:1; fill:none" points="
  1485.4,410.825 1639.1,410.825 
  "/>
<circle clip-path="url(#clip080)" cx="1562.25" cy="410.825" r="23" fill="#c271d2" fill-rule="evenodd" fill-opacity="1" stroke="#000000" stroke-opacity="1" stroke-width="5.12"/>
<path clip-path="url(#clip080)" d="M 0 0 M1669 426.507 L1669 437.966 L1664.72 437.966 L1664.72 402.341 Q1664.72 391.785 1674.58 391.785 Q1684.63 391.785 1684.63 400.697 Q1684.63 407.04 1680.65 409.355 Q1687.13 411.438 1687.13 417.619 Q1687.13 428.591 1675.97 428.591 Q1671.06 428.591 1669 426.507 M1669 420.952 Q1671.57 424.957 1676.13 424.957 Q1682.8 424.957 1682.8 417.688 Q1682.8 411.16 1672.06 411.67 L1672.06 407.734 Q1680.46 407.734 1680.46 400.327 Q1680.46 395.258 1675.05 395.258 Q1669 395.258 1669 402.48 L1669 420.952 Z" fill="#000000" fill-rule="evenodd" fill-opacity="1" /><path clip-path="url(#clip080)" d="M 0 0 M1695.55 406.577 L1725.23 406.577 L1725.23 410.466 L1695.55 410.466 L1695.55 406.577 M1695.55 416.021 L1725.23 416.021 L1725.23 419.957 L1695.55 419.957 L1695.55 416.021 Z" fill="#000000" fill-rule="evenodd" fill-opacity="1" /><path clip-path="url(#clip080)" d="M 0 0 M1736.13 424.169 L1743.77 424.169 L1743.77 397.804 L1735.46 399.471 L1735.46 395.211 L1743.73 393.545 L1748.4 393.545 L1748.4 424.169 L1756.04 424.169 L1756.04 428.105 L1736.13 428.105 L1736.13 424.169 Z" fill="#000000" fill-rule="evenodd" fill-opacity="1" /><path clip-path="url(#clip080)" d="M 0 0 M1766.29 424.169 L1773.93 424.169 L1773.93 397.804 L1765.62 399.471 L1765.62 395.211 L1773.89 393.545 L1778.56 393.545 L1778.56 424.169 L1786.2 424.169 L1786.2 428.105 L1766.29 428.105 L1766.29 424.169 Z" fill="#000000" fill-rule="evenodd" fill-opacity="1" /><path clip-path="url(#clip080)" d="M 0 0 M1795.65 422.225 L1800.53 422.225 L1800.53 428.105 L1795.65 428.105 L1795.65 422.225 Z" fill="#000000" fill-rule="evenodd" fill-opacity="1" /><path clip-path="url(#clip080)" d="M 0 0 M1820.72 396.623 Q1817.1 396.623 1815.28 400.188 Q1813.47 403.73 1813.47 410.859 Q1813.47 417.966 1815.28 421.531 Q1817.1 425.072 1820.72 425.072 Q1824.35 425.072 1826.16 421.531 Q1827.98 417.966 1827.98 410.859 Q1827.98 403.73 1826.16 400.188 Q1824.35 396.623 1820.72 396.623 M1820.72 392.92 Q1826.53 392.92 1829.58 397.526 Q1832.66 402.109 1832.66 410.859 Q1832.66 419.586 1829.58 424.193 Q1826.53 428.776 1820.72 428.776 Q1814.91 428.776 1811.83 424.193 Q1808.77 419.586 1808.77 410.859 Q1808.77 402.109 1811.83 397.526 Q1814.91 392.92 1820.72 392.92 Z" fill="#000000" fill-rule="evenodd" fill-opacity="1" /></svg>
