<?xml version="1.0" encoding="utf-8"?>
<svg xmlns="http://www.w3.org/2000/svg" xmlns:xlink="http://www.w3.org/1999/xlink" width="600" height="400" viewBox="0 0 2400 1600">
<defs>
  <clipPath id="clip820">
    <rect x="0" y="0" width="2400" height="1600"/>
  </clipPath>
</defs>
<path clip-path="url(#clip820)" d="
M0 1600 L2400 1600 L2400 0 L0 0  Z
  " fill="#ffffff" fill-rule="evenodd" fill-opacity="1"/>
<defs>
  <clipPath id="clip821">
    <rect x="480" y="0" width="1681" height="1600"/>
  </clipPath>
</defs>
<path clip-path="url(#clip820)" d="
M148.334 1486.45 L2352.76 1486.45 L2352.76 47.2441 L148.334 47.2441  Z
  " fill="#ffffff" fill-rule="evenodd" fill-opacity="1"/>
<defs>
  <clipPath id="clip822">
    <rect x="148" y="47" width="2205" height="1440"/>
  </clipPath>
</defs>
<polyline clip-path="url(#clip822)" style="stroke:#000000; stroke-width:2; stroke-opacity:0.1; fill:none" points="
  210.724,1486.45 210.724,47.2441 
  "/>
<polyline clip-path="url(#clip822)" style="stroke:#000000; stroke-width:2; stroke-opacity:0.1; fill:none" points="
  804.907,1486.45 804.907,47.2441 
  "/>
<polyline clip-path="url(#clip822)" style="stroke:#000000; stroke-width:2; stroke-opacity:0.1; fill:none" points="
  1399.09,1486.45 1399.09,47.2441 
  "/>
<polyline clip-path="url(#clip822)" style="stroke:#000000; stroke-width:2; stroke-opacity:0.1; fill:none" points="
  1993.27,1486.45 1993.27,47.2441 
  "/>
<polyline clip-path="url(#clip820)" style="stroke:#000000; stroke-width:4; stroke-opacity:1; fill:none" points="
  148.334,1486.45 2352.76,1486.45 
  "/>
<polyline clip-path="url(#clip820)" style="stroke:#000000; stroke-width:4; stroke-opacity:1; fill:none" points="
  210.724,1486.45 210.724,1469.18 
  "/>
<polyline clip-path="url(#clip820)" style="stroke:#000000; stroke-width:4; stroke-opacity:1; fill:none" points="
  804.907,1486.45 804.907,1469.18 
  "/>
<polyline clip-path="url(#clip820)" style="stroke:#000000; stroke-width:4; stroke-opacity:1; fill:none" points="
  1399.09,1486.45 1399.09,1469.18 
  "/>
<polyline clip-path="url(#clip820)" style="stroke:#000000; stroke-width:4; stroke-opacity:1; fill:none" points="
  1993.27,1486.45 1993.27,1469.18 
  "/>
<path clip-path="url(#clip820)" d="M 0 0 M150.886 1530.29 L180.562 1530.29 L180.562 1534.23 L150.886 1534.23 L150.886 1530.29 Z" fill="#000000" fill-rule="evenodd" fill-opacity="1" /><path clip-path="url(#clip820)" d="M 0 0 M195.631 1515.64 Q192.02 1515.64 190.191 1519.2 Q188.386 1522.75 188.386 1529.87 Q188.386 1536.98 190.191 1540.55 Q192.02 1544.09 195.631 1544.09 Q199.265 1544.09 201.071 1540.55 Q202.9 1536.98 202.9 1529.87 Q202.9 1522.75 201.071 1519.2 Q199.265 1515.64 195.631 1515.64 M195.631 1511.93 Q201.441 1511.93 204.497 1516.54 Q207.576 1521.12 207.576 1529.87 Q207.576 1538.6 204.497 1543.21 Q201.441 1547.79 195.631 1547.79 Q189.821 1547.79 186.742 1543.21 Q183.687 1538.6 183.687 1529.87 Q183.687 1521.12 186.742 1516.54 Q189.821 1511.93 195.631 1511.93 Z" fill="#000000" fill-rule="evenodd" fill-opacity="1" /><path clip-path="url(#clip820)" d="M 0 0 M212.645 1541.24 L217.529 1541.24 L217.529 1547.12 L212.645 1547.12 L212.645 1541.24 Z" fill="#000000" fill-rule="evenodd" fill-opacity="1" /><path clip-path="url(#clip820)" d="M 0 0 M232.599 1515.64 Q228.987 1515.64 227.159 1519.2 Q225.353 1522.75 225.353 1529.87 Q225.353 1536.98 227.159 1540.55 Q228.987 1544.09 232.599 1544.09 Q236.233 1544.09 238.038 1540.55 Q239.867 1536.98 239.867 1529.87 Q239.867 1522.75 238.038 1519.2 Q236.233 1515.64 232.599 1515.64 M232.599 1511.93 Q238.409 1511.93 241.464 1516.54 Q244.543 1521.12 244.543 1529.87 Q244.543 1538.6 241.464 1543.21 Q238.409 1547.79 232.599 1547.79 Q226.788 1547.79 223.71 1543.21 Q220.654 1538.6 220.654 1529.87 Q220.654 1521.12 223.71 1516.54 Q226.788 1511.93 232.599 1511.93 Z" fill="#000000" fill-rule="evenodd" fill-opacity="1" /><path clip-path="url(#clip820)" d="M 0 0 M249.659 1512.56 L268.015 1512.56 L268.015 1516.5 L253.941 1516.5 L253.941 1524.97 Q254.96 1524.62 255.978 1524.46 Q256.997 1524.27 258.015 1524.27 Q263.802 1524.27 267.182 1527.44 Q270.561 1530.62 270.561 1536.03 Q270.561 1541.61 267.089 1544.71 Q263.617 1547.79 257.298 1547.79 Q255.122 1547.79 252.853 1547.42 Q250.608 1547.05 248.2 1546.31 L248.2 1541.61 Q250.284 1542.74 252.506 1543.3 Q254.728 1543.86 257.205 1543.86 Q261.21 1543.86 263.547 1541.75 Q265.885 1539.64 265.885 1536.03 Q265.885 1532.42 263.547 1530.31 Q261.21 1528.21 257.205 1528.21 Q255.33 1528.21 253.455 1528.62 Q251.603 1529.04 249.659 1529.92 L249.659 1512.56 Z" fill="#000000" fill-rule="evenodd" fill-opacity="1" /><path clip-path="url(#clip820)" d="M 0 0 M772.917 1515.64 Q769.306 1515.64 767.477 1519.2 Q765.671 1522.75 765.671 1529.87 Q765.671 1536.98 767.477 1540.55 Q769.306 1544.09 772.917 1544.09 Q776.551 1544.09 778.357 1540.55 Q780.185 1536.98 780.185 1529.87 Q780.185 1522.75 778.357 1519.2 Q776.551 1515.64 772.917 1515.64 M772.917 1511.93 Q778.727 1511.93 781.782 1516.54 Q784.861 1521.12 784.861 1529.87 Q784.861 1538.6 781.782 1543.21 Q778.727 1547.79 772.917 1547.79 Q767.107 1547.79 764.028 1543.21 Q760.972 1538.6 760.972 1529.87 Q760.972 1521.12 764.028 1516.54 Q767.107 1511.93 772.917 1511.93 Z" fill="#000000" fill-rule="evenodd" fill-opacity="1" /><path clip-path="url(#clip820)" d="M 0 0 M789.931 1541.24 L794.815 1541.24 L794.815 1547.12 L789.931 1547.12 L789.931 1541.24 Z" fill="#000000" fill-rule="evenodd" fill-opacity="1" /><path clip-path="url(#clip820)" d="M 0 0 M809.884 1515.64 Q806.273 1515.64 804.444 1519.2 Q802.639 1522.75 802.639 1529.87 Q802.639 1536.98 804.444 1540.55 Q806.273 1544.09 809.884 1544.09 Q813.518 1544.09 815.324 1540.55 Q817.153 1536.98 817.153 1529.87 Q817.153 1522.75 815.324 1519.2 Q813.518 1515.64 809.884 1515.64 M809.884 1511.93 Q815.694 1511.93 818.75 1516.54 Q821.829 1521.12 821.829 1529.87 Q821.829 1538.6 818.75 1543.21 Q815.694 1547.79 809.884 1547.79 Q804.074 1547.79 800.995 1543.21 Q797.94 1538.6 797.94 1529.87 Q797.94 1521.12 800.995 1516.54 Q804.074 1511.93 809.884 1511.93 Z" fill="#000000" fill-rule="evenodd" fill-opacity="1" /><path clip-path="url(#clip820)" d="M 0 0 M836.898 1515.64 Q833.287 1515.64 831.458 1519.2 Q829.653 1522.75 829.653 1529.87 Q829.653 1536.98 831.458 1540.55 Q833.287 1544.09 836.898 1544.09 Q840.532 1544.09 842.338 1540.55 Q844.166 1536.98 844.166 1529.87 Q844.166 1522.75 842.338 1519.2 Q840.532 1515.64 836.898 1515.64 M836.898 1511.93 Q842.708 1511.93 845.764 1516.54 Q848.842 1521.12 848.842 1529.87 Q848.842 1538.6 845.764 1543.21 Q842.708 1547.79 836.898 1547.79 Q831.088 1547.79 828.009 1543.21 Q824.954 1538.6 824.954 1529.87 Q824.954 1521.12 828.009 1516.54 Q831.088 1511.93 836.898 1511.93 Z" fill="#000000" fill-rule="evenodd" fill-opacity="1" /><path clip-path="url(#clip820)" d="M 0 0 M1367.6 1515.64 Q1363.99 1515.64 1362.16 1519.2 Q1360.35 1522.75 1360.35 1529.87 Q1360.35 1536.98 1362.16 1540.55 Q1363.99 1544.09 1367.6 1544.09 Q1371.23 1544.09 1373.04 1540.55 Q1374.87 1536.98 1374.87 1529.87 Q1374.87 1522.75 1373.04 1519.2 Q1371.23 1515.64 1367.6 1515.64 M1367.6 1511.93 Q1373.41 1511.93 1376.46 1516.54 Q1379.54 1521.12 1379.54 1529.87 Q1379.54 1538.6 1376.46 1543.21 Q1373.41 1547.79 1367.6 1547.79 Q1361.79 1547.79 1358.71 1543.21 Q1355.65 1538.6 1355.65 1529.87 Q1355.65 1521.12 1358.71 1516.54 Q1361.79 1511.93 1367.6 1511.93 Z" fill="#000000" fill-rule="evenodd" fill-opacity="1" /><path clip-path="url(#clip820)" d="M 0 0 M1384.61 1541.24 L1389.5 1541.24 L1389.5 1547.12 L1384.61 1547.12 L1384.61 1541.24 Z" fill="#000000" fill-rule="evenodd" fill-opacity="1" /><path clip-path="url(#clip820)" d="M 0 0 M1404.57 1515.64 Q1400.95 1515.64 1399.13 1519.2 Q1397.32 1522.75 1397.32 1529.87 Q1397.32 1536.98 1399.13 1540.55 Q1400.95 1544.09 1404.57 1544.09 Q1408.2 1544.09 1410.01 1540.55 Q1411.83 1536.98 1411.83 1529.87 Q1411.83 1522.75 1410.01 1519.2 Q1408.2 1515.64 1404.57 1515.64 M1404.57 1511.93 Q1410.38 1511.93 1413.43 1516.54 Q1416.51 1521.12 1416.51 1529.87 Q1416.51 1538.6 1413.43 1543.21 Q1410.38 1547.79 1404.57 1547.79 Q1398.76 1547.79 1395.68 1543.21 Q1392.62 1538.6 1392.62 1529.87 Q1392.62 1521.12 1395.68 1516.54 Q1398.76 1511.93 1404.57 1511.93 Z" fill="#000000" fill-rule="evenodd" fill-opacity="1" /><path clip-path="url(#clip820)" d="M 0 0 M1421.63 1512.56 L1439.98 1512.56 L1439.98 1516.5 L1425.91 1516.5 L1425.91 1524.97 Q1426.93 1524.62 1427.95 1524.46 Q1428.96 1524.27 1429.98 1524.27 Q1435.77 1524.27 1439.15 1527.44 Q1442.53 1530.62 1442.53 1536.03 Q1442.53 1541.61 1439.06 1544.71 Q1435.58 1547.79 1429.26 1547.79 Q1427.09 1547.79 1424.82 1547.42 Q1422.57 1547.05 1420.17 1546.31 L1420.17 1541.61 Q1422.25 1542.74 1424.47 1543.3 Q1426.7 1543.86 1429.17 1543.86 Q1433.18 1543.86 1435.51 1541.75 Q1437.85 1539.64 1437.85 1536.03 Q1437.85 1532.42 1435.51 1530.31 Q1433.18 1528.21 1429.17 1528.21 Q1427.3 1528.21 1425.42 1528.62 Q1423.57 1529.04 1421.63 1529.92 L1421.63 1512.56 Z" fill="#000000" fill-rule="evenodd" fill-opacity="1" /><path clip-path="url(#clip820)" d="M 0 0 M1961.9 1515.64 Q1958.29 1515.64 1956.46 1519.2 Q1954.65 1522.75 1954.65 1529.87 Q1954.65 1536.98 1956.46 1540.55 Q1958.29 1544.09 1961.9 1544.09 Q1965.53 1544.09 1967.34 1540.55 Q1969.17 1536.98 1969.17 1529.87 Q1969.17 1522.75 1967.34 1519.2 Q1965.53 1515.64 1961.9 1515.64 M1961.9 1511.93 Q1967.71 1511.93 1970.76 1516.54 Q1973.84 1521.12 1973.84 1529.87 Q1973.84 1538.6 1970.76 1543.21 Q1967.71 1547.79 1961.9 1547.79 Q1956.09 1547.79 1953.01 1543.21 Q1949.95 1538.6 1949.95 1529.87 Q1949.95 1521.12 1953.01 1516.54 Q1956.09 1511.93 1961.9 1511.93 Z" fill="#000000" fill-rule="evenodd" fill-opacity="1" /><path clip-path="url(#clip820)" d="M 0 0 M1978.91 1541.24 L1983.8 1541.24 L1983.8 1547.12 L1978.91 1547.12 L1978.91 1541.24 Z" fill="#000000" fill-rule="evenodd" fill-opacity="1" /><path clip-path="url(#clip820)" d="M 0 0 M1989.68 1543.18 L1997.31 1543.18 L1997.31 1516.82 L1989 1518.49 L1989 1514.23 L1997.27 1512.56 L2001.94 1512.56 L2001.94 1543.18 L2009.58 1543.18 L2009.58 1547.12 L1989.68 1547.12 L1989.68 1543.18 Z" fill="#000000" fill-rule="evenodd" fill-opacity="1" /><path clip-path="url(#clip820)" d="M 0 0 M2024.65 1515.64 Q2021.04 1515.64 2019.21 1519.2 Q2017.41 1522.75 2017.41 1529.87 Q2017.41 1536.98 2019.21 1540.55 Q2021.04 1544.09 2024.65 1544.09 Q2028.29 1544.09 2030.09 1540.55 Q2031.92 1536.98 2031.92 1529.87 Q2031.92 1522.75 2030.09 1519.2 Q2028.29 1515.64 2024.65 1515.64 M2024.65 1511.93 Q2030.46 1511.93 2033.52 1516.54 Q2036.6 1521.12 2036.6 1529.87 Q2036.6 1538.6 2033.52 1543.21 Q2030.46 1547.79 2024.65 1547.79 Q2018.84 1547.79 2015.76 1543.21 Q2012.71 1538.6 2012.71 1529.87 Q2012.71 1521.12 2015.76 1516.54 Q2018.84 1511.93 2024.65 1511.93 Z" fill="#000000" fill-rule="evenodd" fill-opacity="1" /><polyline clip-path="url(#clip822)" style="stroke:#000000; stroke-width:2; stroke-opacity:0.1; fill:none" points="
  148.334,1409.26 2352.76,1409.26 
  "/>
<polyline clip-path="url(#clip822)" style="stroke:#000000; stroke-width:2; stroke-opacity:0.1; fill:none" points="
  148.334,1198.74 2352.76,1198.74 
  "/>
<polyline clip-path="url(#clip822)" style="stroke:#000000; stroke-width:2; stroke-opacity:0.1; fill:none" points="
  148.334,988.222 2352.76,988.222 
  "/>
<polyline clip-path="url(#clip822)" style="stroke:#000000; stroke-width:2; stroke-opacity:0.1; fill:none" points="
  148.334,777.702 2352.76,777.702 
  "/>
<polyline clip-path="url(#clip822)" style="stroke:#000000; stroke-width:2; stroke-opacity:0.1; fill:none" points="
  148.334,567.182 2352.76,567.182 
  "/>
<polyline clip-path="url(#clip822)" style="stroke:#000000; stroke-width:2; stroke-opacity:0.1; fill:none" points="
  148.334,356.663 2352.76,356.663 
  "/>
<polyline clip-path="url(#clip822)" style="stroke:#000000; stroke-width:2; stroke-opacity:0.1; fill:none" points="
  148.334,146.143 2352.76,146.143 
  "/>
<polyline clip-path="url(#clip820)" style="stroke:#000000; stroke-width:4; stroke-opacity:1; fill:none" points="
  148.334,1486.45 148.334,47.2441 
  "/>
<polyline clip-path="url(#clip820)" style="stroke:#000000; stroke-width:4; stroke-opacity:1; fill:none" points="
  148.334,1409.26 174.787,1409.26 
  "/>
<polyline clip-path="url(#clip820)" style="stroke:#000000; stroke-width:4; stroke-opacity:1; fill:none" points="
  148.334,1198.74 174.787,1198.74 
  "/>
<polyline clip-path="url(#clip820)" style="stroke:#000000; stroke-width:4; stroke-opacity:1; fill:none" points="
  148.334,988.222 174.787,988.222 
  "/>
<polyline clip-path="url(#clip820)" style="stroke:#000000; stroke-width:4; stroke-opacity:1; fill:none" points="
  148.334,777.702 174.787,777.702 
  "/>
<polyline clip-path="url(#clip820)" style="stroke:#000000; stroke-width:4; stroke-opacity:1; fill:none" points="
  148.334,567.182 174.787,567.182 
  "/>
<polyline clip-path="url(#clip820)" style="stroke:#000000; stroke-width:4; stroke-opacity:1; fill:none" points="
  148.334,356.663 174.787,356.663 
  "/>
<polyline clip-path="url(#clip820)" style="stroke:#000000; stroke-width:4; stroke-opacity:1; fill:none" points="
  148.334,146.143 174.787,146.143 
  "/>
<path clip-path="url(#clip820)" d="M 0 0 M62.9365 1395.06 Q59.3254 1395.06 57.4967 1398.62 Q55.6912 1402.17 55.6912 1409.3 Q55.6912 1416.4 57.4967 1419.97 Q59.3254 1423.51 62.9365 1423.51 Q66.5707 1423.51 68.3763 1419.97 Q70.205 1416.4 70.205 1409.3 Q70.205 1402.17 68.3763 1398.62 Q66.5707 1395.06 62.9365 1395.06 M62.9365 1391.36 Q68.7467 1391.36 71.8022 1395.96 Q74.8809 1400.55 74.8809 1409.3 Q74.8809 1418.02 71.8022 1422.63 Q68.7467 1427.21 62.9365 1427.21 Q57.1264 1427.21 54.0477 1422.63 Q50.9921 1418.02 50.9921 1409.3 Q50.9921 1400.55 54.0477 1395.96 Q57.1264 1391.36 62.9365 1391.36 Z" fill="#000000" fill-rule="evenodd" fill-opacity="1" /><path clip-path="url(#clip820)" d="M 0 0 M79.9503 1420.66 L84.8345 1420.66 L84.8345 1426.54 L79.9503 1426.54 L79.9503 1420.66 Z" fill="#000000" fill-rule="evenodd" fill-opacity="1" /><path clip-path="url(#clip820)" d="M 0 0 M102.751 1396.05 L90.9456 1414.5 L102.751 1414.5 L102.751 1396.05 M101.524 1391.98 L107.404 1391.98 L107.404 1414.5 L112.334 1414.5 L112.334 1418.39 L107.404 1418.39 L107.404 1426.54 L102.751 1426.54 L102.751 1418.39 L87.1493 1418.39 L87.1493 1413.88 L101.524 1391.98 Z" fill="#000000" fill-rule="evenodd" fill-opacity="1" /><path clip-path="url(#clip820)" d="M 0 0 M64.418 1184.54 Q60.8069 1184.54 58.9782 1188.1 Q57.1726 1191.65 57.1726 1198.78 Q57.1726 1205.88 58.9782 1209.45 Q60.8069 1212.99 64.418 1212.99 Q68.0522 1212.99 69.8578 1209.45 Q71.6865 1205.88 71.6865 1198.78 Q71.6865 1191.65 69.8578 1188.1 Q68.0522 1184.54 64.418 1184.54 M64.418 1180.84 Q70.2281 1180.84 73.2837 1185.44 Q76.3624 1190.03 76.3624 1198.78 Q76.3624 1207.5 73.2837 1212.11 Q70.2281 1216.69 64.418 1216.69 Q58.6078 1216.69 55.5291 1212.11 Q52.4736 1207.5 52.4736 1198.78 Q52.4736 1190.03 55.5291 1185.44 Q58.6078 1180.84 64.418 1180.84 Z" fill="#000000" fill-rule="evenodd" fill-opacity="1" /><path clip-path="url(#clip820)" d="M 0 0 M81.4318 1210.14 L86.316 1210.14 L86.316 1216.02 L81.4318 1216.02 L81.4318 1210.14 Z" fill="#000000" fill-rule="evenodd" fill-opacity="1" /><path clip-path="url(#clip820)" d="M 0 0 M91.4317 1181.46 L109.788 1181.46 L109.788 1185.4 L95.7141 1185.4 L95.7141 1193.87 Q96.7326 1193.52 97.7511 1193.36 Q98.7696 1193.17 99.7882 1193.17 Q105.575 1193.17 108.955 1196.35 Q112.334 1199.52 112.334 1204.93 Q112.334 1210.51 108.862 1213.61 Q105.39 1216.69 99.0706 1216.69 Q96.8947 1216.69 94.6262 1216.32 Q92.3808 1215.95 89.9734 1215.21 L89.9734 1210.51 Q92.0567 1211.65 94.2789 1212.2 Q96.5011 1212.76 98.978 1212.76 Q102.983 1212.76 105.321 1210.65 Q107.658 1208.54 107.658 1204.93 Q107.658 1201.32 105.321 1199.22 Q102.983 1197.11 98.978 1197.11 Q97.103 1197.11 95.228 1197.53 Q93.3762 1197.94 91.4317 1198.82 L91.4317 1181.46 Z" fill="#000000" fill-rule="evenodd" fill-opacity="1" /><path clip-path="url(#clip820)" d="M 0 0 M63.2606 974.02 Q59.6495 974.02 57.8208 977.585 Q56.0152 981.127 56.0152 988.256 Q56.0152 995.363 57.8208 998.928 Q59.6495 1002.47 63.2606 1002.47 Q66.8948 1002.47 68.7004 998.928 Q70.5291 995.363 70.5291 988.256 Q70.5291 981.127 68.7004 977.585 Q66.8948 974.02 63.2606 974.02 M63.2606 970.317 Q69.0707 970.317 72.1263 974.923 Q75.205 979.506 75.205 988.256 Q75.205 996.983 72.1263 1001.59 Q69.0707 1006.17 63.2606 1006.17 Q57.4504 1006.17 54.3717 1001.59 Q51.3162 996.983 51.3162 988.256 Q51.3162 979.506 54.3717 974.923 Q57.4504 970.317 63.2606 970.317 Z" fill="#000000" fill-rule="evenodd" fill-opacity="1" /><path clip-path="url(#clip820)" d="M 0 0 M80.2744 999.622 L85.1586 999.622 L85.1586 1005.5 L80.2744 1005.5 L80.2744 999.622 Z" fill="#000000" fill-rule="evenodd" fill-opacity="1" /><path clip-path="url(#clip820)" d="M 0 0 M100.807 986.358 Q97.6585 986.358 95.8067 988.511 Q93.978 990.664 93.978 994.414 Q93.978 998.141 95.8067 1000.32 Q97.6585 1002.47 100.807 1002.47 Q103.955 1002.47 105.783 1000.32 Q107.635 998.141 107.635 994.414 Q107.635 990.664 105.783 988.511 Q103.955 986.358 100.807 986.358 M110.089 971.706 L110.089 975.965 Q108.33 975.131 106.524 974.692 Q104.742 974.252 102.983 974.252 Q98.353 974.252 95.8993 977.377 Q93.4688 980.502 93.1215 986.821 Q94.4873 984.807 96.5474 983.742 Q98.6076 982.655 101.084 982.655 Q106.293 982.655 109.302 985.826 Q112.334 988.974 112.334 994.414 Q112.334 999.738 109.186 1002.96 Q106.038 1006.17 100.807 1006.17 Q94.8113 1006.17 91.6401 1001.59 Q88.4688 996.983 88.4688 988.256 Q88.4688 980.062 92.3576 975.201 Q96.2465 970.317 102.797 970.317 Q104.557 970.317 106.339 970.664 Q108.145 971.011 110.089 971.706 Z" fill="#000000" fill-rule="evenodd" fill-opacity="1" /><path clip-path="url(#clip820)" d="M 0 0 M64.3254 763.501 Q60.7143 763.501 58.8856 767.065 Q57.0801 770.607 57.0801 777.737 Q57.0801 784.843 58.8856 788.408 Q60.7143 791.95 64.3254 791.95 Q67.9596 791.95 69.7652 788.408 Q71.5939 784.843 71.5939 777.737 Q71.5939 770.607 69.7652 767.065 Q67.9596 763.501 64.3254 763.501 M64.3254 759.797 Q70.1355 759.797 73.1911 764.403 Q76.2698 768.987 76.2698 777.737 Q76.2698 786.463 73.1911 791.07 Q70.1355 795.653 64.3254 795.653 Q58.5152 795.653 55.4365 791.07 Q52.381 786.463 52.381 777.737 Q52.381 768.987 55.4365 764.403 Q58.5152 759.797 64.3254 759.797 Z" fill="#000000" fill-rule="evenodd" fill-opacity="1" /><path clip-path="url(#clip820)" d="M 0 0 M81.3392 789.102 L86.2234 789.102 L86.2234 794.982 L81.3392 794.982 L81.3392 789.102 Z" fill="#000000" fill-rule="evenodd" fill-opacity="1" /><path clip-path="url(#clip820)" d="M 0 0 M90.1123 760.422 L112.334 760.422 L112.334 762.413 L99.7882 794.982 L94.9039 794.982 L106.709 764.357 L90.1123 764.357 L90.1123 760.422 Z" fill="#000000" fill-rule="evenodd" fill-opacity="1" /><path clip-path="url(#clip820)" d="M 0 0 M63.5152 552.981 Q59.9041 552.981 58.0754 556.546 Q56.2699 560.087 56.2699 567.217 Q56.2699 574.323 58.0754 577.888 Q59.9041 581.43 63.5152 581.43 Q67.1494 581.43 68.955 577.888 Q70.7837 574.323 70.7837 567.217 Q70.7837 560.087 68.955 556.546 Q67.1494 552.981 63.5152 552.981 M63.5152 549.277 Q69.3254 549.277 72.3809 553.884 Q75.4596 558.467 75.4596 567.217 Q75.4596 575.944 72.3809 580.55 Q69.3254 585.134 63.5152 585.134 Q57.7051 585.134 54.6264 580.55 Q51.5708 575.944 51.5708 567.217 Q51.5708 558.467 54.6264 553.884 Q57.7051 549.277 63.5152 549.277 Z" fill="#000000" fill-rule="evenodd" fill-opacity="1" /><path clip-path="url(#clip820)" d="M 0 0 M80.529 578.583 L85.4132 578.583 L85.4132 584.462 L80.529 584.462 L80.529 578.583 Z" fill="#000000" fill-rule="evenodd" fill-opacity="1" /><path clip-path="url(#clip820)" d="M 0 0 M100.483 568.05 Q97.1493 568.05 95.228 569.833 Q93.3299 571.615 93.3299 574.74 Q93.3299 577.865 95.228 579.648 Q97.1493 581.43 100.483 581.43 Q103.816 581.43 105.737 579.648 Q107.658 577.842 107.658 574.74 Q107.658 571.615 105.737 569.833 Q103.839 568.05 100.483 568.05 M95.8067 566.06 Q92.7975 565.319 91.1077 563.259 Q89.441 561.199 89.441 558.236 Q89.441 554.092 92.3808 551.685 Q95.3437 549.277 100.483 549.277 Q105.645 549.277 108.584 551.685 Q111.524 554.092 111.524 558.236 Q111.524 561.199 109.834 563.259 Q108.168 565.319 105.182 566.06 Q108.561 566.847 110.436 569.138 Q112.334 571.43 112.334 574.74 Q112.334 579.763 109.256 582.448 Q106.2 585.134 100.483 585.134 Q94.765 585.134 91.6864 582.448 Q88.6308 579.763 88.6308 574.74 Q88.6308 571.43 90.529 569.138 Q92.4271 566.847 95.8067 566.06 M94.0937 558.675 Q94.0937 561.361 95.7604 562.865 Q97.4502 564.37 100.483 564.37 Q103.492 564.37 105.182 562.865 Q106.895 561.361 106.895 558.675 Q106.895 555.99 105.182 554.486 Q103.492 552.981 100.483 552.981 Q97.4502 552.981 95.7604 554.486 Q94.0937 555.99 94.0937 558.675 Z" fill="#000000" fill-rule="evenodd" fill-opacity="1" /><path clip-path="url(#clip820)" d="M 0 0 M63.6078 342.461 Q59.9967 342.461 58.168 346.026 Q56.3625 349.568 56.3625 356.697 Q56.3625 363.804 58.168 367.369 Q59.9967 370.91 63.6078 370.91 Q67.242 370.91 69.0476 367.369 Q70.8763 363.804 70.8763 356.697 Q70.8763 349.568 69.0476 346.026 Q67.242 342.461 63.6078 342.461 M63.6078 338.758 Q69.418 338.758 72.4735 343.364 Q75.5522 347.947 75.5522 356.697 Q75.5522 365.424 72.4735 370.031 Q69.418 374.614 63.6078 374.614 Q57.7976 374.614 54.719 370.031 Q51.6634 365.424 51.6634 356.697 Q51.6634 347.947 54.719 343.364 Q57.7976 338.758 63.6078 338.758 Z" fill="#000000" fill-rule="evenodd" fill-opacity="1" /><path clip-path="url(#clip820)" d="M 0 0 M80.6216 368.063 L85.5058 368.063 L85.5058 373.943 L80.6216 373.943 L80.6216 368.063 Z" fill="#000000" fill-rule="evenodd" fill-opacity="1" /><path clip-path="url(#clip820)" d="M 0 0 M90.7141 373.225 L90.7141 368.966 Q92.4734 369.799 94.2789 370.239 Q96.0845 370.679 97.8206 370.679 Q102.45 370.679 104.881 367.577 Q107.334 364.452 107.682 358.109 Q106.339 360.1 104.279 361.165 Q102.219 362.23 99.7187 362.23 Q94.5336 362.23 91.5012 359.105 Q88.4919 355.957 88.4919 350.517 Q88.4919 345.193 91.6401 341.975 Q94.7882 338.758 100.02 338.758 Q106.015 338.758 109.163 343.364 Q112.334 347.947 112.334 356.697 Q112.334 364.869 108.446 369.753 Q104.58 374.614 98.0289 374.614 Q96.2697 374.614 94.4641 374.267 Q92.6586 373.92 90.7141 373.225 M100.02 358.572 Q103.168 358.572 104.996 356.42 Q106.848 354.267 106.848 350.517 Q106.848 346.79 104.996 344.637 Q103.168 342.461 100.02 342.461 Q96.8715 342.461 95.0197 344.637 Q93.191 346.79 93.191 350.517 Q93.191 354.267 95.0197 356.42 Q96.8715 358.572 100.02 358.572 Z" fill="#000000" fill-rule="evenodd" fill-opacity="1" /><path clip-path="url(#clip820)" d="M 0 0 M55.4597 159.488 L63.0985 159.488 L63.0985 133.122 L54.7884 134.789 L54.7884 130.53 L63.0522 128.863 L67.7281 128.863 L67.7281 159.488 L75.367 159.488 L75.367 163.423 L55.4597 163.423 L55.4597 159.488 Z" fill="#000000" fill-rule="evenodd" fill-opacity="1" /><path clip-path="url(#clip820)" d="M 0 0 M80.4364 157.543 L85.3206 157.543 L85.3206 163.423 L80.4364 163.423 L80.4364 157.543 Z" fill="#000000" fill-rule="evenodd" fill-opacity="1" /><path clip-path="url(#clip820)" d="M 0 0 M100.39 131.942 Q96.7789 131.942 94.9502 135.507 Q93.1447 139.048 93.1447 146.178 Q93.1447 153.284 94.9502 156.849 Q96.7789 160.391 100.39 160.391 Q104.024 160.391 105.83 156.849 Q107.658 153.284 107.658 146.178 Q107.658 139.048 105.83 135.507 Q104.024 131.942 100.39 131.942 M100.39 128.238 Q106.2 128.238 109.256 132.844 Q112.334 137.428 112.334 146.178 Q112.334 154.905 109.256 159.511 Q106.2 164.094 100.39 164.094 Q94.5799 164.094 91.5012 159.511 Q88.4456 154.905 88.4456 146.178 Q88.4456 137.428 91.5012 132.844 Q94.5799 128.238 100.39 128.238 Z" fill="#000000" fill-rule="evenodd" fill-opacity="1" /><polyline clip-path="url(#clip822)" style="stroke:#009af9; stroke-width:4; stroke-opacity:1; fill:none" points="
  507.816,87.9763 1102,204.31 1696.18,650.536 2290.37,1445.72 
  "/>
<polyline clip-path="url(#clip822)" style="stroke:#e26f46; stroke-width:4; stroke-opacity:1; fill:none" points="
  210.724,375.596 804.907,146.143 1399.09,375.596 1993.27,1013.94 
  "/>
<path clip-path="url(#clip820)" d="
M1616.63 276.658 L2279.28 276.658 L2279.28 95.2176 L1616.63 95.2176  Z
  " fill="#ffffff" fill-rule="evenodd" fill-opacity="1"/>
<polyline clip-path="url(#clip820)" style="stroke:#000000; stroke-width:4; stroke-opacity:1; fill:none" points="
  1616.63,276.658 2279.28,276.658 2279.28,95.2176 1616.63,95.2176 1616.63,276.658 
  "/>
<polyline clip-path="url(#clip820)" style="stroke:#009af9; stroke-width:4; stroke-opacity:1; fill:none" points="
  1641.13,155.698 1788.09,155.698 
  "/>
<path clip-path="url(#clip820)" d="M 0 0 M1836.61 158.95 L1836.61 161.033 L1817.03 161.033 Q1817.3 165.431 1819.67 167.746 Q1822.05 170.038 1826.29 170.038 Q1828.74 170.038 1831.03 169.436 Q1833.35 168.834 1835.61 167.63 L1835.61 171.658 Q1833.32 172.63 1830.92 173.14 Q1828.51 173.649 1826.03 173.649 Q1819.83 173.649 1816.19 170.038 Q1812.58 166.427 1812.58 160.269 Q1812.58 153.904 1816.01 150.177 Q1819.46 146.427 1825.29 146.427 Q1830.52 146.427 1833.55 149.806 Q1836.61 153.163 1836.61 158.95 M1832.35 157.7 Q1832.3 154.205 1830.38 152.121 Q1828.48 150.038 1825.34 150.038 Q1821.77 150.038 1819.62 152.052 Q1817.49 154.066 1817.17 157.723 L1832.35 157.7 Z" fill="#000000" fill-rule="evenodd" fill-opacity="1" /><path clip-path="url(#clip820)" d="M 0 0 M1858.14 150.987 L1858.14 136.959 L1862.4 136.959 L1862.4 172.978 L1858.14 172.978 L1858.14 169.089 Q1856.79 171.403 1854.73 172.538 Q1852.7 173.649 1849.83 173.649 Q1845.13 173.649 1842.17 169.899 Q1839.23 166.149 1839.23 160.038 Q1839.23 153.927 1842.17 150.177 Q1845.13 146.427 1849.83 146.427 Q1852.7 146.427 1854.73 147.561 Q1856.79 148.672 1858.14 150.987 M1843.62 160.038 Q1843.62 164.737 1845.54 167.422 Q1847.49 170.084 1850.87 170.084 Q1854.25 170.084 1856.19 167.422 Q1858.14 164.737 1858.14 160.038 Q1858.14 155.339 1856.19 152.677 Q1854.25 149.992 1850.87 149.992 Q1847.49 149.992 1845.54 152.677 Q1843.62 155.339 1843.62 160.038 Z" fill="#000000" fill-rule="evenodd" fill-opacity="1" /><path clip-path="url(#clip820)" d="M 0 0 M1883.92 159.714 Q1883.92 155.084 1882 152.538 Q1880.1 149.992 1876.66 149.992 Q1873.23 149.992 1871.31 152.538 Q1869.41 155.084 1869.41 159.714 Q1869.41 164.32 1871.31 166.866 Q1873.23 169.413 1876.66 169.413 Q1880.1 169.413 1882 166.866 Q1883.92 164.32 1883.92 159.714 M1888.18 169.76 Q1888.18 176.38 1885.24 179.598 Q1882.3 182.839 1876.24 182.839 Q1873.99 182.839 1872 182.491 Q1870.01 182.167 1868.14 181.473 L1868.14 177.329 Q1870.01 178.348 1871.84 178.834 Q1873.67 179.32 1875.57 179.32 Q1879.76 179.32 1881.84 177.121 Q1883.92 174.945 1883.92 170.524 L1883.92 168.417 Q1882.6 170.709 1880.54 171.843 Q1878.48 172.978 1875.61 172.978 Q1870.85 172.978 1867.93 169.343 Q1865.01 165.709 1865.01 159.714 Q1865.01 153.695 1867.93 150.061 Q1870.85 146.427 1875.61 146.427 Q1878.48 146.427 1880.54 147.561 Q1882.6 148.695 1883.92 150.987 L1883.92 147.052 L1888.18 147.052 L1888.18 169.76 Z" fill="#000000" fill-rule="evenodd" fill-opacity="1" /><path clip-path="url(#clip820)" d="M 0 0 M1914.83 158.95 L1914.83 161.033 L1895.24 161.033 Q1895.52 165.431 1897.88 167.746 Q1900.27 170.038 1904.5 170.038 Q1906.96 170.038 1909.25 169.436 Q1911.56 168.834 1913.83 167.63 L1913.83 171.658 Q1911.54 172.63 1909.13 173.14 Q1906.72 173.649 1904.25 173.649 Q1898.04 173.649 1894.41 170.038 Q1890.8 166.427 1890.8 160.269 Q1890.8 153.904 1894.23 150.177 Q1897.67 146.427 1903.51 146.427 Q1908.74 146.427 1911.77 149.806 Q1914.83 153.163 1914.83 158.95 M1910.57 157.7 Q1910.52 154.205 1908.6 152.121 Q1906.7 150.038 1903.55 150.038 Q1899.99 150.038 1897.84 152.052 Q1895.71 154.066 1895.38 157.723 L1910.57 157.7 Z" fill="#000000" fill-rule="evenodd" fill-opacity="1" /><path clip-path="url(#clip820)" d="M 0 0 M1944.6 137.006 Q1941.49 142.33 1939.99 147.538 Q1938.48 152.746 1938.48 158.093 Q1938.48 163.441 1939.99 168.695 Q1941.52 173.927 1944.6 179.228 L1940.89 179.228 Q1937.42 173.788 1935.68 168.533 Q1933.97 163.279 1933.97 158.093 Q1933.97 152.931 1935.68 147.7 Q1937.4 142.468 1940.89 137.006 L1944.6 137.006 Z" fill="#000000" fill-rule="evenodd" fill-opacity="1" /><path clip-path="url(#clip820)" d="M 0 0 M1971.24 158.95 L1971.24 161.033 L1951.66 161.033 Q1951.93 165.431 1954.29 167.746 Q1956.68 170.038 1960.91 170.038 Q1963.37 170.038 1965.66 169.436 Q1967.97 168.834 1970.24 167.63 L1970.24 171.658 Q1967.95 172.63 1965.54 173.14 Q1963.14 173.649 1960.66 173.649 Q1954.46 173.649 1950.82 170.038 Q1947.21 166.427 1947.21 160.269 Q1947.21 153.904 1950.64 150.177 Q1954.09 146.427 1959.92 146.427 Q1965.15 146.427 1968.18 149.806 Q1971.24 153.163 1971.24 158.95 M1966.98 157.7 Q1966.93 154.205 1965.01 152.121 Q1963.11 150.038 1959.97 150.038 Q1956.4 150.038 1954.25 152.052 Q1952.12 154.066 1951.79 157.723 L1966.98 157.7 Z" fill="#000000" fill-rule="evenodd" fill-opacity="1" /><path clip-path="url(#clip820)" d="M 0 0 M1996.42 147.052 L1987.05 159.667 L1996.91 172.978 L1991.89 172.978 L1984.34 162.792 L1976.79 172.978 L1971.77 172.978 L1981.84 159.413 L1972.63 147.052 L1977.65 147.052 L1984.53 156.288 L1991.4 147.052 L1996.42 147.052 Z" fill="#000000" fill-rule="evenodd" fill-opacity="1" /><path clip-path="url(#clip820)" d="M 0 0 M2005.59 139.691 L2005.59 147.052 L2014.36 147.052 L2014.36 150.362 L2005.59 150.362 L2005.59 164.436 Q2005.59 167.607 2006.45 168.51 Q2007.33 169.413 2009.99 169.413 L2014.36 169.413 L2014.36 172.978 L2009.99 172.978 Q2005.06 172.978 2003.18 171.149 Q2001.31 169.297 2001.31 164.436 L2001.31 150.362 L1998.18 150.362 L1998.18 147.052 L2001.31 147.052 L2001.31 139.691 L2005.59 139.691 Z" fill="#000000" fill-rule="evenodd" fill-opacity="1" /><path clip-path="url(#clip820)" d="M 0 0 M2033.85 151.033 Q2033.14 150.617 2032.28 150.431 Q2031.45 150.223 2030.43 150.223 Q2026.82 150.223 2024.87 152.584 Q2022.95 154.922 2022.95 159.32 L2022.95 172.978 L2018.67 172.978 L2018.67 147.052 L2022.95 147.052 L2022.95 151.08 Q2024.29 148.718 2026.45 147.584 Q2028.6 146.427 2031.68 146.427 Q2032.12 146.427 2032.65 146.496 Q2033.18 146.543 2033.83 146.658 L2033.85 151.033 Z" fill="#000000" fill-rule="evenodd" fill-opacity="1" /><path clip-path="url(#clip820)" d="M 0 0 M2050.1 159.945 Q2044.94 159.945 2042.95 161.126 Q2040.96 162.306 2040.96 165.154 Q2040.96 167.422 2042.44 168.765 Q2043.95 170.084 2046.52 170.084 Q2050.06 170.084 2052.19 167.584 Q2054.34 165.061 2054.34 160.894 L2054.34 159.945 L2050.1 159.945 M2058.6 158.186 L2058.6 172.978 L2054.34 172.978 L2054.34 169.042 Q2052.88 171.403 2050.71 172.538 Q2048.53 173.649 2045.38 173.649 Q2041.4 173.649 2039.04 171.427 Q2036.7 169.181 2036.7 165.431 Q2036.7 161.056 2039.62 158.834 Q2042.56 156.612 2048.37 156.612 L2054.34 156.612 L2054.34 156.195 Q2054.34 153.255 2052.4 151.658 Q2050.47 150.038 2046.98 150.038 Q2044.76 150.038 2042.65 150.57 Q2040.54 151.103 2038.6 152.167 L2038.6 148.232 Q2040.94 147.33 2043.14 146.89 Q2045.34 146.427 2047.42 146.427 Q2053.04 146.427 2055.82 149.343 Q2058.6 152.26 2058.6 158.186 Z" fill="#000000" fill-rule="evenodd" fill-opacity="1" /><path clip-path="url(#clip820)" d="M 0 0 M2067.19 169.089 L2067.19 182.839 L2062.9 182.839 L2062.9 147.052 L2067.19 147.052 L2067.19 150.987 Q2068.53 148.672 2070.57 147.561 Q2072.63 146.427 2075.47 146.427 Q2080.2 146.427 2083.14 150.177 Q2086.1 153.927 2086.1 160.038 Q2086.1 166.149 2083.14 169.899 Q2080.2 173.649 2075.47 173.649 Q2072.63 173.649 2070.57 172.538 Q2068.53 171.403 2067.19 169.089 M2081.68 160.038 Q2081.68 155.339 2079.73 152.677 Q2077.81 149.992 2074.43 149.992 Q2071.05 149.992 2069.11 152.677 Q2067.19 155.339 2067.19 160.038 Q2067.19 164.737 2069.11 167.422 Q2071.05 170.084 2074.43 170.084 Q2077.81 170.084 2079.73 167.422 Q2081.68 164.737 2081.68 160.038 Z" fill="#000000" fill-rule="evenodd" fill-opacity="1" /><path clip-path="url(#clip820)" d="M 0 0 M2100.61 150.038 Q2097.19 150.038 2095.2 152.723 Q2093.21 155.385 2093.21 160.038 Q2093.21 164.691 2095.17 167.376 Q2097.16 170.038 2100.61 170.038 Q2104.02 170.038 2106.01 167.353 Q2108 164.667 2108 160.038 Q2108 155.431 2106.01 152.746 Q2104.02 150.038 2100.61 150.038 M2100.61 146.427 Q2106.17 146.427 2109.34 150.038 Q2112.51 153.649 2112.51 160.038 Q2112.51 166.404 2109.34 170.038 Q2106.17 173.649 2100.61 173.649 Q2095.03 173.649 2091.86 170.038 Q2088.71 166.404 2088.71 160.038 Q2088.71 153.649 2091.86 150.038 Q2095.03 146.427 2100.61 146.427 Z" fill="#000000" fill-rule="evenodd" fill-opacity="1" /><path clip-path="url(#clip820)" d="M 0 0 M2116.98 136.959 L2121.24 136.959 L2121.24 172.978 L2116.98 172.978 L2116.98 136.959 Z" fill="#000000" fill-rule="evenodd" fill-opacity="1" /><path clip-path="url(#clip820)" d="M 0 0 M2137.49 159.945 Q2132.33 159.945 2130.33 161.126 Q2128.34 162.306 2128.34 165.154 Q2128.34 167.422 2129.83 168.765 Q2131.33 170.084 2133.9 170.084 Q2137.44 170.084 2139.57 167.584 Q2141.72 165.061 2141.72 160.894 L2141.72 159.945 L2137.49 159.945 M2145.98 158.186 L2145.98 172.978 L2141.72 172.978 L2141.72 169.042 Q2140.27 171.403 2138.09 172.538 Q2135.91 173.649 2132.77 173.649 Q2128.78 173.649 2126.42 171.427 Q2124.08 169.181 2124.08 165.431 Q2124.08 161.056 2127 158.834 Q2129.94 156.612 2135.75 156.612 L2141.72 156.612 L2141.72 156.195 Q2141.72 153.255 2139.78 151.658 Q2137.86 150.038 2134.36 150.038 Q2132.14 150.038 2130.03 150.57 Q2127.93 151.103 2125.98 152.167 L2125.98 148.232 Q2128.32 147.33 2130.52 146.89 Q2132.72 146.427 2134.8 146.427 Q2140.43 146.427 2143.21 149.343 Q2145.98 152.26 2145.98 158.186 Z" fill="#000000" fill-rule="evenodd" fill-opacity="1" /><path clip-path="url(#clip820)" d="M 0 0 M2154.66 139.691 L2154.66 147.052 L2163.44 147.052 L2163.44 150.362 L2154.66 150.362 L2154.66 164.436 Q2154.66 167.607 2155.52 168.51 Q2156.4 169.413 2159.06 169.413 L2163.44 169.413 L2163.44 172.978 L2159.06 172.978 Q2154.13 172.978 2152.26 171.149 Q2150.38 169.297 2150.38 164.436 L2150.38 150.362 L2147.26 150.362 L2147.26 147.052 L2150.38 147.052 L2150.38 139.691 L2154.66 139.691 Z" fill="#000000" fill-rule="evenodd" fill-opacity="1" /><path clip-path="url(#clip820)" d="M 0 0 M2190.08 158.95 L2190.08 161.033 L2170.5 161.033 Q2170.77 165.431 2173.14 167.746 Q2175.52 170.038 2179.76 170.038 Q2182.21 170.038 2184.5 169.436 Q2186.82 168.834 2189.08 167.63 L2189.08 171.658 Q2186.79 172.63 2184.39 173.14 Q2181.98 173.649 2179.5 173.649 Q2173.3 173.649 2169.66 170.038 Q2166.05 166.427 2166.05 160.269 Q2166.05 153.904 2169.48 150.177 Q2172.93 146.427 2178.76 146.427 Q2183.99 146.427 2187.02 149.806 Q2190.08 153.163 2190.08 158.95 M2185.82 157.7 Q2185.77 154.205 2183.85 152.121 Q2181.95 150.038 2178.81 150.038 Q2175.24 150.038 2173.09 152.052 Q2170.96 154.066 2170.64 157.723 L2185.82 157.7 Z" fill="#000000" fill-rule="evenodd" fill-opacity="1" /><path clip-path="url(#clip820)" d="M 0 0 M2211.61 150.987 L2211.61 136.959 L2215.87 136.959 L2215.87 172.978 L2211.61 172.978 L2211.61 169.089 Q2210.27 171.403 2208.2 172.538 Q2206.17 173.649 2203.3 173.649 Q2198.6 173.649 2195.64 169.899 Q2192.7 166.149 2192.7 160.038 Q2192.7 153.927 2195.64 150.177 Q2198.6 146.427 2203.3 146.427 Q2206.17 146.427 2208.2 147.561 Q2210.27 148.672 2211.61 150.987 M2197.09 160.038 Q2197.09 164.737 2199.02 167.422 Q2200.96 170.084 2204.34 170.084 Q2207.72 170.084 2209.66 167.422 Q2211.61 164.737 2211.61 160.038 Q2211.61 155.339 2209.66 152.677 Q2207.72 149.992 2204.34 149.992 Q2200.96 149.992 2199.02 152.677 Q2197.09 155.339 2197.09 160.038 Z" fill="#000000" fill-rule="evenodd" fill-opacity="1" /><path clip-path="url(#clip820)" d="M 0 0 M2219.66 137.006 L2223.37 137.006 Q2226.84 142.468 2228.55 147.7 Q2230.29 152.931 2230.29 158.093 Q2230.29 163.279 2228.55 168.533 Q2226.84 173.788 2223.37 179.228 L2219.66 179.228 Q2222.74 173.927 2224.25 168.695 Q2225.77 163.441 2225.77 158.093 Q2225.77 152.746 2224.25 147.538 Q2222.74 142.33 2219.66 137.006 Z" fill="#000000" fill-rule="evenodd" fill-opacity="1" /><polyline clip-path="url(#clip820)" style="stroke:#e26f46; stroke-width:4; stroke-opacity:1; fill:none" points="
  1641.13,216.178 1788.09,216.178 
  "/>
<path clip-path="url(#clip820)" d="M 0 0 M1833.09 208.527 L1833.09 212.509 Q1831.29 211.513 1829.46 211.027 Q1827.65 210.518 1825.8 210.518 Q1821.66 210.518 1819.36 213.157 Q1817.07 215.772 1817.07 220.518 Q1817.07 225.263 1819.36 227.902 Q1821.66 230.518 1825.8 230.518 Q1827.65 230.518 1829.46 230.032 Q1831.29 229.522 1833.09 228.527 L1833.09 232.462 Q1831.31 233.296 1829.39 233.712 Q1827.49 234.129 1825.34 234.129 Q1819.48 234.129 1816.03 230.448 Q1812.58 226.768 1812.58 220.518 Q1812.58 214.175 1816.05 210.541 Q1819.55 206.907 1825.61 206.907 Q1827.58 206.907 1829.46 207.323 Q1831.33 207.717 1833.09 208.527 Z" fill="#000000" fill-rule="evenodd" fill-opacity="1" /><path clip-path="url(#clip820)" d="M 0 0 M1847.6 210.518 Q1844.18 210.518 1842.19 213.203 Q1840.2 215.865 1840.2 220.518 Q1840.2 225.171 1842.17 227.856 Q1844.16 230.518 1847.6 230.518 Q1851.01 230.518 1853 227.833 Q1854.99 225.147 1854.99 220.518 Q1854.99 215.911 1853 213.226 Q1851.01 210.518 1847.6 210.518 M1847.6 206.907 Q1853.16 206.907 1856.33 210.518 Q1859.5 214.129 1859.5 220.518 Q1859.5 226.884 1856.33 230.518 Q1853.16 234.129 1847.6 234.129 Q1842.03 234.129 1838.85 230.518 Q1835.71 226.884 1835.71 220.518 Q1835.71 214.129 1838.85 210.518 Q1842.03 206.907 1847.6 206.907 Z" fill="#000000" fill-rule="evenodd" fill-opacity="1" /><path clip-path="url(#clip820)" d="M 0 0 M1878.99 211.513 Q1878.28 211.097 1877.42 210.911 Q1876.59 210.703 1875.57 210.703 Q1871.96 210.703 1870.01 213.064 Q1868.09 215.402 1868.09 219.8 L1868.09 233.458 L1863.81 233.458 L1863.81 207.532 L1868.09 207.532 L1868.09 211.56 Q1869.43 209.198 1871.59 208.064 Q1873.74 206.907 1876.82 206.907 Q1877.26 206.907 1877.79 206.976 Q1878.32 207.023 1878.97 207.138 L1878.99 211.513 Z" fill="#000000" fill-rule="evenodd" fill-opacity="1" /><path clip-path="url(#clip820)" d="M 0 0 M1904.18 217.809 L1904.18 233.458 L1899.92 233.458 L1899.92 217.948 Q1899.92 214.268 1898.48 212.439 Q1897.05 210.61 1894.18 210.61 Q1890.73 210.61 1888.74 212.81 Q1886.75 215.009 1886.75 218.805 L1886.75 233.458 L1882.47 233.458 L1882.47 207.532 L1886.75 207.532 L1886.75 211.56 Q1888.28 209.222 1890.34 208.064 Q1892.42 206.907 1895.13 206.907 Q1899.6 206.907 1901.89 209.685 Q1904.18 212.439 1904.18 217.809 Z" fill="#000000" fill-rule="evenodd" fill-opacity="1" /></svg>
