<?xml version="1.0" encoding="utf-8"?>
<svg xmlns="http://www.w3.org/2000/svg" xmlns:xlink="http://www.w3.org/1999/xlink" width="600" height="400" viewBox="0 0 2400 1600">
<defs>
  <clipPath id="clip790">
    <rect x="0" y="0" width="2400" height="1600"/>
  </clipPath>
</defs>
<path clip-path="url(#clip790)" d="
M0 1600 L2400 1600 L2400 0 L0 0  Z
  " fill="#ffffff" fill-rule="evenodd" fill-opacity="1"/>
<defs>
  <clipPath id="clip791">
    <rect x="480" y="0" width="1681" height="1600"/>
  </clipPath>
</defs>
<path clip-path="url(#clip790)" d="
M148.334 1486.45 L2352.76 1486.45 L2352.76 47.2441 L148.334 47.2441  Z
  " fill="#ffffff" fill-rule="evenodd" fill-opacity="1"/>
<defs>
  <clipPath id="clip792">
    <rect x="148" y="47" width="2205" height="1440"/>
  </clipPath>
</defs>
<polyline clip-path="url(#clip792)" style="stroke:#000000; stroke-width:2; stroke-opacity:0.1; fill:none" points="
  210.724,1486.45 210.724,47.2441 
  "/>
<polyline clip-path="url(#clip792)" style="stroke:#000000; stroke-width:2; stroke-opacity:0.1; fill:none" points="
  804.907,1486.45 804.907,47.2441 
  "/>
<polyline clip-path="url(#clip792)" style="stroke:#000000; stroke-width:2; stroke-opacity:0.1; fill:none" points="
  1399.09,1486.45 1399.09,47.2441 
  "/>
<polyline clip-path="url(#clip792)" style="stroke:#000000; stroke-width:2; stroke-opacity:0.1; fill:none" points="
  1993.27,1486.45 1993.27,47.2441 
  "/>
<polyline clip-path="url(#clip790)" style="stroke:#000000; stroke-width:4; stroke-opacity:1; fill:none" points="
  148.334,1486.45 2352.76,1486.45 
  "/>
<polyline clip-path="url(#clip790)" style="stroke:#000000; stroke-width:4; stroke-opacity:1; fill:none" points="
  210.724,1486.45 210.724,1469.18 
  "/>
<polyline clip-path="url(#clip790)" style="stroke:#000000; stroke-width:4; stroke-opacity:1; fill:none" points="
  804.907,1486.45 804.907,1469.18 
  "/>
<polyline clip-path="url(#clip790)" style="stroke:#000000; stroke-width:4; stroke-opacity:1; fill:none" points="
  1399.09,1486.45 1399.09,1469.18 
  "/>
<polyline clip-path="url(#clip790)" style="stroke:#000000; stroke-width:4; stroke-opacity:1; fill:none" points="
  1993.27,1486.45 1993.27,1469.18 
  "/>
<path clip-path="url(#clip790)" d="M 0 0 M150.886 1530.29 L180.562 1530.29 L180.562 1534.23 L150.886 1534.23 L150.886 1530.29 Z" fill="#000000" fill-rule="evenodd" fill-opacity="1" /><path clip-path="url(#clip790)" d="M 0 0 M195.631 1515.64 Q192.02 1515.64 190.191 1519.2 Q188.386 1522.75 188.386 1529.87 Q188.386 1536.98 190.191 1540.55 Q192.02 1544.09 195.631 1544.09 Q199.265 1544.09 201.071 1540.55 Q202.9 1536.98 202.9 1529.87 Q202.9 1522.75 201.071 1519.2 Q199.265 1515.64 195.631 1515.64 M195.631 1511.93 Q201.441 1511.93 204.497 1516.54 Q207.576 1521.12 207.576 1529.87 Q207.576 1538.6 204.497 1543.21 Q201.441 1547.79 195.631 1547.79 Q189.821 1547.79 186.742 1543.21 Q183.687 1538.6 183.687 1529.87 Q183.687 1521.12 186.742 1516.54 Q189.821 1511.93 195.631 1511.93 Z" fill="#000000" fill-rule="evenodd" fill-opacity="1" /><path clip-path="url(#clip790)" d="M 0 0 M212.645 1541.24 L217.529 1541.24 L217.529 1547.12 L212.645 1547.12 L212.645 1541.24 Z" fill="#000000" fill-rule="evenodd" fill-opacity="1" /><path clip-path="url(#clip790)" d="M 0 0 M232.599 1515.64 Q228.987 1515.64 227.159 1519.2 Q225.353 1522.75 225.353 1529.87 Q225.353 1536.98 227.159 1540.55 Q228.987 1544.09 232.599 1544.09 Q236.233 1544.09 238.038 1540.55 Q239.867 1536.98 239.867 1529.87 Q239.867 1522.75 238.038 1519.2 Q236.233 1515.64 232.599 1515.64 M232.599 1511.93 Q238.409 1511.93 241.464 1516.54 Q244.543 1521.12 244.543 1529.87 Q244.543 1538.6 241.464 1543.21 Q238.409 1547.79 232.599 1547.79 Q226.788 1547.79 223.71 1543.21 Q220.654 1538.6 220.654 1529.87 Q220.654 1521.12 223.71 1516.54 Q226.788 1511.93 232.599 1511.93 Z" fill="#000000" fill-rule="evenodd" fill-opacity="1" /><path clip-path="url(#clip790)" d="M 0 0 M249.659 1512.56 L268.015 1512.56 L268.015 1516.5 L253.941 1516.5 L253.941 1524.97 Q254.96 1524.62 255.978 1524.46 Q256.997 1524.27 258.015 1524.27 Q263.802 1524.27 267.182 1527.44 Q270.561 1530.62 270.561 1536.03 Q270.561 1541.61 267.089 1544.71 Q263.617 1547.79 257.298 1547.79 Q255.122 1547.79 252.853 1547.42 Q250.608 1547.05 248.2 1546.31 L248.2 1541.61 Q250.284 1542.74 252.506 1543.3 Q254.728 1543.86 257.205 1543.86 Q261.21 1543.86 263.547 1541.75 Q265.885 1539.64 265.885 1536.03 Q265.885 1532.42 263.547 1530.31 Q261.21 1528.21 257.205 1528.21 Q255.33 1528.21 253.455 1528.62 Q251.603 1529.04 249.659 1529.92 L249.659 1512.56 Z" fill="#000000" fill-rule="evenodd" fill-opacity="1" /><path clip-path="url(#clip790)" d="M 0 0 M772.917 1515.64 Q769.306 1515.64 767.477 1519.2 Q765.671 1522.75 765.671 1529.87 Q765.671 1536.98 767.477 1540.55 Q769.306 1544.09 772.917 1544.09 Q776.551 1544.09 778.357 1540.55 Q780.185 1536.98 780.185 1529.87 Q780.185 1522.75 778.357 1519.2 Q776.551 1515.64 772.917 1515.64 M772.917 1511.93 Q778.727 1511.93 781.782 1516.54 Q784.861 1521.12 784.861 1529.87 Q784.861 1538.6 781.782 1543.21 Q778.727 1547.79 772.917 1547.79 Q767.107 1547.79 764.028 1543.21 Q760.972 1538.6 760.972 1529.87 Q760.972 1521.12 764.028 1516.54 Q767.107 1511.93 772.917 1511.93 Z" fill="#000000" fill-rule="evenodd" fill-opacity="1" /><path clip-path="url(#clip790)" d="M 0 0 M789.931 1541.24 L794.815 1541.24 L794.815 1547.12 L789.931 1547.12 L789.931 1541.24 Z" fill="#000000" fill-rule="evenodd" fill-opacity="1" /><path clip-path="url(#clip790)" d="M 0 0 M809.884 1515.64 Q806.273 1515.64 804.444 1519.2 Q802.639 1522.75 802.639 1529.87 Q802.639 1536.98 804.444 1540.55 Q806.273 1544.09 809.884 1544.09 Q813.518 1544.09 815.324 1540.55 Q817.153 1536.98 817.153 1529.87 Q817.153 1522.75 815.324 1519.2 Q813.518 1515.64 809.884 1515.64 M809.884 1511.93 Q815.694 1511.93 818.75 1516.54 Q821.829 1521.12 821.829 1529.87 Q821.829 1538.6 818.75 1543.21 Q815.694 1547.79 809.884 1547.79 Q804.074 1547.79 800.995 1543.21 Q797.94 1538.6 797.94 1529.87 Q797.94 1521.12 800.995 1516.54 Q804.074 1511.93 809.884 1511.93 Z" fill="#000000" fill-rule="evenodd" fill-opacity="1" /><path clip-path="url(#clip790)" d="M 0 0 M836.898 1515.64 Q833.287 1515.64 831.458 1519.2 Q829.653 1522.75 829.653 1529.87 Q829.653 1536.98 831.458 1540.55 Q833.287 1544.09 836.898 1544.09 Q840.532 1544.09 842.338 1540.55 Q844.166 1536.98 844.166 1529.87 Q844.166 1522.75 842.338 1519.2 Q840.532 1515.64 836.898 1515.64 M836.898 1511.93 Q842.708 1511.93 845.764 1516.54 Q848.842 1521.12 848.842 1529.87 Q848.842 1538.6 845.764 1543.21 Q842.708 1547.79 836.898 1547.79 Q831.088 1547.79 828.009 1543.21 Q824.954 1538.6 824.954 1529.87 Q824.954 1521.12 828.009 1516.54 Q831.088 1511.93 836.898 1511.93 Z" fill="#000000" fill-rule="evenodd" fill-opacity="1" /><path clip-path="url(#clip790)" d="M 0 0 M1367.6 1515.64 Q1363.99 1515.64 1362.16 1519.2 Q1360.35 1522.75 1360.35 1529.87 Q1360.35 1536.98 1362.16 1540.55 Q1363.99 1544.09 1367.6 1544.09 Q1371.23 1544.09 1373.04 1540.55 Q1374.87 1536.98 1374.87 1529.87 Q1374.87 1522.75 1373.04 1519.2 Q1371.23 1515.64 1367.6 1515.64 M1367.6 1511.93 Q1373.41 1511.93 1376.46 1516.54 Q1379.54 1521.12 1379.54 1529.87 Q1379.54 1538.6 1376.46 1543.21 Q1373.41 1547.79 1367.6 1547.79 Q1361.79 1547.79 1358.71 1543.21 Q1355.65 1538.6 1355.65 1529.87 Q1355.65 1521.12 1358.71 1516.54 Q1361.79 1511.93 1367.6 1511.93 Z" fill="#000000" fill-rule="evenodd" fill-opacity="1" /><path clip-path="url(#clip790)" d="M 0 0 M1384.61 1541.24 L1389.5 1541.24 L1389.5 1547.12 L1384.61 1547.12 L1384.61 1541.24 Z" fill="#000000" fill-rule="evenodd" fill-opacity="1" /><path clip-path="url(#clip790)" d="M 0 0 M1404.57 1515.64 Q1400.95 1515.64 1399.13 1519.2 Q1397.32 1522.75 1397.32 1529.87 Q1397.32 1536.98 1399.13 1540.55 Q1400.95 1544.09 1404.57 1544.09 Q1408.2 1544.09 1410.01 1540.55 Q1411.83 1536.98 1411.83 1529.87 Q1411.83 1522.75 1410.01 1519.2 Q1408.2 1515.64 1404.57 1515.64 M1404.57 1511.93 Q1410.38 1511.93 1413.43 1516.54 Q1416.51 1521.12 1416.51 1529.87 Q1416.51 1538.6 1413.43 1543.21 Q1410.38 1547.79 1404.57 1547.79 Q1398.76 1547.79 1395.68 1543.21 Q1392.62 1538.6 1392.62 1529.87 Q1392.62 1521.12 1395.68 1516.54 Q1398.76 1511.93 1404.57 1511.93 Z" fill="#000000" fill-rule="evenodd" fill-opacity="1" /><path clip-path="url(#clip790)" d="M 0 0 M1421.63 1512.56 L1439.98 1512.56 L1439.98 1516.5 L1425.91 1516.5 L1425.91 1524.97 Q1426.93 1524.62 1427.95 1524.46 Q1428.96 1524.27 1429.98 1524.27 Q1435.77 1524.27 1439.15 1527.44 Q1442.53 1530.62 1442.53 1536.03 Q1442.53 1541.61 1439.06 1544.71 Q1435.58 1547.79 1429.26 1547.79 Q1427.09 1547.79 1424.82 1547.42 Q1422.57 1547.05 1420.17 1546.31 L1420.17 1541.61 Q1422.25 1542.74 1424.47 1543.3 Q1426.7 1543.86 1429.17 1543.86 Q1433.18 1543.86 1435.51 1541.75 Q1437.85 1539.64 1437.85 1536.03 Q1437.85 1532.42 1435.51 1530.31 Q1433.18 1528.21 1429.17 1528.21 Q1427.3 1528.21 1425.42 1528.62 Q1423.57 1529.04 1421.63 1529.92 L1421.63 1512.56 Z" fill="#000000" fill-rule="evenodd" fill-opacity="1" /><path clip-path="url(#clip790)" d="M 0 0 M1961.9 1515.64 Q1958.29 1515.64 1956.46 1519.2 Q1954.65 1522.75 1954.65 1529.87 Q1954.65 1536.98 1956.46 1540.55 Q1958.29 1544.09 1961.9 1544.09 Q1965.53 1544.09 1967.34 1540.55 Q1969.17 1536.98 1969.17 1529.87 Q1969.17 1522.75 1967.34 1519.2 Q1965.53 1515.64 1961.9 1515.64 M1961.9 1511.93 Q1967.71 1511.93 1970.76 1516.54 Q1973.84 1521.12 1973.84 1529.87 Q1973.84 1538.6 1970.76 1543.21 Q1967.71 1547.79 1961.9 1547.79 Q1956.09 1547.79 1953.01 1543.21 Q1949.95 1538.6 1949.95 1529.87 Q1949.95 1521.12 1953.01 1516.54 Q1956.09 1511.93 1961.9 1511.93 Z" fill="#000000" fill-rule="evenodd" fill-opacity="1" /><path clip-path="url(#clip790)" d="M 0 0 M1978.91 1541.24 L1983.8 1541.24 L1983.8 1547.12 L1978.91 1547.12 L1978.91 1541.24 Z" fill="#000000" fill-rule="evenodd" fill-opacity="1" /><path clip-path="url(#clip790)" d="M 0 0 M1989.68 1543.18 L1997.31 1543.18 L1997.31 1516.82 L1989 1518.49 L1989 1514.23 L1997.27 1512.56 L2001.94 1512.56 L2001.94 1543.18 L2009.58 1543.18 L2009.58 1547.12 L1989.68 1547.12 L1989.68 1543.18 Z" fill="#000000" fill-rule="evenodd" fill-opacity="1" /><path clip-path="url(#clip790)" d="M 0 0 M2024.65 1515.64 Q2021.04 1515.64 2019.21 1519.2 Q2017.41 1522.75 2017.41 1529.87 Q2017.41 1536.98 2019.21 1540.55 Q2021.04 1544.09 2024.65 1544.09 Q2028.29 1544.09 2030.09 1540.55 Q2031.92 1536.98 2031.92 1529.87 Q2031.92 1522.75 2030.09 1519.2 Q2028.29 1515.64 2024.65 1515.64 M2024.65 1511.93 Q2030.46 1511.93 2033.52 1516.54 Q2036.6 1521.12 2036.6 1529.87 Q2036.6 1538.6 2033.52 1543.21 Q2030.46 1547.79 2024.65 1547.79 Q2018.84 1547.79 2015.76 1543.21 Q2012.71 1538.6 2012.71 1529.87 Q2012.71 1521.12 2015.76 1516.54 Q2018.84 1511.93 2024.65 1511.93 Z" fill="#000000" fill-rule="evenodd" fill-opacity="1" /><polyline clip-path="url(#clip792)" style="stroke:#000000; stroke-width:2; stroke-opacity:0.1; fill:none" points="
  148.334,1407.63 2352.76,1407.63 
  "/>
<polyline clip-path="url(#clip792)" style="stroke:#000000; stroke-width:2; stroke-opacity:0.1; fill:none" points="
  148.334,1187.69 2352.76,1187.69 
  "/>
<polyline clip-path="url(#clip792)" style="stroke:#000000; stroke-width:2; stroke-opacity:0.1; fill:none" points="
  148.334,967.745 2352.76,967.745 
  "/>
<polyline clip-path="url(#clip792)" style="stroke:#000000; stroke-width:2; stroke-opacity:0.1; fill:none" points="
  148.334,747.803 2352.76,747.803 
  "/>
<polyline clip-path="url(#clip792)" style="stroke:#000000; stroke-width:2; stroke-opacity:0.1; fill:none" points="
  148.334,527.861 2352.76,527.861 
  "/>
<polyline clip-path="url(#clip792)" style="stroke:#000000; stroke-width:2; stroke-opacity:0.1; fill:none" points="
  148.334,307.918 2352.76,307.918 
  "/>
<polyline clip-path="url(#clip792)" style="stroke:#000000; stroke-width:2; stroke-opacity:0.1; fill:none" points="
  148.334,87.9763 2352.76,87.9763 
  "/>
<polyline clip-path="url(#clip790)" style="stroke:#000000; stroke-width:4; stroke-opacity:1; fill:none" points="
  148.334,1486.45 148.334,47.2441 
  "/>
<polyline clip-path="url(#clip790)" style="stroke:#000000; stroke-width:4; stroke-opacity:1; fill:none" points="
  148.334,1407.63 174.787,1407.63 
  "/>
<polyline clip-path="url(#clip790)" style="stroke:#000000; stroke-width:4; stroke-opacity:1; fill:none" points="
  148.334,1187.69 174.787,1187.69 
  "/>
<polyline clip-path="url(#clip790)" style="stroke:#000000; stroke-width:4; stroke-opacity:1; fill:none" points="
  148.334,967.745 174.787,967.745 
  "/>
<polyline clip-path="url(#clip790)" style="stroke:#000000; stroke-width:4; stroke-opacity:1; fill:none" points="
  148.334,747.803 174.787,747.803 
  "/>
<polyline clip-path="url(#clip790)" style="stroke:#000000; stroke-width:4; stroke-opacity:1; fill:none" points="
  148.334,527.861 174.787,527.861 
  "/>
<polyline clip-path="url(#clip790)" style="stroke:#000000; stroke-width:4; stroke-opacity:1; fill:none" points="
  148.334,307.918 174.787,307.918 
  "/>
<polyline clip-path="url(#clip790)" style="stroke:#000000; stroke-width:4; stroke-opacity:1; fill:none" points="
  148.334,87.9763 174.787,87.9763 
  "/>
<path clip-path="url(#clip790)" d="M 0 0 M62.9365 1393.43 Q59.3254 1393.43 57.4967 1396.99 Q55.6912 1400.53 55.6912 1407.66 Q55.6912 1414.77 57.4967 1418.34 Q59.3254 1421.88 62.9365 1421.88 Q66.5707 1421.88 68.3763 1418.34 Q70.205 1414.77 70.205 1407.66 Q70.205 1400.53 68.3763 1396.99 Q66.5707 1393.43 62.9365 1393.43 M62.9365 1389.72 Q68.7467 1389.72 71.8022 1394.33 Q74.8809 1398.91 74.8809 1407.66 Q74.8809 1416.39 71.8022 1421 Q68.7467 1425.58 62.9365 1425.58 Q57.1264 1425.58 54.0477 1421 Q50.9921 1416.39 50.9921 1407.66 Q50.9921 1398.91 54.0477 1394.33 Q57.1264 1389.72 62.9365 1389.72 Z" fill="#000000" fill-rule="evenodd" fill-opacity="1" /><path clip-path="url(#clip790)" d="M 0 0 M79.9503 1419.03 L84.8345 1419.03 L84.8345 1424.91 L79.9503 1424.91 L79.9503 1419.03 Z" fill="#000000" fill-rule="evenodd" fill-opacity="1" /><path clip-path="url(#clip790)" d="M 0 0 M102.751 1394.42 L90.9456 1412.87 L102.751 1412.87 L102.751 1394.42 M101.524 1390.35 L107.404 1390.35 L107.404 1412.87 L112.334 1412.87 L112.334 1416.76 L107.404 1416.76 L107.404 1424.91 L102.751 1424.91 L102.751 1416.76 L87.1493 1416.76 L87.1493 1412.25 L101.524 1390.35 Z" fill="#000000" fill-rule="evenodd" fill-opacity="1" /><path clip-path="url(#clip790)" d="M 0 0 M64.418 1173.49 Q60.8069 1173.49 58.9782 1177.05 Q57.1726 1180.59 57.1726 1187.72 Q57.1726 1194.83 58.9782 1198.39 Q60.8069 1201.93 64.418 1201.93 Q68.0522 1201.93 69.8578 1198.39 Q71.6865 1194.83 71.6865 1187.72 Q71.6865 1180.59 69.8578 1177.05 Q68.0522 1173.49 64.418 1173.49 M64.418 1169.78 Q70.2281 1169.78 73.2837 1174.39 Q76.3624 1178.97 76.3624 1187.72 Q76.3624 1196.45 73.2837 1201.06 Q70.2281 1205.64 64.418 1205.64 Q58.6078 1205.64 55.5291 1201.06 Q52.4736 1196.45 52.4736 1187.72 Q52.4736 1178.97 55.5291 1174.39 Q58.6078 1169.78 64.418 1169.78 Z" fill="#000000" fill-rule="evenodd" fill-opacity="1" /><path clip-path="url(#clip790)" d="M 0 0 M81.4318 1199.09 L86.316 1199.09 L86.316 1204.97 L81.4318 1204.97 L81.4318 1199.09 Z" fill="#000000" fill-rule="evenodd" fill-opacity="1" /><path clip-path="url(#clip790)" d="M 0 0 M91.4317 1170.41 L109.788 1170.41 L109.788 1174.34 L95.7141 1174.34 L95.7141 1182.81 Q96.7326 1182.47 97.7511 1182.31 Q98.7696 1182.12 99.7882 1182.12 Q105.575 1182.12 108.955 1185.29 Q112.334 1188.46 112.334 1193.88 Q112.334 1199.46 108.862 1202.56 Q105.39 1205.64 99.0706 1205.64 Q96.8947 1205.64 94.6262 1205.27 Q92.3808 1204.9 89.9734 1204.16 L89.9734 1199.46 Q92.0567 1200.59 94.2789 1201.15 Q96.5011 1201.7 98.978 1201.7 Q102.983 1201.7 105.321 1199.6 Q107.658 1197.49 107.658 1193.88 Q107.658 1190.27 105.321 1188.16 Q102.983 1186.06 98.978 1186.06 Q97.103 1186.06 95.228 1186.47 Q93.3762 1186.89 91.4317 1187.77 L91.4317 1170.41 Z" fill="#000000" fill-rule="evenodd" fill-opacity="1" /><path clip-path="url(#clip790)" d="M 0 0 M63.2606 953.544 Q59.6495 953.544 57.8208 957.108 Q56.0152 960.65 56.0152 967.78 Q56.0152 974.886 57.8208 978.451 Q59.6495 981.993 63.2606 981.993 Q66.8948 981.993 68.7004 978.451 Q70.5291 974.886 70.5291 967.78 Q70.5291 960.65 68.7004 957.108 Q66.8948 953.544 63.2606 953.544 M63.2606 949.84 Q69.0707 949.84 72.1263 954.446 Q75.205 959.03 75.205 967.78 Q75.205 976.506 72.1263 981.113 Q69.0707 985.696 63.2606 985.696 Q57.4504 985.696 54.3717 981.113 Q51.3162 976.506 51.3162 967.78 Q51.3162 959.03 54.3717 954.446 Q57.4504 949.84 63.2606 949.84 Z" fill="#000000" fill-rule="evenodd" fill-opacity="1" /><path clip-path="url(#clip790)" d="M 0 0 M80.2744 979.145 L85.1586 979.145 L85.1586 985.025 L80.2744 985.025 L80.2744 979.145 Z" fill="#000000" fill-rule="evenodd" fill-opacity="1" /><path clip-path="url(#clip790)" d="M 0 0 M100.807 965.882 Q97.6585 965.882 95.8067 968.034 Q93.978 970.187 93.978 973.937 Q93.978 977.664 95.8067 979.84 Q97.6585 981.993 100.807 981.993 Q103.955 981.993 105.783 979.84 Q107.635 977.664 107.635 973.937 Q107.635 970.187 105.783 968.034 Q103.955 965.882 100.807 965.882 M110.089 951.229 L110.089 955.488 Q108.33 954.655 106.524 954.215 Q104.742 953.775 102.983 953.775 Q98.353 953.775 95.8993 956.9 Q93.4688 960.025 93.1215 966.344 Q94.4873 964.331 96.5474 963.266 Q98.6076 962.178 101.084 962.178 Q106.293 962.178 109.302 965.349 Q112.334 968.497 112.334 973.937 Q112.334 979.261 109.186 982.479 Q106.038 985.696 100.807 985.696 Q94.8113 985.696 91.6401 981.113 Q88.4688 976.506 88.4688 967.78 Q88.4688 959.585 92.3576 954.724 Q96.2465 949.84 102.797 949.84 Q104.557 949.84 106.339 950.187 Q108.145 950.534 110.089 951.229 Z" fill="#000000" fill-rule="evenodd" fill-opacity="1" /><path clip-path="url(#clip790)" d="M 0 0 M64.3254 733.601 Q60.7143 733.601 58.8856 737.166 Q57.0801 740.708 57.0801 747.837 Q57.0801 754.944 58.8856 758.509 Q60.7143 762.05 64.3254 762.05 Q67.9596 762.05 69.7652 758.509 Q71.5939 754.944 71.5939 747.837 Q71.5939 740.708 69.7652 737.166 Q67.9596 733.601 64.3254 733.601 M64.3254 729.898 Q70.1355 729.898 73.1911 734.504 Q76.2698 739.088 76.2698 747.837 Q76.2698 756.564 73.1911 761.171 Q70.1355 765.754 64.3254 765.754 Q58.5152 765.754 55.4365 761.171 Q52.381 756.564 52.381 747.837 Q52.381 739.088 55.4365 734.504 Q58.5152 729.898 64.3254 729.898 Z" fill="#000000" fill-rule="evenodd" fill-opacity="1" /><path clip-path="url(#clip790)" d="M 0 0 M81.3392 759.203 L86.2234 759.203 L86.2234 765.083 L81.3392 765.083 L81.3392 759.203 Z" fill="#000000" fill-rule="evenodd" fill-opacity="1" /><path clip-path="url(#clip790)" d="M 0 0 M90.1123 730.523 L112.334 730.523 L112.334 732.513 L99.7882 765.083 L94.9039 765.083 L106.709 734.458 L90.1123 734.458 L90.1123 730.523 Z" fill="#000000" fill-rule="evenodd" fill-opacity="1" /><path clip-path="url(#clip790)" d="M 0 0 M63.5152 513.659 Q59.9041 513.659 58.0754 517.224 Q56.2699 520.766 56.2699 527.895 Q56.2699 535.002 58.0754 538.567 Q59.9041 542.108 63.5152 542.108 Q67.1494 542.108 68.955 538.567 Q70.7837 535.002 70.7837 527.895 Q70.7837 520.766 68.955 517.224 Q67.1494 513.659 63.5152 513.659 M63.5152 509.956 Q69.3254 509.956 72.3809 514.562 Q75.4596 519.145 75.4596 527.895 Q75.4596 536.622 72.3809 541.229 Q69.3254 545.812 63.5152 545.812 Q57.7051 545.812 54.6264 541.229 Q51.5708 536.622 51.5708 527.895 Q51.5708 519.145 54.6264 514.562 Q57.7051 509.956 63.5152 509.956 Z" fill="#000000" fill-rule="evenodd" fill-opacity="1" /><path clip-path="url(#clip790)" d="M 0 0 M80.529 539.261 L85.4132 539.261 L85.4132 545.141 L80.529 545.141 L80.529 539.261 Z" fill="#000000" fill-rule="evenodd" fill-opacity="1" /><path clip-path="url(#clip790)" d="M 0 0 M100.483 528.729 Q97.1493 528.729 95.228 530.511 Q93.3299 532.293 93.3299 535.418 Q93.3299 538.543 95.228 540.326 Q97.1493 542.108 100.483 542.108 Q103.816 542.108 105.737 540.326 Q107.658 538.52 107.658 535.418 Q107.658 532.293 105.737 530.511 Q103.839 528.729 100.483 528.729 M95.8067 526.738 Q92.7975 525.997 91.1077 523.937 Q89.441 521.877 89.441 518.914 Q89.441 514.77 92.3808 512.363 Q95.3437 509.956 100.483 509.956 Q105.645 509.956 108.584 512.363 Q111.524 514.77 111.524 518.914 Q111.524 521.877 109.834 523.937 Q108.168 525.997 105.182 526.738 Q108.561 527.525 110.436 529.817 Q112.334 532.108 112.334 535.418 Q112.334 540.442 109.256 543.127 Q106.2 545.812 100.483 545.812 Q94.765 545.812 91.6864 543.127 Q88.6308 540.442 88.6308 535.418 Q88.6308 532.108 90.529 529.817 Q92.4271 527.525 95.8067 526.738 M94.0937 519.354 Q94.0937 522.039 95.7604 523.543 Q97.4502 525.048 100.483 525.048 Q103.492 525.048 105.182 523.543 Q106.895 522.039 106.895 519.354 Q106.895 516.669 105.182 515.164 Q103.492 513.659 100.483 513.659 Q97.4502 513.659 95.7604 515.164 Q94.0937 516.669 94.0937 519.354 Z" fill="#000000" fill-rule="evenodd" fill-opacity="1" /><path clip-path="url(#clip790)" d="M 0 0 M63.6078 293.717 Q59.9967 293.717 58.168 297.282 Q56.3625 300.824 56.3625 307.953 Q56.3625 315.06 58.168 318.624 Q59.9967 322.166 63.6078 322.166 Q67.242 322.166 69.0476 318.624 Q70.8763 315.06 70.8763 307.953 Q70.8763 300.824 69.0476 297.282 Q67.242 293.717 63.6078 293.717 M63.6078 290.013 Q69.418 290.013 72.4735 294.62 Q75.5522 299.203 75.5522 307.953 Q75.5522 316.68 72.4735 321.286 Q69.418 325.87 63.6078 325.87 Q57.7976 325.87 54.719 321.286 Q51.6634 316.68 51.6634 307.953 Q51.6634 299.203 54.719 294.62 Q57.7976 290.013 63.6078 290.013 Z" fill="#000000" fill-rule="evenodd" fill-opacity="1" /><path clip-path="url(#clip790)" d="M 0 0 M80.6216 319.319 L85.5058 319.319 L85.5058 325.198 L80.6216 325.198 L80.6216 319.319 Z" fill="#000000" fill-rule="evenodd" fill-opacity="1" /><path clip-path="url(#clip790)" d="M 0 0 M90.7141 324.481 L90.7141 320.222 Q92.4734 321.055 94.2789 321.495 Q96.0845 321.935 97.8206 321.935 Q102.45 321.935 104.881 318.833 Q107.334 315.708 107.682 309.365 Q106.339 311.356 104.279 312.421 Q102.219 313.486 99.7187 313.486 Q94.5336 313.486 91.5012 310.361 Q88.4919 307.212 88.4919 301.773 Q88.4919 296.449 91.6401 293.231 Q94.7882 290.013 100.02 290.013 Q106.015 290.013 109.163 294.62 Q112.334 299.203 112.334 307.953 Q112.334 316.124 108.446 321.009 Q104.58 325.87 98.0289 325.87 Q96.2697 325.87 94.4641 325.523 Q92.6586 325.175 90.7141 324.481 M100.02 309.828 Q103.168 309.828 104.996 307.675 Q106.848 305.523 106.848 301.773 Q106.848 298.046 104.996 295.893 Q103.168 293.717 100.02 293.717 Q96.8715 293.717 95.0197 295.893 Q93.191 298.046 93.191 301.773 Q93.191 305.523 95.0197 307.675 Q96.8715 309.828 100.02 309.828 Z" fill="#000000" fill-rule="evenodd" fill-opacity="1" /><path clip-path="url(#clip790)" d="M 0 0 M55.4597 101.321 L63.0985 101.321 L63.0985 74.9555 L54.7884 76.6222 L54.7884 72.3629 L63.0522 70.6963 L67.7281 70.6963 L67.7281 101.321 L75.367 101.321 L75.367 105.256 L55.4597 105.256 L55.4597 101.321 Z" fill="#000000" fill-rule="evenodd" fill-opacity="1" /><path clip-path="url(#clip790)" d="M 0 0 M80.4364 99.3767 L85.3206 99.3767 L85.3206 105.256 L80.4364 105.256 L80.4364 99.3767 Z" fill="#000000" fill-rule="evenodd" fill-opacity="1" /><path clip-path="url(#clip790)" d="M 0 0 M100.39 73.775 Q96.7789 73.775 94.9502 77.3398 Q93.1447 80.8814 93.1447 88.011 Q93.1447 95.1174 94.9502 98.6822 Q96.7789 102.224 100.39 102.224 Q104.024 102.224 105.83 98.6822 Q107.658 95.1174 107.658 88.011 Q107.658 80.8814 105.83 77.3398 Q104.024 73.775 100.39 73.775 M100.39 70.0713 Q106.2 70.0713 109.256 74.6777 Q112.334 79.261 112.334 88.011 Q112.334 96.7378 109.256 101.344 Q106.2 105.928 100.39 105.928 Q94.5799 105.928 91.5012 101.344 Q88.4456 96.7378 88.4456 88.011 Q88.4456 79.261 91.5012 74.6777 Q94.5799 70.0713 100.39 70.0713 Z" fill="#000000" fill-rule="evenodd" fill-opacity="1" /><polyline clip-path="url(#clip792)" style="stroke:#009af9; stroke-width:4; stroke-opacity:1; fill:none" points="
  210.724,209.517 804.907,87.9763 1399.09,327.699 1993.27,994.61 
  "/>
<polyline clip-path="url(#clip792)" style="stroke:#e26f46; stroke-width:4; stroke-opacity:1; fill:none" points="
  507.816,148.746 1102,148.746 1696.18,614.945 2290.37,1445.72 
  "/>
<path clip-path="url(#clip790)" d="
M1627.86 276.658 L2279.28 276.658 L2279.28 95.2176 L1627.86 95.2176  Z
  " fill="#ffffff" fill-rule="evenodd" fill-opacity="1"/>
<polyline clip-path="url(#clip790)" style="stroke:#000000; stroke-width:4; stroke-opacity:1; fill:none" points="
  1627.86,276.658 2279.28,276.658 2279.28,95.2176 1627.86,95.2176 1627.86,276.658 
  "/>
<polyline clip-path="url(#clip790)" style="stroke:#009af9; stroke-width:4; stroke-opacity:1; fill:none" points="
  1652.35,155.698 1799.32,155.698 
  "/>
<path clip-path="url(#clip790)" d="M 0 0 M1840.31 136.959 L1840.31 140.501 L1836.24 140.501 Q1833.95 140.501 1833.04 141.427 Q1832.17 142.353 1832.17 144.76 L1832.17 147.052 L1839.18 147.052 L1839.18 150.362 L1832.17 150.362 L1832.17 172.978 L1827.88 172.978 L1827.88 150.362 L1823.81 150.362 L1823.81 147.052 L1827.88 147.052 L1827.88 145.246 Q1827.88 140.918 1829.9 138.95 Q1831.91 136.959 1836.29 136.959 L1840.31 136.959 Z" fill="#000000" fill-rule="evenodd" fill-opacity="1" /><path clip-path="url(#clip790)" d="M 0 0 M1856.56 159.945 Q1851.4 159.945 1849.41 161.126 Q1847.42 162.306 1847.42 165.154 Q1847.42 167.422 1848.9 168.765 Q1850.41 170.084 1852.98 170.084 Q1856.52 170.084 1858.65 167.584 Q1860.8 165.061 1860.8 160.894 L1860.8 159.945 L1856.56 159.945 M1865.06 158.186 L1865.06 172.978 L1860.8 172.978 L1860.8 169.042 Q1859.34 171.403 1857.17 172.538 Q1854.99 173.649 1851.84 173.649 Q1847.86 173.649 1845.5 171.427 Q1843.16 169.181 1843.16 165.431 Q1843.16 161.056 1846.08 158.834 Q1849.02 156.612 1854.83 156.612 L1860.8 156.612 L1860.8 156.195 Q1860.8 153.255 1858.85 151.658 Q1856.93 150.038 1853.44 150.038 Q1851.22 150.038 1849.11 150.57 Q1847 151.103 1845.06 152.167 L1845.06 148.232 Q1847.4 147.33 1849.6 146.89 Q1851.79 146.427 1853.88 146.427 Q1859.5 146.427 1862.28 149.343 Q1865.06 152.26 1865.06 158.186 Z" fill="#000000" fill-rule="evenodd" fill-opacity="1" /><path clip-path="url(#clip790)" d="M 0 0 M1888.18 148.047 L1888.18 152.029 Q1886.38 151.033 1884.55 150.547 Q1882.74 150.038 1880.89 150.038 Q1876.75 150.038 1874.46 152.677 Q1872.16 155.292 1872.16 160.038 Q1872.16 164.783 1874.46 167.422 Q1876.75 170.038 1880.89 170.038 Q1882.74 170.038 1884.55 169.552 Q1886.38 169.042 1888.18 168.047 L1888.18 171.982 Q1886.4 172.816 1884.48 173.232 Q1882.58 173.649 1880.43 173.649 Q1874.57 173.649 1871.12 169.968 Q1867.67 166.288 1867.67 160.038 Q1867.67 153.695 1871.15 150.061 Q1874.64 146.427 1880.71 146.427 Q1882.67 146.427 1884.55 146.843 Q1886.42 147.237 1888.18 148.047 Z" fill="#000000" fill-rule="evenodd" fill-opacity="1" /><path clip-path="url(#clip790)" d="M 0 0 M1914.83 158.95 L1914.83 161.033 L1895.24 161.033 Q1895.52 165.431 1897.88 167.746 Q1900.27 170.038 1904.5 170.038 Q1906.96 170.038 1909.25 169.436 Q1911.56 168.834 1913.83 167.63 L1913.83 171.658 Q1911.54 172.63 1909.13 173.14 Q1906.72 173.649 1904.25 173.649 Q1898.04 173.649 1894.41 170.038 Q1890.8 166.427 1890.8 160.269 Q1890.8 153.904 1894.23 150.177 Q1897.67 146.427 1903.51 146.427 Q1908.74 146.427 1911.77 149.806 Q1914.83 153.163 1914.83 158.95 M1910.57 157.7 Q1910.52 154.205 1908.6 152.121 Q1906.7 150.038 1903.55 150.038 Q1899.99 150.038 1897.84 152.052 Q1895.71 154.066 1895.38 157.723 L1910.57 157.7 Z" fill="#000000" fill-rule="evenodd" fill-opacity="1" /><path clip-path="url(#clip790)" d="M 0 0 M1944.6 137.006 Q1941.49 142.33 1939.99 147.538 Q1938.48 152.746 1938.48 158.093 Q1938.48 163.441 1939.99 168.695 Q1941.52 173.927 1944.6 179.228 L1940.89 179.228 Q1937.42 173.788 1935.68 168.533 Q1933.97 163.279 1933.97 158.093 Q1933.97 152.931 1935.68 147.7 Q1937.4 142.468 1940.89 137.006 L1944.6 137.006 Z" fill="#000000" fill-rule="evenodd" fill-opacity="1" /><path clip-path="url(#clip790)" d="M 0 0 M1971.24 158.95 L1971.24 161.033 L1951.66 161.033 Q1951.93 165.431 1954.29 167.746 Q1956.68 170.038 1960.91 170.038 Q1963.37 170.038 1965.66 169.436 Q1967.97 168.834 1970.24 167.63 L1970.24 171.658 Q1967.95 172.63 1965.54 173.14 Q1963.14 173.649 1960.66 173.649 Q1954.46 173.649 1950.82 170.038 Q1947.21 166.427 1947.21 160.269 Q1947.21 153.904 1950.64 150.177 Q1954.09 146.427 1959.92 146.427 Q1965.15 146.427 1968.18 149.806 Q1971.24 153.163 1971.24 158.95 M1966.98 157.7 Q1966.93 154.205 1965.01 152.121 Q1963.11 150.038 1959.97 150.038 Q1956.4 150.038 1954.25 152.052 Q1952.12 154.066 1951.79 157.723 L1966.98 157.7 Z" fill="#000000" fill-rule="evenodd" fill-opacity="1" /><path clip-path="url(#clip790)" d="M 0 0 M1996.42 147.052 L1987.05 159.667 L1996.91 172.978 L1991.89 172.978 L1984.34 162.792 L1976.79 172.978 L1971.77 172.978 L1981.84 159.413 L1972.63 147.052 L1977.65 147.052 L1984.53 156.288 L1991.4 147.052 L1996.42 147.052 Z" fill="#000000" fill-rule="evenodd" fill-opacity="1" /><path clip-path="url(#clip790)" d="M 0 0 M2005.59 139.691 L2005.59 147.052 L2014.36 147.052 L2014.36 150.362 L2005.59 150.362 L2005.59 164.436 Q2005.59 167.607 2006.45 168.51 Q2007.33 169.413 2009.99 169.413 L2014.36 169.413 L2014.36 172.978 L2009.99 172.978 Q2005.06 172.978 2003.18 171.149 Q2001.31 169.297 2001.31 164.436 L2001.31 150.362 L1998.18 150.362 L1998.18 147.052 L2001.31 147.052 L2001.31 139.691 L2005.59 139.691 Z" fill="#000000" fill-rule="evenodd" fill-opacity="1" /><path clip-path="url(#clip790)" d="M 0 0 M2033.85 151.033 Q2033.14 150.617 2032.28 150.431 Q2031.45 150.223 2030.43 150.223 Q2026.82 150.223 2024.87 152.584 Q2022.95 154.922 2022.95 159.32 L2022.95 172.978 L2018.67 172.978 L2018.67 147.052 L2022.95 147.052 L2022.95 151.08 Q2024.29 148.718 2026.45 147.584 Q2028.6 146.427 2031.68 146.427 Q2032.12 146.427 2032.65 146.496 Q2033.18 146.543 2033.83 146.658 L2033.85 151.033 Z" fill="#000000" fill-rule="evenodd" fill-opacity="1" /><path clip-path="url(#clip790)" d="M 0 0 M2050.1 159.945 Q2044.94 159.945 2042.95 161.126 Q2040.96 162.306 2040.96 165.154 Q2040.96 167.422 2042.44 168.765 Q2043.95 170.084 2046.52 170.084 Q2050.06 170.084 2052.19 167.584 Q2054.34 165.061 2054.34 160.894 L2054.34 159.945 L2050.1 159.945 M2058.6 158.186 L2058.6 172.978 L2054.34 172.978 L2054.34 169.042 Q2052.88 171.403 2050.71 172.538 Q2048.53 173.649 2045.38 173.649 Q2041.4 173.649 2039.04 171.427 Q2036.7 169.181 2036.7 165.431 Q2036.7 161.056 2039.62 158.834 Q2042.56 156.612 2048.37 156.612 L2054.34 156.612 L2054.34 156.195 Q2054.34 153.255 2052.4 151.658 Q2050.47 150.038 2046.98 150.038 Q2044.76 150.038 2042.65 150.57 Q2040.54 151.103 2038.6 152.167 L2038.6 148.232 Q2040.94 147.33 2043.14 146.89 Q2045.34 146.427 2047.42 146.427 Q2053.04 146.427 2055.82 149.343 Q2058.6 152.26 2058.6 158.186 Z" fill="#000000" fill-rule="evenodd" fill-opacity="1" /><path clip-path="url(#clip790)" d="M 0 0 M2067.19 169.089 L2067.19 182.839 L2062.9 182.839 L2062.9 147.052 L2067.19 147.052 L2067.19 150.987 Q2068.53 148.672 2070.57 147.561 Q2072.63 146.427 2075.47 146.427 Q2080.2 146.427 2083.14 150.177 Q2086.1 153.927 2086.1 160.038 Q2086.1 166.149 2083.14 169.899 Q2080.2 173.649 2075.47 173.649 Q2072.63 173.649 2070.57 172.538 Q2068.53 171.403 2067.19 169.089 M2081.68 160.038 Q2081.68 155.339 2079.73 152.677 Q2077.81 149.992 2074.43 149.992 Q2071.05 149.992 2069.11 152.677 Q2067.19 155.339 2067.19 160.038 Q2067.19 164.737 2069.11 167.422 Q2071.05 170.084 2074.43 170.084 Q2077.81 170.084 2079.73 167.422 Q2081.68 164.737 2081.68 160.038 Z" fill="#000000" fill-rule="evenodd" fill-opacity="1" /><path clip-path="url(#clip790)" d="M 0 0 M2100.61 150.038 Q2097.19 150.038 2095.2 152.723 Q2093.21 155.385 2093.21 160.038 Q2093.21 164.691 2095.17 167.376 Q2097.16 170.038 2100.61 170.038 Q2104.02 170.038 2106.01 167.353 Q2108 164.667 2108 160.038 Q2108 155.431 2106.01 152.746 Q2104.02 150.038 2100.61 150.038 M2100.61 146.427 Q2106.17 146.427 2109.34 150.038 Q2112.51 153.649 2112.51 160.038 Q2112.51 166.404 2109.34 170.038 Q2106.17 173.649 2100.61 173.649 Q2095.03 173.649 2091.86 170.038 Q2088.71 166.404 2088.71 160.038 Q2088.71 153.649 2091.86 150.038 Q2095.03 146.427 2100.61 146.427 Z" fill="#000000" fill-rule="evenodd" fill-opacity="1" /><path clip-path="url(#clip790)" d="M 0 0 M2116.98 136.959 L2121.24 136.959 L2121.24 172.978 L2116.98 172.978 L2116.98 136.959 Z" fill="#000000" fill-rule="evenodd" fill-opacity="1" /><path clip-path="url(#clip790)" d="M 0 0 M2137.49 159.945 Q2132.33 159.945 2130.33 161.126 Q2128.34 162.306 2128.34 165.154 Q2128.34 167.422 2129.83 168.765 Q2131.33 170.084 2133.9 170.084 Q2137.44 170.084 2139.57 167.584 Q2141.72 165.061 2141.72 160.894 L2141.72 159.945 L2137.49 159.945 M2145.98 158.186 L2145.98 172.978 L2141.72 172.978 L2141.72 169.042 Q2140.27 171.403 2138.09 172.538 Q2135.91 173.649 2132.77 173.649 Q2128.78 173.649 2126.42 171.427 Q2124.08 169.181 2124.08 165.431 Q2124.08 161.056 2127 158.834 Q2129.94 156.612 2135.75 156.612 L2141.72 156.612 L2141.72 156.195 Q2141.72 153.255 2139.78 151.658 Q2137.86 150.038 2134.36 150.038 Q2132.14 150.038 2130.03 150.57 Q2127.93 151.103 2125.98 152.167 L2125.98 148.232 Q2128.32 147.33 2130.52 146.89 Q2132.72 146.427 2134.8 146.427 Q2140.43 146.427 2143.21 149.343 Q2145.98 152.26 2145.98 158.186 Z" fill="#000000" fill-rule="evenodd" fill-opacity="1" /><path clip-path="url(#clip790)" d="M 0 0 M2154.66 139.691 L2154.66 147.052 L2163.44 147.052 L2163.44 150.362 L2154.66 150.362 L2154.66 164.436 Q2154.66 167.607 2155.52 168.51 Q2156.4 169.413 2159.06 169.413 L2163.44 169.413 L2163.44 172.978 L2159.06 172.978 Q2154.13 172.978 2152.26 171.149 Q2150.38 169.297 2150.38 164.436 L2150.38 150.362 L2147.26 150.362 L2147.26 147.052 L2150.38 147.052 L2150.38 139.691 L2154.66 139.691 Z" fill="#000000" fill-rule="evenodd" fill-opacity="1" /><path clip-path="url(#clip790)" d="M 0 0 M2190.08 158.95 L2190.08 161.033 L2170.5 161.033 Q2170.77 165.431 2173.14 167.746 Q2175.52 170.038 2179.76 170.038 Q2182.21 170.038 2184.5 169.436 Q2186.82 168.834 2189.08 167.63 L2189.08 171.658 Q2186.79 172.63 2184.39 173.14 Q2181.98 173.649 2179.5 173.649 Q2173.3 173.649 2169.66 170.038 Q2166.05 166.427 2166.05 160.269 Q2166.05 153.904 2169.48 150.177 Q2172.93 146.427 2178.76 146.427 Q2183.99 146.427 2187.02 149.806 Q2190.08 153.163 2190.08 158.95 M2185.82 157.7 Q2185.77 154.205 2183.85 152.121 Q2181.95 150.038 2178.81 150.038 Q2175.24 150.038 2173.09 152.052 Q2170.96 154.066 2170.64 157.723 L2185.82 157.7 Z" fill="#000000" fill-rule="evenodd" fill-opacity="1" /><path clip-path="url(#clip790)" d="M 0 0 M2211.61 150.987 L2211.61 136.959 L2215.87 136.959 L2215.87 172.978 L2211.61 172.978 L2211.61 169.089 Q2210.27 171.403 2208.2 172.538 Q2206.17 173.649 2203.3 173.649 Q2198.6 173.649 2195.64 169.899 Q2192.7 166.149 2192.7 160.038 Q2192.7 153.927 2195.64 150.177 Q2198.6 146.427 2203.3 146.427 Q2206.17 146.427 2208.2 147.561 Q2210.27 148.672 2211.61 150.987 M2197.09 160.038 Q2197.09 164.737 2199.02 167.422 Q2200.96 170.084 2204.34 170.084 Q2207.72 170.084 2209.66 167.422 Q2211.61 164.737 2211.61 160.038 Q2211.61 155.339 2209.66 152.677 Q2207.72 149.992 2204.34 149.992 Q2200.96 149.992 2199.02 152.677 Q2197.09 155.339 2197.09 160.038 Z" fill="#000000" fill-rule="evenodd" fill-opacity="1" /><path clip-path="url(#clip790)" d="M 0 0 M2219.66 137.006 L2223.37 137.006 Q2226.84 142.468 2228.55 147.7 Q2230.29 152.931 2230.29 158.093 Q2230.29 163.279 2228.55 168.533 Q2226.84 173.788 2223.37 179.228 L2219.66 179.228 Q2222.74 173.927 2224.25 168.695 Q2225.77 163.441 2225.77 158.093 Q2225.77 152.746 2224.25 147.538 Q2222.74 142.33 2219.66 137.006 Z" fill="#000000" fill-rule="evenodd" fill-opacity="1" /><polyline clip-path="url(#clip790)" style="stroke:#e26f46; stroke-width:4; stroke-opacity:1; fill:none" points="
  1652.35,216.178 1799.32,216.178 
  "/>
<path clip-path="url(#clip790)" d="M 0 0 M1844.32 208.527 L1844.32 212.509 Q1842.51 211.513 1840.68 211.027 Q1838.88 210.518 1837.03 210.518 Q1832.88 210.518 1830.59 213.157 Q1828.3 215.772 1828.3 220.518 Q1828.3 225.263 1830.59 227.902 Q1832.88 230.518 1837.03 230.518 Q1838.88 230.518 1840.68 230.032 Q1842.51 229.522 1844.32 228.527 L1844.32 232.462 Q1842.54 233.296 1840.61 233.712 Q1838.72 234.129 1836.56 234.129 Q1830.71 234.129 1827.26 230.448 Q1823.81 226.768 1823.81 220.518 Q1823.81 214.175 1827.28 210.541 Q1830.78 206.907 1836.84 206.907 Q1838.81 206.907 1840.68 207.323 Q1842.56 207.717 1844.32 208.527 Z" fill="#000000" fill-rule="evenodd" fill-opacity="1" /><path clip-path="url(#clip790)" d="M 0 0 M1870.96 219.43 L1870.96 221.513 L1851.38 221.513 Q1851.66 225.911 1854.02 228.226 Q1856.4 230.518 1860.64 230.518 Q1863.09 230.518 1865.38 229.916 Q1867.7 229.314 1869.97 228.11 L1869.97 232.138 Q1867.67 233.11 1865.27 233.62 Q1862.86 234.129 1860.38 234.129 Q1854.18 234.129 1850.54 230.518 Q1846.93 226.907 1846.93 220.749 Q1846.93 214.384 1850.36 210.657 Q1853.81 206.907 1859.64 206.907 Q1864.87 206.907 1867.91 210.286 Q1870.96 213.643 1870.96 219.43 M1866.7 218.18 Q1866.66 214.685 1864.73 212.601 Q1862.84 210.518 1859.69 210.518 Q1856.12 210.518 1853.97 212.532 Q1851.84 214.546 1851.52 218.203 L1866.7 218.18 Z" fill="#000000" fill-rule="evenodd" fill-opacity="1" /><path clip-path="url(#clip790)" d="M 0 0 M1896.98 217.809 L1896.98 233.458 L1892.72 233.458 L1892.72 217.948 Q1892.72 214.268 1891.29 212.439 Q1889.85 210.61 1886.98 210.61 Q1883.53 210.61 1881.54 212.81 Q1879.55 215.009 1879.55 218.805 L1879.55 233.458 L1875.27 233.458 L1875.27 207.532 L1879.55 207.532 L1879.55 211.56 Q1881.08 209.222 1883.14 208.064 Q1885.22 206.907 1887.93 206.907 Q1892.4 206.907 1894.69 209.685 Q1896.98 212.439 1896.98 217.809 Z" fill="#000000" fill-rule="evenodd" fill-opacity="1" /><path clip-path="url(#clip790)" d="M 0 0 M1905.66 200.171 L1905.66 207.532 L1914.43 207.532 L1914.43 210.842 L1905.66 210.842 L1905.66 224.916 Q1905.66 228.087 1906.52 228.99 Q1907.4 229.893 1910.06 229.893 L1914.43 229.893 L1914.43 233.458 L1910.06 233.458 Q1905.13 233.458 1903.25 231.629 Q1901.38 229.777 1901.38 224.916 L1901.38 210.842 L1898.25 210.842 L1898.25 207.532 L1901.38 207.532 L1901.38 200.171 L1905.66 200.171 Z" fill="#000000" fill-rule="evenodd" fill-opacity="1" /></svg>
